%TF.GenerationSoftware,KiCad,Pcbnew,8.0.6-8.0.6-0~ubuntu24.04.1*%
%TF.CreationDate,2024-11-07T20:30:54+01:00*%
%TF.ProjectId,NIMH-battery-charger,4e494d48-2d62-4617-9474-6572792d6368,rev?*%
%TF.SameCoordinates,Original*%
%TF.FileFunction,Legend,Top*%
%TF.FilePolarity,Positive*%
%FSLAX46Y46*%
G04 Gerber Fmt 4.6, Leading zero omitted, Abs format (unit mm)*
G04 Created by KiCad (PCBNEW 8.0.6-8.0.6-0~ubuntu24.04.1) date 2024-11-07 20:30:54*
%MOMM*%
%LPD*%
G01*
G04 APERTURE LIST*
%ADD10C,0.100000*%
%ADD11C,0.600000*%
%ADD12C,0.300000*%
G04 APERTURE END LIST*
D10*
X128614285Y-118133609D02*
X128757142Y-118181228D01*
X128757142Y-118181228D02*
X128804761Y-118228847D01*
X128804761Y-118228847D02*
X128852380Y-118324085D01*
X128852380Y-118324085D02*
X128852380Y-118466942D01*
X128852380Y-118466942D02*
X128804761Y-118562180D01*
X128804761Y-118562180D02*
X128757142Y-118609800D01*
X128757142Y-118609800D02*
X128661904Y-118657419D01*
X128661904Y-118657419D02*
X128280952Y-118657419D01*
X128280952Y-118657419D02*
X128280952Y-117657419D01*
X128280952Y-117657419D02*
X128614285Y-117657419D01*
X128614285Y-117657419D02*
X128709523Y-117705038D01*
X128709523Y-117705038D02*
X128757142Y-117752657D01*
X128757142Y-117752657D02*
X128804761Y-117847895D01*
X128804761Y-117847895D02*
X128804761Y-117943133D01*
X128804761Y-117943133D02*
X128757142Y-118038371D01*
X128757142Y-118038371D02*
X128709523Y-118085990D01*
X128709523Y-118085990D02*
X128614285Y-118133609D01*
X128614285Y-118133609D02*
X128280952Y-118133609D01*
X129138095Y-117657419D02*
X129709523Y-117657419D01*
X129423809Y-118657419D02*
X129423809Y-117657419D01*
X129995238Y-117752657D02*
X130042857Y-117705038D01*
X130042857Y-117705038D02*
X130138095Y-117657419D01*
X130138095Y-117657419D02*
X130376190Y-117657419D01*
X130376190Y-117657419D02*
X130471428Y-117705038D01*
X130471428Y-117705038D02*
X130519047Y-117752657D01*
X130519047Y-117752657D02*
X130566666Y-117847895D01*
X130566666Y-117847895D02*
X130566666Y-117943133D01*
X130566666Y-117943133D02*
X130519047Y-118085990D01*
X130519047Y-118085990D02*
X129947619Y-118657419D01*
X129947619Y-118657419D02*
X130566666Y-118657419D01*
D11*
X127266164Y-68201657D02*
X126551878Y-68201657D01*
X126551878Y-68201657D02*
X126551878Y-63915942D01*
X126551878Y-63915942D02*
X127266164Y-63915942D01*
X128409021Y-66058800D02*
X130694736Y-66058800D01*
X129551878Y-67201657D02*
X129551878Y-64915942D01*
X131837593Y-68201657D02*
X132551879Y-68201657D01*
X132551879Y-68201657D02*
X132551879Y-63915942D01*
X132551879Y-63915942D02*
X131837593Y-63915942D01*
X127166164Y-110101657D02*
X126451878Y-110101657D01*
X126451878Y-110101657D02*
X126451878Y-105815942D01*
X126451878Y-105815942D02*
X127166164Y-105815942D01*
X128309021Y-107958800D02*
X130594736Y-107958800D01*
X131737593Y-110101657D02*
X132451879Y-110101657D01*
X132451879Y-110101657D02*
X132451879Y-105815942D01*
X132451879Y-105815942D02*
X131737593Y-105815942D01*
D10*
X161214285Y-118128609D02*
X161357142Y-118176228D01*
X161357142Y-118176228D02*
X161404761Y-118223847D01*
X161404761Y-118223847D02*
X161452380Y-118319085D01*
X161452380Y-118319085D02*
X161452380Y-118461942D01*
X161452380Y-118461942D02*
X161404761Y-118557180D01*
X161404761Y-118557180D02*
X161357142Y-118604800D01*
X161357142Y-118604800D02*
X161261904Y-118652419D01*
X161261904Y-118652419D02*
X160880952Y-118652419D01*
X160880952Y-118652419D02*
X160880952Y-117652419D01*
X160880952Y-117652419D02*
X161214285Y-117652419D01*
X161214285Y-117652419D02*
X161309523Y-117700038D01*
X161309523Y-117700038D02*
X161357142Y-117747657D01*
X161357142Y-117747657D02*
X161404761Y-117842895D01*
X161404761Y-117842895D02*
X161404761Y-117938133D01*
X161404761Y-117938133D02*
X161357142Y-118033371D01*
X161357142Y-118033371D02*
X161309523Y-118080990D01*
X161309523Y-118080990D02*
X161214285Y-118128609D01*
X161214285Y-118128609D02*
X160880952Y-118128609D01*
X161738095Y-117652419D02*
X162309523Y-117652419D01*
X162023809Y-118652419D02*
X162023809Y-117652419D01*
X163071428Y-117985752D02*
X163071428Y-118652419D01*
X162833333Y-117604800D02*
X162595238Y-118319085D01*
X162595238Y-118319085D02*
X163214285Y-118319085D01*
D11*
X159866164Y-68196657D02*
X159151878Y-68196657D01*
X159151878Y-68196657D02*
X159151878Y-63910942D01*
X159151878Y-63910942D02*
X159866164Y-63910942D01*
X161009021Y-66053800D02*
X163294736Y-66053800D01*
X162151878Y-67196657D02*
X162151878Y-64910942D01*
X164437593Y-68196657D02*
X165151879Y-68196657D01*
X165151879Y-68196657D02*
X165151879Y-63910942D01*
X165151879Y-63910942D02*
X164437593Y-63910942D01*
X159766164Y-110096657D02*
X159051878Y-110096657D01*
X159051878Y-110096657D02*
X159051878Y-105810942D01*
X159051878Y-105810942D02*
X159766164Y-105810942D01*
X160909021Y-107953800D02*
X163194736Y-107953800D01*
X164337593Y-110096657D02*
X165051879Y-110096657D01*
X165051879Y-110096657D02*
X165051879Y-105810942D01*
X165051879Y-105810942D02*
X164337593Y-105810942D01*
D10*
X144914285Y-118128609D02*
X145057142Y-118176228D01*
X145057142Y-118176228D02*
X145104761Y-118223847D01*
X145104761Y-118223847D02*
X145152380Y-118319085D01*
X145152380Y-118319085D02*
X145152380Y-118461942D01*
X145152380Y-118461942D02*
X145104761Y-118557180D01*
X145104761Y-118557180D02*
X145057142Y-118604800D01*
X145057142Y-118604800D02*
X144961904Y-118652419D01*
X144961904Y-118652419D02*
X144580952Y-118652419D01*
X144580952Y-118652419D02*
X144580952Y-117652419D01*
X144580952Y-117652419D02*
X144914285Y-117652419D01*
X144914285Y-117652419D02*
X145009523Y-117700038D01*
X145009523Y-117700038D02*
X145057142Y-117747657D01*
X145057142Y-117747657D02*
X145104761Y-117842895D01*
X145104761Y-117842895D02*
X145104761Y-117938133D01*
X145104761Y-117938133D02*
X145057142Y-118033371D01*
X145057142Y-118033371D02*
X145009523Y-118080990D01*
X145009523Y-118080990D02*
X144914285Y-118128609D01*
X144914285Y-118128609D02*
X144580952Y-118128609D01*
X145438095Y-117652419D02*
X146009523Y-117652419D01*
X145723809Y-118652419D02*
X145723809Y-117652419D01*
X146247619Y-117652419D02*
X146866666Y-117652419D01*
X146866666Y-117652419D02*
X146533333Y-118033371D01*
X146533333Y-118033371D02*
X146676190Y-118033371D01*
X146676190Y-118033371D02*
X146771428Y-118080990D01*
X146771428Y-118080990D02*
X146819047Y-118128609D01*
X146819047Y-118128609D02*
X146866666Y-118223847D01*
X146866666Y-118223847D02*
X146866666Y-118461942D01*
X146866666Y-118461942D02*
X146819047Y-118557180D01*
X146819047Y-118557180D02*
X146771428Y-118604800D01*
X146771428Y-118604800D02*
X146676190Y-118652419D01*
X146676190Y-118652419D02*
X146390476Y-118652419D01*
X146390476Y-118652419D02*
X146295238Y-118604800D01*
X146295238Y-118604800D02*
X146247619Y-118557180D01*
D11*
X143466164Y-110096657D02*
X142751878Y-110096657D01*
X142751878Y-110096657D02*
X142751878Y-105810942D01*
X142751878Y-105810942D02*
X143466164Y-105810942D01*
X144609021Y-107953800D02*
X146894736Y-107953800D01*
X148037593Y-110096657D02*
X148751879Y-110096657D01*
X148751879Y-110096657D02*
X148751879Y-105810942D01*
X148751879Y-105810942D02*
X148037593Y-105810942D01*
X143566164Y-68196657D02*
X142851878Y-68196657D01*
X142851878Y-68196657D02*
X142851878Y-63910942D01*
X142851878Y-63910942D02*
X143566164Y-63910942D01*
X144709021Y-66053800D02*
X146994736Y-66053800D01*
X145851878Y-67196657D02*
X145851878Y-64910942D01*
X148137593Y-68196657D02*
X148851879Y-68196657D01*
X148851879Y-68196657D02*
X148851879Y-63910942D01*
X148851879Y-63910942D02*
X148137593Y-63910942D01*
D10*
X112289285Y-118128609D02*
X112432142Y-118176228D01*
X112432142Y-118176228D02*
X112479761Y-118223847D01*
X112479761Y-118223847D02*
X112527380Y-118319085D01*
X112527380Y-118319085D02*
X112527380Y-118461942D01*
X112527380Y-118461942D02*
X112479761Y-118557180D01*
X112479761Y-118557180D02*
X112432142Y-118604800D01*
X112432142Y-118604800D02*
X112336904Y-118652419D01*
X112336904Y-118652419D02*
X111955952Y-118652419D01*
X111955952Y-118652419D02*
X111955952Y-117652419D01*
X111955952Y-117652419D02*
X112289285Y-117652419D01*
X112289285Y-117652419D02*
X112384523Y-117700038D01*
X112384523Y-117700038D02*
X112432142Y-117747657D01*
X112432142Y-117747657D02*
X112479761Y-117842895D01*
X112479761Y-117842895D02*
X112479761Y-117938133D01*
X112479761Y-117938133D02*
X112432142Y-118033371D01*
X112432142Y-118033371D02*
X112384523Y-118080990D01*
X112384523Y-118080990D02*
X112289285Y-118128609D01*
X112289285Y-118128609D02*
X111955952Y-118128609D01*
X112813095Y-117652419D02*
X113384523Y-117652419D01*
X113098809Y-118652419D02*
X113098809Y-117652419D01*
X114241666Y-118652419D02*
X113670238Y-118652419D01*
X113955952Y-118652419D02*
X113955952Y-117652419D01*
X113955952Y-117652419D02*
X113860714Y-117795276D01*
X113860714Y-117795276D02*
X113765476Y-117890514D01*
X113765476Y-117890514D02*
X113670238Y-117938133D01*
D11*
X110841164Y-110096657D02*
X110126878Y-110096657D01*
X110126878Y-110096657D02*
X110126878Y-105810942D01*
X110126878Y-105810942D02*
X110841164Y-105810942D01*
X111984021Y-107953800D02*
X114269736Y-107953800D01*
X115412593Y-110096657D02*
X116126879Y-110096657D01*
X116126879Y-110096657D02*
X116126879Y-105810942D01*
X116126879Y-105810942D02*
X115412593Y-105810942D01*
X110941164Y-68196657D02*
X110226878Y-68196657D01*
X110226878Y-68196657D02*
X110226878Y-63910942D01*
X110226878Y-63910942D02*
X110941164Y-63910942D01*
X112084021Y-66053800D02*
X114369736Y-66053800D01*
X113226878Y-67196657D02*
X113226878Y-64910942D01*
X115512593Y-68196657D02*
X116226879Y-68196657D01*
X116226879Y-68196657D02*
X116226879Y-63910942D01*
X116226879Y-63910942D02*
X115512593Y-63910942D01*
D12*
%TO.C,BT2*%
X121400000Y-57200000D02*
X121400000Y-117200000D01*
X121400000Y-57200000D02*
X124900000Y-57200000D01*
X121400000Y-117200000D02*
X124900000Y-117200000D01*
D10*
X129400000Y-70200000D02*
X129400000Y-104200000D01*
D12*
X137400000Y-57200000D02*
X133900000Y-57200000D01*
X137400000Y-57200000D02*
X137400000Y-117200000D01*
D10*
X137400000Y-70200000D02*
X121400000Y-70200000D01*
X137400000Y-104200000D02*
X121400000Y-104200000D01*
D12*
X137400000Y-117200000D02*
X133900000Y-117200000D01*
%TO.C,BT4*%
X154000000Y-57195000D02*
X154000000Y-117195000D01*
X154000000Y-57195000D02*
X157500000Y-57195000D01*
X154000000Y-117195000D02*
X157500000Y-117195000D01*
D10*
X162000000Y-70195000D02*
X162000000Y-104195000D01*
D12*
X170000000Y-57195000D02*
X166500000Y-57195000D01*
X170000000Y-57195000D02*
X170000000Y-117195000D01*
D10*
X170000000Y-70195000D02*
X154000000Y-70195000D01*
X170000000Y-104195000D02*
X154000000Y-104195000D01*
D12*
X170000000Y-117195000D02*
X166500000Y-117195000D01*
%TO.C,BT3*%
X137700000Y-57195000D02*
X137700000Y-117195000D01*
X137700000Y-57195000D02*
X141200000Y-57195000D01*
X137700000Y-117195000D02*
X141200000Y-117195000D01*
D10*
X145700000Y-70195000D02*
X145700000Y-104195000D01*
D12*
X153700000Y-57195000D02*
X150200000Y-57195000D01*
X153700000Y-57195000D02*
X153700000Y-117195000D01*
D10*
X153700000Y-70195000D02*
X137700000Y-70195000D01*
X153700000Y-104195000D02*
X137700000Y-104195000D01*
D12*
X153700000Y-117195000D02*
X150200000Y-117195000D01*
%TO.C,BT1*%
X105075000Y-57195000D02*
X105075000Y-117195000D01*
X105075000Y-57195000D02*
X108575000Y-57195000D01*
X105075000Y-117195000D02*
X108575000Y-117195000D01*
D10*
X113075000Y-70195000D02*
X113075000Y-104195000D01*
D12*
X121075000Y-57195000D02*
X117575000Y-57195000D01*
X121075000Y-57195000D02*
X121075000Y-117195000D01*
D10*
X121075000Y-70195000D02*
X105075000Y-70195000D01*
X121075000Y-104195000D02*
X105075000Y-104195000D01*
D12*
X121075000Y-117195000D02*
X117575000Y-117195000D01*
%TD*%
M02*
