%TF.GenerationSoftware,KiCad,Pcbnew,8.0.6-8.0.6-0~ubuntu24.04.1*%
%TF.CreationDate,2024-11-07T20:30:54+01:00*%
%TF.ProjectId,NIMH-battery-charger,4e494d48-2d62-4617-9474-6572792d6368,rev?*%
%TF.SameCoordinates,Original*%
%TF.FileFunction,Copper,L2,Bot*%
%TF.FilePolarity,Positive*%
%FSLAX46Y46*%
G04 Gerber Fmt 4.6, Leading zero omitted, Abs format (unit mm)*
G04 Created by KiCad (PCBNEW 8.0.6-8.0.6-0~ubuntu24.04.1) date 2024-11-07 20:30:54*
%MOMM*%
%LPD*%
G01*
G04 APERTURE LIST*
G04 Aperture macros list*
%AMRoundRect*
0 Rectangle with rounded corners*
0 $1 Rounding radius*
0 $2 $3 $4 $5 $6 $7 $8 $9 X,Y pos of 4 corners*
0 Add a 4 corners polygon primitive as box body*
4,1,4,$2,$3,$4,$5,$6,$7,$8,$9,$2,$3,0*
0 Add four circle primitives for the rounded corners*
1,1,$1+$1,$2,$3*
1,1,$1+$1,$4,$5*
1,1,$1+$1,$6,$7*
1,1,$1+$1,$8,$9*
0 Add four rect primitives between the rounded corners*
20,1,$1+$1,$2,$3,$4,$5,0*
20,1,$1+$1,$4,$5,$6,$7,0*
20,1,$1+$1,$6,$7,$8,$9,0*
20,1,$1+$1,$8,$9,$2,$3,0*%
G04 Aperture macros list end*
%TA.AperFunction,ComponentPad*%
%ADD10C,3.000000*%
%TD*%
%TA.AperFunction,SMDPad,CuDef*%
%ADD11RoundRect,0.250000X-0.450000X0.350000X-0.450000X-0.350000X0.450000X-0.350000X0.450000X0.350000X0*%
%TD*%
%TA.AperFunction,SMDPad,CuDef*%
%ADD12RoundRect,0.070000X-0.280000X-0.530000X0.280000X-0.530000X0.280000X0.530000X-0.280000X0.530000X0*%
%TD*%
%TA.AperFunction,SMDPad,CuDef*%
%ADD13RoundRect,0.076000X-0.304000X-0.524000X0.304000X-0.524000X0.304000X0.524000X-0.304000X0.524000X0*%
%TD*%
%TA.AperFunction,SMDPad,CuDef*%
%ADD14RoundRect,0.080000X-0.320000X-0.520000X0.320000X-0.520000X0.320000X0.520000X-0.320000X0.520000X0*%
%TD*%
%TA.AperFunction,ComponentPad*%
%ADD15O,1.100000X2.100000*%
%TD*%
%TA.AperFunction,ComponentPad*%
%ADD16O,1.100000X1.700000*%
%TD*%
%TA.AperFunction,SMDPad,CuDef*%
%ADD17RoundRect,0.190000X0.685000X-0.285000X0.685000X0.285000X-0.685000X0.285000X-0.685000X-0.285000X0*%
%TD*%
%TA.AperFunction,SMDPad,CuDef*%
%ADD18C,1.500000*%
%TD*%
%TA.AperFunction,SMDPad,CuDef*%
%ADD19RoundRect,0.250000X0.337500X0.475000X-0.337500X0.475000X-0.337500X-0.475000X0.337500X-0.475000X0*%
%TD*%
%TA.AperFunction,SMDPad,CuDef*%
%ADD20RoundRect,0.250000X0.450000X-0.350000X0.450000X0.350000X-0.450000X0.350000X-0.450000X-0.350000X0*%
%TD*%
%TA.AperFunction,SMDPad,CuDef*%
%ADD21RoundRect,0.250000X0.250000X-0.250000X0.250000X0.250000X-0.250000X0.250000X-0.250000X-0.250000X0*%
%TD*%
%TA.AperFunction,SMDPad,CuDef*%
%ADD22O,10.000000X5.000000*%
%TD*%
%TA.AperFunction,SMDPad,CuDef*%
%ADD23RoundRect,0.250000X-0.475000X0.337500X-0.475000X-0.337500X0.475000X-0.337500X0.475000X0.337500X0*%
%TD*%
%TA.AperFunction,SMDPad,CuDef*%
%ADD24RoundRect,0.050000X-0.050000X0.375000X-0.050000X-0.375000X0.050000X-0.375000X0.050000X0.375000X0*%
%TD*%
%TA.AperFunction,SMDPad,CuDef*%
%ADD25RoundRect,0.050000X-0.375000X0.050000X-0.375000X-0.050000X0.375000X-0.050000X0.375000X0.050000X0*%
%TD*%
%TA.AperFunction,HeatsinkPad*%
%ADD26R,1.650000X1.650000*%
%TD*%
%TA.AperFunction,SMDPad,CuDef*%
%ADD27R,2.500000X1.000000*%
%TD*%
%TA.AperFunction,Conductor*%
%ADD28C,0.381000*%
%TD*%
G04 APERTURE END LIST*
D10*
%TO.P,BT2,1,+*%
%TO.N,/ADC2*%
X129400000Y-111700000D03*
%TO.P,BT2,2,-*%
%TO.N,GND*%
X129400000Y-62700000D03*
%TD*%
%TO.P,BT4,1,+*%
%TO.N,/ADC4*%
X162000000Y-111695000D03*
%TO.P,BT4,2,-*%
%TO.N,GND*%
X162000000Y-62695000D03*
%TD*%
%TO.P,BT3,1,+*%
%TO.N,/ADC3*%
X145700000Y-111695000D03*
%TO.P,BT3,2,-*%
%TO.N,GND*%
X145700000Y-62695000D03*
%TD*%
%TO.P,BT1,1,+*%
%TO.N,/ADC1*%
X113075000Y-111695000D03*
%TO.P,BT1,2,-*%
%TO.N,GND*%
X113075000Y-62695000D03*
%TD*%
D11*
%TO.P,R2,1*%
%TO.N,Net-(D2-K)*%
X123100000Y-52900000D03*
%TO.P,R2,2*%
%TO.N,/ADC2*%
X123100000Y-54900000D03*
%TD*%
%TO.P,R1,1*%
%TO.N,Net-(D1-K)*%
X119975000Y-52900000D03*
%TO.P,R1,2*%
%TO.N,/ADC1*%
X119975000Y-54900000D03*
%TD*%
D12*
%TO.P,J7,A5,CC1*%
%TO.N,unconnected-(J7-CC1-PadA5)*%
X137080000Y-50580000D03*
D13*
%TO.P,J7,A9,VBUS*%
%TO.N,+5V*%
X139110000Y-50580000D03*
D14*
%TO.P,J7,A12,GND*%
%TO.N,GND*%
X140340000Y-50580000D03*
D12*
%TO.P,J7,B5,CC2*%
%TO.N,unconnected-(J7-CC2-PadB5)*%
X138080000Y-50580000D03*
D13*
%TO.P,J7,B9,VBUS*%
%TO.N,+5V*%
X136050000Y-50580000D03*
D14*
%TO.P,J7,B12,GND*%
%TO.N,GND*%
X134830000Y-50580000D03*
D15*
%TO.P,J7,S1,SHIELD*%
X131950000Y-45620000D03*
D16*
X131950000Y-49620000D03*
D15*
X143230000Y-45610000D03*
D16*
X143230000Y-49620000D03*
%TD*%
D17*
%TO.P,D7,1,K*%
%TO.N,/LED3*%
X137250000Y-56400000D03*
%TO.P,D7,2,A*%
%TO.N,Net-(D7-A)*%
X137250000Y-53300000D03*
%TD*%
D18*
%TO.P,TP3,1,1*%
%TO.N,Net-(U1-PC3)*%
X137600000Y-74875000D03*
%TD*%
D11*
%TO.P,R8,1*%
%TO.N,+5V*%
X134000000Y-53950000D03*
%TO.P,R8,2*%
%TO.N,Net-(D7-A)*%
X134000000Y-55950000D03*
%TD*%
%TO.P,R5,1*%
%TO.N,Net-(D4-K)*%
X155550000Y-52850000D03*
%TO.P,R5,2*%
%TO.N,/ADC4*%
X155550000Y-54850000D03*
%TD*%
D19*
%TO.P,C1,1*%
%TO.N,VDD*%
X138525000Y-59405000D03*
%TO.P,C1,2*%
%TO.N,GND*%
X136450000Y-59405000D03*
%TD*%
D20*
%TO.P,R6,1*%
%TO.N,+5V*%
X117650000Y-50950000D03*
%TO.P,R6,2*%
%TO.N,Net-(D5-A)*%
X117650000Y-48950000D03*
%TD*%
D21*
%TO.P,D1,1,K*%
%TO.N,Net-(D1-K)*%
X119975000Y-51000000D03*
%TO.P,D1,2,A*%
%TO.N,+5V*%
X119975000Y-48500000D03*
%TD*%
%TO.P,D3,1,K*%
%TO.N,Net-(D3-K)*%
X152187500Y-51053500D03*
%TO.P,D3,2,A*%
%TO.N,+5V*%
X152187500Y-48553500D03*
%TD*%
D22*
%TO.P,J3,1,Pin_1*%
%TO.N,+5V*%
X165000000Y-58000000D03*
%TD*%
D17*
%TO.P,D6,1,K*%
%TO.N,/LED2*%
X129450000Y-51650000D03*
%TO.P,D6,2,A*%
%TO.N,Net-(D6-A)*%
X129450000Y-48550000D03*
%TD*%
D22*
%TO.P,J5,1,Pin_1*%
%TO.N,+5V*%
X110000000Y-57800000D03*
%TD*%
D11*
%TO.P,R4,1*%
%TO.N,Net-(D3-K)*%
X152175000Y-52850000D03*
%TO.P,R4,2*%
%TO.N,/ADC3*%
X152175000Y-54850000D03*
%TD*%
D23*
%TO.P,C2,1*%
%TO.N,+5V*%
X143550000Y-53900000D03*
%TO.P,C2,2*%
%TO.N,GND*%
X143550000Y-55975000D03*
%TD*%
D22*
%TO.P,J4,1,Pin_1*%
%TO.N,GND*%
X165000000Y-116700000D03*
%TD*%
D17*
%TO.P,D5,1,K*%
%TO.N,/LED1*%
X113300000Y-51700000D03*
%TO.P,D5,2,A*%
%TO.N,Net-(D5-A)*%
X113300000Y-48600000D03*
%TD*%
D21*
%TO.P,D9,1,K*%
%TO.N,VDD*%
X140675000Y-56175000D03*
%TO.P,D9,2,A*%
%TO.N,+5V*%
X140675000Y-53675000D03*
%TD*%
D17*
%TO.P,D8,1,K*%
%TO.N,/LED4*%
X145700000Y-51650000D03*
%TO.P,D8,2,A*%
%TO.N,Net-(D8-A)*%
X145700000Y-48550000D03*
%TD*%
D18*
%TO.P,TP4,1,1*%
%TO.N,Net-(U1-PC5_SCK)*%
X137600000Y-78425000D03*
%TD*%
D24*
%TO.P,U1,1,PD7_NRST_T2CH4*%
%TO.N,/LED1*%
X136690000Y-65040000D03*
%TO.P,U1,2,PA1_A1_T1CH2_OSCI*%
%TO.N,/LED2*%
X137090000Y-65040000D03*
%TO.P,U1,3,PA2_A0_T1CH2N_OSCO*%
%TO.N,/LED3*%
X137490000Y-65040000D03*
%TO.P,U1,4,vss*%
%TO.N,GND*%
X137890000Y-65040000D03*
%TO.P,U1,5,PD0_T1CH1N*%
%TO.N,/LED4*%
X138290000Y-65040000D03*
D25*
%TO.P,U1,6,VDD*%
%TO.N,VDD*%
X138940000Y-65690000D03*
%TO.P,U1,7,PC0_T2CH3*%
%TO.N,/LED0*%
X138940000Y-66090000D03*
%TO.P,U1,8,PC1_SDA*%
%TO.N,Net-(U1-PC1_SDA)*%
X138940000Y-66490000D03*
%TO.P,U1,9,PC2_SCL*%
%TO.N,Net-(U1-PC2_SCL)*%
X138940000Y-66890000D03*
%TO.P,U1,10,PC3*%
%TO.N,Net-(U1-PC3)*%
X138940000Y-67290000D03*
D24*
%TO.P,U1,11,PC4_A2_T1CH4*%
%TO.N,/ADC1*%
X138290000Y-67940000D03*
%TO.P,U1,12,PC5_SCK*%
%TO.N,Net-(U1-PC5_SCK)*%
X137890000Y-67940000D03*
%TO.P,U1,13,PC6_MOSI*%
%TO.N,Net-(U1-PC6_MOSI)*%
X137490000Y-67940000D03*
%TO.P,U1,14,PC7_MISO*%
%TO.N,Net-(U1-PC7_MISO)*%
X137090000Y-67940000D03*
%TO.P,U1,15,SWIO&PD1_T1CH3N*%
%TO.N,/SWIO*%
X136690000Y-67940000D03*
D25*
%TO.P,U1,16,PD2_A3_T2CH1*%
%TO.N,/ADC2*%
X136040000Y-67290000D03*
%TO.P,U1,17,PD2_A4_T1CH2*%
%TO.N,/ADC3*%
X136040000Y-66890000D03*
%TO.P,U1,18,PD4_A7_T2AETR2*%
%TO.N,/ADC4*%
X136040000Y-66490000D03*
%TO.P,U1,19,PD5_A5_UART_TX*%
%TO.N,/UART_TX*%
X136040000Y-66090000D03*
%TO.P,U1,20,PD6_A6_UART_RX*%
%TO.N,/UART_RX*%
X136040000Y-65690000D03*
D26*
%TO.P,U1,21*%
%TO.N,N/C*%
X137490000Y-66490000D03*
%TD*%
D18*
%TO.P,TP6,1,1*%
%TO.N,Net-(U1-PC7_MISO)*%
X134050000Y-78425000D03*
%TD*%
D21*
%TO.P,D2,1,K*%
%TO.N,Net-(D2-K)*%
X123050000Y-51000000D03*
%TO.P,D2,2,A*%
%TO.N,+5V*%
X123050000Y-48500000D03*
%TD*%
D22*
%TO.P,J6,1,Pin_1*%
%TO.N,GND*%
X110000000Y-116000000D03*
%TD*%
D20*
%TO.P,R9,1*%
%TO.N,+5V*%
X149950000Y-50750000D03*
%TO.P,R9,2*%
%TO.N,Net-(D8-A)*%
X149950000Y-48750000D03*
%TD*%
D17*
%TO.P,D10,1,K*%
%TO.N,/LED0*%
X162150000Y-51650000D03*
%TO.P,D10,2,A*%
%TO.N,Net-(D10-A)*%
X162150000Y-48550000D03*
%TD*%
D21*
%TO.P,D4,1,K*%
%TO.N,Net-(D4-K)*%
X155562500Y-51028500D03*
%TO.P,D4,2,A*%
%TO.N,+5V*%
X155562500Y-48528500D03*
%TD*%
D18*
%TO.P,TP1,1,1*%
%TO.N,Net-(U1-PC1_SDA)*%
X141150000Y-74875000D03*
%TD*%
%TO.P,TP5,1,1*%
%TO.N,Net-(U1-PC6_MOSI)*%
X134050000Y-74875000D03*
%TD*%
D20*
%TO.P,R7,1*%
%TO.N,+5V*%
X125350000Y-50700000D03*
%TO.P,R7,2*%
%TO.N,Net-(D6-A)*%
X125350000Y-48700000D03*
%TD*%
D18*
%TO.P,TP2,1,1*%
%TO.N,Net-(U1-PC2_SCL)*%
X141150000Y-78425000D03*
%TD*%
D20*
%TO.P,R10,1*%
%TO.N,+5V*%
X157850000Y-50850000D03*
%TO.P,R10,2*%
%TO.N,Net-(D10-A)*%
X157850000Y-48850000D03*
%TD*%
D27*
%TO.P,J1,1,Pin_1*%
%TO.N,/SWIO*%
X149500000Y-71690000D03*
%TO.P,J1,2,Pin_2*%
%TO.N,VDD*%
X149500000Y-69150000D03*
%TO.P,J1,3,Pin_3*%
%TO.N,GND*%
X149500000Y-66610000D03*
%TD*%
D28*
%TO.N,Net-(D5-A)*%
X116350000Y-48950000D02*
X115959500Y-48559500D01*
X115959500Y-48559500D02*
X113300000Y-48559500D01*
X117650000Y-48950000D02*
X116350000Y-48950000D01*
%TD*%
%TA.AperFunction,Conductor*%
%TO.N,GND*%
G36*
X132392501Y-44560387D02*
G01*
X132438276Y-44613174D01*
X132449500Y-44664727D01*
X132449500Y-49694108D01*
X132449500Y-49760000D01*
X132449500Y-49849391D01*
X132452248Y-49862319D01*
X132483638Y-50010001D01*
X132486671Y-50024267D01*
X132559388Y-50187593D01*
X132664474Y-50332230D01*
X132664475Y-50332231D01*
X132664476Y-50332232D01*
X132664478Y-50332235D01*
X132723588Y-50385457D01*
X132797335Y-50451859D01*
X132952165Y-50541250D01*
X132952167Y-50541250D01*
X132952170Y-50541252D01*
X133037181Y-50568873D01*
X133122197Y-50596497D01*
X133300000Y-50615185D01*
X133477803Y-50596497D01*
X133647835Y-50541250D01*
X133802665Y-50451859D01*
X133935526Y-50332230D01*
X133950504Y-50311613D01*
X134005834Y-50268949D01*
X134050822Y-50260500D01*
X135045500Y-50260500D01*
X135112539Y-50280185D01*
X135158294Y-50332989D01*
X135169500Y-50384500D01*
X135169500Y-51141791D01*
X135184335Y-51254488D01*
X135184338Y-51254497D01*
X135242426Y-51394735D01*
X135242427Y-51394737D01*
X135242428Y-51394738D01*
X135334835Y-51515165D01*
X135455262Y-51607572D01*
X135595503Y-51665662D01*
X135708211Y-51680500D01*
X136391788Y-51680499D01*
X136391791Y-51680499D01*
X136504493Y-51665663D01*
X136504494Y-51665662D01*
X136504497Y-51665662D01*
X136530142Y-51655038D01*
X136599611Y-51647569D01*
X136625050Y-51655038D01*
X136651070Y-51665816D01*
X136762606Y-51680500D01*
X136762613Y-51680500D01*
X137397387Y-51680500D01*
X137397394Y-51680500D01*
X137508930Y-51665816D01*
X137532548Y-51656032D01*
X137602016Y-51648564D01*
X137627448Y-51656031D01*
X137651070Y-51665816D01*
X137762606Y-51680500D01*
X137762613Y-51680500D01*
X138397387Y-51680500D01*
X138397394Y-51680500D01*
X138508930Y-51665816D01*
X138534947Y-51655038D01*
X138604417Y-51647569D01*
X138629852Y-51655036D01*
X138655503Y-51665662D01*
X138768211Y-51680500D01*
X139451788Y-51680499D01*
X139451791Y-51680499D01*
X139564488Y-51665664D01*
X139564492Y-51665662D01*
X139564497Y-51665662D01*
X139704738Y-51607572D01*
X139825165Y-51515165D01*
X139917572Y-51394738D01*
X139975662Y-51254497D01*
X139990500Y-51141789D01*
X139990499Y-50384499D01*
X140010183Y-50317461D01*
X140062987Y-50271706D01*
X140114499Y-50260500D01*
X141149178Y-50260500D01*
X141216217Y-50280185D01*
X141249496Y-50311614D01*
X141264475Y-50332231D01*
X141265317Y-50332989D01*
X141397335Y-50451859D01*
X141552165Y-50541250D01*
X141552167Y-50541250D01*
X141552170Y-50541252D01*
X141637181Y-50568873D01*
X141722197Y-50596497D01*
X141900000Y-50615185D01*
X142077803Y-50596497D01*
X142247835Y-50541250D01*
X142402665Y-50451859D01*
X142515654Y-50350123D01*
X142535521Y-50332235D01*
X142535521Y-50332233D01*
X142535526Y-50332230D01*
X142640612Y-50187593D01*
X142713329Y-50024267D01*
X142716479Y-50009448D01*
X144249500Y-50009448D01*
X144249500Y-50190551D01*
X144277829Y-50369410D01*
X144333787Y-50541636D01*
X144333788Y-50541639D01*
X144389359Y-50650700D01*
X144414477Y-50699998D01*
X144416006Y-50702997D01*
X144473606Y-50782278D01*
X144497086Y-50848084D01*
X144481260Y-50916138D01*
X144470896Y-50931640D01*
X144467453Y-50936033D01*
X144380710Y-51079526D01*
X144380710Y-51079527D01*
X144380709Y-51079529D01*
X144361308Y-51141788D01*
X144330822Y-51239623D01*
X144324500Y-51309201D01*
X144324500Y-51990808D01*
X144330821Y-52060376D01*
X144330823Y-52060383D01*
X144380708Y-52220470D01*
X144380709Y-52220472D01*
X144467454Y-52363967D01*
X144467457Y-52363971D01*
X144586028Y-52482542D01*
X144586032Y-52482545D01*
X144668738Y-52532542D01*
X144729529Y-52569291D01*
X144889620Y-52619177D01*
X144959199Y-52625500D01*
X146440800Y-52625499D01*
X146440807Y-52625499D01*
X146510375Y-52619178D01*
X146510378Y-52619177D01*
X146510380Y-52619177D01*
X146670471Y-52569291D01*
X146813972Y-52482542D01*
X146932542Y-52363972D01*
X147019291Y-52220471D01*
X147069177Y-52060380D01*
X147075500Y-51990801D01*
X147075499Y-51309200D01*
X147075499Y-51309199D01*
X147075499Y-51309191D01*
X147069178Y-51239623D01*
X147069176Y-51239616D01*
X147019291Y-51079529D01*
X147019290Y-51079527D01*
X146932547Y-50936034D01*
X146929108Y-50931646D01*
X146903252Y-50866736D01*
X146916594Y-50798152D01*
X146926388Y-50782284D01*
X146983996Y-50702994D01*
X147066211Y-50541639D01*
X147122171Y-50369409D01*
X147138082Y-50268949D01*
X147150500Y-50190551D01*
X147150500Y-50009448D01*
X147130090Y-49880589D01*
X147122171Y-49830591D01*
X147087422Y-49723642D01*
X147066212Y-49658363D01*
X147066211Y-49658360D01*
X147020504Y-49568657D01*
X146983996Y-49497006D01*
X146962719Y-49467720D01*
X146926393Y-49417721D01*
X146902913Y-49351915D01*
X146918739Y-49283861D01*
X146929111Y-49268349D01*
X146932534Y-49263979D01*
X146932542Y-49263972D01*
X146935246Y-49259500D01*
X146969523Y-49202797D01*
X147019291Y-49120471D01*
X147069177Y-48960380D01*
X147075500Y-48890801D01*
X147075499Y-48349983D01*
X148749500Y-48349983D01*
X148749500Y-49150001D01*
X148749501Y-49150019D01*
X148760000Y-49252796D01*
X148760001Y-49252799D01*
X148815185Y-49419331D01*
X148815186Y-49419334D01*
X148903402Y-49562356D01*
X148907289Y-49568657D01*
X149000951Y-49662319D01*
X149034436Y-49723642D01*
X149029452Y-49793334D01*
X149000951Y-49837681D01*
X148907289Y-49931342D01*
X148815187Y-50080663D01*
X148815185Y-50080668D01*
X148798393Y-50131344D01*
X148760001Y-50247203D01*
X148760001Y-50247204D01*
X148760000Y-50247204D01*
X148749500Y-50349983D01*
X148749500Y-51150001D01*
X148749501Y-51150019D01*
X148760000Y-51252796D01*
X148760001Y-51252799D01*
X148809706Y-51402796D01*
X148815186Y-51419334D01*
X148907288Y-51568656D01*
X149031344Y-51692712D01*
X149180666Y-51784814D01*
X149347203Y-51839999D01*
X149449991Y-51850500D01*
X150450008Y-51850499D01*
X150450016Y-51850498D01*
X150450019Y-51850498D01*
X150526238Y-51842712D01*
X150552797Y-51839999D01*
X150719334Y-51784814D01*
X150868656Y-51692712D01*
X150992712Y-51568656D01*
X151010551Y-51539734D01*
X151062495Y-51493010D01*
X151131457Y-51481786D01*
X151195540Y-51509628D01*
X151233794Y-51565825D01*
X151252682Y-51622825D01*
X151252689Y-51622840D01*
X151315695Y-51724989D01*
X151334135Y-51792381D01*
X151313212Y-51859045D01*
X151275257Y-51895621D01*
X151256346Y-51907286D01*
X151256343Y-51907288D01*
X151132289Y-52031342D01*
X151040187Y-52180663D01*
X151040185Y-52180668D01*
X151023617Y-52230668D01*
X150985001Y-52347203D01*
X150985001Y-52347204D01*
X150985000Y-52347204D01*
X150974500Y-52449983D01*
X150974500Y-53250001D01*
X150974501Y-53250019D01*
X150985000Y-53352796D01*
X150985001Y-53352799D01*
X151040185Y-53519331D01*
X151040187Y-53519336D01*
X151071024Y-53569331D01*
X151115111Y-53640808D01*
X151132289Y-53668657D01*
X151225951Y-53762319D01*
X151259436Y-53823642D01*
X151254452Y-53893334D01*
X151225951Y-53937681D01*
X151132289Y-54031342D01*
X151040187Y-54180663D01*
X151040185Y-54180668D01*
X151023617Y-54230668D01*
X150985001Y-54347203D01*
X150985001Y-54347204D01*
X150985000Y-54347204D01*
X150974500Y-54449983D01*
X150974500Y-55250001D01*
X150974501Y-55250019D01*
X150985000Y-55352796D01*
X150985001Y-55352799D01*
X151040185Y-55519331D01*
X151040187Y-55519336D01*
X151064759Y-55559174D01*
X151132288Y-55668656D01*
X151256344Y-55792712D01*
X151405666Y-55884814D01*
X151572203Y-55939999D01*
X151674991Y-55950500D01*
X152675008Y-55950499D01*
X152675016Y-55950498D01*
X152675019Y-55950498D01*
X152731302Y-55944748D01*
X152777797Y-55939999D01*
X152944334Y-55884814D01*
X153093656Y-55792712D01*
X153217712Y-55668656D01*
X153309814Y-55519334D01*
X153364999Y-55352797D01*
X153375500Y-55250009D01*
X153375499Y-54449992D01*
X153364999Y-54347203D01*
X153309814Y-54180666D01*
X153217712Y-54031344D01*
X153124049Y-53937681D01*
X153090564Y-53876358D01*
X153095548Y-53806666D01*
X153124049Y-53762319D01*
X153167712Y-53718656D01*
X153217712Y-53668656D01*
X153309814Y-53519334D01*
X153364999Y-53352797D01*
X153375500Y-53250009D01*
X153375499Y-52449992D01*
X153375498Y-52449983D01*
X154349500Y-52449983D01*
X154349500Y-53250001D01*
X154349501Y-53250019D01*
X154360000Y-53352796D01*
X154360001Y-53352799D01*
X154415185Y-53519331D01*
X154415187Y-53519336D01*
X154446024Y-53569331D01*
X154490111Y-53640808D01*
X154507289Y-53668657D01*
X154600951Y-53762319D01*
X154634436Y-53823642D01*
X154629452Y-53893334D01*
X154600951Y-53937681D01*
X154507289Y-54031342D01*
X154415187Y-54180663D01*
X154415185Y-54180668D01*
X154398617Y-54230668D01*
X154360001Y-54347203D01*
X154360001Y-54347204D01*
X154360000Y-54347204D01*
X154349500Y-54449983D01*
X154349500Y-55250001D01*
X154349501Y-55250019D01*
X154360000Y-55352796D01*
X154360001Y-55352799D01*
X154415185Y-55519331D01*
X154415187Y-55519336D01*
X154439759Y-55559174D01*
X154507288Y-55668656D01*
X154631344Y-55792712D01*
X154780666Y-55884814D01*
X154947203Y-55939999D01*
X155049991Y-55950500D01*
X156050008Y-55950499D01*
X156050016Y-55950498D01*
X156050019Y-55950498D01*
X156106302Y-55944748D01*
X156152797Y-55939999D01*
X156319334Y-55884814D01*
X156468656Y-55792712D01*
X156592712Y-55668656D01*
X156684814Y-55519334D01*
X156739999Y-55352797D01*
X156750500Y-55250009D01*
X156750499Y-54449992D01*
X156739999Y-54347203D01*
X156684814Y-54180666D01*
X156592712Y-54031344D01*
X156499049Y-53937681D01*
X156465564Y-53876358D01*
X156470548Y-53806666D01*
X156499049Y-53762319D01*
X156542712Y-53718656D01*
X156592712Y-53668656D01*
X156684814Y-53519334D01*
X156739999Y-53352797D01*
X156750500Y-53250009D01*
X156750499Y-52449992D01*
X156746819Y-52413971D01*
X156739999Y-52347203D01*
X156739998Y-52347200D01*
X156734571Y-52330822D01*
X156684814Y-52180666D01*
X156592712Y-52031344D01*
X156468656Y-51907288D01*
X156468655Y-51907287D01*
X156456685Y-51899904D01*
X156409961Y-51847955D01*
X156398740Y-51778993D01*
X156416243Y-51729271D01*
X156497314Y-51597834D01*
X156506733Y-51569406D01*
X156546506Y-51511963D01*
X156611021Y-51485140D01*
X156679797Y-51497455D01*
X156729976Y-51543313D01*
X156807288Y-51668656D01*
X156931344Y-51792712D01*
X157080666Y-51884814D01*
X157247203Y-51939999D01*
X157349991Y-51950500D01*
X158350008Y-51950499D01*
X158350016Y-51950498D01*
X158350019Y-51950498D01*
X158406302Y-51944748D01*
X158452797Y-51939999D01*
X158619334Y-51884814D01*
X158768656Y-51792712D01*
X158892712Y-51668656D01*
X158984814Y-51519334D01*
X159039999Y-51352797D01*
X159050500Y-51250009D01*
X159050499Y-50449992D01*
X159042267Y-50369410D01*
X159039999Y-50347203D01*
X159039998Y-50347200D01*
X159017791Y-50280185D01*
X158984814Y-50180666D01*
X158892712Y-50031344D01*
X158870816Y-50009448D01*
X160699500Y-50009448D01*
X160699500Y-50190551D01*
X160727829Y-50369410D01*
X160783787Y-50541636D01*
X160783788Y-50541639D01*
X160839359Y-50650700D01*
X160864477Y-50699998D01*
X160866006Y-50702997D01*
X160923606Y-50782278D01*
X160947086Y-50848084D01*
X160931260Y-50916138D01*
X160920896Y-50931640D01*
X160917453Y-50936033D01*
X160830710Y-51079526D01*
X160830710Y-51079527D01*
X160830709Y-51079529D01*
X160811308Y-51141788D01*
X160780822Y-51239623D01*
X160774500Y-51309201D01*
X160774500Y-51990808D01*
X160780821Y-52060376D01*
X160780823Y-52060383D01*
X160830708Y-52220470D01*
X160830709Y-52220472D01*
X160917454Y-52363967D01*
X160917457Y-52363971D01*
X161036028Y-52482542D01*
X161036032Y-52482545D01*
X161118738Y-52532542D01*
X161179529Y-52569291D01*
X161339620Y-52619177D01*
X161409199Y-52625500D01*
X162890800Y-52625499D01*
X162890807Y-52625499D01*
X162960375Y-52619178D01*
X162960378Y-52619177D01*
X162960380Y-52619177D01*
X163120471Y-52569291D01*
X163263972Y-52482542D01*
X163382542Y-52363972D01*
X163469291Y-52220471D01*
X163519177Y-52060380D01*
X163525500Y-51990801D01*
X163525499Y-51309200D01*
X163525499Y-51309199D01*
X163525499Y-51309191D01*
X163519178Y-51239623D01*
X163519176Y-51239616D01*
X163469291Y-51079529D01*
X163469290Y-51079527D01*
X163382547Y-50936034D01*
X163379108Y-50931646D01*
X163353252Y-50866736D01*
X163366594Y-50798152D01*
X163376388Y-50782284D01*
X163433996Y-50702994D01*
X163516211Y-50541639D01*
X163572171Y-50369409D01*
X163588082Y-50268949D01*
X163600500Y-50190551D01*
X163600500Y-50009448D01*
X163580090Y-49880589D01*
X163572171Y-49830591D01*
X163537422Y-49723642D01*
X163516212Y-49658363D01*
X163516211Y-49658360D01*
X163470504Y-49568657D01*
X163433996Y-49497006D01*
X163412719Y-49467720D01*
X163376393Y-49417721D01*
X163352913Y-49351915D01*
X163368739Y-49283861D01*
X163379111Y-49268349D01*
X163382534Y-49263979D01*
X163382542Y-49263972D01*
X163385246Y-49259500D01*
X163419523Y-49202797D01*
X163469291Y-49120471D01*
X163519177Y-48960380D01*
X163525500Y-48890801D01*
X163525499Y-48209200D01*
X163525499Y-48209199D01*
X163525499Y-48209191D01*
X163519178Y-48139623D01*
X163519176Y-48139616D01*
X163469291Y-47979529D01*
X163469290Y-47979527D01*
X163382545Y-47836032D01*
X163382542Y-47836028D01*
X163263971Y-47717457D01*
X163263967Y-47717454D01*
X163120473Y-47630710D01*
X163120472Y-47630709D01*
X163120471Y-47630709D01*
X162960380Y-47580823D01*
X162960378Y-47580822D01*
X162960376Y-47580822D01*
X162911662Y-47576395D01*
X162890801Y-47574500D01*
X162890798Y-47574500D01*
X161409191Y-47574500D01*
X161339624Y-47580821D01*
X161339616Y-47580823D01*
X161179529Y-47630708D01*
X161179527Y-47630709D01*
X161036032Y-47717454D01*
X161036028Y-47717457D01*
X160917457Y-47836028D01*
X160917454Y-47836032D01*
X160830710Y-47979526D01*
X160830710Y-47979527D01*
X160830709Y-47979529D01*
X160814775Y-48030663D01*
X160780822Y-48139623D01*
X160774500Y-48209201D01*
X160774500Y-48890808D01*
X160780821Y-48960376D01*
X160780823Y-48960383D01*
X160830708Y-49120470D01*
X160830709Y-49120472D01*
X160917455Y-49263969D01*
X160920892Y-49268355D01*
X160946747Y-49333265D01*
X160933404Y-49401849D01*
X160923607Y-49417720D01*
X160866005Y-49497003D01*
X160783788Y-49658360D01*
X160783787Y-49658363D01*
X160727829Y-49830589D01*
X160699500Y-50009448D01*
X158870816Y-50009448D01*
X158799049Y-49937681D01*
X158765564Y-49876358D01*
X158770548Y-49806666D01*
X158799049Y-49762319D01*
X158837726Y-49723642D01*
X158892712Y-49668656D01*
X158984814Y-49519334D01*
X159039999Y-49352797D01*
X159050500Y-49250009D01*
X159050499Y-48449992D01*
X159039999Y-48347203D01*
X158984814Y-48180666D01*
X158892712Y-48031344D01*
X158768656Y-47907288D01*
X158653131Y-47836032D01*
X158619336Y-47815187D01*
X158619331Y-47815185D01*
X158595499Y-47807288D01*
X158452797Y-47760001D01*
X158452795Y-47760000D01*
X158350010Y-47749500D01*
X157349998Y-47749500D01*
X157349980Y-47749501D01*
X157247203Y-47760000D01*
X157247200Y-47760001D01*
X157080668Y-47815185D01*
X157080663Y-47815187D01*
X156931342Y-47907289D01*
X156807288Y-48031343D01*
X156807285Y-48031347D01*
X156760802Y-48106708D01*
X156708854Y-48153433D01*
X156639892Y-48164654D01*
X156575810Y-48136811D01*
X156537558Y-48080615D01*
X156497314Y-47959166D01*
X156405212Y-47809844D01*
X156281156Y-47685788D01*
X156158285Y-47610001D01*
X156131836Y-47593687D01*
X156131831Y-47593685D01*
X156093010Y-47580821D01*
X155965297Y-47538501D01*
X155965295Y-47538500D01*
X155862510Y-47528000D01*
X155262498Y-47528000D01*
X155262480Y-47528001D01*
X155159703Y-47538500D01*
X155159700Y-47538501D01*
X154993168Y-47593685D01*
X154993163Y-47593687D01*
X154843842Y-47685789D01*
X154719789Y-47809842D01*
X154627687Y-47959163D01*
X154627685Y-47959168D01*
X154601875Y-48037058D01*
X154572501Y-48125703D01*
X154572501Y-48125704D01*
X154572500Y-48125704D01*
X154562000Y-48228483D01*
X154562000Y-48828501D01*
X154562001Y-48828519D01*
X154572500Y-48931296D01*
X154572501Y-48931299D01*
X154627685Y-49097831D01*
X154627687Y-49097836D01*
X154641649Y-49120472D01*
X154719788Y-49247156D01*
X154843844Y-49371212D01*
X154993166Y-49463314D01*
X155159703Y-49518499D01*
X155262491Y-49529000D01*
X155862508Y-49528999D01*
X155862516Y-49528998D01*
X155862519Y-49528998D01*
X155918802Y-49523248D01*
X155965297Y-49518499D01*
X156131834Y-49463314D01*
X156281156Y-49371212D01*
X156405212Y-49247156D01*
X156422767Y-49218693D01*
X156474714Y-49171969D01*
X156543676Y-49160746D01*
X156607759Y-49188589D01*
X156646616Y-49246657D01*
X156651664Y-49271188D01*
X156660001Y-49352797D01*
X156660001Y-49352799D01*
X156693137Y-49452795D01*
X156715186Y-49519334D01*
X156803379Y-49662319D01*
X156807289Y-49668657D01*
X156900951Y-49762319D01*
X156934436Y-49823642D01*
X156929452Y-49893334D01*
X156900951Y-49937681D01*
X156807289Y-50031342D01*
X156715187Y-50180663D01*
X156715186Y-50180666D01*
X156662654Y-50339196D01*
X156622881Y-50396640D01*
X156558365Y-50423463D01*
X156489589Y-50411148D01*
X156439409Y-50365287D01*
X156437069Y-50361494D01*
X156405212Y-50309844D01*
X156281156Y-50185788D01*
X156131834Y-50093686D01*
X155965297Y-50038501D01*
X155965295Y-50038500D01*
X155862510Y-50028000D01*
X155262498Y-50028000D01*
X155262480Y-50028001D01*
X155159703Y-50038500D01*
X155159700Y-50038501D01*
X154993168Y-50093685D01*
X154993163Y-50093687D01*
X154843842Y-50185789D01*
X154719789Y-50309842D01*
X154627687Y-50459163D01*
X154627685Y-50459168D01*
X154619403Y-50484163D01*
X154572501Y-50625703D01*
X154572501Y-50625704D01*
X154572500Y-50625704D01*
X154562000Y-50728483D01*
X154562000Y-51328501D01*
X154562001Y-51328519D01*
X154572500Y-51431296D01*
X154572501Y-51431299D01*
X154627685Y-51597831D01*
X154627689Y-51597840D01*
X154701866Y-51718100D01*
X154720306Y-51785492D01*
X154699383Y-51852155D01*
X154661425Y-51888733D01*
X154643315Y-51899904D01*
X154631342Y-51907289D01*
X154507289Y-52031342D01*
X154415187Y-52180663D01*
X154415185Y-52180668D01*
X154398617Y-52230668D01*
X154360001Y-52347203D01*
X154360001Y-52347204D01*
X154360000Y-52347204D01*
X154349500Y-52449983D01*
X153375498Y-52449983D01*
X153371819Y-52413971D01*
X153364999Y-52347203D01*
X153364998Y-52347200D01*
X153359571Y-52330822D01*
X153309814Y-52180666D01*
X153217712Y-52031344D01*
X153093656Y-51907288D01*
X153093652Y-51907285D01*
X153092856Y-51906794D01*
X153092424Y-51906314D01*
X153087989Y-51902807D01*
X153088588Y-51902049D01*
X153046131Y-51854846D01*
X153034910Y-51785884D01*
X153052412Y-51736162D01*
X153122314Y-51622834D01*
X153177499Y-51456297D01*
X153188000Y-51353509D01*
X153187999Y-50753492D01*
X153187948Y-50752997D01*
X153177499Y-50650703D01*
X153177498Y-50650700D01*
X153159537Y-50596497D01*
X153122314Y-50484166D01*
X153030212Y-50334844D01*
X152906156Y-50210788D01*
X152756834Y-50118686D01*
X152590297Y-50063501D01*
X152590295Y-50063500D01*
X152487510Y-50053000D01*
X151887498Y-50053000D01*
X151887480Y-50053001D01*
X151784703Y-50063500D01*
X151784700Y-50063501D01*
X151618168Y-50118685D01*
X151618163Y-50118687D01*
X151468845Y-50210787D01*
X151351622Y-50328010D01*
X151290299Y-50361494D01*
X151220607Y-50356510D01*
X151164674Y-50314638D01*
X151140583Y-50252923D01*
X151139999Y-50247203D01*
X151084814Y-50080666D01*
X150992712Y-49931344D01*
X150899049Y-49837681D01*
X150865564Y-49776358D01*
X150870548Y-49706666D01*
X150899049Y-49662319D01*
X150943146Y-49618222D01*
X150992712Y-49568656D01*
X151084814Y-49419334D01*
X151123752Y-49301826D01*
X151163523Y-49244383D01*
X151228039Y-49217560D01*
X151296815Y-49229875D01*
X151338469Y-49267942D01*
X151340307Y-49266489D01*
X151344788Y-49272156D01*
X151468844Y-49396212D01*
X151618166Y-49488314D01*
X151784703Y-49543499D01*
X151887491Y-49554000D01*
X152487508Y-49553999D01*
X152487516Y-49553998D01*
X152487519Y-49553998D01*
X152555995Y-49547003D01*
X152590297Y-49543499D01*
X152756834Y-49488314D01*
X152906156Y-49396212D01*
X153030212Y-49272156D01*
X153122314Y-49122834D01*
X153177499Y-48956297D01*
X153188000Y-48853509D01*
X153187999Y-48253492D01*
X153183474Y-48209199D01*
X153177499Y-48150703D01*
X153177498Y-48150700D01*
X153171084Y-48131344D01*
X153122314Y-47984166D01*
X153030212Y-47834844D01*
X152906156Y-47710788D01*
X152806792Y-47649500D01*
X152756836Y-47618687D01*
X152756831Y-47618685D01*
X152730621Y-47610000D01*
X152590297Y-47563501D01*
X152590295Y-47563500D01*
X152487510Y-47553000D01*
X151887498Y-47553000D01*
X151887480Y-47553001D01*
X151784703Y-47563500D01*
X151784700Y-47563501D01*
X151618168Y-47618685D01*
X151618163Y-47618687D01*
X151468842Y-47710789D01*
X151344789Y-47834842D01*
X151252683Y-47984170D01*
X151251977Y-47985686D01*
X151251215Y-47986550D01*
X151248895Y-47990313D01*
X151248252Y-47989916D01*
X151205804Y-48038124D01*
X151138610Y-48057275D01*
X151071729Y-48037058D01*
X151034057Y-47998376D01*
X151026763Y-47986550D01*
X150992712Y-47931344D01*
X150868656Y-47807288D01*
X150719334Y-47715186D01*
X150552797Y-47660001D01*
X150552795Y-47660000D01*
X150450010Y-47649500D01*
X149449998Y-47649500D01*
X149449980Y-47649501D01*
X149347203Y-47660000D01*
X149347200Y-47660001D01*
X149180668Y-47715185D01*
X149180663Y-47715187D01*
X149031342Y-47807289D01*
X148907289Y-47931342D01*
X148815187Y-48080663D01*
X148815185Y-48080668D01*
X148791979Y-48150700D01*
X148760001Y-48247203D01*
X148760001Y-48247204D01*
X148760000Y-48247204D01*
X148749500Y-48349983D01*
X147075499Y-48349983D01*
X147075499Y-48209200D01*
X147075499Y-48209199D01*
X147075499Y-48209191D01*
X147069178Y-48139623D01*
X147069176Y-48139616D01*
X147019291Y-47979529D01*
X147019290Y-47979527D01*
X146932545Y-47836032D01*
X146932542Y-47836028D01*
X146813971Y-47717457D01*
X146813967Y-47717454D01*
X146670473Y-47630710D01*
X146670472Y-47630709D01*
X146670471Y-47630709D01*
X146510380Y-47580823D01*
X146510378Y-47580822D01*
X146510376Y-47580822D01*
X146461662Y-47576395D01*
X146440801Y-47574500D01*
X146440798Y-47574500D01*
X144959191Y-47574500D01*
X144889624Y-47580821D01*
X144889616Y-47580823D01*
X144729529Y-47630708D01*
X144729527Y-47630709D01*
X144586032Y-47717454D01*
X144586028Y-47717457D01*
X144467457Y-47836028D01*
X144467454Y-47836032D01*
X144380710Y-47979526D01*
X144380710Y-47979527D01*
X144380709Y-47979529D01*
X144364775Y-48030663D01*
X144330822Y-48139623D01*
X144324500Y-48209201D01*
X144324500Y-48890808D01*
X144330821Y-48960376D01*
X144330823Y-48960383D01*
X144380708Y-49120470D01*
X144380709Y-49120472D01*
X144467455Y-49263969D01*
X144470892Y-49268355D01*
X144496747Y-49333265D01*
X144483404Y-49401849D01*
X144473607Y-49417720D01*
X144416005Y-49497003D01*
X144333788Y-49658360D01*
X144333787Y-49658363D01*
X144277829Y-49830589D01*
X144249500Y-50009448D01*
X142716479Y-50009448D01*
X142750500Y-49849391D01*
X142750500Y-49760000D01*
X142750500Y-49694108D01*
X142750500Y-44664727D01*
X142770185Y-44597689D01*
X142822989Y-44551934D01*
X142874543Y-44540728D01*
X169425634Y-44550471D01*
X169426040Y-44550500D01*
X169434108Y-44550500D01*
X169493038Y-44550500D01*
X169506922Y-44551280D01*
X169517141Y-44552431D01*
X169597266Y-44561459D01*
X169624331Y-44567636D01*
X169703540Y-44595352D01*
X169728553Y-44607398D01*
X169799606Y-44652043D01*
X169821313Y-44669355D01*
X169880644Y-44728686D01*
X169897957Y-44750395D01*
X169942600Y-44821444D01*
X169954648Y-44846462D01*
X169982362Y-44925666D01*
X169988540Y-44952735D01*
X169998720Y-45043076D01*
X169999500Y-45056961D01*
X169999500Y-45121988D01*
X169999502Y-45122033D01*
X169999906Y-55967977D01*
X169980224Y-56035018D01*
X169927422Y-56080774D01*
X169858264Y-56090721D01*
X169794707Y-56061698D01*
X169778959Y-56045295D01*
X169740825Y-55997477D01*
X169502522Y-55759174D01*
X169389017Y-55668657D01*
X169239039Y-55549054D01*
X168953686Y-55369754D01*
X168953683Y-55369752D01*
X168650054Y-55223532D01*
X168331965Y-55112227D01*
X168331953Y-55112223D01*
X168003397Y-55037233D01*
X168003381Y-55037231D01*
X167668508Y-54999500D01*
X167668504Y-54999500D01*
X162331496Y-54999500D01*
X162331491Y-54999500D01*
X161996618Y-55037231D01*
X161996602Y-55037233D01*
X161668046Y-55112223D01*
X161668034Y-55112227D01*
X161349945Y-55223532D01*
X161046316Y-55369752D01*
X160760962Y-55549053D01*
X160497477Y-55759174D01*
X160259174Y-55997477D01*
X160049053Y-56260962D01*
X159869752Y-56546316D01*
X159723532Y-56849945D01*
X159612227Y-57168034D01*
X159612223Y-57168046D01*
X159537233Y-57496602D01*
X159537231Y-57496618D01*
X159499500Y-57831491D01*
X159499500Y-58168508D01*
X159537231Y-58503381D01*
X159537233Y-58503397D01*
X159612223Y-58831953D01*
X159612227Y-58831965D01*
X159723532Y-59150054D01*
X159869752Y-59453683D01*
X159869754Y-59453686D01*
X160049054Y-59739039D01*
X160201329Y-59929986D01*
X160214792Y-59946869D01*
X160259175Y-60002523D01*
X160497477Y-60240825D01*
X160760961Y-60450946D01*
X161045921Y-60629999D01*
X161046316Y-60630247D01*
X161127223Y-60669210D01*
X161179082Y-60716032D01*
X161197395Y-60783459D01*
X161176347Y-60850083D01*
X161132848Y-60889762D01*
X160915961Y-61008191D01*
X160915953Y-61008196D01*
X160773437Y-61114882D01*
X160773436Y-61114883D01*
X161870591Y-62212037D01*
X161807007Y-62229075D01*
X161692993Y-62294901D01*
X161599901Y-62387993D01*
X161534075Y-62502007D01*
X161517037Y-62565590D01*
X160419883Y-61468436D01*
X160419882Y-61468437D01*
X160313196Y-61610953D01*
X160313191Y-61610961D01*
X160176091Y-61862041D01*
X160076109Y-62130104D01*
X160015300Y-62409637D01*
X159994891Y-62694998D01*
X159994891Y-62695001D01*
X160015300Y-62980362D01*
X160076109Y-63259895D01*
X160176091Y-63527958D01*
X160313191Y-63779038D01*
X160313196Y-63779046D01*
X160419882Y-63921561D01*
X160419883Y-63921562D01*
X161517037Y-62824408D01*
X161534075Y-62887993D01*
X161599901Y-63002007D01*
X161692993Y-63095099D01*
X161807007Y-63160925D01*
X161870590Y-63177962D01*
X160773436Y-64275115D01*
X160915960Y-64381807D01*
X160915961Y-64381808D01*
X161167042Y-64518908D01*
X161167041Y-64518908D01*
X161435104Y-64618890D01*
X161714637Y-64679699D01*
X161999999Y-64700109D01*
X162000001Y-64700109D01*
X162285362Y-64679699D01*
X162564895Y-64618890D01*
X162832958Y-64518908D01*
X163084047Y-64381803D01*
X163226561Y-64275116D01*
X163226562Y-64275115D01*
X162129410Y-63177962D01*
X162192993Y-63160925D01*
X162307007Y-63095099D01*
X162400099Y-63002007D01*
X162465925Y-62887993D01*
X162482962Y-62824409D01*
X163580115Y-63921562D01*
X163580116Y-63921561D01*
X163686803Y-63779047D01*
X163823908Y-63527958D01*
X163923890Y-63259895D01*
X163984699Y-62980362D01*
X164005109Y-62695001D01*
X164005109Y-62694998D01*
X163984699Y-62409637D01*
X163923890Y-62130104D01*
X163823908Y-61862041D01*
X163686808Y-61610961D01*
X163686807Y-61610960D01*
X163580115Y-61468436D01*
X162482962Y-62565589D01*
X162465925Y-62502007D01*
X162400099Y-62387993D01*
X162307007Y-62294901D01*
X162192993Y-62229075D01*
X162129409Y-62212037D01*
X163233382Y-61108063D01*
X163242735Y-61065072D01*
X163292141Y-61015667D01*
X163351567Y-61000500D01*
X167668507Y-61000500D01*
X167668507Y-61000499D01*
X168003394Y-60962767D01*
X168331954Y-60887776D01*
X168650051Y-60776469D01*
X168953686Y-60630246D01*
X169239039Y-60450946D01*
X169502523Y-60240825D01*
X169740825Y-60002523D01*
X169779108Y-59954516D01*
X169836296Y-59914375D01*
X169906107Y-59911524D01*
X169966378Y-59946869D01*
X169997972Y-60009188D01*
X170000056Y-60031823D01*
X170002090Y-114671518D01*
X169982408Y-114738559D01*
X169929606Y-114784315D01*
X169860448Y-114794262D01*
X169796891Y-114765239D01*
X169781143Y-114748836D01*
X169740451Y-114697810D01*
X169502189Y-114459548D01*
X169238747Y-114249461D01*
X168953440Y-114070191D01*
X168649862Y-113923995D01*
X168331826Y-113812709D01*
X168331814Y-113812705D01*
X168003313Y-113737727D01*
X168003297Y-113737725D01*
X167668480Y-113700000D01*
X165250000Y-113700000D01*
X165250000Y-119700000D01*
X167668479Y-119700000D01*
X167668480Y-119699999D01*
X168003297Y-119662274D01*
X168003313Y-119662272D01*
X168331814Y-119587294D01*
X168331826Y-119587290D01*
X168649862Y-119476004D01*
X168953440Y-119329808D01*
X169238747Y-119150538D01*
X169502189Y-118940451D01*
X169740453Y-118702187D01*
X169740454Y-118702185D01*
X169781292Y-118650976D01*
X169838479Y-118610835D01*
X169908291Y-118607983D01*
X169968561Y-118643328D01*
X170000156Y-118705646D01*
X170002240Y-118728282D01*
X170002392Y-122795934D01*
X170001612Y-122809822D01*
X169991434Y-122900158D01*
X169985256Y-122927229D01*
X169957542Y-123006433D01*
X169945494Y-123031451D01*
X169900851Y-123102500D01*
X169883538Y-123124209D01*
X169824209Y-123183538D01*
X169802500Y-123200851D01*
X169731451Y-123245494D01*
X169706433Y-123257542D01*
X169627229Y-123285256D01*
X169600158Y-123291434D01*
X169509820Y-123301612D01*
X169495937Y-123302392D01*
X169429410Y-123302392D01*
X169429394Y-123302393D01*
X105570606Y-123302393D01*
X105570590Y-123302392D01*
X105504062Y-123302392D01*
X105490179Y-123301612D01*
X105399841Y-123291434D01*
X105372770Y-123285256D01*
X105293566Y-123257542D01*
X105268548Y-123245494D01*
X105197499Y-123200851D01*
X105175790Y-123183538D01*
X105116461Y-123124209D01*
X105099148Y-123102500D01*
X105054505Y-123031451D01*
X105042457Y-123006433D01*
X105014743Y-122927229D01*
X105008565Y-122900159D01*
X105008565Y-122900158D01*
X104998386Y-122809811D01*
X104997607Y-122795943D01*
X104998220Y-118028845D01*
X105017913Y-117961812D01*
X105070723Y-117916064D01*
X105139883Y-117906129D01*
X105203435Y-117935162D01*
X105219168Y-117951553D01*
X105259549Y-118002190D01*
X105497810Y-118240451D01*
X105761252Y-118450538D01*
X106046559Y-118629808D01*
X106350137Y-118776004D01*
X106668173Y-118887290D01*
X106668185Y-118887294D01*
X106996686Y-118962272D01*
X106996702Y-118962274D01*
X107331519Y-118999999D01*
X107331521Y-119000000D01*
X109750000Y-119000000D01*
X110250000Y-119000000D01*
X112668479Y-119000000D01*
X112668480Y-118999999D01*
X113003297Y-118962274D01*
X113003313Y-118962272D01*
X113331814Y-118887294D01*
X113331826Y-118887290D01*
X113649862Y-118776004D01*
X113953440Y-118629808D01*
X114238747Y-118450538D01*
X114502189Y-118240451D01*
X114740451Y-118002189D01*
X114950538Y-117738747D01*
X115129808Y-117453440D01*
X115276004Y-117149862D01*
X115345939Y-116950000D01*
X159509185Y-116950000D01*
X159537724Y-117203295D01*
X159537727Y-117203313D01*
X159612705Y-117531814D01*
X159612709Y-117531826D01*
X159723995Y-117849862D01*
X159870191Y-118153440D01*
X160049461Y-118438747D01*
X160259548Y-118702189D01*
X160497810Y-118940451D01*
X160761252Y-119150538D01*
X161046559Y-119329808D01*
X161350137Y-119476004D01*
X161668173Y-119587290D01*
X161668185Y-119587294D01*
X161996686Y-119662272D01*
X161996702Y-119662274D01*
X162331519Y-119699999D01*
X162331521Y-119700000D01*
X164750000Y-119700000D01*
X164750000Y-116950000D01*
X159509185Y-116950000D01*
X115345939Y-116950000D01*
X115387290Y-116831826D01*
X115387294Y-116831814D01*
X115462272Y-116503313D01*
X115462275Y-116503295D01*
X115468280Y-116449999D01*
X159509185Y-116449999D01*
X159509185Y-116450000D01*
X164750000Y-116450000D01*
X164750000Y-113700000D01*
X162988184Y-113700000D01*
X162921145Y-113680315D01*
X162875390Y-113627511D01*
X162865446Y-113558353D01*
X162894471Y-113494797D01*
X162928757Y-113467168D01*
X163033584Y-113409926D01*
X163084315Y-113382226D01*
X163313395Y-113210739D01*
X163515739Y-113008395D01*
X163687226Y-112779315D01*
X163824367Y-112528161D01*
X163924369Y-112260046D01*
X163985196Y-111980428D01*
X164005610Y-111695000D01*
X163985196Y-111409572D01*
X163925458Y-111134962D01*
X163924371Y-111129962D01*
X163924370Y-111129960D01*
X163924369Y-111129954D01*
X163824367Y-110861839D01*
X163687226Y-110610685D01*
X163687224Y-110610682D01*
X163515745Y-110381612D01*
X163515729Y-110381594D01*
X163313405Y-110179270D01*
X163313387Y-110179254D01*
X163084317Y-110007775D01*
X163084309Y-110007770D01*
X162833166Y-109870635D01*
X162833167Y-109870635D01*
X162578443Y-109775628D01*
X162565046Y-109770631D01*
X162565043Y-109770630D01*
X162565037Y-109770628D01*
X162285433Y-109709804D01*
X162000001Y-109689390D01*
X161999999Y-109689390D01*
X161714566Y-109709804D01*
X161434962Y-109770628D01*
X161166833Y-109870635D01*
X160915690Y-110007770D01*
X160915682Y-110007775D01*
X160686612Y-110179254D01*
X160686594Y-110179270D01*
X160484270Y-110381594D01*
X160484254Y-110381612D01*
X160312775Y-110610682D01*
X160312770Y-110610690D01*
X160175635Y-110861833D01*
X160075628Y-111129962D01*
X160014804Y-111409566D01*
X159994390Y-111694998D01*
X159994390Y-111695001D01*
X160014804Y-111980433D01*
X160075628Y-112260037D01*
X160175635Y-112528166D01*
X160312770Y-112779309D01*
X160312775Y-112779317D01*
X160484254Y-113008387D01*
X160484270Y-113008405D01*
X160686594Y-113210729D01*
X160686612Y-113210745D01*
X160915682Y-113382224D01*
X160915690Y-113382229D01*
X161166833Y-113519364D01*
X161166832Y-113519364D01*
X161166836Y-113519365D01*
X161166839Y-113519367D01*
X161434954Y-113619369D01*
X161490698Y-113631495D01*
X161552020Y-113664979D01*
X161585506Y-113726301D01*
X161580522Y-113795993D01*
X161538652Y-113851927D01*
X161505296Y-113869702D01*
X161350134Y-113923996D01*
X161046559Y-114070191D01*
X160761252Y-114249461D01*
X160497810Y-114459548D01*
X160259548Y-114697810D01*
X160049461Y-114961252D01*
X159870191Y-115246559D01*
X159723995Y-115550137D01*
X159612709Y-115868173D01*
X159612705Y-115868185D01*
X159537727Y-116196686D01*
X159537724Y-116196704D01*
X159509185Y-116449999D01*
X115468280Y-116449999D01*
X115490814Y-116250000D01*
X110250000Y-116250000D01*
X110250000Y-119000000D01*
X109750000Y-119000000D01*
X109750000Y-113000000D01*
X110250000Y-113000000D01*
X110250000Y-115750000D01*
X115490815Y-115750000D01*
X115490814Y-115749999D01*
X115462275Y-115496704D01*
X115462272Y-115496686D01*
X115387294Y-115168185D01*
X115387290Y-115168173D01*
X115276004Y-114850137D01*
X115129808Y-114546559D01*
X114950538Y-114261252D01*
X114740451Y-113997810D01*
X114502189Y-113759548D01*
X114238743Y-113549458D01*
X114226982Y-113542067D01*
X114180693Y-113489731D01*
X114170047Y-113420677D01*
X114198425Y-113356830D01*
X114218638Y-113337817D01*
X114388395Y-113210739D01*
X114590739Y-113008395D01*
X114762226Y-112779315D01*
X114899367Y-112528161D01*
X114999369Y-112260046D01*
X115060196Y-111980428D01*
X115080253Y-111699998D01*
X127394390Y-111699998D01*
X127394390Y-111700001D01*
X127414804Y-111985433D01*
X127475628Y-112265037D01*
X127575635Y-112533166D01*
X127712770Y-112784309D01*
X127712775Y-112784317D01*
X127884254Y-113013387D01*
X127884270Y-113013405D01*
X128086594Y-113215729D01*
X128086612Y-113215745D01*
X128315682Y-113387224D01*
X128315690Y-113387229D01*
X128566833Y-113524364D01*
X128566832Y-113524364D01*
X128566836Y-113524365D01*
X128566839Y-113524367D01*
X128834954Y-113624369D01*
X128834960Y-113624370D01*
X128834962Y-113624371D01*
X129114566Y-113685195D01*
X129114568Y-113685195D01*
X129114572Y-113685196D01*
X129368220Y-113703337D01*
X129399999Y-113705610D01*
X129400000Y-113705610D01*
X129400001Y-113705610D01*
X129428595Y-113703564D01*
X129685428Y-113685196D01*
X129708418Y-113680195D01*
X129965037Y-113624371D01*
X129965037Y-113624370D01*
X129965046Y-113624369D01*
X130233161Y-113524367D01*
X130484315Y-113387226D01*
X130713395Y-113215739D01*
X130915739Y-113013395D01*
X131087226Y-112784315D01*
X131224367Y-112533161D01*
X131324369Y-112265046D01*
X131385196Y-111985428D01*
X131405610Y-111700000D01*
X131405252Y-111695001D01*
X131405252Y-111694998D01*
X143694390Y-111694998D01*
X143694390Y-111695001D01*
X143714804Y-111980433D01*
X143775628Y-112260037D01*
X143875635Y-112528166D01*
X144012770Y-112779309D01*
X144012775Y-112779317D01*
X144184254Y-113008387D01*
X144184270Y-113008405D01*
X144386594Y-113210729D01*
X144386612Y-113210745D01*
X144615682Y-113382224D01*
X144615690Y-113382229D01*
X144866833Y-113519364D01*
X144866832Y-113519364D01*
X144866836Y-113519365D01*
X144866839Y-113519367D01*
X145134954Y-113619369D01*
X145134960Y-113619370D01*
X145134962Y-113619371D01*
X145414566Y-113680195D01*
X145414568Y-113680195D01*
X145414572Y-113680196D01*
X145668220Y-113698337D01*
X145699999Y-113700610D01*
X145700000Y-113700610D01*
X145700001Y-113700610D01*
X145728595Y-113698564D01*
X145985428Y-113680196D01*
X146242062Y-113624369D01*
X146265037Y-113619371D01*
X146265037Y-113619370D01*
X146265046Y-113619369D01*
X146533161Y-113519367D01*
X146784315Y-113382226D01*
X147013395Y-113210739D01*
X147215739Y-113008395D01*
X147387226Y-112779315D01*
X147524367Y-112528161D01*
X147624369Y-112260046D01*
X147685196Y-111980428D01*
X147705610Y-111695000D01*
X147685196Y-111409572D01*
X147625458Y-111134962D01*
X147624371Y-111129962D01*
X147624370Y-111129960D01*
X147624369Y-111129954D01*
X147524367Y-110861839D01*
X147387226Y-110610685D01*
X147387224Y-110610682D01*
X147215745Y-110381612D01*
X147215729Y-110381594D01*
X147013405Y-110179270D01*
X147013387Y-110179254D01*
X146784317Y-110007775D01*
X146784309Y-110007770D01*
X146533166Y-109870635D01*
X146533167Y-109870635D01*
X146278443Y-109775628D01*
X146265046Y-109770631D01*
X146265043Y-109770630D01*
X146265037Y-109770628D01*
X145985433Y-109709804D01*
X145700001Y-109689390D01*
X145699999Y-109689390D01*
X145414566Y-109709804D01*
X145134962Y-109770628D01*
X144866833Y-109870635D01*
X144615690Y-110007770D01*
X144615682Y-110007775D01*
X144386612Y-110179254D01*
X144386594Y-110179270D01*
X144184270Y-110381594D01*
X144184254Y-110381612D01*
X144012775Y-110610682D01*
X144012770Y-110610690D01*
X143875635Y-110861833D01*
X143775628Y-111129962D01*
X143714804Y-111409566D01*
X143694390Y-111694998D01*
X131405252Y-111694998D01*
X131401519Y-111642808D01*
X131385196Y-111414572D01*
X131384108Y-111409572D01*
X131324371Y-111134962D01*
X131324370Y-111134960D01*
X131324369Y-111134954D01*
X131224367Y-110866839D01*
X131087226Y-110615685D01*
X131083481Y-110610682D01*
X130915745Y-110386612D01*
X130915729Y-110386594D01*
X130713405Y-110184270D01*
X130713387Y-110184254D01*
X130484317Y-110012775D01*
X130484309Y-110012770D01*
X130233166Y-109875635D01*
X130233167Y-109875635D01*
X130125915Y-109835632D01*
X129965046Y-109775631D01*
X129965043Y-109775630D01*
X129965037Y-109775628D01*
X129685433Y-109714804D01*
X129400001Y-109694390D01*
X129399999Y-109694390D01*
X129114566Y-109714804D01*
X128834962Y-109775628D01*
X128566833Y-109875635D01*
X128315690Y-110012770D01*
X128315682Y-110012775D01*
X128086612Y-110184254D01*
X128086594Y-110184270D01*
X127884270Y-110386594D01*
X127884254Y-110386612D01*
X127712775Y-110615682D01*
X127712770Y-110615690D01*
X127575635Y-110866833D01*
X127475628Y-111134962D01*
X127414804Y-111414566D01*
X127394390Y-111699998D01*
X115080253Y-111699998D01*
X115080610Y-111695000D01*
X115060196Y-111409572D01*
X115000458Y-111134962D01*
X114999371Y-111129962D01*
X114999370Y-111129960D01*
X114999369Y-111129954D01*
X114899367Y-110861839D01*
X114762226Y-110610685D01*
X114762224Y-110610682D01*
X114590745Y-110381612D01*
X114590729Y-110381594D01*
X114388405Y-110179270D01*
X114388387Y-110179254D01*
X114159317Y-110007775D01*
X114159309Y-110007770D01*
X113908166Y-109870635D01*
X113908167Y-109870635D01*
X113653443Y-109775628D01*
X113640046Y-109770631D01*
X113640043Y-109770630D01*
X113640037Y-109770628D01*
X113360433Y-109709804D01*
X113075001Y-109689390D01*
X113074999Y-109689390D01*
X112789566Y-109709804D01*
X112509962Y-109770628D01*
X112241833Y-109870635D01*
X111990690Y-110007770D01*
X111990682Y-110007775D01*
X111761612Y-110179254D01*
X111761594Y-110179270D01*
X111559270Y-110381594D01*
X111559254Y-110381612D01*
X111387775Y-110610682D01*
X111387770Y-110610690D01*
X111250635Y-110861833D01*
X111150628Y-111129962D01*
X111089804Y-111409566D01*
X111069390Y-111694998D01*
X111069390Y-111695001D01*
X111089804Y-111980433D01*
X111150628Y-112260037D01*
X111250635Y-112528166D01*
X111387770Y-112779309D01*
X111387774Y-112779315D01*
X111404524Y-112801691D01*
X111428940Y-112867155D01*
X111414088Y-112935428D01*
X111364682Y-112984833D01*
X111305256Y-113000000D01*
X110250000Y-113000000D01*
X109750000Y-113000000D01*
X107331519Y-113000000D01*
X106996702Y-113037725D01*
X106996686Y-113037727D01*
X106668185Y-113112705D01*
X106668173Y-113112709D01*
X106350137Y-113223995D01*
X106046559Y-113370191D01*
X105761252Y-113549461D01*
X105497810Y-113759548D01*
X105259547Y-113997811D01*
X105219688Y-114047792D01*
X105162499Y-114087932D01*
X105092687Y-114090781D01*
X105032418Y-114055434D01*
X105000826Y-113993115D01*
X104998742Y-113970471D01*
X105000016Y-104060602D01*
X111024500Y-104060602D01*
X111024500Y-104329397D01*
X111059582Y-104595880D01*
X111059583Y-104595885D01*
X111059584Y-104595891D01*
X111094368Y-104725708D01*
X111129152Y-104855524D01*
X111232011Y-105103850D01*
X111232019Y-105103866D01*
X111312830Y-105243832D01*
X111366413Y-105336641D01*
X111366415Y-105336644D01*
X111366416Y-105336645D01*
X111530042Y-105549888D01*
X111530048Y-105549895D01*
X111720104Y-105739951D01*
X111720111Y-105739957D01*
X111726626Y-105744956D01*
X111933359Y-105903587D01*
X112082968Y-105989964D01*
X112166133Y-106037980D01*
X112166149Y-106037988D01*
X112321008Y-106102132D01*
X112414474Y-106140847D01*
X112674109Y-106210416D01*
X112862319Y-106235193D01*
X112940602Y-106245500D01*
X112940603Y-106245500D01*
X113209398Y-106245500D01*
X113269905Y-106237534D01*
X113475891Y-106210416D01*
X113735526Y-106140847D01*
X113922457Y-106063417D01*
X113983850Y-106037988D01*
X113983853Y-106037986D01*
X113983859Y-106037984D01*
X114216641Y-105903587D01*
X114429890Y-105739956D01*
X114619956Y-105549890D01*
X114783587Y-105336641D01*
X114917984Y-105103859D01*
X115020847Y-104855526D01*
X115090416Y-104595891D01*
X115125500Y-104329397D01*
X115125500Y-104065602D01*
X127349500Y-104065602D01*
X127349500Y-104334397D01*
X127384582Y-104600880D01*
X127384583Y-104600885D01*
X127384584Y-104600891D01*
X127384585Y-104600893D01*
X127454152Y-104860524D01*
X127557011Y-105108850D01*
X127557019Y-105108866D01*
X127637830Y-105248832D01*
X127691413Y-105341641D01*
X127691415Y-105341644D01*
X127691416Y-105341645D01*
X127855042Y-105554888D01*
X127855048Y-105554895D01*
X128045104Y-105744951D01*
X128045110Y-105744956D01*
X128258359Y-105908587D01*
X128407968Y-105994964D01*
X128491133Y-106042980D01*
X128491149Y-106042988D01*
X128646008Y-106107132D01*
X128739474Y-106145847D01*
X128999109Y-106215416D01*
X129187319Y-106240193D01*
X129265602Y-106250500D01*
X129265603Y-106250500D01*
X129534398Y-106250500D01*
X129594905Y-106242534D01*
X129800891Y-106215416D01*
X130060526Y-106145847D01*
X130247457Y-106068417D01*
X130308850Y-106042988D01*
X130308853Y-106042986D01*
X130308859Y-106042984D01*
X130541641Y-105908587D01*
X130754890Y-105744956D01*
X130944956Y-105554890D01*
X131108587Y-105341641D01*
X131242984Y-105108859D01*
X131345847Y-104860526D01*
X131415416Y-104600891D01*
X131450500Y-104334397D01*
X131450500Y-104065603D01*
X131449842Y-104060602D01*
X143649500Y-104060602D01*
X143649500Y-104329397D01*
X143684582Y-104595880D01*
X143684583Y-104595885D01*
X143684584Y-104595891D01*
X143719368Y-104725708D01*
X143754152Y-104855524D01*
X143857011Y-105103850D01*
X143857019Y-105103866D01*
X143937830Y-105243832D01*
X143991413Y-105336641D01*
X143991415Y-105336644D01*
X143991416Y-105336645D01*
X144155042Y-105549888D01*
X144155048Y-105549895D01*
X144345104Y-105739951D01*
X144345111Y-105739957D01*
X144351626Y-105744956D01*
X144558359Y-105903587D01*
X144707968Y-105989964D01*
X144791133Y-106037980D01*
X144791149Y-106037988D01*
X144946008Y-106102132D01*
X145039474Y-106140847D01*
X145299109Y-106210416D01*
X145487319Y-106235193D01*
X145565602Y-106245500D01*
X145565603Y-106245500D01*
X145834398Y-106245500D01*
X145894905Y-106237534D01*
X146100891Y-106210416D01*
X146360526Y-106140847D01*
X146547457Y-106063417D01*
X146608850Y-106037988D01*
X146608853Y-106037986D01*
X146608859Y-106037984D01*
X146841641Y-105903587D01*
X147054890Y-105739956D01*
X147244956Y-105549890D01*
X147408587Y-105336641D01*
X147542984Y-105103859D01*
X147645847Y-104855526D01*
X147715416Y-104595891D01*
X147750500Y-104329397D01*
X147750500Y-104060603D01*
X147750500Y-104060602D01*
X159949500Y-104060602D01*
X159949500Y-104329397D01*
X159984582Y-104595880D01*
X159984583Y-104595885D01*
X159984584Y-104595891D01*
X160019368Y-104725708D01*
X160054152Y-104855524D01*
X160157011Y-105103850D01*
X160157019Y-105103866D01*
X160237830Y-105243832D01*
X160291413Y-105336641D01*
X160291415Y-105336644D01*
X160291416Y-105336645D01*
X160455042Y-105549888D01*
X160455048Y-105549895D01*
X160645104Y-105739951D01*
X160645111Y-105739957D01*
X160651626Y-105744956D01*
X160858359Y-105903587D01*
X161007968Y-105989964D01*
X161091133Y-106037980D01*
X161091149Y-106037988D01*
X161246008Y-106102132D01*
X161339474Y-106140847D01*
X161599109Y-106210416D01*
X161787319Y-106235193D01*
X161865602Y-106245500D01*
X161865603Y-106245500D01*
X162134398Y-106245500D01*
X162194905Y-106237534D01*
X162400891Y-106210416D01*
X162660526Y-106140847D01*
X162847457Y-106063417D01*
X162908850Y-106037988D01*
X162908853Y-106037986D01*
X162908859Y-106037984D01*
X163141641Y-105903587D01*
X163354890Y-105739956D01*
X163544956Y-105549890D01*
X163708587Y-105336641D01*
X163842984Y-105103859D01*
X163945847Y-104855526D01*
X164015416Y-104595891D01*
X164050500Y-104329397D01*
X164050500Y-104060603D01*
X164015416Y-103794109D01*
X163945847Y-103534474D01*
X163907132Y-103441008D01*
X163842988Y-103286149D01*
X163842980Y-103286133D01*
X163794964Y-103202968D01*
X163708587Y-103053359D01*
X163641084Y-102965387D01*
X163544957Y-102840111D01*
X163544951Y-102840104D01*
X163354895Y-102650048D01*
X163354888Y-102650042D01*
X163141645Y-102486416D01*
X163141644Y-102486415D01*
X163141641Y-102486413D01*
X163048832Y-102432830D01*
X162908866Y-102352019D01*
X162908850Y-102352011D01*
X162660524Y-102249152D01*
X162530708Y-102214368D01*
X162400891Y-102179584D01*
X162400885Y-102179583D01*
X162400880Y-102179582D01*
X162134398Y-102144500D01*
X162134397Y-102144500D01*
X161865603Y-102144500D01*
X161865602Y-102144500D01*
X161599119Y-102179582D01*
X161599112Y-102179583D01*
X161599109Y-102179584D01*
X161544239Y-102194286D01*
X161339475Y-102249152D01*
X161091149Y-102352011D01*
X161091133Y-102352019D01*
X160858354Y-102486416D01*
X160645111Y-102650042D01*
X160645104Y-102650048D01*
X160455048Y-102840104D01*
X160455042Y-102840111D01*
X160291416Y-103053354D01*
X160157019Y-103286133D01*
X160157011Y-103286149D01*
X160054152Y-103534475D01*
X159984585Y-103794106D01*
X159984582Y-103794119D01*
X159949500Y-104060602D01*
X147750500Y-104060602D01*
X147715416Y-103794109D01*
X147645847Y-103534474D01*
X147607132Y-103441008D01*
X147542988Y-103286149D01*
X147542980Y-103286133D01*
X147494964Y-103202968D01*
X147408587Y-103053359D01*
X147341084Y-102965387D01*
X147244957Y-102840111D01*
X147244951Y-102840104D01*
X147054895Y-102650048D01*
X147054888Y-102650042D01*
X146841645Y-102486416D01*
X146841644Y-102486415D01*
X146841641Y-102486413D01*
X146748832Y-102432830D01*
X146608866Y-102352019D01*
X146608850Y-102352011D01*
X146360524Y-102249152D01*
X146230708Y-102214368D01*
X146100891Y-102179584D01*
X146100885Y-102179583D01*
X146100880Y-102179582D01*
X145834398Y-102144500D01*
X145834397Y-102144500D01*
X145565603Y-102144500D01*
X145565602Y-102144500D01*
X145299119Y-102179582D01*
X145299112Y-102179583D01*
X145299109Y-102179584D01*
X145244239Y-102194286D01*
X145039475Y-102249152D01*
X144791149Y-102352011D01*
X144791133Y-102352019D01*
X144558354Y-102486416D01*
X144345111Y-102650042D01*
X144345104Y-102650048D01*
X144155048Y-102840104D01*
X144155042Y-102840111D01*
X143991416Y-103053354D01*
X143857019Y-103286133D01*
X143857011Y-103286149D01*
X143754152Y-103534475D01*
X143684585Y-103794106D01*
X143684582Y-103794119D01*
X143649500Y-104060602D01*
X131449842Y-104060602D01*
X131415416Y-103799109D01*
X131345847Y-103539474D01*
X131307132Y-103446008D01*
X131242988Y-103291149D01*
X131242980Y-103291133D01*
X131194964Y-103207968D01*
X131108587Y-103058359D01*
X130944956Y-102845110D01*
X130944951Y-102845104D01*
X130754895Y-102655048D01*
X130754888Y-102655042D01*
X130541645Y-102491416D01*
X130541644Y-102491415D01*
X130541641Y-102491413D01*
X130448832Y-102437830D01*
X130308866Y-102357019D01*
X130308850Y-102357011D01*
X130060524Y-102254152D01*
X129930708Y-102219368D01*
X129800891Y-102184584D01*
X129800885Y-102184583D01*
X129800880Y-102184582D01*
X129534398Y-102149500D01*
X129534397Y-102149500D01*
X129265603Y-102149500D01*
X129265602Y-102149500D01*
X128999119Y-102184582D01*
X128999112Y-102184583D01*
X128999109Y-102184584D01*
X128944239Y-102199286D01*
X128739475Y-102254152D01*
X128491149Y-102357011D01*
X128491133Y-102357019D01*
X128258354Y-102491416D01*
X128045111Y-102655042D01*
X128045104Y-102655048D01*
X127855048Y-102845104D01*
X127855042Y-102845111D01*
X127691416Y-103058354D01*
X127557019Y-103291133D01*
X127557011Y-103291149D01*
X127454152Y-103539475D01*
X127384585Y-103799106D01*
X127384582Y-103799119D01*
X127349500Y-104065602D01*
X115125500Y-104065602D01*
X115125500Y-104060603D01*
X115090416Y-103794109D01*
X115020847Y-103534474D01*
X114982132Y-103441008D01*
X114917988Y-103286149D01*
X114917980Y-103286133D01*
X114869964Y-103202968D01*
X114783587Y-103053359D01*
X114716084Y-102965387D01*
X114619957Y-102840111D01*
X114619951Y-102840104D01*
X114429895Y-102650048D01*
X114429888Y-102650042D01*
X114216645Y-102486416D01*
X114216644Y-102486415D01*
X114216641Y-102486413D01*
X114123832Y-102432830D01*
X113983866Y-102352019D01*
X113983850Y-102352011D01*
X113735524Y-102249152D01*
X113605708Y-102214368D01*
X113475891Y-102179584D01*
X113475885Y-102179583D01*
X113475880Y-102179582D01*
X113209398Y-102144500D01*
X113209397Y-102144500D01*
X112940603Y-102144500D01*
X112940602Y-102144500D01*
X112674119Y-102179582D01*
X112674112Y-102179583D01*
X112674109Y-102179584D01*
X112619239Y-102194286D01*
X112414475Y-102249152D01*
X112166149Y-102352011D01*
X112166133Y-102352019D01*
X111933354Y-102486416D01*
X111720111Y-102650042D01*
X111720104Y-102650048D01*
X111530048Y-102840104D01*
X111530042Y-102840111D01*
X111366416Y-103053354D01*
X111232019Y-103286133D01*
X111232011Y-103286149D01*
X111129152Y-103534475D01*
X111059585Y-103794106D01*
X111059582Y-103794119D01*
X111024500Y-104060602D01*
X105000016Y-104060602D01*
X105003313Y-78424997D01*
X132794723Y-78424997D01*
X132794723Y-78425002D01*
X132813793Y-78642975D01*
X132813793Y-78642979D01*
X132870422Y-78854322D01*
X132870424Y-78854326D01*
X132870425Y-78854330D01*
X132916661Y-78953484D01*
X132962897Y-79052638D01*
X132962898Y-79052639D01*
X133088402Y-79231877D01*
X133243123Y-79386598D01*
X133422361Y-79512102D01*
X133620670Y-79604575D01*
X133832023Y-79661207D01*
X134014926Y-79677208D01*
X134049998Y-79680277D01*
X134050000Y-79680277D01*
X134050002Y-79680277D01*
X134078254Y-79677805D01*
X134267977Y-79661207D01*
X134479330Y-79604575D01*
X134677639Y-79512102D01*
X134856877Y-79386598D01*
X135011598Y-79231877D01*
X135137102Y-79052639D01*
X135229575Y-78854330D01*
X135286207Y-78642977D01*
X135305277Y-78425000D01*
X135305277Y-78424997D01*
X136344723Y-78424997D01*
X136344723Y-78425002D01*
X136363793Y-78642975D01*
X136363793Y-78642979D01*
X136420422Y-78854322D01*
X136420424Y-78854326D01*
X136420425Y-78854330D01*
X136466661Y-78953484D01*
X136512897Y-79052638D01*
X136512898Y-79052639D01*
X136638402Y-79231877D01*
X136793123Y-79386598D01*
X136972361Y-79512102D01*
X137170670Y-79604575D01*
X137382023Y-79661207D01*
X137564926Y-79677208D01*
X137599998Y-79680277D01*
X137600000Y-79680277D01*
X137600002Y-79680277D01*
X137628254Y-79677805D01*
X137817977Y-79661207D01*
X138029330Y-79604575D01*
X138227639Y-79512102D01*
X138406877Y-79386598D01*
X138561598Y-79231877D01*
X138687102Y-79052639D01*
X138779575Y-78854330D01*
X138836207Y-78642977D01*
X138855277Y-78425000D01*
X138855277Y-78424997D01*
X139894723Y-78424997D01*
X139894723Y-78425002D01*
X139913793Y-78642975D01*
X139913793Y-78642979D01*
X139970422Y-78854322D01*
X139970424Y-78854326D01*
X139970425Y-78854330D01*
X140016661Y-78953484D01*
X140062897Y-79052638D01*
X140062898Y-79052639D01*
X140188402Y-79231877D01*
X140343123Y-79386598D01*
X140522361Y-79512102D01*
X140720670Y-79604575D01*
X140932023Y-79661207D01*
X141114926Y-79677208D01*
X141149998Y-79680277D01*
X141150000Y-79680277D01*
X141150002Y-79680277D01*
X141178254Y-79677805D01*
X141367977Y-79661207D01*
X141579330Y-79604575D01*
X141777639Y-79512102D01*
X141956877Y-79386598D01*
X142111598Y-79231877D01*
X142237102Y-79052639D01*
X142329575Y-78854330D01*
X142386207Y-78642977D01*
X142405277Y-78425000D01*
X142386207Y-78207023D01*
X142329575Y-77995670D01*
X142237102Y-77797362D01*
X142237100Y-77797359D01*
X142237099Y-77797357D01*
X142111599Y-77618124D01*
X142111596Y-77618121D01*
X141956877Y-77463402D01*
X141777639Y-77337898D01*
X141777640Y-77337898D01*
X141777638Y-77337897D01*
X141678484Y-77291661D01*
X141579330Y-77245425D01*
X141579326Y-77245424D01*
X141579322Y-77245422D01*
X141367977Y-77188793D01*
X141150002Y-77169723D01*
X141149998Y-77169723D01*
X141004682Y-77182436D01*
X140932023Y-77188793D01*
X140932020Y-77188793D01*
X140720677Y-77245422D01*
X140720668Y-77245426D01*
X140522361Y-77337898D01*
X140522357Y-77337900D01*
X140343121Y-77463402D01*
X140188402Y-77618121D01*
X140062900Y-77797357D01*
X140062898Y-77797361D01*
X139970426Y-77995668D01*
X139970422Y-77995677D01*
X139913793Y-78207020D01*
X139913793Y-78207024D01*
X139894723Y-78424997D01*
X138855277Y-78424997D01*
X138836207Y-78207023D01*
X138779575Y-77995670D01*
X138687102Y-77797362D01*
X138687100Y-77797359D01*
X138687099Y-77797357D01*
X138561599Y-77618124D01*
X138561596Y-77618121D01*
X138406877Y-77463402D01*
X138227639Y-77337898D01*
X138227640Y-77337898D01*
X138227638Y-77337897D01*
X138128484Y-77291661D01*
X138029330Y-77245425D01*
X138029326Y-77245424D01*
X138029322Y-77245422D01*
X137817977Y-77188793D01*
X137600002Y-77169723D01*
X137599998Y-77169723D01*
X137454682Y-77182436D01*
X137382023Y-77188793D01*
X137382020Y-77188793D01*
X137170677Y-77245422D01*
X137170668Y-77245426D01*
X136972361Y-77337898D01*
X136972357Y-77337900D01*
X136793121Y-77463402D01*
X136638402Y-77618121D01*
X136512900Y-77797357D01*
X136512898Y-77797361D01*
X136420426Y-77995668D01*
X136420422Y-77995677D01*
X136363793Y-78207020D01*
X136363793Y-78207024D01*
X136344723Y-78424997D01*
X135305277Y-78424997D01*
X135286207Y-78207023D01*
X135229575Y-77995670D01*
X135137102Y-77797362D01*
X135137100Y-77797359D01*
X135137099Y-77797357D01*
X135011599Y-77618124D01*
X135011596Y-77618121D01*
X134856877Y-77463402D01*
X134677639Y-77337898D01*
X134677640Y-77337898D01*
X134677638Y-77337897D01*
X134578484Y-77291661D01*
X134479330Y-77245425D01*
X134479326Y-77245424D01*
X134479322Y-77245422D01*
X134267977Y-77188793D01*
X134050002Y-77169723D01*
X134049998Y-77169723D01*
X133904682Y-77182436D01*
X133832023Y-77188793D01*
X133832020Y-77188793D01*
X133620677Y-77245422D01*
X133620668Y-77245426D01*
X133422361Y-77337898D01*
X133422357Y-77337900D01*
X133243121Y-77463402D01*
X133088402Y-77618121D01*
X132962900Y-77797357D01*
X132962898Y-77797361D01*
X132870426Y-77995668D01*
X132870422Y-77995677D01*
X132813793Y-78207020D01*
X132813793Y-78207024D01*
X132794723Y-78424997D01*
X105003313Y-78424997D01*
X105003770Y-74874997D01*
X132794723Y-74874997D01*
X132794723Y-74875002D01*
X132813793Y-75092975D01*
X132813793Y-75092979D01*
X132870422Y-75304322D01*
X132870424Y-75304326D01*
X132870425Y-75304330D01*
X132916661Y-75403484D01*
X132962897Y-75502638D01*
X132962898Y-75502639D01*
X133088402Y-75681877D01*
X133243123Y-75836598D01*
X133422361Y-75962102D01*
X133620670Y-76054575D01*
X133832023Y-76111207D01*
X134014926Y-76127208D01*
X134049998Y-76130277D01*
X134050000Y-76130277D01*
X134050002Y-76130277D01*
X134078254Y-76127805D01*
X134267977Y-76111207D01*
X134479330Y-76054575D01*
X134677639Y-75962102D01*
X134856877Y-75836598D01*
X135011598Y-75681877D01*
X135137102Y-75502639D01*
X135229575Y-75304330D01*
X135286207Y-75092977D01*
X135305277Y-74875000D01*
X135305277Y-74874997D01*
X136344723Y-74874997D01*
X136344723Y-74875002D01*
X136363793Y-75092975D01*
X136363793Y-75092979D01*
X136420422Y-75304322D01*
X136420424Y-75304326D01*
X136420425Y-75304330D01*
X136466661Y-75403484D01*
X136512897Y-75502638D01*
X136512898Y-75502639D01*
X136638402Y-75681877D01*
X136793123Y-75836598D01*
X136972361Y-75962102D01*
X137170670Y-76054575D01*
X137382023Y-76111207D01*
X137564926Y-76127208D01*
X137599998Y-76130277D01*
X137600000Y-76130277D01*
X137600002Y-76130277D01*
X137628254Y-76127805D01*
X137817977Y-76111207D01*
X138029330Y-76054575D01*
X138227639Y-75962102D01*
X138406877Y-75836598D01*
X138561598Y-75681877D01*
X138687102Y-75502639D01*
X138779575Y-75304330D01*
X138836207Y-75092977D01*
X138855277Y-74875000D01*
X138855277Y-74874997D01*
X139894723Y-74874997D01*
X139894723Y-74875002D01*
X139913793Y-75092975D01*
X139913793Y-75092979D01*
X139970422Y-75304322D01*
X139970424Y-75304326D01*
X139970425Y-75304330D01*
X140016661Y-75403484D01*
X140062897Y-75502638D01*
X140062898Y-75502639D01*
X140188402Y-75681877D01*
X140343123Y-75836598D01*
X140522361Y-75962102D01*
X140720670Y-76054575D01*
X140932023Y-76111207D01*
X141114926Y-76127208D01*
X141149998Y-76130277D01*
X141150000Y-76130277D01*
X141150002Y-76130277D01*
X141178254Y-76127805D01*
X141367977Y-76111207D01*
X141579330Y-76054575D01*
X141777639Y-75962102D01*
X141956877Y-75836598D01*
X142111598Y-75681877D01*
X142237102Y-75502639D01*
X142329575Y-75304330D01*
X142386207Y-75092977D01*
X142405277Y-74875000D01*
X142386207Y-74657023D01*
X142329575Y-74445670D01*
X142237102Y-74247362D01*
X142237100Y-74247359D01*
X142237099Y-74247357D01*
X142111599Y-74068124D01*
X142111596Y-74068121D01*
X141956877Y-73913402D01*
X141777639Y-73787898D01*
X141777640Y-73787898D01*
X141777638Y-73787897D01*
X141678484Y-73741661D01*
X141579330Y-73695425D01*
X141579326Y-73695424D01*
X141579322Y-73695422D01*
X141367977Y-73638793D01*
X141150002Y-73619723D01*
X141149998Y-73619723D01*
X141004682Y-73632436D01*
X140932023Y-73638793D01*
X140932020Y-73638793D01*
X140720677Y-73695422D01*
X140720668Y-73695426D01*
X140522361Y-73787898D01*
X140522357Y-73787900D01*
X140343121Y-73913402D01*
X140188402Y-74068121D01*
X140062900Y-74247357D01*
X140062898Y-74247361D01*
X139970426Y-74445668D01*
X139970422Y-74445677D01*
X139913793Y-74657020D01*
X139913793Y-74657024D01*
X139894723Y-74874997D01*
X138855277Y-74874997D01*
X138836207Y-74657023D01*
X138779575Y-74445670D01*
X138687102Y-74247362D01*
X138687100Y-74247359D01*
X138687099Y-74247357D01*
X138561599Y-74068124D01*
X138561596Y-74068121D01*
X138406877Y-73913402D01*
X138227639Y-73787898D01*
X138227640Y-73787898D01*
X138227638Y-73787897D01*
X138128484Y-73741661D01*
X138029330Y-73695425D01*
X138029326Y-73695424D01*
X138029322Y-73695422D01*
X137817977Y-73638793D01*
X137600002Y-73619723D01*
X137599998Y-73619723D01*
X137454682Y-73632436D01*
X137382023Y-73638793D01*
X137382020Y-73638793D01*
X137170677Y-73695422D01*
X137170668Y-73695426D01*
X136972361Y-73787898D01*
X136972357Y-73787900D01*
X136793121Y-73913402D01*
X136638402Y-74068121D01*
X136512900Y-74247357D01*
X136512898Y-74247361D01*
X136420426Y-74445668D01*
X136420422Y-74445677D01*
X136363793Y-74657020D01*
X136363793Y-74657024D01*
X136344723Y-74874997D01*
X135305277Y-74874997D01*
X135286207Y-74657023D01*
X135229575Y-74445670D01*
X135137102Y-74247362D01*
X135137100Y-74247359D01*
X135137099Y-74247357D01*
X135011599Y-74068124D01*
X135011596Y-74068121D01*
X134856877Y-73913402D01*
X134677639Y-73787898D01*
X134677640Y-73787898D01*
X134677638Y-73787897D01*
X134578484Y-73741661D01*
X134479330Y-73695425D01*
X134479326Y-73695424D01*
X134479322Y-73695422D01*
X134267977Y-73638793D01*
X134050002Y-73619723D01*
X134049998Y-73619723D01*
X133904682Y-73632436D01*
X133832023Y-73638793D01*
X133832020Y-73638793D01*
X133620677Y-73695422D01*
X133620668Y-73695426D01*
X133422361Y-73787898D01*
X133422357Y-73787900D01*
X133243121Y-73913402D01*
X133088402Y-74068121D01*
X132962900Y-74247357D01*
X132962898Y-74247361D01*
X132870426Y-74445668D01*
X132870422Y-74445677D01*
X132813793Y-74657020D01*
X132813793Y-74657024D01*
X132794723Y-74874997D01*
X105003770Y-74874997D01*
X105004389Y-70060602D01*
X111024500Y-70060602D01*
X111024500Y-70329397D01*
X111059582Y-70595880D01*
X111059583Y-70595885D01*
X111059584Y-70595891D01*
X111086384Y-70695909D01*
X111129152Y-70855524D01*
X111232011Y-71103850D01*
X111232019Y-71103866D01*
X111292683Y-71208937D01*
X111366413Y-71336641D01*
X111366415Y-71336644D01*
X111366416Y-71336645D01*
X111530042Y-71549888D01*
X111530048Y-71549895D01*
X111720104Y-71739951D01*
X111720111Y-71739957D01*
X111726626Y-71744956D01*
X111933359Y-71903587D01*
X112082968Y-71989964D01*
X112166133Y-72037980D01*
X112166149Y-72037988D01*
X112321008Y-72102132D01*
X112414474Y-72140847D01*
X112674109Y-72210416D01*
X112862319Y-72235193D01*
X112940602Y-72245500D01*
X112940603Y-72245500D01*
X113209398Y-72245500D01*
X113269905Y-72237534D01*
X113475891Y-72210416D01*
X113735526Y-72140847D01*
X113922457Y-72063417D01*
X113983850Y-72037988D01*
X113983853Y-72037986D01*
X113983859Y-72037984D01*
X114216641Y-71903587D01*
X114429890Y-71739956D01*
X114619956Y-71549890D01*
X114783587Y-71336641D01*
X114917984Y-71103859D01*
X115020847Y-70855526D01*
X115090416Y-70595891D01*
X115125500Y-70329397D01*
X115125500Y-70065602D01*
X127349500Y-70065602D01*
X127349500Y-70334397D01*
X127384582Y-70600880D01*
X127384583Y-70600885D01*
X127384584Y-70600891D01*
X127384585Y-70600893D01*
X127454152Y-70860524D01*
X127557011Y-71108850D01*
X127557019Y-71108866D01*
X127576224Y-71142129D01*
X127691413Y-71341641D01*
X127691415Y-71341644D01*
X127691416Y-71341645D01*
X127855042Y-71554888D01*
X127855048Y-71554895D01*
X128045104Y-71744951D01*
X128045110Y-71744956D01*
X128258359Y-71908587D01*
X128407968Y-71994964D01*
X128491133Y-72042980D01*
X128491149Y-72042988D01*
X128646008Y-72107132D01*
X128739474Y-72145847D01*
X128999109Y-72215416D01*
X129169667Y-72237870D01*
X129265602Y-72250500D01*
X129265603Y-72250500D01*
X129534398Y-72250500D01*
X129630310Y-72237873D01*
X129800891Y-72215416D01*
X130060526Y-72145847D01*
X130247457Y-72068417D01*
X130308850Y-72042988D01*
X130308853Y-72042986D01*
X130308859Y-72042984D01*
X130541641Y-71908587D01*
X130754890Y-71744956D01*
X130944956Y-71554890D01*
X131108587Y-71341641D01*
X131242984Y-71108859D01*
X131247184Y-71098721D01*
X131309753Y-70947664D01*
X131345847Y-70860526D01*
X131415416Y-70600891D01*
X131450500Y-70334397D01*
X131450500Y-70065603D01*
X131449842Y-70060602D01*
X143649500Y-70060602D01*
X143649500Y-70329397D01*
X143684582Y-70595880D01*
X143684583Y-70595885D01*
X143684584Y-70595891D01*
X143711384Y-70695909D01*
X143754152Y-70855524D01*
X143857011Y-71103850D01*
X143857019Y-71103866D01*
X143917683Y-71208937D01*
X143991413Y-71336641D01*
X143991415Y-71336644D01*
X143991416Y-71336645D01*
X144155042Y-71549888D01*
X144155048Y-71549895D01*
X144345104Y-71739951D01*
X144345111Y-71739957D01*
X144351626Y-71744956D01*
X144558359Y-71903587D01*
X144707968Y-71989964D01*
X144791133Y-72037980D01*
X144791149Y-72037988D01*
X144946008Y-72102132D01*
X145039474Y-72140847D01*
X145299109Y-72210416D01*
X145487319Y-72235193D01*
X145565602Y-72245500D01*
X145565603Y-72245500D01*
X145834398Y-72245500D01*
X145894905Y-72237534D01*
X146100891Y-72210416D01*
X146360526Y-72140847D01*
X146547457Y-72063417D01*
X146608850Y-72037988D01*
X146608853Y-72037986D01*
X146608859Y-72037984D01*
X146841641Y-71903587D01*
X147054890Y-71739956D01*
X147244956Y-71549890D01*
X147408587Y-71336641D01*
X147518113Y-71146937D01*
X147568680Y-71098721D01*
X147637287Y-71085499D01*
X147702152Y-71111467D01*
X147742680Y-71168381D01*
X147749500Y-71208937D01*
X147749500Y-72237870D01*
X147749501Y-72237876D01*
X147755908Y-72297483D01*
X147806202Y-72432328D01*
X147806206Y-72432335D01*
X147892452Y-72547544D01*
X147892455Y-72547547D01*
X148007664Y-72633793D01*
X148007671Y-72633797D01*
X148142517Y-72684091D01*
X148142516Y-72684091D01*
X148149444Y-72684835D01*
X148202127Y-72690500D01*
X150797872Y-72690499D01*
X150857483Y-72684091D01*
X150992331Y-72633796D01*
X151107546Y-72547546D01*
X151193796Y-72432331D01*
X151244091Y-72297483D01*
X151250500Y-72237873D01*
X151250499Y-71142128D01*
X151244091Y-71082517D01*
X151193796Y-70947669D01*
X151193795Y-70947668D01*
X151193793Y-70947664D01*
X151107547Y-70832455D01*
X151107544Y-70832452D01*
X150992335Y-70746206D01*
X150992328Y-70746202D01*
X150857482Y-70695908D01*
X150857483Y-70695908D01*
X150797883Y-70689501D01*
X150797881Y-70689500D01*
X150797873Y-70689500D01*
X150797864Y-70689500D01*
X148202129Y-70689500D01*
X148202123Y-70689501D01*
X148142516Y-70695908D01*
X148007671Y-70746202D01*
X148007664Y-70746206D01*
X147892452Y-70832455D01*
X147891251Y-70833656D01*
X147889761Y-70834469D01*
X147885355Y-70837768D01*
X147884880Y-70837134D01*
X147829926Y-70867137D01*
X147760235Y-70862148D01*
X147704304Y-70820273D01*
X147679891Y-70754807D01*
X147683800Y-70713882D01*
X147715416Y-70595891D01*
X147750500Y-70329397D01*
X147750500Y-70149001D01*
X147770185Y-70081962D01*
X147822989Y-70036207D01*
X147892147Y-70026263D01*
X147948810Y-70049734D01*
X147991861Y-70081962D01*
X148007668Y-70093795D01*
X148007671Y-70093797D01*
X148142517Y-70144091D01*
X148142516Y-70144091D01*
X148149444Y-70144835D01*
X148202127Y-70150500D01*
X150797872Y-70150499D01*
X150857483Y-70144091D01*
X150992331Y-70093796D01*
X151036672Y-70060602D01*
X159949500Y-70060602D01*
X159949500Y-70329397D01*
X159984582Y-70595880D01*
X159984583Y-70595885D01*
X159984584Y-70595891D01*
X160011384Y-70695909D01*
X160054152Y-70855524D01*
X160157011Y-71103850D01*
X160157019Y-71103866D01*
X160217683Y-71208937D01*
X160291413Y-71336641D01*
X160291415Y-71336644D01*
X160291416Y-71336645D01*
X160455042Y-71549888D01*
X160455048Y-71549895D01*
X160645104Y-71739951D01*
X160645111Y-71739957D01*
X160651626Y-71744956D01*
X160858359Y-71903587D01*
X161007968Y-71989964D01*
X161091133Y-72037980D01*
X161091149Y-72037988D01*
X161246008Y-72102132D01*
X161339474Y-72140847D01*
X161599109Y-72210416D01*
X161787319Y-72235193D01*
X161865602Y-72245500D01*
X161865603Y-72245500D01*
X162134398Y-72245500D01*
X162194905Y-72237534D01*
X162400891Y-72210416D01*
X162660526Y-72140847D01*
X162847457Y-72063417D01*
X162908850Y-72037988D01*
X162908853Y-72037986D01*
X162908859Y-72037984D01*
X163141641Y-71903587D01*
X163354890Y-71739956D01*
X163544956Y-71549890D01*
X163708587Y-71336641D01*
X163842984Y-71103859D01*
X163945847Y-70855526D01*
X164015416Y-70595891D01*
X164050500Y-70329397D01*
X164050500Y-70060603D01*
X164015416Y-69794109D01*
X163945847Y-69534474D01*
X163907132Y-69441008D01*
X163842988Y-69286149D01*
X163842980Y-69286133D01*
X163782317Y-69181063D01*
X163708587Y-69053359D01*
X163641084Y-68965387D01*
X163544957Y-68840111D01*
X163544951Y-68840104D01*
X163354895Y-68650048D01*
X163354888Y-68650042D01*
X163141645Y-68486416D01*
X163141644Y-68486415D01*
X163141641Y-68486413D01*
X163048832Y-68432830D01*
X162908866Y-68352019D01*
X162908850Y-68352011D01*
X162660524Y-68249152D01*
X162530708Y-68214368D01*
X162400891Y-68179584D01*
X162400885Y-68179583D01*
X162400880Y-68179582D01*
X162134398Y-68144500D01*
X162134397Y-68144500D01*
X161865603Y-68144500D01*
X161865602Y-68144500D01*
X161599119Y-68179582D01*
X161599112Y-68179583D01*
X161599109Y-68179584D01*
X161544239Y-68194286D01*
X161339475Y-68249152D01*
X161091149Y-68352011D01*
X161091133Y-68352019D01*
X160858354Y-68486416D01*
X160645111Y-68650042D01*
X160645104Y-68650048D01*
X160455048Y-68840104D01*
X160455042Y-68840111D01*
X160291416Y-69053354D01*
X160157019Y-69286133D01*
X160157011Y-69286149D01*
X160054152Y-69534475D01*
X159984585Y-69794106D01*
X159984582Y-69794119D01*
X159949500Y-70060602D01*
X151036672Y-70060602D01*
X151107546Y-70007546D01*
X151193796Y-69892331D01*
X151244091Y-69757483D01*
X151250500Y-69697873D01*
X151250499Y-68602128D01*
X151244091Y-68542517D01*
X151225030Y-68491413D01*
X151193797Y-68407671D01*
X151193793Y-68407664D01*
X151107547Y-68292455D01*
X151107544Y-68292452D01*
X150992335Y-68206206D01*
X150992328Y-68206202D01*
X150857482Y-68155908D01*
X150857483Y-68155908D01*
X150797883Y-68149501D01*
X150797881Y-68149500D01*
X150797873Y-68149500D01*
X150797864Y-68149500D01*
X148202129Y-68149500D01*
X148202123Y-68149501D01*
X148142516Y-68155908D01*
X148007671Y-68206202D01*
X148007664Y-68206206D01*
X147892455Y-68292452D01*
X147892452Y-68292455D01*
X147806206Y-68407664D01*
X147806202Y-68407671D01*
X147755908Y-68542517D01*
X147749501Y-68602116D01*
X147749501Y-68602123D01*
X147749500Y-68602135D01*
X147749500Y-69181063D01*
X147729815Y-69248102D01*
X147677011Y-69293857D01*
X147607853Y-69303801D01*
X147544297Y-69274776D01*
X147518113Y-69243063D01*
X147482317Y-69181063D01*
X147408587Y-69053359D01*
X147341084Y-68965387D01*
X147244957Y-68840111D01*
X147244951Y-68840104D01*
X147054895Y-68650048D01*
X147054888Y-68650042D01*
X146841645Y-68486416D01*
X146841644Y-68486415D01*
X146841641Y-68486413D01*
X146748832Y-68432830D01*
X146608866Y-68352019D01*
X146608850Y-68352011D01*
X146360524Y-68249152D01*
X146230708Y-68214368D01*
X146100891Y-68179584D01*
X146100885Y-68179583D01*
X146100880Y-68179582D01*
X145834398Y-68144500D01*
X145834397Y-68144500D01*
X145565603Y-68144500D01*
X145565602Y-68144500D01*
X145299119Y-68179582D01*
X145299112Y-68179583D01*
X145299109Y-68179584D01*
X145244239Y-68194286D01*
X145039475Y-68249152D01*
X144791149Y-68352011D01*
X144791133Y-68352019D01*
X144558354Y-68486416D01*
X144345111Y-68650042D01*
X144345104Y-68650048D01*
X144155048Y-68840104D01*
X144155042Y-68840111D01*
X143991416Y-69053354D01*
X143857019Y-69286133D01*
X143857011Y-69286149D01*
X143754152Y-69534475D01*
X143684585Y-69794106D01*
X143684582Y-69794119D01*
X143649500Y-70060602D01*
X131449842Y-70060602D01*
X131415416Y-69799109D01*
X131345847Y-69539474D01*
X131307132Y-69446008D01*
X131242988Y-69291149D01*
X131242980Y-69291133D01*
X131179430Y-69181063D01*
X131108587Y-69058359D01*
X130960602Y-68865500D01*
X130944957Y-68845111D01*
X130944951Y-68845104D01*
X130754895Y-68655048D01*
X130754888Y-68655042D01*
X130541645Y-68491416D01*
X130541644Y-68491415D01*
X130541641Y-68491413D01*
X130448832Y-68437830D01*
X130308866Y-68357019D01*
X130308850Y-68357011D01*
X130060524Y-68254152D01*
X129881585Y-68206206D01*
X129800891Y-68184584D01*
X129800885Y-68184583D01*
X129800880Y-68184582D01*
X129534398Y-68149500D01*
X129534397Y-68149500D01*
X129265603Y-68149500D01*
X129265602Y-68149500D01*
X128999119Y-68184582D01*
X128999112Y-68184583D01*
X128999109Y-68184584D01*
X128944239Y-68199286D01*
X128739475Y-68254152D01*
X128491149Y-68357011D01*
X128491133Y-68357019D01*
X128258354Y-68491416D01*
X128045111Y-68655042D01*
X128045104Y-68655048D01*
X127855048Y-68845104D01*
X127855042Y-68845111D01*
X127691416Y-69058354D01*
X127557019Y-69291133D01*
X127557011Y-69291149D01*
X127454152Y-69539475D01*
X127384585Y-69799106D01*
X127384582Y-69799119D01*
X127349500Y-70065602D01*
X115125500Y-70065602D01*
X115125500Y-70060603D01*
X115090416Y-69794109D01*
X115020847Y-69534474D01*
X114982132Y-69441008D01*
X114917988Y-69286149D01*
X114917980Y-69286133D01*
X114857317Y-69181063D01*
X114783587Y-69053359D01*
X114716084Y-68965387D01*
X114619957Y-68840111D01*
X114619951Y-68840104D01*
X114429895Y-68650048D01*
X114429888Y-68650042D01*
X114216645Y-68486416D01*
X114216644Y-68486415D01*
X114216641Y-68486413D01*
X114123832Y-68432830D01*
X113983866Y-68352019D01*
X113983850Y-68352011D01*
X113735524Y-68249152D01*
X113605708Y-68214368D01*
X113475891Y-68179584D01*
X113475885Y-68179583D01*
X113475880Y-68179582D01*
X113209398Y-68144500D01*
X113209397Y-68144500D01*
X112940603Y-68144500D01*
X112940602Y-68144500D01*
X112674119Y-68179582D01*
X112674112Y-68179583D01*
X112674109Y-68179584D01*
X112619239Y-68194286D01*
X112414475Y-68249152D01*
X112166149Y-68352011D01*
X112166133Y-68352019D01*
X111933354Y-68486416D01*
X111720111Y-68650042D01*
X111720104Y-68650048D01*
X111530048Y-68840104D01*
X111530042Y-68840111D01*
X111366416Y-69053354D01*
X111232019Y-69286133D01*
X111232011Y-69286149D01*
X111129152Y-69534475D01*
X111059585Y-69794106D01*
X111059582Y-69794119D01*
X111024500Y-70060602D01*
X105004389Y-70060602D01*
X105004963Y-65596898D01*
X135114500Y-65596898D01*
X135114500Y-65783102D01*
X135120222Y-65830754D01*
X135125561Y-65875217D01*
X135125561Y-65904783D01*
X135119718Y-65953440D01*
X135114500Y-65996898D01*
X135114500Y-66183102D01*
X135120222Y-66230754D01*
X135125561Y-66275217D01*
X135125561Y-66304783D01*
X135119718Y-66353440D01*
X135114500Y-66396898D01*
X135114500Y-66583102D01*
X135120222Y-66630754D01*
X135125561Y-66675217D01*
X135125561Y-66704783D01*
X135119718Y-66753440D01*
X135114500Y-66796898D01*
X135114500Y-66983102D01*
X135120222Y-67030754D01*
X135125561Y-67075217D01*
X135125561Y-67104783D01*
X135119718Y-67153440D01*
X135114500Y-67196898D01*
X135114500Y-67383102D01*
X135120126Y-67429954D01*
X135125122Y-67471561D01*
X135180639Y-67612343D01*
X135272077Y-67732922D01*
X135392656Y-67824360D01*
X135392657Y-67824360D01*
X135392658Y-67824361D01*
X135533436Y-67879877D01*
X135621898Y-67890500D01*
X135965500Y-67890500D01*
X136032539Y-67910185D01*
X136078294Y-67962989D01*
X136089500Y-68014500D01*
X136089500Y-68358102D01*
X136095126Y-68404954D01*
X136100122Y-68446561D01*
X136155639Y-68587343D01*
X136247077Y-68707922D01*
X136367656Y-68799360D01*
X136367657Y-68799360D01*
X136367658Y-68799361D01*
X136508436Y-68854877D01*
X136596898Y-68865500D01*
X136596903Y-68865500D01*
X136783103Y-68865500D01*
X136799178Y-68863569D01*
X136871564Y-68854877D01*
X136871565Y-68854876D01*
X136875215Y-68854438D01*
X136904785Y-68854438D01*
X136908434Y-68854876D01*
X136908436Y-68854877D01*
X136980821Y-68863569D01*
X136996897Y-68865500D01*
X136996898Y-68865500D01*
X137183103Y-68865500D01*
X137199178Y-68863569D01*
X137271564Y-68854877D01*
X137271565Y-68854876D01*
X137275215Y-68854438D01*
X137304785Y-68854438D01*
X137308434Y-68854876D01*
X137308436Y-68854877D01*
X137380821Y-68863569D01*
X137396897Y-68865500D01*
X137396898Y-68865500D01*
X137583103Y-68865500D01*
X137599178Y-68863569D01*
X137671564Y-68854877D01*
X137671565Y-68854876D01*
X137675215Y-68854438D01*
X137704785Y-68854438D01*
X137708434Y-68854876D01*
X137708436Y-68854877D01*
X137780821Y-68863569D01*
X137796897Y-68865500D01*
X137796898Y-68865500D01*
X137983103Y-68865500D01*
X137999178Y-68863569D01*
X138071564Y-68854877D01*
X138071565Y-68854876D01*
X138075215Y-68854438D01*
X138104785Y-68854438D01*
X138108434Y-68854876D01*
X138108436Y-68854877D01*
X138180821Y-68863569D01*
X138196897Y-68865500D01*
X138196898Y-68865500D01*
X138383097Y-68865500D01*
X138383102Y-68865500D01*
X138471564Y-68854877D01*
X138612342Y-68799361D01*
X138732922Y-68707922D01*
X138824361Y-68587342D01*
X138879877Y-68446564D01*
X138890500Y-68358102D01*
X138890500Y-68014500D01*
X138910185Y-67947461D01*
X138962989Y-67901706D01*
X139014500Y-67890500D01*
X139358097Y-67890500D01*
X139358102Y-67890500D01*
X139446564Y-67879877D01*
X139587342Y-67824361D01*
X139707922Y-67732922D01*
X139799361Y-67612342D01*
X139854877Y-67471564D01*
X139865500Y-67383102D01*
X139865500Y-67196898D01*
X139860810Y-67157844D01*
X147750000Y-67157844D01*
X147756401Y-67217372D01*
X147756403Y-67217379D01*
X147806645Y-67352086D01*
X147806649Y-67352093D01*
X147892809Y-67467187D01*
X147892812Y-67467190D01*
X148007906Y-67553350D01*
X148007913Y-67553354D01*
X148142620Y-67603596D01*
X148142627Y-67603598D01*
X148202155Y-67609999D01*
X148202172Y-67610000D01*
X149250000Y-67610000D01*
X149750000Y-67610000D01*
X150797828Y-67610000D01*
X150797844Y-67609999D01*
X150857372Y-67603598D01*
X150857379Y-67603596D01*
X150992086Y-67553354D01*
X150992093Y-67553350D01*
X151107187Y-67467190D01*
X151107190Y-67467187D01*
X151193350Y-67352093D01*
X151193354Y-67352086D01*
X151243596Y-67217379D01*
X151243598Y-67217372D01*
X151249999Y-67157844D01*
X151250000Y-67157827D01*
X151250000Y-66860000D01*
X149750000Y-66860000D01*
X149750000Y-67610000D01*
X149250000Y-67610000D01*
X149250000Y-66860000D01*
X147750000Y-66860000D01*
X147750000Y-67157844D01*
X139860810Y-67157844D01*
X139854877Y-67108436D01*
X139854876Y-67108434D01*
X139854438Y-67104785D01*
X139854438Y-67075215D01*
X139854876Y-67071565D01*
X139854877Y-67071564D01*
X139865500Y-66983102D01*
X139865500Y-66796898D01*
X139854877Y-66708436D01*
X139854876Y-66708434D01*
X139854438Y-66704785D01*
X139854438Y-66675215D01*
X139854876Y-66671565D01*
X139854877Y-66671564D01*
X139865500Y-66583102D01*
X139865500Y-66396898D01*
X139854877Y-66308436D01*
X139854876Y-66308434D01*
X139854438Y-66304785D01*
X139854438Y-66275215D01*
X139854876Y-66271565D01*
X139854877Y-66271564D01*
X139865500Y-66183102D01*
X139865500Y-66062155D01*
X147750000Y-66062155D01*
X147750000Y-66360000D01*
X149250000Y-66360000D01*
X149750000Y-66360000D01*
X151250000Y-66360000D01*
X151250000Y-66062172D01*
X151249999Y-66062155D01*
X151243598Y-66002627D01*
X151243596Y-66002620D01*
X151193354Y-65867913D01*
X151193350Y-65867906D01*
X151107190Y-65752812D01*
X151107187Y-65752809D01*
X150992093Y-65666649D01*
X150992086Y-65666645D01*
X150857379Y-65616403D01*
X150857372Y-65616401D01*
X150797844Y-65610000D01*
X149750000Y-65610000D01*
X149750000Y-66360000D01*
X149250000Y-66360000D01*
X149250000Y-65610000D01*
X148202155Y-65610000D01*
X148142627Y-65616401D01*
X148142620Y-65616403D01*
X148007913Y-65666645D01*
X148007906Y-65666649D01*
X147892812Y-65752809D01*
X147892809Y-65752812D01*
X147806649Y-65867906D01*
X147806645Y-65867913D01*
X147756403Y-66002620D01*
X147756401Y-66002627D01*
X147750000Y-66062155D01*
X139865500Y-66062155D01*
X139865500Y-65996898D01*
X139854877Y-65908436D01*
X139854876Y-65908434D01*
X139854438Y-65904785D01*
X139854438Y-65875215D01*
X139854876Y-65871565D01*
X139854877Y-65871564D01*
X139865500Y-65783102D01*
X139865500Y-65596898D01*
X139854877Y-65508436D01*
X139799361Y-65367658D01*
X139799360Y-65367657D01*
X139799360Y-65367656D01*
X139707922Y-65247077D01*
X139587343Y-65155639D01*
X139446561Y-65100122D01*
X139400926Y-65094642D01*
X139358102Y-65089500D01*
X139358097Y-65089500D01*
X139014500Y-65089500D01*
X138947461Y-65069815D01*
X138901706Y-65017011D01*
X138890500Y-64965500D01*
X138890500Y-64621903D01*
X138890500Y-64621898D01*
X138879877Y-64533436D01*
X138824361Y-64392658D01*
X138824360Y-64392657D01*
X138824360Y-64392656D01*
X138732922Y-64272077D01*
X138612343Y-64180639D01*
X138473316Y-64125814D01*
X138471564Y-64125123D01*
X138471563Y-64125122D01*
X138471561Y-64125122D01*
X138425926Y-64119642D01*
X138383102Y-64114500D01*
X138196898Y-64114500D01*
X138136228Y-64121785D01*
X138102679Y-64125814D01*
X138073113Y-64125814D01*
X137983055Y-64115000D01*
X137796945Y-64115000D01*
X137706887Y-64125814D01*
X137677321Y-64125814D01*
X137643771Y-64121785D01*
X137583102Y-64114500D01*
X137396898Y-64114500D01*
X137353440Y-64119718D01*
X137304783Y-64125561D01*
X137275217Y-64125561D01*
X137226559Y-64119718D01*
X137183102Y-64114500D01*
X136996898Y-64114500D01*
X136953440Y-64119718D01*
X136904783Y-64125561D01*
X136875217Y-64125561D01*
X136826559Y-64119718D01*
X136783102Y-64114500D01*
X136596898Y-64114500D01*
X136557853Y-64119188D01*
X136508438Y-64125122D01*
X136367656Y-64180639D01*
X136247077Y-64272077D01*
X136155639Y-64392656D01*
X136100122Y-64533438D01*
X136094188Y-64582853D01*
X136089500Y-64621898D01*
X136089500Y-64621903D01*
X136089500Y-64965500D01*
X136069815Y-65032539D01*
X136017011Y-65078294D01*
X135965500Y-65089500D01*
X135621898Y-65089500D01*
X135582853Y-65094188D01*
X135533438Y-65100122D01*
X135392656Y-65155639D01*
X135272077Y-65247077D01*
X135180639Y-65367656D01*
X135125122Y-65508438D01*
X135119188Y-65557853D01*
X135114500Y-65596898D01*
X105004963Y-65596898D01*
X105005704Y-59839034D01*
X105025397Y-59771999D01*
X105078207Y-59726251D01*
X105147367Y-59716316D01*
X105210919Y-59745349D01*
X105226651Y-59761740D01*
X105259168Y-59802516D01*
X105259174Y-59802522D01*
X105259175Y-59802523D01*
X105497477Y-60040825D01*
X105760961Y-60250946D01*
X106046314Y-60430246D01*
X106046316Y-60430247D01*
X106147525Y-60478987D01*
X106349949Y-60576469D01*
X106504358Y-60630499D01*
X106668034Y-60687772D01*
X106668046Y-60687776D01*
X106996606Y-60762767D01*
X107331492Y-60800499D01*
X107331493Y-60800500D01*
X111895844Y-60800500D01*
X111962883Y-60820185D01*
X112008638Y-60872989D01*
X112018582Y-60942147D01*
X111989557Y-61005703D01*
X111970154Y-61023767D01*
X111848437Y-61114882D01*
X111848436Y-61114883D01*
X112945591Y-62212037D01*
X112882007Y-62229075D01*
X112767993Y-62294901D01*
X112674901Y-62387993D01*
X112609075Y-62502007D01*
X112592037Y-62565590D01*
X111494883Y-61468436D01*
X111494882Y-61468437D01*
X111388196Y-61610953D01*
X111388191Y-61610961D01*
X111251091Y-61862041D01*
X111151109Y-62130104D01*
X111090300Y-62409637D01*
X111069891Y-62694998D01*
X111069891Y-62695001D01*
X111090300Y-62980362D01*
X111151109Y-63259895D01*
X111251091Y-63527958D01*
X111388191Y-63779038D01*
X111388196Y-63779046D01*
X111494882Y-63921561D01*
X111494883Y-63921562D01*
X112592037Y-62824408D01*
X112609075Y-62887993D01*
X112674901Y-63002007D01*
X112767993Y-63095099D01*
X112882007Y-63160925D01*
X112945590Y-63177962D01*
X111848436Y-64275115D01*
X111990960Y-64381807D01*
X111990961Y-64381808D01*
X112242042Y-64518908D01*
X112242041Y-64518908D01*
X112510104Y-64618890D01*
X112789637Y-64679699D01*
X113074999Y-64700109D01*
X113075001Y-64700109D01*
X113360362Y-64679699D01*
X113639895Y-64618890D01*
X113907958Y-64518908D01*
X114159047Y-64381803D01*
X114301561Y-64275116D01*
X114301562Y-64275115D01*
X113204410Y-63177962D01*
X113267993Y-63160925D01*
X113382007Y-63095099D01*
X113475099Y-63002007D01*
X113540925Y-62887993D01*
X113557962Y-62824409D01*
X114655115Y-63921562D01*
X114655116Y-63921561D01*
X114761803Y-63779047D01*
X114898908Y-63527958D01*
X114998890Y-63259895D01*
X115059699Y-62980362D01*
X115079752Y-62699998D01*
X127394891Y-62699998D01*
X127394891Y-62700001D01*
X127415300Y-62985362D01*
X127476109Y-63264895D01*
X127576091Y-63532958D01*
X127713191Y-63784038D01*
X127713196Y-63784046D01*
X127819882Y-63926561D01*
X127819883Y-63926562D01*
X128917037Y-62829408D01*
X128934075Y-62892993D01*
X128999901Y-63007007D01*
X129092993Y-63100099D01*
X129207007Y-63165925D01*
X129270590Y-63182962D01*
X128173436Y-64280115D01*
X128315960Y-64386807D01*
X128315961Y-64386808D01*
X128567042Y-64523908D01*
X128567041Y-64523908D01*
X128835104Y-64623890D01*
X129114637Y-64684699D01*
X129399999Y-64705109D01*
X129400001Y-64705109D01*
X129685362Y-64684699D01*
X129964895Y-64623890D01*
X130232958Y-64523908D01*
X130484047Y-64386803D01*
X130626561Y-64280116D01*
X130626562Y-64280115D01*
X129529410Y-63182962D01*
X129592993Y-63165925D01*
X129707007Y-63100099D01*
X129800099Y-63007007D01*
X129865925Y-62892993D01*
X129882962Y-62829409D01*
X130980115Y-63926562D01*
X130980116Y-63926561D01*
X131086803Y-63784047D01*
X131223908Y-63532958D01*
X131323890Y-63264895D01*
X131384699Y-62985362D01*
X131405109Y-62700001D01*
X131405109Y-62699998D01*
X131404751Y-62694998D01*
X143694891Y-62694998D01*
X143694891Y-62695001D01*
X143715300Y-62980362D01*
X143776109Y-63259895D01*
X143876091Y-63527958D01*
X144013191Y-63779038D01*
X144013196Y-63779046D01*
X144119882Y-63921561D01*
X144119883Y-63921562D01*
X145217037Y-62824408D01*
X145234075Y-62887993D01*
X145299901Y-63002007D01*
X145392993Y-63095099D01*
X145507007Y-63160925D01*
X145570590Y-63177962D01*
X144473436Y-64275115D01*
X144615960Y-64381807D01*
X144615961Y-64381808D01*
X144867042Y-64518908D01*
X144867041Y-64518908D01*
X145135104Y-64618890D01*
X145414637Y-64679699D01*
X145699999Y-64700109D01*
X145700001Y-64700109D01*
X145985362Y-64679699D01*
X146264895Y-64618890D01*
X146532958Y-64518908D01*
X146784047Y-64381803D01*
X146926561Y-64275116D01*
X146926562Y-64275115D01*
X145829410Y-63177962D01*
X145892993Y-63160925D01*
X146007007Y-63095099D01*
X146100099Y-63002007D01*
X146165925Y-62887993D01*
X146182962Y-62824409D01*
X147280115Y-63921562D01*
X147280116Y-63921561D01*
X147386803Y-63779047D01*
X147523908Y-63527958D01*
X147623890Y-63259895D01*
X147684699Y-62980362D01*
X147705109Y-62695001D01*
X147705109Y-62694998D01*
X147684699Y-62409637D01*
X147623890Y-62130104D01*
X147523908Y-61862041D01*
X147386808Y-61610961D01*
X147386807Y-61610960D01*
X147280115Y-61468436D01*
X146182962Y-62565589D01*
X146165925Y-62502007D01*
X146100099Y-62387993D01*
X146007007Y-62294901D01*
X145892993Y-62229075D01*
X145829409Y-62212037D01*
X146926562Y-61114883D01*
X146926561Y-61114882D01*
X146784046Y-61008196D01*
X146784038Y-61008191D01*
X146532957Y-60871091D01*
X146532958Y-60871091D01*
X146264895Y-60771109D01*
X145985362Y-60710300D01*
X145700001Y-60689891D01*
X145699999Y-60689891D01*
X145414637Y-60710300D01*
X145135104Y-60771109D01*
X144867041Y-60871091D01*
X144615961Y-61008191D01*
X144615953Y-61008196D01*
X144473437Y-61114882D01*
X144473436Y-61114883D01*
X145570591Y-62212037D01*
X145507007Y-62229075D01*
X145392993Y-62294901D01*
X145299901Y-62387993D01*
X145234075Y-62502007D01*
X145217037Y-62565590D01*
X144119883Y-61468436D01*
X144119882Y-61468437D01*
X144013196Y-61610953D01*
X144013191Y-61610961D01*
X143876091Y-61862041D01*
X143776109Y-62130104D01*
X143715300Y-62409637D01*
X143694891Y-62694998D01*
X131404751Y-62694998D01*
X131384699Y-62414637D01*
X131323890Y-62135104D01*
X131223908Y-61867041D01*
X131086808Y-61615961D01*
X131086807Y-61615960D01*
X130980115Y-61473436D01*
X129882962Y-62570589D01*
X129865925Y-62507007D01*
X129800099Y-62392993D01*
X129707007Y-62299901D01*
X129592993Y-62234075D01*
X129529409Y-62217037D01*
X130626562Y-61119883D01*
X130626561Y-61119882D01*
X130484046Y-61013196D01*
X130484038Y-61013191D01*
X130232957Y-60876091D01*
X130232958Y-60876091D01*
X129964895Y-60776109D01*
X129685362Y-60715300D01*
X129400001Y-60694891D01*
X129399999Y-60694891D01*
X129114637Y-60715300D01*
X128835104Y-60776109D01*
X128567041Y-60876091D01*
X128315961Y-61013191D01*
X128315953Y-61013196D01*
X128173437Y-61119882D01*
X128173436Y-61119883D01*
X129270591Y-62217037D01*
X129207007Y-62234075D01*
X129092993Y-62299901D01*
X128999901Y-62392993D01*
X128934075Y-62507007D01*
X128917037Y-62570590D01*
X127819883Y-61473436D01*
X127819882Y-61473437D01*
X127713196Y-61615953D01*
X127713191Y-61615961D01*
X127576091Y-61867041D01*
X127476109Y-62135104D01*
X127415300Y-62414637D01*
X127394891Y-62699998D01*
X115079752Y-62699998D01*
X115080109Y-62695001D01*
X115080109Y-62694998D01*
X115059699Y-62409637D01*
X114998890Y-62130104D01*
X114898908Y-61862041D01*
X114761808Y-61610961D01*
X114761807Y-61610960D01*
X114655115Y-61468436D01*
X113557962Y-62565589D01*
X113540925Y-62502007D01*
X113475099Y-62387993D01*
X113382007Y-62294901D01*
X113267993Y-62229075D01*
X113204409Y-62212037D01*
X114301562Y-61114883D01*
X114301561Y-61114882D01*
X114159046Y-61008196D01*
X114159038Y-61008191D01*
X113907957Y-60871091D01*
X113690440Y-60789961D01*
X113634507Y-60748089D01*
X113610090Y-60682625D01*
X113624942Y-60614352D01*
X113674347Y-60564947D01*
X113679963Y-60562064D01*
X113953686Y-60430246D01*
X114239039Y-60250946D01*
X114502523Y-60040825D01*
X114613362Y-59929986D01*
X135362501Y-59929986D01*
X135372994Y-60032697D01*
X135428141Y-60199119D01*
X135428143Y-60199124D01*
X135520184Y-60348345D01*
X135644154Y-60472315D01*
X135793375Y-60564356D01*
X135793380Y-60564358D01*
X135959802Y-60619505D01*
X135959809Y-60619506D01*
X136062519Y-60629999D01*
X136199999Y-60629999D01*
X136200000Y-60629998D01*
X136200000Y-59655000D01*
X135362501Y-59655000D01*
X135362501Y-59929986D01*
X114613362Y-59929986D01*
X114740825Y-59802523D01*
X114950946Y-59539039D01*
X115130246Y-59253686D01*
X115276469Y-58950051D01*
X115300976Y-58880013D01*
X135362500Y-58880013D01*
X135362500Y-59155000D01*
X136200000Y-59155000D01*
X136200000Y-58180000D01*
X136700000Y-58180000D01*
X136700000Y-60629999D01*
X136837472Y-60629999D01*
X136837486Y-60629998D01*
X136940197Y-60619505D01*
X137106619Y-60564358D01*
X137106624Y-60564356D01*
X137255845Y-60472315D01*
X137379818Y-60348342D01*
X137381665Y-60345348D01*
X137383469Y-60343724D01*
X137384298Y-60342677D01*
X137384476Y-60342818D01*
X137433610Y-60298621D01*
X137502573Y-60287396D01*
X137566656Y-60315236D01*
X137592743Y-60345341D01*
X137594788Y-60348656D01*
X137718844Y-60472712D01*
X137868166Y-60564814D01*
X138034703Y-60619999D01*
X138137491Y-60630500D01*
X138912508Y-60630499D01*
X138912516Y-60630498D01*
X138912519Y-60630498D01*
X138968802Y-60624748D01*
X139015297Y-60619999D01*
X139181834Y-60564814D01*
X139331156Y-60472712D01*
X139455212Y-60348656D01*
X139547314Y-60199334D01*
X139602499Y-60032797D01*
X139613000Y-59930009D01*
X139612999Y-58879992D01*
X139602499Y-58777203D01*
X139547314Y-58610666D01*
X139455212Y-58461344D01*
X139331156Y-58337288D01*
X139181834Y-58245186D01*
X139015297Y-58190001D01*
X139015295Y-58190000D01*
X138912510Y-58179500D01*
X138137498Y-58179500D01*
X138137480Y-58179501D01*
X138034703Y-58190000D01*
X138034700Y-58190001D01*
X137868168Y-58245185D01*
X137868163Y-58245187D01*
X137718842Y-58337289D01*
X137594788Y-58461343D01*
X137594783Y-58461349D01*
X137592741Y-58464661D01*
X137590747Y-58466453D01*
X137590307Y-58467011D01*
X137590211Y-58466935D01*
X137540791Y-58511383D01*
X137471828Y-58522602D01*
X137407747Y-58494755D01*
X137381668Y-58464656D01*
X137379819Y-58461659D01*
X137379816Y-58461655D01*
X137255845Y-58337684D01*
X137106624Y-58245643D01*
X137106619Y-58245641D01*
X136940197Y-58190494D01*
X136940190Y-58190493D01*
X136837486Y-58180000D01*
X136700000Y-58180000D01*
X136200000Y-58180000D01*
X136062527Y-58180000D01*
X136062512Y-58180001D01*
X135959802Y-58190494D01*
X135793380Y-58245641D01*
X135793375Y-58245643D01*
X135644154Y-58337684D01*
X135520184Y-58461654D01*
X135428143Y-58610875D01*
X135428141Y-58610880D01*
X135372994Y-58777302D01*
X135372993Y-58777309D01*
X135362500Y-58880013D01*
X115300976Y-58880013D01*
X115387776Y-58631954D01*
X115462767Y-58303394D01*
X115500500Y-57968504D01*
X115500500Y-57631496D01*
X115462767Y-57296606D01*
X115387776Y-56968046D01*
X115276469Y-56649949D01*
X115130246Y-56346314D01*
X114950946Y-56060961D01*
X114740825Y-55797477D01*
X114502523Y-55559175D01*
X114491015Y-55549998D01*
X114409262Y-55484802D01*
X114239039Y-55349054D01*
X113953686Y-55169754D01*
X113953683Y-55169752D01*
X113650054Y-55023532D01*
X113331965Y-54912227D01*
X113331953Y-54912223D01*
X113003397Y-54837233D01*
X113003381Y-54837231D01*
X112668508Y-54799500D01*
X112668504Y-54799500D01*
X107331496Y-54799500D01*
X107331491Y-54799500D01*
X106996618Y-54837231D01*
X106996602Y-54837233D01*
X106668046Y-54912223D01*
X106668034Y-54912227D01*
X106349945Y-55023532D01*
X106046316Y-55169752D01*
X105760962Y-55349053D01*
X105497477Y-55559174D01*
X105259174Y-55797477D01*
X105227175Y-55837603D01*
X105169986Y-55877743D01*
X105100174Y-55880593D01*
X105039905Y-55845247D01*
X105008312Y-55782928D01*
X105006228Y-55760274D01*
X105006961Y-50059448D01*
X111849500Y-50059448D01*
X111849500Y-50240551D01*
X111877829Y-50419410D01*
X111933787Y-50591636D01*
X111933788Y-50591639D01*
X112016006Y-50752997D01*
X112073606Y-50832278D01*
X112097086Y-50898084D01*
X112081260Y-50966138D01*
X112070896Y-50981640D01*
X112067453Y-50986033D01*
X111980710Y-51129526D01*
X111930822Y-51289623D01*
X111927289Y-51328508D01*
X111925017Y-51353516D01*
X111924500Y-51359201D01*
X111924500Y-52040808D01*
X111930821Y-52110376D01*
X111930823Y-52110383D01*
X111980708Y-52270470D01*
X111980709Y-52270472D01*
X112067454Y-52413967D01*
X112067457Y-52413971D01*
X112186028Y-52532542D01*
X112186032Y-52532545D01*
X112294707Y-52598240D01*
X112329529Y-52619291D01*
X112489620Y-52669177D01*
X112559199Y-52675500D01*
X114040800Y-52675499D01*
X114040807Y-52675499D01*
X114110375Y-52669178D01*
X114110378Y-52669177D01*
X114110380Y-52669177D01*
X114270471Y-52619291D01*
X114413972Y-52532542D01*
X114532542Y-52413972D01*
X114619291Y-52270471D01*
X114669177Y-52110380D01*
X114675500Y-52040801D01*
X114675499Y-51359200D01*
X114675499Y-51359199D01*
X114675499Y-51359191D01*
X114669178Y-51289623D01*
X114669176Y-51289616D01*
X114619291Y-51129529D01*
X114619290Y-51129527D01*
X114532547Y-50986034D01*
X114529108Y-50981646D01*
X114503252Y-50916736D01*
X114516594Y-50848152D01*
X114526388Y-50832284D01*
X114583996Y-50752994D01*
X114666211Y-50591639D01*
X114722171Y-50419409D01*
X114741087Y-50299980D01*
X114750500Y-50240551D01*
X114750500Y-50059448D01*
X114730209Y-49931342D01*
X114722171Y-49880591D01*
X114677574Y-49743334D01*
X114666212Y-49708363D01*
X114666211Y-49708360D01*
X114620849Y-49619334D01*
X114583996Y-49547006D01*
X114570913Y-49528999D01*
X114526393Y-49467721D01*
X114502913Y-49401915D01*
X114518739Y-49333861D01*
X114529111Y-49318349D01*
X114532535Y-49313978D01*
X114532542Y-49313972D01*
X114534732Y-49310350D01*
X114537025Y-49308249D01*
X114537179Y-49308054D01*
X114537211Y-49308079D01*
X114586260Y-49263163D01*
X114640849Y-49250500D01*
X115621916Y-49250500D01*
X115688955Y-49270185D01*
X115709597Y-49286819D01*
X115909509Y-49486732D01*
X115909513Y-49486735D01*
X116022681Y-49562352D01*
X116022685Y-49562354D01*
X116022688Y-49562356D01*
X116148442Y-49614445D01*
X116167439Y-49618223D01*
X116223905Y-49629455D01*
X116281941Y-49641000D01*
X116281942Y-49641000D01*
X116459343Y-49641000D01*
X116526382Y-49660685D01*
X116564880Y-49699900D01*
X116607288Y-49768656D01*
X116607289Y-49768657D01*
X116607290Y-49768658D01*
X116700951Y-49862319D01*
X116734436Y-49923642D01*
X116729452Y-49993334D01*
X116700951Y-50037681D01*
X116607289Y-50131342D01*
X116515187Y-50280663D01*
X116515186Y-50280666D01*
X116460001Y-50447203D01*
X116460001Y-50447204D01*
X116460000Y-50447204D01*
X116449500Y-50549983D01*
X116449500Y-51350001D01*
X116449501Y-51350019D01*
X116460000Y-51452796D01*
X116460001Y-51452799D01*
X116515185Y-51619331D01*
X116515187Y-51619336D01*
X116543856Y-51665816D01*
X116607288Y-51768656D01*
X116731344Y-51892712D01*
X116880666Y-51984814D01*
X117047203Y-52039999D01*
X117149991Y-52050500D01*
X118150008Y-52050499D01*
X118150016Y-52050498D01*
X118150019Y-52050498D01*
X118244877Y-52040808D01*
X118252797Y-52039999D01*
X118419334Y-51984814D01*
X118568656Y-51892712D01*
X118692712Y-51768656D01*
X118784814Y-51619334D01*
X118803079Y-51564213D01*
X118842850Y-51506770D01*
X118907366Y-51479947D01*
X118976142Y-51492262D01*
X119027342Y-51539805D01*
X119038489Y-51564213D01*
X119039961Y-51568656D01*
X119040184Y-51569327D01*
X119040187Y-51569336D01*
X119063771Y-51607572D01*
X119132286Y-51718653D01*
X119132289Y-51718657D01*
X119140019Y-51726387D01*
X119173504Y-51787710D01*
X119168520Y-51857402D01*
X119126648Y-51913335D01*
X119117435Y-51919606D01*
X119056347Y-51957285D01*
X119056343Y-51957288D01*
X118932289Y-52081342D01*
X118840187Y-52230663D01*
X118840185Y-52230668D01*
X118826995Y-52270473D01*
X118785001Y-52397203D01*
X118785001Y-52397204D01*
X118785000Y-52397204D01*
X118774500Y-52499983D01*
X118774500Y-53300001D01*
X118774501Y-53300019D01*
X118785000Y-53402796D01*
X118785001Y-53402799D01*
X118823618Y-53519336D01*
X118840186Y-53569334D01*
X118927185Y-53710383D01*
X118932289Y-53718657D01*
X119025951Y-53812319D01*
X119059436Y-53873642D01*
X119054452Y-53943334D01*
X119025951Y-53987681D01*
X118932289Y-54081342D01*
X118840187Y-54230663D01*
X118840186Y-54230666D01*
X118785001Y-54397203D01*
X118785001Y-54397204D01*
X118785000Y-54397204D01*
X118774500Y-54499983D01*
X118774500Y-55300001D01*
X118774501Y-55300019D01*
X118785000Y-55402796D01*
X118785001Y-55402799D01*
X118833466Y-55549054D01*
X118840186Y-55569334D01*
X118932288Y-55718656D01*
X119056344Y-55842712D01*
X119205666Y-55934814D01*
X119372203Y-55989999D01*
X119474991Y-56000500D01*
X120475008Y-56000499D01*
X120475016Y-56000498D01*
X120475019Y-56000498D01*
X120531302Y-55994748D01*
X120577797Y-55989999D01*
X120744334Y-55934814D01*
X120893656Y-55842712D01*
X121017712Y-55718656D01*
X121109814Y-55569334D01*
X121164999Y-55402797D01*
X121175500Y-55300009D01*
X121175499Y-54499992D01*
X121170391Y-54449992D01*
X121164999Y-54397203D01*
X121164998Y-54397200D01*
X121148431Y-54347204D01*
X121109814Y-54230666D01*
X121017712Y-54081344D01*
X120924049Y-53987681D01*
X120890564Y-53926358D01*
X120895548Y-53856666D01*
X120924049Y-53812319D01*
X120943656Y-53792712D01*
X121017712Y-53718656D01*
X121109814Y-53569334D01*
X121164999Y-53402797D01*
X121175500Y-53300009D01*
X121175499Y-52499992D01*
X121175498Y-52499983D01*
X121899500Y-52499983D01*
X121899500Y-53300001D01*
X121899501Y-53300019D01*
X121910000Y-53402796D01*
X121910001Y-53402799D01*
X121948618Y-53519336D01*
X121965186Y-53569334D01*
X122052185Y-53710383D01*
X122057289Y-53718657D01*
X122150951Y-53812319D01*
X122184436Y-53873642D01*
X122179452Y-53943334D01*
X122150951Y-53987681D01*
X122057289Y-54081342D01*
X121965187Y-54230663D01*
X121965186Y-54230666D01*
X121910001Y-54397203D01*
X121910001Y-54397204D01*
X121910000Y-54397204D01*
X121899500Y-54499983D01*
X121899500Y-55300001D01*
X121899501Y-55300019D01*
X121910000Y-55402796D01*
X121910001Y-55402799D01*
X121958466Y-55549054D01*
X121965186Y-55569334D01*
X122057288Y-55718656D01*
X122181344Y-55842712D01*
X122330666Y-55934814D01*
X122497203Y-55989999D01*
X122599991Y-56000500D01*
X123600008Y-56000499D01*
X123600016Y-56000498D01*
X123600019Y-56000498D01*
X123656302Y-55994748D01*
X123702797Y-55989999D01*
X123869334Y-55934814D01*
X124018656Y-55842712D01*
X124142712Y-55718656D01*
X124234814Y-55569334D01*
X124289999Y-55402797D01*
X124300500Y-55300009D01*
X124300499Y-54499992D01*
X124295391Y-54449992D01*
X124289999Y-54397203D01*
X124289998Y-54397200D01*
X124273431Y-54347204D01*
X124234814Y-54230666D01*
X124142712Y-54081344D01*
X124049049Y-53987681D01*
X124015564Y-53926358D01*
X124020548Y-53856666D01*
X124049049Y-53812319D01*
X124068656Y-53792712D01*
X124142712Y-53718656D01*
X124234814Y-53569334D01*
X124241226Y-53549983D01*
X132799500Y-53549983D01*
X132799500Y-54350001D01*
X132799501Y-54350019D01*
X132810000Y-54452796D01*
X132810001Y-54452799D01*
X132844476Y-54556836D01*
X132865186Y-54619334D01*
X132951612Y-54759454D01*
X132957289Y-54768657D01*
X133050951Y-54862319D01*
X133084436Y-54923642D01*
X133079452Y-54993334D01*
X133050951Y-55037681D01*
X132957289Y-55131342D01*
X132865187Y-55280663D01*
X132865185Y-55280668D01*
X132858776Y-55300009D01*
X132810001Y-55447203D01*
X132810001Y-55447204D01*
X132810000Y-55447204D01*
X132799500Y-55549983D01*
X132799500Y-56350001D01*
X132799501Y-56350019D01*
X132810000Y-56452796D01*
X132810001Y-56452799D01*
X132865185Y-56619331D01*
X132865186Y-56619334D01*
X132957288Y-56768656D01*
X133081344Y-56892712D01*
X133230666Y-56984814D01*
X133397203Y-57039999D01*
X133499991Y-57050500D01*
X134500008Y-57050499D01*
X134500016Y-57050498D01*
X134500019Y-57050498D01*
X134556302Y-57044748D01*
X134602797Y-57039999D01*
X134769334Y-56984814D01*
X134918656Y-56892712D01*
X135042712Y-56768656D01*
X135134814Y-56619334D01*
X135189999Y-56452797D01*
X135200500Y-56350009D01*
X135200499Y-55549992D01*
X135198689Y-55532278D01*
X135189999Y-55447203D01*
X135189998Y-55447200D01*
X135175284Y-55402796D01*
X135134814Y-55280666D01*
X135042712Y-55131344D01*
X134949049Y-55037681D01*
X134915564Y-54976358D01*
X134920548Y-54906666D01*
X134949049Y-54862319D01*
X134981160Y-54830208D01*
X135042712Y-54768656D01*
X135048392Y-54759448D01*
X135799500Y-54759448D01*
X135799500Y-54940551D01*
X135827829Y-55119410D01*
X135883787Y-55291636D01*
X135883788Y-55291639D01*
X135923590Y-55369752D01*
X135963053Y-55447203D01*
X135966006Y-55452997D01*
X136023606Y-55532278D01*
X136047086Y-55598084D01*
X136031260Y-55666138D01*
X136020896Y-55681640D01*
X136017453Y-55686033D01*
X135930710Y-55829526D01*
X135880822Y-55989623D01*
X135874500Y-56059201D01*
X135874500Y-56740808D01*
X135880821Y-56810376D01*
X135880823Y-56810383D01*
X135930708Y-56970470D01*
X135930709Y-56970472D01*
X136017454Y-57113967D01*
X136017457Y-57113971D01*
X136136028Y-57232542D01*
X136136032Y-57232545D01*
X136241997Y-57296602D01*
X136279529Y-57319291D01*
X136439620Y-57369177D01*
X136509199Y-57375500D01*
X137990800Y-57375499D01*
X137990807Y-57375499D01*
X138060375Y-57369178D01*
X138060378Y-57369177D01*
X138060380Y-57369177D01*
X138220471Y-57319291D01*
X138363972Y-57232542D01*
X138482542Y-57113972D01*
X138569291Y-56970471D01*
X138619177Y-56810380D01*
X138625500Y-56740801D01*
X138625499Y-56059200D01*
X138625499Y-56059199D01*
X138625499Y-56059191D01*
X138619178Y-55989623D01*
X138619176Y-55989616D01*
X138583455Y-55874983D01*
X139674500Y-55874983D01*
X139674500Y-56475001D01*
X139674501Y-56475019D01*
X139685000Y-56577796D01*
X139685001Y-56577799D01*
X139739014Y-56740798D01*
X139740186Y-56744334D01*
X139832288Y-56893656D01*
X139956344Y-57017712D01*
X140105666Y-57109814D01*
X140272203Y-57164999D01*
X140374991Y-57175500D01*
X140975008Y-57175499D01*
X140975016Y-57175498D01*
X140975019Y-57175498D01*
X141031302Y-57169748D01*
X141077797Y-57164999D01*
X141244334Y-57109814D01*
X141393656Y-57017712D01*
X141517712Y-56893656D01*
X141609814Y-56744334D01*
X141664999Y-56577797D01*
X141675500Y-56475009D01*
X141675500Y-56362486D01*
X142325001Y-56362486D01*
X142335494Y-56465197D01*
X142390641Y-56631619D01*
X142390643Y-56631624D01*
X142482684Y-56780845D01*
X142606654Y-56904815D01*
X142755875Y-56996856D01*
X142755880Y-56996858D01*
X142922302Y-57052005D01*
X142922309Y-57052006D01*
X143025019Y-57062499D01*
X143299999Y-57062499D01*
X143800000Y-57062499D01*
X144074972Y-57062499D01*
X144074986Y-57062498D01*
X144177697Y-57052005D01*
X144344119Y-56996858D01*
X144344124Y-56996856D01*
X144493345Y-56904815D01*
X144617315Y-56780845D01*
X144709356Y-56631624D01*
X144709358Y-56631619D01*
X144764505Y-56465197D01*
X144764506Y-56465190D01*
X144774999Y-56362486D01*
X144775000Y-56362473D01*
X144775000Y-56225000D01*
X143800000Y-56225000D01*
X143800000Y-57062499D01*
X143299999Y-57062499D01*
X143300000Y-57062498D01*
X143300000Y-56225000D01*
X142325001Y-56225000D01*
X142325001Y-56362486D01*
X141675500Y-56362486D01*
X141675499Y-55874992D01*
X141672201Y-55842710D01*
X141664999Y-55772203D01*
X141664998Y-55772200D01*
X141649357Y-55725000D01*
X141609814Y-55605666D01*
X141517712Y-55456344D01*
X141393656Y-55332288D01*
X141244334Y-55240186D01*
X141077797Y-55185001D01*
X141077795Y-55185000D01*
X140975010Y-55174500D01*
X140374998Y-55174500D01*
X140374980Y-55174501D01*
X140272203Y-55185000D01*
X140272200Y-55185001D01*
X140105668Y-55240185D01*
X140105663Y-55240187D01*
X139956342Y-55332289D01*
X139832289Y-55456342D01*
X139740187Y-55605663D01*
X139740185Y-55605668D01*
X139719313Y-55668656D01*
X139685001Y-55772203D01*
X139685001Y-55772204D01*
X139685000Y-55772204D01*
X139674500Y-55874983D01*
X138583455Y-55874983D01*
X138569291Y-55829529D01*
X138569290Y-55829527D01*
X138482547Y-55686034D01*
X138479108Y-55681646D01*
X138453252Y-55616736D01*
X138466594Y-55548152D01*
X138476388Y-55532284D01*
X138533996Y-55452994D01*
X138616211Y-55291639D01*
X138672171Y-55119409D01*
X138691163Y-54999500D01*
X138700500Y-54940551D01*
X138700500Y-54759448D01*
X138684019Y-54655397D01*
X138672171Y-54580591D01*
X138630648Y-54452795D01*
X138616212Y-54408363D01*
X138616211Y-54408360D01*
X138585048Y-54347200D01*
X138533996Y-54247006D01*
X138485799Y-54180668D01*
X138476393Y-54167721D01*
X138452913Y-54101915D01*
X138468739Y-54033861D01*
X138479111Y-54018349D01*
X138482534Y-54013979D01*
X138482542Y-54013972D01*
X138498436Y-53987681D01*
X138509172Y-53969918D01*
X138569291Y-53870471D01*
X138619177Y-53710380D01*
X138625500Y-53640801D01*
X138625500Y-53374983D01*
X139674500Y-53374983D01*
X139674500Y-53975001D01*
X139674501Y-53975019D01*
X139685000Y-54077796D01*
X139685001Y-54077799D01*
X139740185Y-54244331D01*
X139740187Y-54244336D01*
X139741832Y-54247003D01*
X139832288Y-54393656D01*
X139956344Y-54517712D01*
X140105666Y-54609814D01*
X140272203Y-54664999D01*
X140374991Y-54675500D01*
X140975008Y-54675499D01*
X140975016Y-54675498D01*
X140975019Y-54675498D01*
X141031302Y-54669748D01*
X141077797Y-54664999D01*
X141244334Y-54609814D01*
X141393656Y-54517712D01*
X141517712Y-54393656D01*
X141609814Y-54244334D01*
X141664999Y-54077797D01*
X141675500Y-53975009D01*
X141675499Y-53512483D01*
X142324500Y-53512483D01*
X142324500Y-54287501D01*
X142324501Y-54287519D01*
X142335000Y-54390296D01*
X142335001Y-54390299D01*
X142377222Y-54517712D01*
X142390186Y-54556834D01*
X142482288Y-54706156D01*
X142606344Y-54830212D01*
X142609628Y-54832237D01*
X142609653Y-54832253D01*
X142611445Y-54834246D01*
X142612011Y-54834693D01*
X142611934Y-54834789D01*
X142656379Y-54884199D01*
X142667603Y-54953161D01*
X142639761Y-55017244D01*
X142609665Y-55043326D01*
X142606660Y-55045179D01*
X142606655Y-55045183D01*
X142482684Y-55169154D01*
X142390643Y-55318375D01*
X142390641Y-55318380D01*
X142335494Y-55484802D01*
X142335493Y-55484809D01*
X142325000Y-55587513D01*
X142325000Y-55725000D01*
X144774999Y-55725000D01*
X144774999Y-55587528D01*
X144774998Y-55587513D01*
X144764505Y-55484802D01*
X144709358Y-55318380D01*
X144709356Y-55318375D01*
X144617315Y-55169154D01*
X144493344Y-55045183D01*
X144493341Y-55045181D01*
X144490339Y-55043329D01*
X144488713Y-55041521D01*
X144487677Y-55040702D01*
X144487817Y-55040524D01*
X144443617Y-54991380D01*
X144432397Y-54922417D01*
X144460243Y-54858336D01*
X144490344Y-54832254D01*
X144493656Y-54830212D01*
X144617712Y-54706156D01*
X144709814Y-54556834D01*
X144764999Y-54390297D01*
X144775500Y-54287509D01*
X144775499Y-53512492D01*
X144764999Y-53409703D01*
X144709814Y-53243166D01*
X144617712Y-53093844D01*
X144493656Y-52969788D01*
X144344334Y-52877686D01*
X144177797Y-52822501D01*
X144177795Y-52822500D01*
X144075010Y-52812000D01*
X143024998Y-52812000D01*
X143024980Y-52812001D01*
X142922203Y-52822500D01*
X142922200Y-52822501D01*
X142755668Y-52877685D01*
X142755663Y-52877687D01*
X142606342Y-52969789D01*
X142482289Y-53093842D01*
X142390187Y-53243163D01*
X142390185Y-53243168D01*
X142387918Y-53250009D01*
X142335001Y-53409703D01*
X142335001Y-53409704D01*
X142335000Y-53409704D01*
X142324500Y-53512483D01*
X141675499Y-53512483D01*
X141675499Y-53374992D01*
X141664999Y-53272203D01*
X141609814Y-53105666D01*
X141517712Y-52956344D01*
X141393656Y-52832288D01*
X141244334Y-52740186D01*
X141077797Y-52685001D01*
X141077795Y-52685000D01*
X140975010Y-52674500D01*
X140374998Y-52674500D01*
X140374980Y-52674501D01*
X140272203Y-52685000D01*
X140272200Y-52685001D01*
X140105668Y-52740185D01*
X140105663Y-52740187D01*
X139956342Y-52832289D01*
X139832289Y-52956342D01*
X139740187Y-53105663D01*
X139740186Y-53105666D01*
X139685001Y-53272203D01*
X139685001Y-53272204D01*
X139685000Y-53272204D01*
X139674500Y-53374983D01*
X138625500Y-53374983D01*
X138625499Y-52959200D01*
X138625499Y-52959199D01*
X138625499Y-52959191D01*
X138619178Y-52889623D01*
X138619176Y-52889616D01*
X138569291Y-52729529D01*
X138569290Y-52729527D01*
X138482545Y-52586032D01*
X138482542Y-52586028D01*
X138363971Y-52467457D01*
X138363967Y-52467454D01*
X138220473Y-52380710D01*
X138220472Y-52380709D01*
X138220471Y-52380709D01*
X138060380Y-52330823D01*
X138060378Y-52330822D01*
X138060376Y-52330822D01*
X138011662Y-52326395D01*
X137990801Y-52324500D01*
X137990798Y-52324500D01*
X136509191Y-52324500D01*
X136439624Y-52330821D01*
X136439616Y-52330823D01*
X136279529Y-52380708D01*
X136279527Y-52380709D01*
X136136032Y-52467454D01*
X136136028Y-52467457D01*
X136017457Y-52586028D01*
X136017454Y-52586032D01*
X135930710Y-52729526D01*
X135930710Y-52729527D01*
X135930709Y-52729529D01*
X135927388Y-52740186D01*
X135880822Y-52889623D01*
X135875763Y-52945291D01*
X135874760Y-52956344D01*
X135874500Y-52959201D01*
X135874500Y-53640808D01*
X135880821Y-53710376D01*
X135880823Y-53710383D01*
X135930708Y-53870470D01*
X135930709Y-53870472D01*
X136017455Y-54013969D01*
X136020892Y-54018355D01*
X136046747Y-54083265D01*
X136033404Y-54151849D01*
X136023607Y-54167720D01*
X135966005Y-54247003D01*
X135883788Y-54408360D01*
X135883787Y-54408363D01*
X135827829Y-54580589D01*
X135799500Y-54759448D01*
X135048392Y-54759448D01*
X135134814Y-54619334D01*
X135189999Y-54452797D01*
X135200500Y-54350009D01*
X135200499Y-53549992D01*
X135197367Y-53519336D01*
X135189999Y-53447203D01*
X135189998Y-53447200D01*
X135175284Y-53402796D01*
X135134814Y-53280666D01*
X135042712Y-53131344D01*
X134918656Y-53007288D01*
X134769334Y-52915186D01*
X134602797Y-52860001D01*
X134602795Y-52860000D01*
X134500010Y-52849500D01*
X133499998Y-52849500D01*
X133499980Y-52849501D01*
X133397203Y-52860000D01*
X133397200Y-52860001D01*
X133230668Y-52915185D01*
X133230663Y-52915187D01*
X133081342Y-53007289D01*
X132957289Y-53131342D01*
X132865187Y-53280663D01*
X132865185Y-53280668D01*
X132858776Y-53300009D01*
X132810001Y-53447203D01*
X132810001Y-53447204D01*
X132810000Y-53447204D01*
X132799500Y-53549983D01*
X124241226Y-53549983D01*
X124289999Y-53402797D01*
X124300500Y-53300009D01*
X124300499Y-52499992D01*
X124298716Y-52482542D01*
X124289999Y-52397203D01*
X124289998Y-52397200D01*
X124273431Y-52347204D01*
X124234814Y-52230666D01*
X124142712Y-52081344D01*
X124018656Y-51957288D01*
X123925761Y-51899990D01*
X123879038Y-51848043D01*
X123867815Y-51779080D01*
X123890217Y-51725603D01*
X123888920Y-51724803D01*
X123892710Y-51718657D01*
X123892712Y-51718656D01*
X123984814Y-51569334D01*
X124024793Y-51448683D01*
X124064564Y-51391241D01*
X124129080Y-51364418D01*
X124197856Y-51376733D01*
X124248037Y-51422594D01*
X124305134Y-51515165D01*
X124307288Y-51518656D01*
X124431344Y-51642712D01*
X124580666Y-51734814D01*
X124747203Y-51789999D01*
X124849991Y-51800500D01*
X125850008Y-51800499D01*
X125850016Y-51800498D01*
X125850019Y-51800498D01*
X125926238Y-51792712D01*
X125952797Y-51789999D01*
X126119334Y-51734814D01*
X126268656Y-51642712D01*
X126392712Y-51518656D01*
X126484814Y-51369334D01*
X126539999Y-51202797D01*
X126550500Y-51100009D01*
X126550499Y-50299992D01*
X126539999Y-50197203D01*
X126484814Y-50030666D01*
X126471727Y-50009448D01*
X127999500Y-50009448D01*
X127999500Y-50190551D01*
X128027829Y-50369410D01*
X128083787Y-50541636D01*
X128083788Y-50541639D01*
X128139359Y-50650700D01*
X128164477Y-50699998D01*
X128166006Y-50702997D01*
X128223606Y-50782278D01*
X128247086Y-50848084D01*
X128231260Y-50916138D01*
X128220896Y-50931640D01*
X128217453Y-50936033D01*
X128130710Y-51079526D01*
X128130710Y-51079527D01*
X128130709Y-51079529D01*
X128111308Y-51141788D01*
X128080822Y-51239623D01*
X128074500Y-51309201D01*
X128074500Y-51990808D01*
X128080821Y-52060376D01*
X128080823Y-52060383D01*
X128130708Y-52220470D01*
X128130709Y-52220472D01*
X128217454Y-52363967D01*
X128217457Y-52363971D01*
X128336028Y-52482542D01*
X128336032Y-52482545D01*
X128418738Y-52532542D01*
X128479529Y-52569291D01*
X128639620Y-52619177D01*
X128709199Y-52625500D01*
X130190800Y-52625499D01*
X130190807Y-52625499D01*
X130260375Y-52619178D01*
X130260378Y-52619177D01*
X130260380Y-52619177D01*
X130420471Y-52569291D01*
X130563972Y-52482542D01*
X130682542Y-52363972D01*
X130769291Y-52220471D01*
X130819177Y-52060380D01*
X130825500Y-51990801D01*
X130825499Y-51309200D01*
X130825499Y-51309199D01*
X130825499Y-51309191D01*
X130819178Y-51239623D01*
X130819176Y-51239616D01*
X130769291Y-51079529D01*
X130769290Y-51079527D01*
X130682547Y-50936034D01*
X130679108Y-50931646D01*
X130653252Y-50866736D01*
X130666594Y-50798152D01*
X130676388Y-50782284D01*
X130733996Y-50702994D01*
X130816211Y-50541639D01*
X130872171Y-50369409D01*
X130888082Y-50268949D01*
X130900500Y-50190551D01*
X130900500Y-50009448D01*
X130880090Y-49880589D01*
X130872171Y-49830591D01*
X130837422Y-49723642D01*
X130816212Y-49658363D01*
X130816211Y-49658360D01*
X130770504Y-49568657D01*
X130733996Y-49497006D01*
X130712719Y-49467720D01*
X130676393Y-49417721D01*
X130652913Y-49351915D01*
X130668739Y-49283861D01*
X130679111Y-49268349D01*
X130682534Y-49263979D01*
X130682542Y-49263972D01*
X130685246Y-49259500D01*
X130719523Y-49202797D01*
X130769291Y-49120471D01*
X130819177Y-48960380D01*
X130825500Y-48890801D01*
X130825499Y-48209200D01*
X130825499Y-48209199D01*
X130825499Y-48209191D01*
X130819178Y-48139623D01*
X130819176Y-48139616D01*
X130769291Y-47979529D01*
X130769290Y-47979527D01*
X130682545Y-47836032D01*
X130682542Y-47836028D01*
X130563971Y-47717457D01*
X130563967Y-47717454D01*
X130420473Y-47630710D01*
X130420472Y-47630709D01*
X130420471Y-47630709D01*
X130260380Y-47580823D01*
X130260378Y-47580822D01*
X130260376Y-47580822D01*
X130211662Y-47576395D01*
X130190801Y-47574500D01*
X130190798Y-47574500D01*
X128709191Y-47574500D01*
X128639624Y-47580821D01*
X128639616Y-47580823D01*
X128479529Y-47630708D01*
X128479527Y-47630709D01*
X128336032Y-47717454D01*
X128336028Y-47717457D01*
X128217457Y-47836028D01*
X128217454Y-47836032D01*
X128130710Y-47979526D01*
X128130710Y-47979527D01*
X128130709Y-47979529D01*
X128114775Y-48030663D01*
X128080822Y-48139623D01*
X128074500Y-48209201D01*
X128074500Y-48890808D01*
X128080821Y-48960376D01*
X128080823Y-48960383D01*
X128130708Y-49120470D01*
X128130709Y-49120472D01*
X128217455Y-49263969D01*
X128220892Y-49268355D01*
X128246747Y-49333265D01*
X128233404Y-49401849D01*
X128223607Y-49417720D01*
X128166005Y-49497003D01*
X128083788Y-49658360D01*
X128083787Y-49658363D01*
X128027829Y-49830589D01*
X127999500Y-50009448D01*
X126471727Y-50009448D01*
X126392712Y-49881344D01*
X126299049Y-49787681D01*
X126265564Y-49726358D01*
X126270548Y-49656666D01*
X126299049Y-49612319D01*
X126342712Y-49568656D01*
X126392712Y-49518656D01*
X126484814Y-49369334D01*
X126539999Y-49202797D01*
X126550500Y-49100009D01*
X126550499Y-48299992D01*
X126548184Y-48277334D01*
X126539999Y-48197203D01*
X126539998Y-48197200D01*
X126520918Y-48139620D01*
X126484814Y-48030666D01*
X126392712Y-47881344D01*
X126268656Y-47757288D01*
X126152737Y-47685789D01*
X126119336Y-47665187D01*
X126119331Y-47665185D01*
X126095499Y-47657288D01*
X125952797Y-47610001D01*
X125952795Y-47610000D01*
X125850010Y-47599500D01*
X124849998Y-47599500D01*
X124849980Y-47599501D01*
X124747203Y-47610000D01*
X124747200Y-47610001D01*
X124580668Y-47665185D01*
X124580663Y-47665187D01*
X124431342Y-47757289D01*
X124307289Y-47881342D01*
X124226481Y-48012354D01*
X124174533Y-48059078D01*
X124105570Y-48070301D01*
X124041488Y-48042457D01*
X124003236Y-47986261D01*
X123984814Y-47930666D01*
X123892712Y-47781344D01*
X123768656Y-47657288D01*
X123634436Y-47574501D01*
X123619336Y-47565187D01*
X123619331Y-47565185D01*
X123582559Y-47553000D01*
X123452797Y-47510001D01*
X123452795Y-47510000D01*
X123350010Y-47499500D01*
X122749998Y-47499500D01*
X122749980Y-47499501D01*
X122647203Y-47510000D01*
X122647200Y-47510001D01*
X122480668Y-47565185D01*
X122480663Y-47565187D01*
X122331342Y-47657289D01*
X122207289Y-47781342D01*
X122115187Y-47930663D01*
X122115185Y-47930668D01*
X122096668Y-47986550D01*
X122060001Y-48097203D01*
X122060001Y-48097204D01*
X122060000Y-48097204D01*
X122049500Y-48199983D01*
X122049500Y-48800001D01*
X122049501Y-48800019D01*
X122060000Y-48902796D01*
X122060001Y-48902799D01*
X122115185Y-49069331D01*
X122115187Y-49069336D01*
X122132618Y-49097596D01*
X122207288Y-49218656D01*
X122331344Y-49342712D01*
X122480666Y-49434814D01*
X122647203Y-49489999D01*
X122749991Y-49500500D01*
X123350008Y-49500499D01*
X123350016Y-49500498D01*
X123350019Y-49500498D01*
X123406302Y-49494748D01*
X123452797Y-49489999D01*
X123619334Y-49434814D01*
X123768656Y-49342712D01*
X123892712Y-49218656D01*
X123931640Y-49155542D01*
X123983586Y-49108819D01*
X124052549Y-49097596D01*
X124116631Y-49125439D01*
X124155488Y-49183507D01*
X124158118Y-49196280D01*
X124158585Y-49196181D01*
X124160001Y-49202799D01*
X124215185Y-49369331D01*
X124215187Y-49369336D01*
X124224682Y-49384730D01*
X124307191Y-49518499D01*
X124307289Y-49518657D01*
X124400951Y-49612319D01*
X124434436Y-49673642D01*
X124429452Y-49743334D01*
X124400951Y-49787681D01*
X124307289Y-49881342D01*
X124215187Y-50030663D01*
X124215185Y-50030668D01*
X124194303Y-50093686D01*
X124160001Y-50197203D01*
X124160001Y-50197204D01*
X124160000Y-50197204D01*
X124151771Y-50277753D01*
X124125374Y-50342444D01*
X124068193Y-50382595D01*
X123998382Y-50385457D01*
X123938105Y-50350123D01*
X123922874Y-50330245D01*
X123921495Y-50328010D01*
X123892712Y-50281344D01*
X123768656Y-50157288D01*
X123665539Y-50093685D01*
X123619336Y-50065187D01*
X123619331Y-50065185D01*
X123582559Y-50053000D01*
X123452797Y-50010001D01*
X123452795Y-50010000D01*
X123350010Y-49999500D01*
X122749998Y-49999500D01*
X122749980Y-49999501D01*
X122647203Y-50010000D01*
X122647200Y-50010001D01*
X122480668Y-50065185D01*
X122480663Y-50065187D01*
X122331342Y-50157289D01*
X122207289Y-50281342D01*
X122115187Y-50430663D01*
X122115185Y-50430668D01*
X122099106Y-50479193D01*
X122060001Y-50597203D01*
X122060001Y-50597204D01*
X122060000Y-50597204D01*
X122049500Y-50699983D01*
X122049500Y-51300001D01*
X122049501Y-51300019D01*
X122060000Y-51402796D01*
X122060001Y-51402799D01*
X122115185Y-51569331D01*
X122115187Y-51569336D01*
X122138771Y-51607572D01*
X122207286Y-51718653D01*
X122207289Y-51718657D01*
X122234093Y-51745461D01*
X122267578Y-51806784D01*
X122262594Y-51876476D01*
X122220722Y-51932409D01*
X122211512Y-51938679D01*
X122181343Y-51957288D01*
X122057289Y-52081342D01*
X121965187Y-52230663D01*
X121965185Y-52230668D01*
X121951995Y-52270473D01*
X121910001Y-52397203D01*
X121910001Y-52397204D01*
X121910000Y-52397204D01*
X121899500Y-52499983D01*
X121175498Y-52499983D01*
X121173716Y-52482542D01*
X121164999Y-52397203D01*
X121164998Y-52397200D01*
X121148431Y-52347204D01*
X121109814Y-52230666D01*
X121017712Y-52081344D01*
X120893656Y-51957288D01*
X120893655Y-51957287D01*
X120832565Y-51919607D01*
X120785840Y-51867659D01*
X120774617Y-51798697D01*
X120802461Y-51734614D01*
X120809961Y-51726406D01*
X120817712Y-51718656D01*
X120909814Y-51569334D01*
X120964999Y-51402797D01*
X120975500Y-51300009D01*
X120975499Y-50699992D01*
X120964999Y-50597203D01*
X120909814Y-50430666D01*
X120817712Y-50281344D01*
X120693656Y-50157288D01*
X120590539Y-50093685D01*
X120544336Y-50065187D01*
X120544331Y-50065185D01*
X120507559Y-50053000D01*
X120377797Y-50010001D01*
X120377795Y-50010000D01*
X120275010Y-49999500D01*
X119674998Y-49999500D01*
X119674980Y-49999501D01*
X119572203Y-50010000D01*
X119572200Y-50010001D01*
X119405668Y-50065185D01*
X119405663Y-50065187D01*
X119256342Y-50157289D01*
X119132289Y-50281342D01*
X119045996Y-50421246D01*
X118994048Y-50467970D01*
X118925085Y-50479193D01*
X118861003Y-50451349D01*
X118822751Y-50395153D01*
X118814221Y-50369410D01*
X118784814Y-50280666D01*
X118692712Y-50131344D01*
X118599049Y-50037681D01*
X118565564Y-49976358D01*
X118570548Y-49906666D01*
X118599049Y-49862319D01*
X118637726Y-49823642D01*
X118692712Y-49768656D01*
X118784814Y-49619334D01*
X118839999Y-49452797D01*
X118850500Y-49350009D01*
X118850499Y-49199040D01*
X118870183Y-49132003D01*
X118922987Y-49086248D01*
X118992145Y-49076304D01*
X119055701Y-49105329D01*
X119080037Y-49133945D01*
X119132285Y-49218652D01*
X119132287Y-49218655D01*
X119132288Y-49218656D01*
X119256344Y-49342712D01*
X119405666Y-49434814D01*
X119572203Y-49489999D01*
X119674991Y-49500500D01*
X120275008Y-49500499D01*
X120275016Y-49500498D01*
X120275019Y-49500498D01*
X120331302Y-49494748D01*
X120377797Y-49489999D01*
X120544334Y-49434814D01*
X120693656Y-49342712D01*
X120817712Y-49218656D01*
X120909814Y-49069334D01*
X120964999Y-48902797D01*
X120975500Y-48800009D01*
X120975499Y-48199992D01*
X120974439Y-48189620D01*
X120964999Y-48097203D01*
X120964998Y-48097200D01*
X120959502Y-48080615D01*
X120909814Y-47930666D01*
X120817712Y-47781344D01*
X120693656Y-47657288D01*
X120559436Y-47574501D01*
X120544336Y-47565187D01*
X120544331Y-47565185D01*
X120507559Y-47553000D01*
X120377797Y-47510001D01*
X120377795Y-47510000D01*
X120275010Y-47499500D01*
X119674998Y-47499500D01*
X119674980Y-47499501D01*
X119572203Y-47510000D01*
X119572200Y-47510001D01*
X119405668Y-47565185D01*
X119405663Y-47565187D01*
X119256342Y-47657289D01*
X119132289Y-47781342D01*
X119040187Y-47930663D01*
X119040185Y-47930668D01*
X119021668Y-47986550D01*
X118985001Y-48097203D01*
X118985001Y-48097204D01*
X118985000Y-48097204D01*
X118977601Y-48169630D01*
X118951204Y-48234321D01*
X118894023Y-48274472D01*
X118824212Y-48277334D01*
X118763936Y-48242000D01*
X118748704Y-48222122D01*
X118692712Y-48131344D01*
X118568657Y-48007289D01*
X118568656Y-48007288D01*
X118475888Y-47950069D01*
X118419336Y-47915187D01*
X118419331Y-47915185D01*
X118395499Y-47907288D01*
X118252797Y-47860001D01*
X118252795Y-47860000D01*
X118150010Y-47849500D01*
X117149998Y-47849500D01*
X117149980Y-47849501D01*
X117047203Y-47860000D01*
X117047200Y-47860001D01*
X116880668Y-47915185D01*
X116880663Y-47915187D01*
X116731345Y-48007287D01*
X116645608Y-48093024D01*
X116584284Y-48126508D01*
X116514593Y-48121524D01*
X116470246Y-48093023D01*
X116399992Y-48022769D01*
X116399985Y-48022763D01*
X116286812Y-47947144D01*
X116286809Y-47947142D01*
X116161061Y-47895056D01*
X116161049Y-47895053D01*
X116092128Y-47881344D01*
X116027560Y-47868500D01*
X116027558Y-47868500D01*
X114566376Y-47868500D01*
X114499337Y-47848815D01*
X114478695Y-47832181D01*
X114413971Y-47767457D01*
X114413967Y-47767454D01*
X114270473Y-47680710D01*
X114270472Y-47680709D01*
X114270471Y-47680709D01*
X114110380Y-47630823D01*
X114110378Y-47630822D01*
X114110376Y-47630822D01*
X114061662Y-47626395D01*
X114040801Y-47624500D01*
X114040798Y-47624500D01*
X112559191Y-47624500D01*
X112489624Y-47630821D01*
X112489616Y-47630823D01*
X112329529Y-47680708D01*
X112329527Y-47680709D01*
X112186032Y-47767454D01*
X112186028Y-47767457D01*
X112067457Y-47886028D01*
X112067454Y-47886032D01*
X111980710Y-48029526D01*
X111980709Y-48029528D01*
X111980709Y-48029529D01*
X111978363Y-48037058D01*
X111930822Y-48189623D01*
X111924500Y-48259201D01*
X111924500Y-48940808D01*
X111930821Y-49010376D01*
X111930823Y-49010383D01*
X111980708Y-49170470D01*
X111980709Y-49170472D01*
X112067455Y-49313969D01*
X112070892Y-49318355D01*
X112096747Y-49383265D01*
X112083404Y-49451849D01*
X112073607Y-49467720D01*
X112016005Y-49547003D01*
X111933788Y-49708360D01*
X111933787Y-49708363D01*
X111877829Y-49880589D01*
X111849500Y-50059448D01*
X105006961Y-50059448D01*
X105007596Y-45124204D01*
X105007607Y-45124066D01*
X105007607Y-45056960D01*
X105008387Y-45043078D01*
X105009891Y-45029723D01*
X105018566Y-44952731D01*
X105024744Y-44925666D01*
X105052461Y-44846455D01*
X105064500Y-44821456D01*
X105109153Y-44750391D01*
X105126456Y-44728695D01*
X105185797Y-44669355D01*
X105207496Y-44652050D01*
X105278558Y-44607398D01*
X105303560Y-44595359D01*
X105382775Y-44567641D01*
X105409834Y-44561466D01*
X105468723Y-44554831D01*
X105500245Y-44551280D01*
X105514127Y-44550500D01*
X105572996Y-44550501D01*
X105573000Y-44550500D01*
X105580890Y-44550500D01*
X105581312Y-44550473D01*
X132325455Y-44540727D01*
X132392501Y-44560387D01*
G37*
%TD.AperFunction*%
%TD*%
M02*
