M48
; DRILL file {KiCad 8.0.6-8.0.6-0~ubuntu24.04.1} date 2024-11-09T12:08:13+0100
; FORMAT={-:-/ absolute / inch / decimal}
; #@! TF.CreationDate,2024-11-09T12:08:13+01:00
; #@! TF.GenerationSoftware,Kicad,Pcbnew,8.0.6-8.0.6-0~ubuntu24.04.1
; #@! TF.FileFunction,Plated,1,2,PTH
FMAT,2
INCH
; #@! TA.AperFunction,Plated,PTH,ViaDrill
T1C0.0118
; #@! TA.AperFunction,Plated,PTH,ComponentDrill
T2C0.0236
; #@! TA.AperFunction,Plated,PTH,ComponentDrill
T3C0.0394
; #@! TA.AperFunction,Plated,PTH,ComponentDrill
T4C0.1260
%
G90
G05
T1
X4.685Y-2.2795
X4.8425Y-2.2795
X5.0Y-2.9528
X5.0Y-3.1102
X5.1378Y-1.7835
X5.1378Y-1.8307
X5.1772Y-1.8701
X5.2283Y-2.0
X5.2598Y-2.0315
X5.2638Y-2.5866
X5.2677Y-1.9921
X5.2795Y-2.5433
X5.2835Y-2.2953
X5.2992Y-2.6693
X5.374Y-2.3425
X5.3937Y-2.4606
X5.4055Y-2.9724
X5.4724Y-2.4803
X5.5197Y-2.5748
X5.5354Y-2.3858
X5.5591Y-1.9921
X5.5748Y-2.0276
X5.6063Y-1.9961
X5.6496Y-1.8701
X5.689Y-1.7717
X5.689Y-1.8307
X6.252Y-2.0827
T3
X4.4518Y-2.4683
X4.4518Y-4.3974
X5.0945Y-2.4685
X5.0945Y-4.3976
X5.7362Y-2.4683
X5.7362Y-4.3974
X6.378Y-2.4683
X6.378Y-4.3974
T4
X4.2717Y-1.8976
X4.7717Y-4.6929
X6.0591Y-4.6969
X6.5551Y-1.8976
T2
G00X5.1949Y-1.7764
M15
G01X5.1949Y-1.8157
M16
G05
G00X5.1949Y-1.9417
M15
G01X5.1949Y-1.9654
M16
G05
G00X5.639Y-1.776
M15
G01X5.639Y-1.8154
M16
G05
G00X5.639Y-1.9417
M15
G01X5.639Y-1.9654
M16
G05
M30
