%TF.GenerationSoftware,KiCad,Pcbnew,8.0.6-8.0.6-0~ubuntu24.04.1*%
%TF.CreationDate,2024-11-09T12:08:18+01:00*%
%TF.ProjectId,NIMH-battery-charger,4e494d48-2d62-4617-9474-6572792d6368,rev?*%
%TF.SameCoordinates,Original*%
%TF.FileFunction,Legend,Bot*%
%TF.FilePolarity,Positive*%
%FSLAX46Y46*%
G04 Gerber Fmt 4.6, Leading zero omitted, Abs format (unit mm)*
G04 Created by KiCad (PCBNEW 8.0.6-8.0.6-0~ubuntu24.04.1) date 2024-11-09 12:08:18*
%MOMM*%
%LPD*%
G01*
G04 APERTURE LIST*
%ADD10C,0.150000*%
%ADD11C,0.000000*%
%ADD12C,0.120000*%
%ADD13C,0.100000*%
%ADD14R,0.760000X6.000000*%
G04 APERTURE END LIST*
D10*
X123524819Y-56513333D02*
X123048628Y-56180000D01*
X123524819Y-55941905D02*
X122524819Y-55941905D01*
X122524819Y-55941905D02*
X122524819Y-56322857D01*
X122524819Y-56322857D02*
X122572438Y-56418095D01*
X122572438Y-56418095D02*
X122620057Y-56465714D01*
X122620057Y-56465714D02*
X122715295Y-56513333D01*
X122715295Y-56513333D02*
X122858152Y-56513333D01*
X122858152Y-56513333D02*
X122953390Y-56465714D01*
X122953390Y-56465714D02*
X123001009Y-56418095D01*
X123001009Y-56418095D02*
X123048628Y-56322857D01*
X123048628Y-56322857D02*
X123048628Y-55941905D01*
X122620057Y-56894286D02*
X122572438Y-56941905D01*
X122572438Y-56941905D02*
X122524819Y-57037143D01*
X122524819Y-57037143D02*
X122524819Y-57275238D01*
X122524819Y-57275238D02*
X122572438Y-57370476D01*
X122572438Y-57370476D02*
X122620057Y-57418095D01*
X122620057Y-57418095D02*
X122715295Y-57465714D01*
X122715295Y-57465714D02*
X122810533Y-57465714D01*
X122810533Y-57465714D02*
X122953390Y-57418095D01*
X122953390Y-57418095D02*
X123524819Y-56846667D01*
X123524819Y-56846667D02*
X123524819Y-57465714D01*
X120474819Y-56513333D02*
X119998628Y-56180000D01*
X120474819Y-55941905D02*
X119474819Y-55941905D01*
X119474819Y-55941905D02*
X119474819Y-56322857D01*
X119474819Y-56322857D02*
X119522438Y-56418095D01*
X119522438Y-56418095D02*
X119570057Y-56465714D01*
X119570057Y-56465714D02*
X119665295Y-56513333D01*
X119665295Y-56513333D02*
X119808152Y-56513333D01*
X119808152Y-56513333D02*
X119903390Y-56465714D01*
X119903390Y-56465714D02*
X119951009Y-56418095D01*
X119951009Y-56418095D02*
X119998628Y-56322857D01*
X119998628Y-56322857D02*
X119998628Y-55941905D01*
X120474819Y-57465714D02*
X120474819Y-56894286D01*
X120474819Y-57180000D02*
X119474819Y-57180000D01*
X119474819Y-57180000D02*
X119617676Y-57084762D01*
X119617676Y-57084762D02*
X119712914Y-56989524D01*
X119712914Y-56989524D02*
X119760533Y-56894286D01*
X137824819Y-50791905D02*
X136824819Y-50791905D01*
X136824819Y-50791905D02*
X136824819Y-51030000D01*
X136824819Y-51030000D02*
X136872438Y-51172857D01*
X136872438Y-51172857D02*
X136967676Y-51268095D01*
X136967676Y-51268095D02*
X137062914Y-51315714D01*
X137062914Y-51315714D02*
X137253390Y-51363333D01*
X137253390Y-51363333D02*
X137396247Y-51363333D01*
X137396247Y-51363333D02*
X137586723Y-51315714D01*
X137586723Y-51315714D02*
X137681961Y-51268095D01*
X137681961Y-51268095D02*
X137777200Y-51172857D01*
X137777200Y-51172857D02*
X137824819Y-51030000D01*
X137824819Y-51030000D02*
X137824819Y-50791905D01*
X136824819Y-51696667D02*
X136824819Y-52363333D01*
X136824819Y-52363333D02*
X137824819Y-51934762D01*
X145071904Y-67704819D02*
X144500476Y-67704819D01*
X144786190Y-68704819D02*
X144786190Y-67704819D01*
X144167142Y-68704819D02*
X144167142Y-67704819D01*
X144167142Y-67704819D02*
X143786190Y-67704819D01*
X143786190Y-67704819D02*
X143690952Y-67752438D01*
X143690952Y-67752438D02*
X143643333Y-67800057D01*
X143643333Y-67800057D02*
X143595714Y-67895295D01*
X143595714Y-67895295D02*
X143595714Y-68038152D01*
X143595714Y-68038152D02*
X143643333Y-68133390D01*
X143643333Y-68133390D02*
X143690952Y-68181009D01*
X143690952Y-68181009D02*
X143786190Y-68228628D01*
X143786190Y-68228628D02*
X144167142Y-68228628D01*
X143262380Y-67704819D02*
X142643333Y-67704819D01*
X142643333Y-67704819D02*
X142976666Y-68085771D01*
X142976666Y-68085771D02*
X142833809Y-68085771D01*
X142833809Y-68085771D02*
X142738571Y-68133390D01*
X142738571Y-68133390D02*
X142690952Y-68181009D01*
X142690952Y-68181009D02*
X142643333Y-68276247D01*
X142643333Y-68276247D02*
X142643333Y-68514342D01*
X142643333Y-68514342D02*
X142690952Y-68609580D01*
X142690952Y-68609580D02*
X142738571Y-68657200D01*
X142738571Y-68657200D02*
X142833809Y-68704819D01*
X142833809Y-68704819D02*
X143119523Y-68704819D01*
X143119523Y-68704819D02*
X143214761Y-68657200D01*
X143214761Y-68657200D02*
X143262380Y-68609580D01*
X132740319Y-54783333D02*
X132264128Y-54450000D01*
X132740319Y-54211905D02*
X131740319Y-54211905D01*
X131740319Y-54211905D02*
X131740319Y-54592857D01*
X131740319Y-54592857D02*
X131787938Y-54688095D01*
X131787938Y-54688095D02*
X131835557Y-54735714D01*
X131835557Y-54735714D02*
X131930795Y-54783333D01*
X131930795Y-54783333D02*
X132073652Y-54783333D01*
X132073652Y-54783333D02*
X132168890Y-54735714D01*
X132168890Y-54735714D02*
X132216509Y-54688095D01*
X132216509Y-54688095D02*
X132264128Y-54592857D01*
X132264128Y-54592857D02*
X132264128Y-54211905D01*
X132168890Y-55354762D02*
X132121271Y-55259524D01*
X132121271Y-55259524D02*
X132073652Y-55211905D01*
X132073652Y-55211905D02*
X131978414Y-55164286D01*
X131978414Y-55164286D02*
X131930795Y-55164286D01*
X131930795Y-55164286D02*
X131835557Y-55211905D01*
X131835557Y-55211905D02*
X131787938Y-55259524D01*
X131787938Y-55259524D02*
X131740319Y-55354762D01*
X131740319Y-55354762D02*
X131740319Y-55545238D01*
X131740319Y-55545238D02*
X131787938Y-55640476D01*
X131787938Y-55640476D02*
X131835557Y-55688095D01*
X131835557Y-55688095D02*
X131930795Y-55735714D01*
X131930795Y-55735714D02*
X131978414Y-55735714D01*
X131978414Y-55735714D02*
X132073652Y-55688095D01*
X132073652Y-55688095D02*
X132121271Y-55640476D01*
X132121271Y-55640476D02*
X132168890Y-55545238D01*
X132168890Y-55545238D02*
X132168890Y-55354762D01*
X132168890Y-55354762D02*
X132216509Y-55259524D01*
X132216509Y-55259524D02*
X132264128Y-55211905D01*
X132264128Y-55211905D02*
X132359366Y-55164286D01*
X132359366Y-55164286D02*
X132549842Y-55164286D01*
X132549842Y-55164286D02*
X132645080Y-55211905D01*
X132645080Y-55211905D02*
X132692700Y-55259524D01*
X132692700Y-55259524D02*
X132740319Y-55354762D01*
X132740319Y-55354762D02*
X132740319Y-55545238D01*
X132740319Y-55545238D02*
X132692700Y-55640476D01*
X132692700Y-55640476D02*
X132645080Y-55688095D01*
X132645080Y-55688095D02*
X132549842Y-55735714D01*
X132549842Y-55735714D02*
X132359366Y-55735714D01*
X132359366Y-55735714D02*
X132264128Y-55688095D01*
X132264128Y-55688095D02*
X132216509Y-55640476D01*
X132216509Y-55640476D02*
X132168890Y-55545238D01*
X154290319Y-53683333D02*
X153814128Y-53350000D01*
X154290319Y-53111905D02*
X153290319Y-53111905D01*
X153290319Y-53111905D02*
X153290319Y-53492857D01*
X153290319Y-53492857D02*
X153337938Y-53588095D01*
X153337938Y-53588095D02*
X153385557Y-53635714D01*
X153385557Y-53635714D02*
X153480795Y-53683333D01*
X153480795Y-53683333D02*
X153623652Y-53683333D01*
X153623652Y-53683333D02*
X153718890Y-53635714D01*
X153718890Y-53635714D02*
X153766509Y-53588095D01*
X153766509Y-53588095D02*
X153814128Y-53492857D01*
X153814128Y-53492857D02*
X153814128Y-53111905D01*
X153290319Y-54588095D02*
X153290319Y-54111905D01*
X153290319Y-54111905D02*
X153766509Y-54064286D01*
X153766509Y-54064286D02*
X153718890Y-54111905D01*
X153718890Y-54111905D02*
X153671271Y-54207143D01*
X153671271Y-54207143D02*
X153671271Y-54445238D01*
X153671271Y-54445238D02*
X153718890Y-54540476D01*
X153718890Y-54540476D02*
X153766509Y-54588095D01*
X153766509Y-54588095D02*
X153861747Y-54635714D01*
X153861747Y-54635714D02*
X154099842Y-54635714D01*
X154099842Y-54635714D02*
X154195080Y-54588095D01*
X154195080Y-54588095D02*
X154242700Y-54540476D01*
X154242700Y-54540476D02*
X154290319Y-54445238D01*
X154290319Y-54445238D02*
X154290319Y-54207143D01*
X154290319Y-54207143D02*
X154242700Y-54111905D01*
X154242700Y-54111905D02*
X154195080Y-54064286D01*
X137666666Y-59479580D02*
X137714285Y-59527200D01*
X137714285Y-59527200D02*
X137857142Y-59574819D01*
X137857142Y-59574819D02*
X137952380Y-59574819D01*
X137952380Y-59574819D02*
X138095237Y-59527200D01*
X138095237Y-59527200D02*
X138190475Y-59431961D01*
X138190475Y-59431961D02*
X138238094Y-59336723D01*
X138238094Y-59336723D02*
X138285713Y-59146247D01*
X138285713Y-59146247D02*
X138285713Y-59003390D01*
X138285713Y-59003390D02*
X138238094Y-58812914D01*
X138238094Y-58812914D02*
X138190475Y-58717676D01*
X138190475Y-58717676D02*
X138095237Y-58622438D01*
X138095237Y-58622438D02*
X137952380Y-58574819D01*
X137952380Y-58574819D02*
X137857142Y-58574819D01*
X137857142Y-58574819D02*
X137714285Y-58622438D01*
X137714285Y-58622438D02*
X137666666Y-58670057D01*
X136714285Y-59574819D02*
X137285713Y-59574819D01*
X136999999Y-59574819D02*
X136999999Y-58574819D01*
X136999999Y-58574819D02*
X137095237Y-58717676D01*
X137095237Y-58717676D02*
X137190475Y-58812914D01*
X137190475Y-58812914D02*
X137285713Y-58860533D01*
X118134819Y-52723333D02*
X117658628Y-52390000D01*
X118134819Y-52151905D02*
X117134819Y-52151905D01*
X117134819Y-52151905D02*
X117134819Y-52532857D01*
X117134819Y-52532857D02*
X117182438Y-52628095D01*
X117182438Y-52628095D02*
X117230057Y-52675714D01*
X117230057Y-52675714D02*
X117325295Y-52723333D01*
X117325295Y-52723333D02*
X117468152Y-52723333D01*
X117468152Y-52723333D02*
X117563390Y-52675714D01*
X117563390Y-52675714D02*
X117611009Y-52628095D01*
X117611009Y-52628095D02*
X117658628Y-52532857D01*
X117658628Y-52532857D02*
X117658628Y-52151905D01*
X117134819Y-53580476D02*
X117134819Y-53390000D01*
X117134819Y-53390000D02*
X117182438Y-53294762D01*
X117182438Y-53294762D02*
X117230057Y-53247143D01*
X117230057Y-53247143D02*
X117372914Y-53151905D01*
X117372914Y-53151905D02*
X117563390Y-53104286D01*
X117563390Y-53104286D02*
X117944342Y-53104286D01*
X117944342Y-53104286D02*
X118039580Y-53151905D01*
X118039580Y-53151905D02*
X118087200Y-53199524D01*
X118087200Y-53199524D02*
X118134819Y-53294762D01*
X118134819Y-53294762D02*
X118134819Y-53485238D01*
X118134819Y-53485238D02*
X118087200Y-53580476D01*
X118087200Y-53580476D02*
X118039580Y-53628095D01*
X118039580Y-53628095D02*
X117944342Y-53675714D01*
X117944342Y-53675714D02*
X117706247Y-53675714D01*
X117706247Y-53675714D02*
X117611009Y-53628095D01*
X117611009Y-53628095D02*
X117563390Y-53580476D01*
X117563390Y-53580476D02*
X117515771Y-53485238D01*
X117515771Y-53485238D02*
X117515771Y-53294762D01*
X117515771Y-53294762D02*
X117563390Y-53199524D01*
X117563390Y-53199524D02*
X117611009Y-53151905D01*
X117611009Y-53151905D02*
X117706247Y-53104286D01*
X120434819Y-45981905D02*
X119434819Y-45981905D01*
X119434819Y-45981905D02*
X119434819Y-46220000D01*
X119434819Y-46220000D02*
X119482438Y-46362857D01*
X119482438Y-46362857D02*
X119577676Y-46458095D01*
X119577676Y-46458095D02*
X119672914Y-46505714D01*
X119672914Y-46505714D02*
X119863390Y-46553333D01*
X119863390Y-46553333D02*
X120006247Y-46553333D01*
X120006247Y-46553333D02*
X120196723Y-46505714D01*
X120196723Y-46505714D02*
X120291961Y-46458095D01*
X120291961Y-46458095D02*
X120387200Y-46362857D01*
X120387200Y-46362857D02*
X120434819Y-46220000D01*
X120434819Y-46220000D02*
X120434819Y-45981905D01*
X120434819Y-47505714D02*
X120434819Y-46934286D01*
X120434819Y-47220000D02*
X119434819Y-47220000D01*
X119434819Y-47220000D02*
X119577676Y-47124762D01*
X119577676Y-47124762D02*
X119672914Y-47029524D01*
X119672914Y-47029524D02*
X119720533Y-46934286D01*
X152584819Y-45961905D02*
X151584819Y-45961905D01*
X151584819Y-45961905D02*
X151584819Y-46200000D01*
X151584819Y-46200000D02*
X151632438Y-46342857D01*
X151632438Y-46342857D02*
X151727676Y-46438095D01*
X151727676Y-46438095D02*
X151822914Y-46485714D01*
X151822914Y-46485714D02*
X152013390Y-46533333D01*
X152013390Y-46533333D02*
X152156247Y-46533333D01*
X152156247Y-46533333D02*
X152346723Y-46485714D01*
X152346723Y-46485714D02*
X152441961Y-46438095D01*
X152441961Y-46438095D02*
X152537200Y-46342857D01*
X152537200Y-46342857D02*
X152584819Y-46200000D01*
X152584819Y-46200000D02*
X152584819Y-45961905D01*
X151584819Y-46866667D02*
X151584819Y-47485714D01*
X151584819Y-47485714D02*
X151965771Y-47152381D01*
X151965771Y-47152381D02*
X151965771Y-47295238D01*
X151965771Y-47295238D02*
X152013390Y-47390476D01*
X152013390Y-47390476D02*
X152061009Y-47438095D01*
X152061009Y-47438095D02*
X152156247Y-47485714D01*
X152156247Y-47485714D02*
X152394342Y-47485714D01*
X152394342Y-47485714D02*
X152489580Y-47438095D01*
X152489580Y-47438095D02*
X152537200Y-47390476D01*
X152537200Y-47390476D02*
X152584819Y-47295238D01*
X152584819Y-47295238D02*
X152584819Y-47009524D01*
X152584819Y-47009524D02*
X152537200Y-46914286D01*
X152537200Y-46914286D02*
X152489580Y-46866667D01*
X129774819Y-45921905D02*
X128774819Y-45921905D01*
X128774819Y-45921905D02*
X128774819Y-46160000D01*
X128774819Y-46160000D02*
X128822438Y-46302857D01*
X128822438Y-46302857D02*
X128917676Y-46398095D01*
X128917676Y-46398095D02*
X129012914Y-46445714D01*
X129012914Y-46445714D02*
X129203390Y-46493333D01*
X129203390Y-46493333D02*
X129346247Y-46493333D01*
X129346247Y-46493333D02*
X129536723Y-46445714D01*
X129536723Y-46445714D02*
X129631961Y-46398095D01*
X129631961Y-46398095D02*
X129727200Y-46302857D01*
X129727200Y-46302857D02*
X129774819Y-46160000D01*
X129774819Y-46160000D02*
X129774819Y-45921905D01*
X128774819Y-47350476D02*
X128774819Y-47160000D01*
X128774819Y-47160000D02*
X128822438Y-47064762D01*
X128822438Y-47064762D02*
X128870057Y-47017143D01*
X128870057Y-47017143D02*
X129012914Y-46921905D01*
X129012914Y-46921905D02*
X129203390Y-46874286D01*
X129203390Y-46874286D02*
X129584342Y-46874286D01*
X129584342Y-46874286D02*
X129679580Y-46921905D01*
X129679580Y-46921905D02*
X129727200Y-46969524D01*
X129727200Y-46969524D02*
X129774819Y-47064762D01*
X129774819Y-47064762D02*
X129774819Y-47255238D01*
X129774819Y-47255238D02*
X129727200Y-47350476D01*
X129727200Y-47350476D02*
X129679580Y-47398095D01*
X129679580Y-47398095D02*
X129584342Y-47445714D01*
X129584342Y-47445714D02*
X129346247Y-47445714D01*
X129346247Y-47445714D02*
X129251009Y-47398095D01*
X129251009Y-47398095D02*
X129203390Y-47350476D01*
X129203390Y-47350476D02*
X129155771Y-47255238D01*
X129155771Y-47255238D02*
X129155771Y-47064762D01*
X129155771Y-47064762D02*
X129203390Y-46969524D01*
X129203390Y-46969524D02*
X129251009Y-46921905D01*
X129251009Y-46921905D02*
X129346247Y-46874286D01*
X150915319Y-53683333D02*
X150439128Y-53350000D01*
X150915319Y-53111905D02*
X149915319Y-53111905D01*
X149915319Y-53111905D02*
X149915319Y-53492857D01*
X149915319Y-53492857D02*
X149962938Y-53588095D01*
X149962938Y-53588095D02*
X150010557Y-53635714D01*
X150010557Y-53635714D02*
X150105795Y-53683333D01*
X150105795Y-53683333D02*
X150248652Y-53683333D01*
X150248652Y-53683333D02*
X150343890Y-53635714D01*
X150343890Y-53635714D02*
X150391509Y-53588095D01*
X150391509Y-53588095D02*
X150439128Y-53492857D01*
X150439128Y-53492857D02*
X150439128Y-53111905D01*
X150248652Y-54540476D02*
X150915319Y-54540476D01*
X149867700Y-54302381D02*
X150581985Y-54064286D01*
X150581985Y-54064286D02*
X150581985Y-54683333D01*
X145839580Y-54933333D02*
X145887200Y-54885714D01*
X145887200Y-54885714D02*
X145934819Y-54742857D01*
X145934819Y-54742857D02*
X145934819Y-54647619D01*
X145934819Y-54647619D02*
X145887200Y-54504762D01*
X145887200Y-54504762D02*
X145791961Y-54409524D01*
X145791961Y-54409524D02*
X145696723Y-54361905D01*
X145696723Y-54361905D02*
X145506247Y-54314286D01*
X145506247Y-54314286D02*
X145363390Y-54314286D01*
X145363390Y-54314286D02*
X145172914Y-54361905D01*
X145172914Y-54361905D02*
X145077676Y-54409524D01*
X145077676Y-54409524D02*
X144982438Y-54504762D01*
X144982438Y-54504762D02*
X144934819Y-54647619D01*
X144934819Y-54647619D02*
X144934819Y-54742857D01*
X144934819Y-54742857D02*
X144982438Y-54885714D01*
X144982438Y-54885714D02*
X145030057Y-54933333D01*
X145030057Y-55314286D02*
X144982438Y-55361905D01*
X144982438Y-55361905D02*
X144934819Y-55457143D01*
X144934819Y-55457143D02*
X144934819Y-55695238D01*
X144934819Y-55695238D02*
X144982438Y-55790476D01*
X144982438Y-55790476D02*
X145030057Y-55838095D01*
X145030057Y-55838095D02*
X145125295Y-55885714D01*
X145125295Y-55885714D02*
X145220533Y-55885714D01*
X145220533Y-55885714D02*
X145363390Y-55838095D01*
X145363390Y-55838095D02*
X145934819Y-55266667D01*
X145934819Y-55266667D02*
X145934819Y-55885714D01*
X113804819Y-53081905D02*
X112804819Y-53081905D01*
X112804819Y-53081905D02*
X112804819Y-53320000D01*
X112804819Y-53320000D02*
X112852438Y-53462857D01*
X112852438Y-53462857D02*
X112947676Y-53558095D01*
X112947676Y-53558095D02*
X113042914Y-53605714D01*
X113042914Y-53605714D02*
X113233390Y-53653333D01*
X113233390Y-53653333D02*
X113376247Y-53653333D01*
X113376247Y-53653333D02*
X113566723Y-53605714D01*
X113566723Y-53605714D02*
X113661961Y-53558095D01*
X113661961Y-53558095D02*
X113757200Y-53462857D01*
X113757200Y-53462857D02*
X113804819Y-53320000D01*
X113804819Y-53320000D02*
X113804819Y-53081905D01*
X112804819Y-54558095D02*
X112804819Y-54081905D01*
X112804819Y-54081905D02*
X113281009Y-54034286D01*
X113281009Y-54034286D02*
X113233390Y-54081905D01*
X113233390Y-54081905D02*
X113185771Y-54177143D01*
X113185771Y-54177143D02*
X113185771Y-54415238D01*
X113185771Y-54415238D02*
X113233390Y-54510476D01*
X113233390Y-54510476D02*
X113281009Y-54558095D01*
X113281009Y-54558095D02*
X113376247Y-54605714D01*
X113376247Y-54605714D02*
X113614342Y-54605714D01*
X113614342Y-54605714D02*
X113709580Y-54558095D01*
X113709580Y-54558095D02*
X113757200Y-54510476D01*
X113757200Y-54510476D02*
X113804819Y-54415238D01*
X113804819Y-54415238D02*
X113804819Y-54177143D01*
X113804819Y-54177143D02*
X113757200Y-54081905D01*
X113757200Y-54081905D02*
X113709580Y-54034286D01*
X141164819Y-57471905D02*
X140164819Y-57471905D01*
X140164819Y-57471905D02*
X140164819Y-57710000D01*
X140164819Y-57710000D02*
X140212438Y-57852857D01*
X140212438Y-57852857D02*
X140307676Y-57948095D01*
X140307676Y-57948095D02*
X140402914Y-57995714D01*
X140402914Y-57995714D02*
X140593390Y-58043333D01*
X140593390Y-58043333D02*
X140736247Y-58043333D01*
X140736247Y-58043333D02*
X140926723Y-57995714D01*
X140926723Y-57995714D02*
X141021961Y-57948095D01*
X141021961Y-57948095D02*
X141117200Y-57852857D01*
X141117200Y-57852857D02*
X141164819Y-57710000D01*
X141164819Y-57710000D02*
X141164819Y-57471905D01*
X141164819Y-58519524D02*
X141164819Y-58710000D01*
X141164819Y-58710000D02*
X141117200Y-58805238D01*
X141117200Y-58805238D02*
X141069580Y-58852857D01*
X141069580Y-58852857D02*
X140926723Y-58948095D01*
X140926723Y-58948095D02*
X140736247Y-58995714D01*
X140736247Y-58995714D02*
X140355295Y-58995714D01*
X140355295Y-58995714D02*
X140260057Y-58948095D01*
X140260057Y-58948095D02*
X140212438Y-58900476D01*
X140212438Y-58900476D02*
X140164819Y-58805238D01*
X140164819Y-58805238D02*
X140164819Y-58614762D01*
X140164819Y-58614762D02*
X140212438Y-58519524D01*
X140212438Y-58519524D02*
X140260057Y-58471905D01*
X140260057Y-58471905D02*
X140355295Y-58424286D01*
X140355295Y-58424286D02*
X140593390Y-58424286D01*
X140593390Y-58424286D02*
X140688628Y-58471905D01*
X140688628Y-58471905D02*
X140736247Y-58519524D01*
X140736247Y-58519524D02*
X140783866Y-58614762D01*
X140783866Y-58614762D02*
X140783866Y-58805238D01*
X140783866Y-58805238D02*
X140736247Y-58900476D01*
X140736247Y-58900476D02*
X140688628Y-58948095D01*
X140688628Y-58948095D02*
X140593390Y-58995714D01*
X146104819Y-46021905D02*
X145104819Y-46021905D01*
X145104819Y-46021905D02*
X145104819Y-46260000D01*
X145104819Y-46260000D02*
X145152438Y-46402857D01*
X145152438Y-46402857D02*
X145247676Y-46498095D01*
X145247676Y-46498095D02*
X145342914Y-46545714D01*
X145342914Y-46545714D02*
X145533390Y-46593333D01*
X145533390Y-46593333D02*
X145676247Y-46593333D01*
X145676247Y-46593333D02*
X145866723Y-46545714D01*
X145866723Y-46545714D02*
X145961961Y-46498095D01*
X145961961Y-46498095D02*
X146057200Y-46402857D01*
X146057200Y-46402857D02*
X146104819Y-46260000D01*
X146104819Y-46260000D02*
X146104819Y-46021905D01*
X145533390Y-47164762D02*
X145485771Y-47069524D01*
X145485771Y-47069524D02*
X145438152Y-47021905D01*
X145438152Y-47021905D02*
X145342914Y-46974286D01*
X145342914Y-46974286D02*
X145295295Y-46974286D01*
X145295295Y-46974286D02*
X145200057Y-47021905D01*
X145200057Y-47021905D02*
X145152438Y-47069524D01*
X145152438Y-47069524D02*
X145104819Y-47164762D01*
X145104819Y-47164762D02*
X145104819Y-47355238D01*
X145104819Y-47355238D02*
X145152438Y-47450476D01*
X145152438Y-47450476D02*
X145200057Y-47498095D01*
X145200057Y-47498095D02*
X145295295Y-47545714D01*
X145295295Y-47545714D02*
X145342914Y-47545714D01*
X145342914Y-47545714D02*
X145438152Y-47498095D01*
X145438152Y-47498095D02*
X145485771Y-47450476D01*
X145485771Y-47450476D02*
X145533390Y-47355238D01*
X145533390Y-47355238D02*
X145533390Y-47164762D01*
X145533390Y-47164762D02*
X145581009Y-47069524D01*
X145581009Y-47069524D02*
X145628628Y-47021905D01*
X145628628Y-47021905D02*
X145723866Y-46974286D01*
X145723866Y-46974286D02*
X145914342Y-46974286D01*
X145914342Y-46974286D02*
X146009580Y-47021905D01*
X146009580Y-47021905D02*
X146057200Y-47069524D01*
X146057200Y-47069524D02*
X146104819Y-47164762D01*
X146104819Y-47164762D02*
X146104819Y-47355238D01*
X146104819Y-47355238D02*
X146057200Y-47450476D01*
X146057200Y-47450476D02*
X146009580Y-47498095D01*
X146009580Y-47498095D02*
X145914342Y-47545714D01*
X145914342Y-47545714D02*
X145723866Y-47545714D01*
X145723866Y-47545714D02*
X145628628Y-47498095D01*
X145628628Y-47498095D02*
X145581009Y-47450476D01*
X145581009Y-47450476D02*
X145533390Y-47355238D01*
X146961904Y-72406819D02*
X146390476Y-72406819D01*
X146676190Y-73406819D02*
X146676190Y-72406819D01*
X146057142Y-73406819D02*
X146057142Y-72406819D01*
X146057142Y-72406819D02*
X145676190Y-72406819D01*
X145676190Y-72406819D02*
X145580952Y-72454438D01*
X145580952Y-72454438D02*
X145533333Y-72502057D01*
X145533333Y-72502057D02*
X145485714Y-72597295D01*
X145485714Y-72597295D02*
X145485714Y-72740152D01*
X145485714Y-72740152D02*
X145533333Y-72835390D01*
X145533333Y-72835390D02*
X145580952Y-72883009D01*
X145580952Y-72883009D02*
X145676190Y-72930628D01*
X145676190Y-72930628D02*
X146057142Y-72930628D01*
X144628571Y-72740152D02*
X144628571Y-73406819D01*
X144866666Y-72359200D02*
X145104761Y-73073485D01*
X145104761Y-73073485D02*
X144485714Y-73073485D01*
X134114819Y-65728095D02*
X134924342Y-65728095D01*
X134924342Y-65728095D02*
X135019580Y-65775714D01*
X135019580Y-65775714D02*
X135067200Y-65823333D01*
X135067200Y-65823333D02*
X135114819Y-65918571D01*
X135114819Y-65918571D02*
X135114819Y-66109047D01*
X135114819Y-66109047D02*
X135067200Y-66204285D01*
X135067200Y-66204285D02*
X135019580Y-66251904D01*
X135019580Y-66251904D02*
X134924342Y-66299523D01*
X134924342Y-66299523D02*
X134114819Y-66299523D01*
X135114819Y-67299523D02*
X135114819Y-66728095D01*
X135114819Y-67013809D02*
X134114819Y-67013809D01*
X134114819Y-67013809D02*
X134257676Y-66918571D01*
X134257676Y-66918571D02*
X134352914Y-66823333D01*
X134352914Y-66823333D02*
X134400533Y-66728095D01*
X146961904Y-79406819D02*
X146390476Y-79406819D01*
X146676190Y-80406819D02*
X146676190Y-79406819D01*
X146057142Y-80406819D02*
X146057142Y-79406819D01*
X146057142Y-79406819D02*
X145676190Y-79406819D01*
X145676190Y-79406819D02*
X145580952Y-79454438D01*
X145580952Y-79454438D02*
X145533333Y-79502057D01*
X145533333Y-79502057D02*
X145485714Y-79597295D01*
X145485714Y-79597295D02*
X145485714Y-79740152D01*
X145485714Y-79740152D02*
X145533333Y-79835390D01*
X145533333Y-79835390D02*
X145580952Y-79883009D01*
X145580952Y-79883009D02*
X145676190Y-79930628D01*
X145676190Y-79930628D02*
X146057142Y-79930628D01*
X144628571Y-79406819D02*
X144819047Y-79406819D01*
X144819047Y-79406819D02*
X144914285Y-79454438D01*
X144914285Y-79454438D02*
X144961904Y-79502057D01*
X144961904Y-79502057D02*
X145057142Y-79644914D01*
X145057142Y-79644914D02*
X145104761Y-79835390D01*
X145104761Y-79835390D02*
X145104761Y-80216342D01*
X145104761Y-80216342D02*
X145057142Y-80311580D01*
X145057142Y-80311580D02*
X145009523Y-80359200D01*
X145009523Y-80359200D02*
X144914285Y-80406819D01*
X144914285Y-80406819D02*
X144723809Y-80406819D01*
X144723809Y-80406819D02*
X144628571Y-80359200D01*
X144628571Y-80359200D02*
X144580952Y-80311580D01*
X144580952Y-80311580D02*
X144533333Y-80216342D01*
X144533333Y-80216342D02*
X144533333Y-79978247D01*
X144533333Y-79978247D02*
X144580952Y-79883009D01*
X144580952Y-79883009D02*
X144628571Y-79835390D01*
X144628571Y-79835390D02*
X144723809Y-79787771D01*
X144723809Y-79787771D02*
X144914285Y-79787771D01*
X144914285Y-79787771D02*
X145009523Y-79835390D01*
X145009523Y-79835390D02*
X145057142Y-79883009D01*
X145057142Y-79883009D02*
X145104761Y-79978247D01*
X123544819Y-45861905D02*
X122544819Y-45861905D01*
X122544819Y-45861905D02*
X122544819Y-46100000D01*
X122544819Y-46100000D02*
X122592438Y-46242857D01*
X122592438Y-46242857D02*
X122687676Y-46338095D01*
X122687676Y-46338095D02*
X122782914Y-46385714D01*
X122782914Y-46385714D02*
X122973390Y-46433333D01*
X122973390Y-46433333D02*
X123116247Y-46433333D01*
X123116247Y-46433333D02*
X123306723Y-46385714D01*
X123306723Y-46385714D02*
X123401961Y-46338095D01*
X123401961Y-46338095D02*
X123497200Y-46242857D01*
X123497200Y-46242857D02*
X123544819Y-46100000D01*
X123544819Y-46100000D02*
X123544819Y-45861905D01*
X122640057Y-46814286D02*
X122592438Y-46861905D01*
X122592438Y-46861905D02*
X122544819Y-46957143D01*
X122544819Y-46957143D02*
X122544819Y-47195238D01*
X122544819Y-47195238D02*
X122592438Y-47290476D01*
X122592438Y-47290476D02*
X122640057Y-47338095D01*
X122640057Y-47338095D02*
X122735295Y-47385714D01*
X122735295Y-47385714D02*
X122830533Y-47385714D01*
X122830533Y-47385714D02*
X122973390Y-47338095D01*
X122973390Y-47338095D02*
X123544819Y-46766667D01*
X123544819Y-46766667D02*
X123544819Y-47385714D01*
X150364819Y-46623333D02*
X149888628Y-46290000D01*
X150364819Y-46051905D02*
X149364819Y-46051905D01*
X149364819Y-46051905D02*
X149364819Y-46432857D01*
X149364819Y-46432857D02*
X149412438Y-46528095D01*
X149412438Y-46528095D02*
X149460057Y-46575714D01*
X149460057Y-46575714D02*
X149555295Y-46623333D01*
X149555295Y-46623333D02*
X149698152Y-46623333D01*
X149698152Y-46623333D02*
X149793390Y-46575714D01*
X149793390Y-46575714D02*
X149841009Y-46528095D01*
X149841009Y-46528095D02*
X149888628Y-46432857D01*
X149888628Y-46432857D02*
X149888628Y-46051905D01*
X150364819Y-47099524D02*
X150364819Y-47290000D01*
X150364819Y-47290000D02*
X150317200Y-47385238D01*
X150317200Y-47385238D02*
X150269580Y-47432857D01*
X150269580Y-47432857D02*
X150126723Y-47528095D01*
X150126723Y-47528095D02*
X149936247Y-47575714D01*
X149936247Y-47575714D02*
X149555295Y-47575714D01*
X149555295Y-47575714D02*
X149460057Y-47528095D01*
X149460057Y-47528095D02*
X149412438Y-47480476D01*
X149412438Y-47480476D02*
X149364819Y-47385238D01*
X149364819Y-47385238D02*
X149364819Y-47194762D01*
X149364819Y-47194762D02*
X149412438Y-47099524D01*
X149412438Y-47099524D02*
X149460057Y-47051905D01*
X149460057Y-47051905D02*
X149555295Y-47004286D01*
X149555295Y-47004286D02*
X149793390Y-47004286D01*
X149793390Y-47004286D02*
X149888628Y-47051905D01*
X149888628Y-47051905D02*
X149936247Y-47099524D01*
X149936247Y-47099524D02*
X149983866Y-47194762D01*
X149983866Y-47194762D02*
X149983866Y-47385238D01*
X149983866Y-47385238D02*
X149936247Y-47480476D01*
X149936247Y-47480476D02*
X149888628Y-47528095D01*
X149888628Y-47528095D02*
X149793390Y-47575714D01*
X162504819Y-45055714D02*
X161504819Y-45055714D01*
X161504819Y-45055714D02*
X161504819Y-45293809D01*
X161504819Y-45293809D02*
X161552438Y-45436666D01*
X161552438Y-45436666D02*
X161647676Y-45531904D01*
X161647676Y-45531904D02*
X161742914Y-45579523D01*
X161742914Y-45579523D02*
X161933390Y-45627142D01*
X161933390Y-45627142D02*
X162076247Y-45627142D01*
X162076247Y-45627142D02*
X162266723Y-45579523D01*
X162266723Y-45579523D02*
X162361961Y-45531904D01*
X162361961Y-45531904D02*
X162457200Y-45436666D01*
X162457200Y-45436666D02*
X162504819Y-45293809D01*
X162504819Y-45293809D02*
X162504819Y-45055714D01*
X162504819Y-46579523D02*
X162504819Y-46008095D01*
X162504819Y-46293809D02*
X161504819Y-46293809D01*
X161504819Y-46293809D02*
X161647676Y-46198571D01*
X161647676Y-46198571D02*
X161742914Y-46103333D01*
X161742914Y-46103333D02*
X161790533Y-46008095D01*
X161504819Y-47198571D02*
X161504819Y-47293809D01*
X161504819Y-47293809D02*
X161552438Y-47389047D01*
X161552438Y-47389047D02*
X161600057Y-47436666D01*
X161600057Y-47436666D02*
X161695295Y-47484285D01*
X161695295Y-47484285D02*
X161885771Y-47531904D01*
X161885771Y-47531904D02*
X162123866Y-47531904D01*
X162123866Y-47531904D02*
X162314342Y-47484285D01*
X162314342Y-47484285D02*
X162409580Y-47436666D01*
X162409580Y-47436666D02*
X162457200Y-47389047D01*
X162457200Y-47389047D02*
X162504819Y-47293809D01*
X162504819Y-47293809D02*
X162504819Y-47198571D01*
X162504819Y-47198571D02*
X162457200Y-47103333D01*
X162457200Y-47103333D02*
X162409580Y-47055714D01*
X162409580Y-47055714D02*
X162314342Y-47008095D01*
X162314342Y-47008095D02*
X162123866Y-46960476D01*
X162123866Y-46960476D02*
X161885771Y-46960476D01*
X161885771Y-46960476D02*
X161695295Y-47008095D01*
X161695295Y-47008095D02*
X161600057Y-47055714D01*
X161600057Y-47055714D02*
X161552438Y-47103333D01*
X161552438Y-47103333D02*
X161504819Y-47198571D01*
X155984819Y-45901905D02*
X154984819Y-45901905D01*
X154984819Y-45901905D02*
X154984819Y-46140000D01*
X154984819Y-46140000D02*
X155032438Y-46282857D01*
X155032438Y-46282857D02*
X155127676Y-46378095D01*
X155127676Y-46378095D02*
X155222914Y-46425714D01*
X155222914Y-46425714D02*
X155413390Y-46473333D01*
X155413390Y-46473333D02*
X155556247Y-46473333D01*
X155556247Y-46473333D02*
X155746723Y-46425714D01*
X155746723Y-46425714D02*
X155841961Y-46378095D01*
X155841961Y-46378095D02*
X155937200Y-46282857D01*
X155937200Y-46282857D02*
X155984819Y-46140000D01*
X155984819Y-46140000D02*
X155984819Y-45901905D01*
X155318152Y-47330476D02*
X155984819Y-47330476D01*
X154937200Y-47092381D02*
X155651485Y-46854286D01*
X155651485Y-46854286D02*
X155651485Y-47473333D01*
X144061904Y-60806819D02*
X143490476Y-60806819D01*
X143776190Y-61806819D02*
X143776190Y-60806819D01*
X143157142Y-61806819D02*
X143157142Y-60806819D01*
X143157142Y-60806819D02*
X142776190Y-60806819D01*
X142776190Y-60806819D02*
X142680952Y-60854438D01*
X142680952Y-60854438D02*
X142633333Y-60902057D01*
X142633333Y-60902057D02*
X142585714Y-60997295D01*
X142585714Y-60997295D02*
X142585714Y-61140152D01*
X142585714Y-61140152D02*
X142633333Y-61235390D01*
X142633333Y-61235390D02*
X142680952Y-61283009D01*
X142680952Y-61283009D02*
X142776190Y-61330628D01*
X142776190Y-61330628D02*
X143157142Y-61330628D01*
X141633333Y-61806819D02*
X142204761Y-61806819D01*
X141919047Y-61806819D02*
X141919047Y-60806819D01*
X141919047Y-60806819D02*
X142014285Y-60949676D01*
X142014285Y-60949676D02*
X142109523Y-61044914D01*
X142109523Y-61044914D02*
X142204761Y-61092533D01*
X146961904Y-75906819D02*
X146390476Y-75906819D01*
X146676190Y-76906819D02*
X146676190Y-75906819D01*
X146057142Y-76906819D02*
X146057142Y-75906819D01*
X146057142Y-75906819D02*
X145676190Y-75906819D01*
X145676190Y-75906819D02*
X145580952Y-75954438D01*
X145580952Y-75954438D02*
X145533333Y-76002057D01*
X145533333Y-76002057D02*
X145485714Y-76097295D01*
X145485714Y-76097295D02*
X145485714Y-76240152D01*
X145485714Y-76240152D02*
X145533333Y-76335390D01*
X145533333Y-76335390D02*
X145580952Y-76383009D01*
X145580952Y-76383009D02*
X145676190Y-76430628D01*
X145676190Y-76430628D02*
X146057142Y-76430628D01*
X144580952Y-75906819D02*
X145057142Y-75906819D01*
X145057142Y-75906819D02*
X145104761Y-76383009D01*
X145104761Y-76383009D02*
X145057142Y-76335390D01*
X145057142Y-76335390D02*
X144961904Y-76287771D01*
X144961904Y-76287771D02*
X144723809Y-76287771D01*
X144723809Y-76287771D02*
X144628571Y-76335390D01*
X144628571Y-76335390D02*
X144580952Y-76383009D01*
X144580952Y-76383009D02*
X144533333Y-76478247D01*
X144533333Y-76478247D02*
X144533333Y-76716342D01*
X144533333Y-76716342D02*
X144580952Y-76811580D01*
X144580952Y-76811580D02*
X144628571Y-76859200D01*
X144628571Y-76859200D02*
X144723809Y-76906819D01*
X144723809Y-76906819D02*
X144961904Y-76906819D01*
X144961904Y-76906819D02*
X145057142Y-76859200D01*
X145057142Y-76859200D02*
X145104761Y-76811580D01*
X125934819Y-46493333D02*
X125458628Y-46160000D01*
X125934819Y-45921905D02*
X124934819Y-45921905D01*
X124934819Y-45921905D02*
X124934819Y-46302857D01*
X124934819Y-46302857D02*
X124982438Y-46398095D01*
X124982438Y-46398095D02*
X125030057Y-46445714D01*
X125030057Y-46445714D02*
X125125295Y-46493333D01*
X125125295Y-46493333D02*
X125268152Y-46493333D01*
X125268152Y-46493333D02*
X125363390Y-46445714D01*
X125363390Y-46445714D02*
X125411009Y-46398095D01*
X125411009Y-46398095D02*
X125458628Y-46302857D01*
X125458628Y-46302857D02*
X125458628Y-45921905D01*
X124934819Y-46826667D02*
X124934819Y-47493333D01*
X124934819Y-47493333D02*
X125934819Y-47064762D01*
X146741904Y-65294819D02*
X146170476Y-65294819D01*
X146456190Y-66294819D02*
X146456190Y-65294819D01*
X145837142Y-66294819D02*
X145837142Y-65294819D01*
X145837142Y-65294819D02*
X145456190Y-65294819D01*
X145456190Y-65294819D02*
X145360952Y-65342438D01*
X145360952Y-65342438D02*
X145313333Y-65390057D01*
X145313333Y-65390057D02*
X145265714Y-65485295D01*
X145265714Y-65485295D02*
X145265714Y-65628152D01*
X145265714Y-65628152D02*
X145313333Y-65723390D01*
X145313333Y-65723390D02*
X145360952Y-65771009D01*
X145360952Y-65771009D02*
X145456190Y-65818628D01*
X145456190Y-65818628D02*
X145837142Y-65818628D01*
X144884761Y-65390057D02*
X144837142Y-65342438D01*
X144837142Y-65342438D02*
X144741904Y-65294819D01*
X144741904Y-65294819D02*
X144503809Y-65294819D01*
X144503809Y-65294819D02*
X144408571Y-65342438D01*
X144408571Y-65342438D02*
X144360952Y-65390057D01*
X144360952Y-65390057D02*
X144313333Y-65485295D01*
X144313333Y-65485295D02*
X144313333Y-65580533D01*
X144313333Y-65580533D02*
X144360952Y-65723390D01*
X144360952Y-65723390D02*
X144932380Y-66294819D01*
X144932380Y-66294819D02*
X144313333Y-66294819D01*
X158244819Y-45747142D02*
X157768628Y-45413809D01*
X158244819Y-45175714D02*
X157244819Y-45175714D01*
X157244819Y-45175714D02*
X157244819Y-45556666D01*
X157244819Y-45556666D02*
X157292438Y-45651904D01*
X157292438Y-45651904D02*
X157340057Y-45699523D01*
X157340057Y-45699523D02*
X157435295Y-45747142D01*
X157435295Y-45747142D02*
X157578152Y-45747142D01*
X157578152Y-45747142D02*
X157673390Y-45699523D01*
X157673390Y-45699523D02*
X157721009Y-45651904D01*
X157721009Y-45651904D02*
X157768628Y-45556666D01*
X157768628Y-45556666D02*
X157768628Y-45175714D01*
X158244819Y-46699523D02*
X158244819Y-46128095D01*
X158244819Y-46413809D02*
X157244819Y-46413809D01*
X157244819Y-46413809D02*
X157387676Y-46318571D01*
X157387676Y-46318571D02*
X157482914Y-46223333D01*
X157482914Y-46223333D02*
X157530533Y-46128095D01*
X157244819Y-47318571D02*
X157244819Y-47413809D01*
X157244819Y-47413809D02*
X157292438Y-47509047D01*
X157292438Y-47509047D02*
X157340057Y-47556666D01*
X157340057Y-47556666D02*
X157435295Y-47604285D01*
X157435295Y-47604285D02*
X157625771Y-47651904D01*
X157625771Y-47651904D02*
X157863866Y-47651904D01*
X157863866Y-47651904D02*
X158054342Y-47604285D01*
X158054342Y-47604285D02*
X158149580Y-47556666D01*
X158149580Y-47556666D02*
X158197200Y-47509047D01*
X158197200Y-47509047D02*
X158244819Y-47413809D01*
X158244819Y-47413809D02*
X158244819Y-47318571D01*
X158244819Y-47318571D02*
X158197200Y-47223333D01*
X158197200Y-47223333D02*
X158149580Y-47175714D01*
X158149580Y-47175714D02*
X158054342Y-47128095D01*
X158054342Y-47128095D02*
X157863866Y-47080476D01*
X157863866Y-47080476D02*
X157625771Y-47080476D01*
X157625771Y-47080476D02*
X157435295Y-47128095D01*
X157435295Y-47128095D02*
X157340057Y-47175714D01*
X157340057Y-47175714D02*
X157292438Y-47223333D01*
X157292438Y-47223333D02*
X157244819Y-47318571D01*
D11*
%TO.C,kibuzzard-672F427A*%
G36*
X134836128Y-90207946D02*
G01*
X135082414Y-90282656D01*
X135309392Y-90403978D01*
X135508339Y-90567250D01*
X135671612Y-90766198D01*
X135792934Y-90993176D01*
X135867644Y-91239461D01*
X135892870Y-91495590D01*
X135892870Y-92707221D01*
X135892870Y-98952779D01*
X135892870Y-100164410D01*
X135867644Y-100420539D01*
X135792934Y-100666824D01*
X135671612Y-100893802D01*
X135508339Y-101092750D01*
X135309392Y-101256022D01*
X135082414Y-101377344D01*
X134836128Y-101452054D01*
X134580000Y-101477281D01*
X134323872Y-101452054D01*
X134077586Y-101377344D01*
X133850608Y-101256022D01*
X133651661Y-101092750D01*
X133488388Y-100893802D01*
X133367066Y-100666824D01*
X133292356Y-100420539D01*
X133267130Y-100164410D01*
X133267130Y-98952779D01*
X133267130Y-98332423D01*
X133536381Y-98332423D01*
X133549709Y-98556171D01*
X133589693Y-98729838D01*
X133688239Y-98952779D01*
X134011341Y-98836462D01*
X133914410Y-98628061D01*
X133880485Y-98493570D01*
X133869176Y-98332423D01*
X133890178Y-98166026D01*
X133948336Y-98061018D01*
X134032342Y-98007706D01*
X134127658Y-97993166D01*
X134237512Y-98028708D01*
X134323134Y-98119176D01*
X134390985Y-98241955D01*
X134447528Y-98377658D01*
X134521842Y-98565057D01*
X134628465Y-98741147D01*
X134788401Y-98872003D01*
X135025880Y-98923700D01*
X135276284Y-98878061D01*
X135465299Y-98741147D01*
X135553254Y-98604188D01*
X135606028Y-98436713D01*
X135623619Y-98238724D01*
X135613118Y-98066268D01*
X135581616Y-97917237D01*
X135487916Y-97686220D01*
X135180969Y-97802536D01*
X135258514Y-97981858D01*
X135290824Y-98209645D01*
X135265335Y-98385556D01*
X135188867Y-98491102D01*
X135061422Y-98526284D01*
X134959645Y-98493974D01*
X134882100Y-98411583D01*
X134822326Y-98298498D01*
X134773861Y-98174103D01*
X134694701Y-97978627D01*
X134578384Y-97791228D01*
X134397447Y-97650679D01*
X134275073Y-97609483D01*
X134124426Y-97595751D01*
X133875234Y-97641389D01*
X133689855Y-97778304D01*
X133604592Y-97921007D01*
X133553434Y-98105714D01*
X133536381Y-98332423D01*
X133267130Y-98332423D01*
X133267130Y-96367964D01*
X133578384Y-96367964D01*
X133789612Y-96439047D01*
X134016187Y-96510129D01*
X134245186Y-96581212D01*
X134463683Y-96652294D01*
X134251244Y-96724992D01*
X134021034Y-96800921D01*
X133790824Y-96875234D01*
X133578384Y-96943086D01*
X133578384Y-97272649D01*
X133808191Y-97296882D01*
X134051729Y-97317884D01*
X134303748Y-97336058D01*
X134558998Y-97351809D01*
X134816672Y-97365137D01*
X135075961Y-97376042D01*
X135331616Y-97384927D01*
X135578384Y-97392197D01*
X135578384Y-97023861D01*
X135384523Y-97027092D01*
X135184200Y-97030323D01*
X134981050Y-97033554D01*
X134778708Y-97036785D01*
X134579192Y-97040016D01*
X134384523Y-97043247D01*
X134198336Y-97045670D01*
X134024265Y-97046478D01*
X134250436Y-96980242D01*
X134492763Y-96909160D01*
X134712472Y-96846155D01*
X134870792Y-96800921D01*
X134870792Y-96510129D01*
X134718934Y-96471357D01*
X134518611Y-96414814D01*
X134282746Y-96346963D01*
X134024265Y-96274265D01*
X134198336Y-96275073D01*
X134384523Y-96277496D01*
X134578788Y-96280727D01*
X134777092Y-96283958D01*
X134978627Y-96287189D01*
X135182585Y-96290420D01*
X135384120Y-96292843D01*
X135578384Y-96293651D01*
X135578384Y-95925315D01*
X135329192Y-95935008D01*
X135072730Y-95944701D01*
X134813441Y-95955202D01*
X134555767Y-95967318D01*
X134300921Y-95981454D01*
X134050113Y-95998013D01*
X133807787Y-96016995D01*
X133578384Y-96038401D01*
X133578384Y-96367964D01*
X133267130Y-96367964D01*
X133267130Y-96038401D01*
X133267130Y-95676527D01*
X133267130Y-94406737D01*
X133578384Y-94406737D01*
X133578384Y-95676527D01*
X133907948Y-95676527D01*
X133907948Y-95240339D01*
X135248821Y-95240339D01*
X135248821Y-95676527D01*
X135578384Y-95676527D01*
X135578384Y-94406737D01*
X135248821Y-94406737D01*
X135248821Y-94839693D01*
X133907948Y-94839693D01*
X133907948Y-94406737D01*
X133578384Y-94406737D01*
X133267130Y-94406737D01*
X133267130Y-93424507D01*
X133536381Y-93424507D01*
X133565640Y-93640806D01*
X133653416Y-93820127D01*
X133799709Y-93962472D01*
X133947225Y-94043752D01*
X134126446Y-94101809D01*
X134337371Y-94136644D01*
X134580000Y-94148255D01*
X134822629Y-94136341D01*
X135033554Y-94100598D01*
X135212775Y-94041026D01*
X135360291Y-93957625D01*
X135506584Y-93814024D01*
X135594360Y-93637395D01*
X135623619Y-93427738D01*
X135594360Y-93211619D01*
X135506584Y-93032836D01*
X135360291Y-92891389D01*
X135212775Y-92810816D01*
X135033554Y-92753263D01*
X134822629Y-92718732D01*
X134580000Y-92707221D01*
X134337371Y-92718934D01*
X134126446Y-92754071D01*
X133947225Y-92812633D01*
X133799709Y-92894620D01*
X133653416Y-93036785D01*
X133565640Y-93213414D01*
X133536381Y-93424507D01*
X133267130Y-93424507D01*
X133267130Y-92707221D01*
X133267130Y-91495590D01*
X133292356Y-91239461D01*
X133367066Y-90993176D01*
X133488388Y-90766198D01*
X133651661Y-90567250D01*
X133850608Y-90403978D01*
X134077586Y-90282656D01*
X134323872Y-90207946D01*
X134580000Y-90182719D01*
X134836128Y-90207946D01*
G37*
G36*
X134720953Y-93113926D02*
G01*
X134853021Y-93122407D01*
X135074346Y-93167641D01*
X135222973Y-93262956D01*
X135277900Y-93427738D01*
X135222973Y-93592520D01*
X135072730Y-93687835D01*
X134851405Y-93733069D01*
X134720549Y-93741551D01*
X134580000Y-93744378D01*
X134439047Y-93741551D01*
X134306979Y-93733069D01*
X134085654Y-93687835D01*
X133937027Y-93592520D01*
X133882100Y-93427738D01*
X133937027Y-93264572D01*
X134087270Y-93167641D01*
X134308595Y-93122407D01*
X134439451Y-93113926D01*
X134580000Y-93111099D01*
X134720953Y-93113926D01*
G37*
%TO.C,kibuzzard-672F425B*%
G36*
X124165137Y-79060000D02*
G01*
X125032845Y-80361562D01*
X124165137Y-80361562D01*
X122953506Y-80361562D01*
X122278223Y-80361562D01*
X120304071Y-80361562D01*
X118268530Y-80361562D01*
X117224911Y-80361562D01*
X113993893Y-80361562D01*
X112236220Y-80361562D01*
X111806494Y-80361562D01*
X110594863Y-80361562D01*
X110387360Y-80050307D01*
X111806494Y-80050307D01*
X112236220Y-80050307D01*
X112304475Y-79876640D01*
X112386462Y-79685202D01*
X112477334Y-79484879D01*
X112572246Y-79284556D01*
X112665945Y-79478821D01*
X112759645Y-79680355D01*
X112846882Y-79875428D01*
X112921195Y-80050307D01*
X113350921Y-80050307D01*
X113255606Y-79840291D01*
X113189370Y-79712666D01*
X113116672Y-79575347D01*
X113038724Y-79431163D01*
X112956737Y-79282940D01*
X112874346Y-79135525D01*
X112795186Y-78993764D01*
X113135771Y-78379871D01*
X113467237Y-78379871D01*
X113993893Y-78379871D01*
X113993893Y-80050307D01*
X114394540Y-80050307D01*
X114394540Y-78379871D01*
X114921195Y-78379871D01*
X116698255Y-78379871D01*
X117224911Y-78379871D01*
X117224911Y-80050307D01*
X117625557Y-80050307D01*
X118268530Y-80050307D01*
X118685331Y-80050307D01*
X118765703Y-79860081D01*
X118858191Y-79677124D01*
X118960372Y-79496591D01*
X119069822Y-79313635D01*
X119276607Y-79313635D01*
X119276607Y-80050307D01*
X119674023Y-80050307D01*
X119877577Y-80050307D01*
X120304071Y-80050307D01*
X120397771Y-79588271D01*
X120930889Y-79588271D01*
X121021357Y-80050307D01*
X121434927Y-80050307D01*
X121377932Y-79817997D01*
X121320679Y-79594087D01*
X121263166Y-79378578D01*
X121248656Y-79326559D01*
X121590016Y-79326559D01*
X121598094Y-79492956D01*
X121622326Y-79643199D01*
X121666753Y-79774863D01*
X121735412Y-79885525D01*
X121829111Y-79973974D01*
X121948659Y-80038998D01*
X122097286Y-80078982D01*
X122278223Y-80092310D01*
X122456333Y-80078982D01*
X122602940Y-80038998D01*
X122811341Y-79885525D01*
X122877577Y-79774863D01*
X122921195Y-79643199D01*
X122945428Y-79492956D01*
X122953506Y-79326559D01*
X122953506Y-78050307D01*
X122552859Y-78050307D01*
X122552859Y-79300711D01*
X122539935Y-79512342D01*
X122496317Y-79649661D01*
X122410695Y-79723974D01*
X122271761Y-79746591D01*
X122132827Y-79723974D01*
X122045590Y-79648045D01*
X122000355Y-79509111D01*
X121987431Y-79297480D01*
X121987431Y-78050307D01*
X121590016Y-78050307D01*
X121590016Y-79326559D01*
X121248656Y-79326559D01*
X121205396Y-79171470D01*
X121147367Y-78972763D01*
X121075275Y-78732758D01*
X121004394Y-78499015D01*
X120934725Y-78271531D01*
X120866268Y-78050307D01*
X120433312Y-78050307D01*
X120362330Y-78273348D01*
X120291551Y-78503053D01*
X120220973Y-78739422D01*
X120150598Y-78982456D01*
X120094701Y-79182843D01*
X120039451Y-79389822D01*
X119984847Y-79603393D01*
X119930889Y-79823554D01*
X119877577Y-80050307D01*
X119674023Y-80050307D01*
X119674023Y-78079386D01*
X119546397Y-78055153D01*
X119405848Y-78038998D01*
X119270145Y-78030921D01*
X119157060Y-78027690D01*
X118993893Y-78037383D01*
X118846882Y-78066462D01*
X118717641Y-78115735D01*
X118607787Y-78186010D01*
X118454313Y-78391179D01*
X118414330Y-78526478D01*
X118401002Y-78683586D01*
X118418772Y-78849984D01*
X118472084Y-79000226D01*
X118566591Y-79125428D01*
X118707948Y-79216704D01*
X118591632Y-79402488D01*
X118472084Y-79615735D01*
X118360614Y-79838675D01*
X118268530Y-80050307D01*
X117625557Y-80050307D01*
X117625557Y-78379871D01*
X118152213Y-78379871D01*
X118152213Y-78050307D01*
X116698255Y-78050307D01*
X116698255Y-78379871D01*
X114921195Y-78379871D01*
X114921195Y-78050307D01*
X113467237Y-78050307D01*
X113467237Y-78379871D01*
X113135771Y-78379871D01*
X113318611Y-78050307D01*
X112888885Y-78050307D01*
X112572246Y-78690048D01*
X112239451Y-78050307D01*
X111838805Y-78050307D01*
X112349305Y-78984071D01*
X112262876Y-79126236D01*
X112178061Y-79274863D01*
X112096882Y-79424701D01*
X112021357Y-79570501D01*
X111953102Y-79709435D01*
X111893732Y-79838675D01*
X111806494Y-80050307D01*
X110387360Y-80050307D01*
X109727155Y-79060000D01*
X110594863Y-77758438D01*
X111806494Y-77758438D01*
X122953506Y-77758438D01*
X124165137Y-77758438D01*
X125032845Y-77758438D01*
X124165137Y-79060000D01*
G37*
G36*
X120719257Y-78652892D02*
G01*
X120770953Y-78853215D01*
X120816187Y-79051922D01*
X120856575Y-79258708D01*
X120465622Y-79258708D01*
X120504394Y-79051922D01*
X120548013Y-78853215D01*
X120599709Y-78652892D01*
X120659483Y-78438029D01*
X120719257Y-78652892D01*
G37*
G36*
X119211987Y-78375024D02*
G01*
X119276607Y-78383102D01*
X119276607Y-78984071D01*
X119189370Y-78984071D01*
X119014087Y-78964281D01*
X118895347Y-78904911D01*
X118804879Y-78680355D01*
X118829111Y-78543037D01*
X118901809Y-78447722D01*
X119014087Y-78391987D01*
X119157060Y-78373409D01*
X119211987Y-78375024D01*
G37*
%TO.C,kibuzzard-672F4251*%
G36*
X125002845Y-74920000D02*
G01*
X124135137Y-76221562D01*
X122923506Y-76221562D01*
X122248223Y-76221562D01*
X120274071Y-76221562D01*
X118238530Y-76221562D01*
X117194911Y-76221562D01*
X113392003Y-76221562D01*
X112206220Y-76221562D01*
X111776494Y-76221562D01*
X110564863Y-76221562D01*
X109697155Y-76221562D01*
X109904658Y-75910307D01*
X111776494Y-75910307D01*
X112206220Y-75910307D01*
X112274475Y-75736640D01*
X112356462Y-75545202D01*
X112447334Y-75344879D01*
X112542246Y-75144556D01*
X112635945Y-75338821D01*
X112729645Y-75540355D01*
X112816882Y-75735428D01*
X112891195Y-75910307D01*
X113320921Y-75910307D01*
X113392003Y-75910307D01*
X113808805Y-75910307D01*
X113889176Y-75720081D01*
X113981664Y-75537124D01*
X114083845Y-75356591D01*
X114193296Y-75173635D01*
X114400081Y-75173635D01*
X114400081Y-75910307D01*
X114797496Y-75910307D01*
X114797496Y-74239871D01*
X116668255Y-74239871D01*
X117194911Y-74239871D01*
X117194911Y-75910307D01*
X117595557Y-75910307D01*
X118238530Y-75910307D01*
X118655331Y-75910307D01*
X118735703Y-75720081D01*
X118828191Y-75537124D01*
X118930372Y-75356591D01*
X119039822Y-75173635D01*
X119246607Y-75173635D01*
X119246607Y-75910307D01*
X119644023Y-75910307D01*
X119847577Y-75910307D01*
X120274071Y-75910307D01*
X120367771Y-75448271D01*
X120900889Y-75448271D01*
X120991357Y-75910307D01*
X121404927Y-75910307D01*
X121347932Y-75677997D01*
X121290679Y-75454087D01*
X121233166Y-75238578D01*
X121218656Y-75186559D01*
X121560016Y-75186559D01*
X121568094Y-75352956D01*
X121592326Y-75503199D01*
X121636753Y-75634863D01*
X121705412Y-75745525D01*
X121799111Y-75833974D01*
X121918659Y-75898998D01*
X122067286Y-75938982D01*
X122248223Y-75952310D01*
X122426333Y-75938982D01*
X122572940Y-75898998D01*
X122781341Y-75745525D01*
X122847577Y-75634863D01*
X122891195Y-75503199D01*
X122915428Y-75352956D01*
X122923506Y-75186559D01*
X122923506Y-73910307D01*
X122522859Y-73910307D01*
X122522859Y-75160711D01*
X122509935Y-75372342D01*
X122466317Y-75509661D01*
X122380695Y-75583974D01*
X122241761Y-75606591D01*
X122102827Y-75583974D01*
X122015590Y-75508045D01*
X121970355Y-75369111D01*
X121957431Y-75157480D01*
X121957431Y-73910307D01*
X121560016Y-73910307D01*
X121560016Y-75186559D01*
X121218656Y-75186559D01*
X121175396Y-75031470D01*
X121117367Y-74832763D01*
X121045275Y-74592758D01*
X120974394Y-74359015D01*
X120904725Y-74131531D01*
X120836268Y-73910307D01*
X120403312Y-73910307D01*
X120332330Y-74133348D01*
X120261551Y-74363053D01*
X120190973Y-74599422D01*
X120120598Y-74842456D01*
X120064701Y-75042843D01*
X120009451Y-75249822D01*
X119954847Y-75463393D01*
X119900889Y-75683554D01*
X119847577Y-75910307D01*
X119644023Y-75910307D01*
X119644023Y-73939386D01*
X119516397Y-73915153D01*
X119375848Y-73898998D01*
X119240145Y-73890921D01*
X119127060Y-73887690D01*
X118963893Y-73897383D01*
X118816882Y-73926462D01*
X118687641Y-73975735D01*
X118577787Y-74046010D01*
X118424313Y-74251179D01*
X118384330Y-74386478D01*
X118371002Y-74543586D01*
X118388772Y-74709984D01*
X118442084Y-74860226D01*
X118536591Y-74985428D01*
X118677948Y-75076704D01*
X118561632Y-75262488D01*
X118442084Y-75475735D01*
X118330614Y-75698675D01*
X118238530Y-75910307D01*
X117595557Y-75910307D01*
X117595557Y-74239871D01*
X118122213Y-74239871D01*
X118122213Y-73910307D01*
X116668255Y-73910307D01*
X116668255Y-74239871D01*
X114797496Y-74239871D01*
X114797496Y-73939386D01*
X114669871Y-73915153D01*
X114529321Y-73898998D01*
X114393619Y-73890921D01*
X114280533Y-73887690D01*
X114117367Y-73897383D01*
X113970355Y-73926462D01*
X113841115Y-73975735D01*
X113731260Y-74046010D01*
X113577787Y-74251179D01*
X113537803Y-74386478D01*
X113524475Y-74543586D01*
X113542246Y-74709984D01*
X113595557Y-74860226D01*
X113690065Y-74985428D01*
X113831422Y-75076704D01*
X113715105Y-75262488D01*
X113595557Y-75475735D01*
X113484087Y-75698675D01*
X113392003Y-75910307D01*
X113320921Y-75910307D01*
X113225606Y-75700291D01*
X113159370Y-75572666D01*
X113086672Y-75435347D01*
X113008724Y-75291163D01*
X112926737Y-75142940D01*
X112844346Y-74995525D01*
X112765186Y-74853764D01*
X113288611Y-73910307D01*
X112858885Y-73910307D01*
X112542246Y-74550048D01*
X112209451Y-73910307D01*
X111808805Y-73910307D01*
X112319305Y-74844071D01*
X112232876Y-74986236D01*
X112148061Y-75134863D01*
X112066882Y-75284701D01*
X111991357Y-75430501D01*
X111923102Y-75569435D01*
X111863732Y-75698675D01*
X111776494Y-75910307D01*
X109904658Y-75910307D01*
X110564863Y-74920000D01*
X109697155Y-73618438D01*
X110564863Y-73618438D01*
X111776494Y-73618438D01*
X122923506Y-73618438D01*
X124135137Y-73618438D01*
X125002845Y-74920000D01*
G37*
G36*
X120689257Y-74512892D02*
G01*
X120740953Y-74713215D01*
X120786187Y-74911922D01*
X120826575Y-75118708D01*
X120435622Y-75118708D01*
X120474394Y-74911922D01*
X120518013Y-74713215D01*
X120569709Y-74512892D01*
X120629483Y-74298029D01*
X120689257Y-74512892D01*
G37*
G36*
X119181987Y-74235024D02*
G01*
X119246607Y-74243102D01*
X119246607Y-74844071D01*
X119159370Y-74844071D01*
X118984087Y-74824281D01*
X118865347Y-74764911D01*
X118774879Y-74540355D01*
X118799111Y-74403037D01*
X118871809Y-74307722D01*
X118984087Y-74251987D01*
X119127060Y-74233409D01*
X119181987Y-74235024D01*
G37*
G36*
X114335460Y-74235024D02*
G01*
X114400081Y-74243102D01*
X114400081Y-74844071D01*
X114312843Y-74844071D01*
X114137561Y-74824281D01*
X114018821Y-74764911D01*
X113928352Y-74540355D01*
X113952585Y-74403037D01*
X114025283Y-74307722D01*
X114137561Y-74251987D01*
X114280533Y-74233409D01*
X114335460Y-74235024D01*
G37*
D12*
%TO.C,TP8*%
X127950000Y-75000000D02*
G75*
G02*
X126050000Y-75000000I-950000J0D01*
G01*
X126050000Y-75000000D02*
G75*
G02*
X127950000Y-75000000I950000J0D01*
G01*
%TO.C,TP7*%
X127950000Y-79000000D02*
G75*
G02*
X126050000Y-79000000I-950000J0D01*
G01*
X126050000Y-79000000D02*
G75*
G02*
X127950000Y-79000000I950000J0D01*
G01*
%TO.C,R2*%
X122147500Y-52058500D02*
X122147500Y-55741500D01*
X122147500Y-55741500D02*
X124052500Y-55741500D01*
X124052500Y-52058500D02*
X122147500Y-52058500D01*
X124052500Y-55741500D02*
X124052500Y-52058500D01*
%TO.C,R1*%
X119022500Y-52058500D02*
X119022500Y-55741500D01*
X119022500Y-55741500D02*
X120927500Y-55741500D01*
X120927500Y-52058500D02*
X119022500Y-52058500D01*
X120927500Y-55741500D02*
X120927500Y-52058500D01*
%TO.C,D7*%
X135750000Y-56750000D02*
X135350000Y-56750000D01*
X135350000Y-55750000D01*
X135750000Y-55750000D01*
X135750000Y-56750000D01*
G36*
X135750000Y-56750000D02*
G01*
X135350000Y-56750000D01*
X135350000Y-55750000D01*
X135750000Y-55750000D01*
X135750000Y-56750000D01*
G37*
X138750000Y-57150000D02*
X135750000Y-57150000D01*
X135750000Y-52550000D01*
X138750000Y-52550000D01*
X138750000Y-57150000D01*
X139150000Y-56750000D02*
X138750000Y-56750000D01*
X138750000Y-55750000D01*
X139150000Y-55750000D01*
X139150000Y-56750000D01*
G36*
X139150000Y-56750000D02*
G01*
X138750000Y-56750000D01*
X138750000Y-55750000D01*
X139150000Y-55750000D01*
X139150000Y-56750000D01*
G37*
%TO.C,TP3*%
X141950000Y-68200000D02*
G75*
G02*
X140050000Y-68200000I-950000J0D01*
G01*
X140050000Y-68200000D02*
G75*
G02*
X141950000Y-68200000I950000J0D01*
G01*
%TO.C,R8*%
X133047500Y-53108500D02*
X133047500Y-56791500D01*
X133047500Y-56791500D02*
X134952500Y-56791500D01*
X134952500Y-53108500D02*
X133047500Y-53108500D01*
X134952500Y-56791500D02*
X134952500Y-53108500D01*
%TO.C,R5*%
X154597500Y-52008500D02*
X154597500Y-55691500D01*
X154597500Y-55691500D02*
X156502500Y-55691500D01*
X156502500Y-52008500D02*
X154597500Y-52008500D01*
X156502500Y-55691500D02*
X156502500Y-52008500D01*
%TO.C,C1*%
X135900000Y-61800000D02*
X139100000Y-61800000D01*
X139100000Y-59800000D02*
X135900000Y-59800000D01*
X135900000Y-61800000D02*
G75*
G02*
X135900000Y-59800000I1122254J1000000D01*
G01*
X139100000Y-59800000D02*
G75*
G02*
X139100000Y-61800000I-1122254J-1000000D01*
G01*
%TO.C,R6*%
X116697500Y-48108500D02*
X116697500Y-51791500D01*
X116697500Y-51791500D02*
X118602500Y-51791500D01*
X118602500Y-48108500D02*
X116697500Y-48108500D01*
X118602500Y-51791500D02*
X118602500Y-48108500D01*
%TO.C,D1*%
X118975000Y-47650000D02*
X118975000Y-51850000D01*
X118975000Y-51850000D02*
X120975000Y-51850000D01*
X119467000Y-50131000D02*
X120483000Y-50131000D01*
X120975000Y-47650000D02*
X118975000Y-47650000D01*
X120975000Y-51850000D02*
X120975000Y-47650000D01*
D13*
X119975000Y-50131000D02*
X119467000Y-49369000D01*
X120483000Y-49369000D01*
X119975000Y-50131000D01*
G36*
X119975000Y-50131000D02*
G01*
X119467000Y-49369000D01*
X120483000Y-49369000D01*
X119975000Y-50131000D01*
G37*
X118975000Y-50650000D02*
X118675000Y-50650000D01*
X118675000Y-49951500D01*
X118975000Y-49951500D01*
X118975000Y-50650000D01*
G36*
X118975000Y-50650000D02*
G01*
X118675000Y-50650000D01*
X118675000Y-49951500D01*
X118975000Y-49951500D01*
X118975000Y-50650000D01*
G37*
X121275000Y-50650000D02*
X120975000Y-50650000D01*
X120975000Y-49951500D01*
X121275000Y-49951500D01*
X121275000Y-50650000D01*
G36*
X121275000Y-50650000D02*
G01*
X120975000Y-50650000D01*
X120975000Y-49951500D01*
X121275000Y-49951500D01*
X121275000Y-50650000D01*
G37*
D12*
%TO.C,D3*%
X151187500Y-47703500D02*
X151187500Y-51903500D01*
X151187500Y-51903500D02*
X153187500Y-51903500D01*
X151679500Y-50184500D02*
X152695500Y-50184500D01*
X153187500Y-47703500D02*
X151187500Y-47703500D01*
X153187500Y-51903500D02*
X153187500Y-47703500D01*
D13*
X152187500Y-50184500D02*
X151679500Y-49422500D01*
X152695500Y-49422500D01*
X152187500Y-50184500D01*
G36*
X152187500Y-50184500D02*
G01*
X151679500Y-49422500D01*
X152695500Y-49422500D01*
X152187500Y-50184500D01*
G37*
X151187500Y-50703500D02*
X150887500Y-50703500D01*
X150887500Y-50005000D01*
X151187500Y-50005000D01*
X151187500Y-50703500D01*
G36*
X151187500Y-50703500D02*
G01*
X150887500Y-50703500D01*
X150887500Y-50005000D01*
X151187500Y-50005000D01*
X151187500Y-50703500D01*
G37*
X153487500Y-50703500D02*
X153187500Y-50703500D01*
X153187500Y-50005000D01*
X153487500Y-50005000D01*
X153487500Y-50703500D01*
G36*
X153487500Y-50703500D02*
G01*
X153187500Y-50703500D01*
X153187500Y-50005000D01*
X153487500Y-50005000D01*
X153487500Y-50703500D01*
G37*
%TO.C,D6*%
D12*
X127950000Y-52000000D02*
X127550000Y-52000000D01*
X127550000Y-51000000D01*
X127950000Y-51000000D01*
X127950000Y-52000000D01*
G36*
X127950000Y-52000000D02*
G01*
X127550000Y-52000000D01*
X127550000Y-51000000D01*
X127950000Y-51000000D01*
X127950000Y-52000000D01*
G37*
X130950000Y-52400000D02*
X127950000Y-52400000D01*
X127950000Y-47800000D01*
X130950000Y-47800000D01*
X130950000Y-52400000D01*
X131350000Y-52000000D02*
X130950000Y-52000000D01*
X130950000Y-51000000D01*
X131350000Y-51000000D01*
X131350000Y-52000000D01*
G36*
X131350000Y-52000000D02*
G01*
X130950000Y-52000000D01*
X130950000Y-51000000D01*
X131350000Y-51000000D01*
X131350000Y-52000000D01*
G37*
%TO.C,R4*%
X151222500Y-52008500D02*
X151222500Y-55691500D01*
X151222500Y-55691500D02*
X153127500Y-55691500D01*
X153127500Y-52008500D02*
X151222500Y-52008500D01*
X153127500Y-55691500D02*
X153127500Y-52008500D01*
%TO.C,C2*%
X142550000Y-53337500D02*
X142550000Y-56537500D01*
X144550000Y-56537500D02*
X144550000Y-53337500D01*
X142550000Y-53337500D02*
G75*
G02*
X144550000Y-53337500I1000000J-1122254D01*
G01*
X144550000Y-56537500D02*
G75*
G02*
X142550000Y-56537500I-1000000J1122254D01*
G01*
%TO.C,D5*%
X111820000Y-51970000D02*
X111420000Y-51970000D01*
X111420000Y-50970000D01*
X111820000Y-50970000D01*
X111820000Y-51970000D01*
G36*
X111820000Y-51970000D02*
G01*
X111420000Y-51970000D01*
X111420000Y-50970000D01*
X111820000Y-50970000D01*
X111820000Y-51970000D01*
G37*
X114820000Y-52370000D02*
X111820000Y-52370000D01*
X111820000Y-47770000D01*
X114820000Y-47770000D01*
X114820000Y-52370000D01*
X115220000Y-51970000D02*
X114820000Y-51970000D01*
X114820000Y-50970000D01*
X115220000Y-50970000D01*
X115220000Y-51970000D01*
G36*
X115220000Y-51970000D02*
G01*
X114820000Y-51970000D01*
X114820000Y-50970000D01*
X115220000Y-50970000D01*
X115220000Y-51970000D01*
G37*
%TO.C,D9*%
X139675000Y-52825000D02*
X139675000Y-57025000D01*
X139675000Y-57025000D02*
X141675000Y-57025000D01*
X140167000Y-55306000D02*
X141183000Y-55306000D01*
X141675000Y-52825000D02*
X139675000Y-52825000D01*
X141675000Y-57025000D02*
X141675000Y-52825000D01*
D13*
X140675000Y-55306000D02*
X140167000Y-54544000D01*
X141183000Y-54544000D01*
X140675000Y-55306000D01*
G36*
X140675000Y-55306000D02*
G01*
X140167000Y-54544000D01*
X141183000Y-54544000D01*
X140675000Y-55306000D01*
G37*
X139675000Y-55825000D02*
X139375000Y-55825000D01*
X139375000Y-55126500D01*
X139675000Y-55126500D01*
X139675000Y-55825000D01*
G36*
X139675000Y-55825000D02*
G01*
X139375000Y-55825000D01*
X139375000Y-55126500D01*
X139675000Y-55126500D01*
X139675000Y-55825000D01*
G37*
X141975000Y-55825000D02*
X141675000Y-55825000D01*
X141675000Y-55126500D01*
X141975000Y-55126500D01*
X141975000Y-55825000D01*
G36*
X141975000Y-55825000D02*
G01*
X141675000Y-55825000D01*
X141675000Y-55126500D01*
X141975000Y-55126500D01*
X141975000Y-55825000D01*
G37*
%TO.C,D8*%
D12*
X144200000Y-52000000D02*
X143800000Y-52000000D01*
X143800000Y-51000000D01*
X144200000Y-51000000D01*
X144200000Y-52000000D01*
G36*
X144200000Y-52000000D02*
G01*
X143800000Y-52000000D01*
X143800000Y-51000000D01*
X144200000Y-51000000D01*
X144200000Y-52000000D01*
G37*
X147200000Y-52400000D02*
X144200000Y-52400000D01*
X144200000Y-47800000D01*
X147200000Y-47800000D01*
X147200000Y-52400000D01*
X147600000Y-52000000D02*
X147200000Y-52000000D01*
X147200000Y-51000000D01*
X147600000Y-51000000D01*
X147600000Y-52000000D01*
G36*
X147600000Y-52000000D02*
G01*
X147200000Y-52000000D01*
X147200000Y-51000000D01*
X147600000Y-51000000D01*
X147600000Y-52000000D01*
G37*
%TO.C,TP4*%
X146650000Y-74600000D02*
G75*
G02*
X144750000Y-74600000I-950000J0D01*
G01*
X144750000Y-74600000D02*
G75*
G02*
X146650000Y-74600000I950000J0D01*
G01*
%TO.C,U1*%
X135880000Y-65180000D02*
X135880000Y-65330000D01*
X135880000Y-68100000D02*
X135880000Y-67650000D01*
X136120000Y-64880000D02*
X136330000Y-64880000D01*
X136330000Y-68100000D02*
X135880000Y-68100000D01*
X138650000Y-64880000D02*
X139100000Y-64880000D01*
X138650000Y-68100000D02*
X139100000Y-68100000D01*
X139100000Y-64880000D02*
X139100000Y-65330000D01*
X139100000Y-68100000D02*
X139100000Y-67650000D01*
X135880000Y-64880000D02*
X135550000Y-65120000D01*
X135550000Y-64640000D01*
X135880000Y-64880000D01*
G36*
X135880000Y-64880000D02*
G01*
X135550000Y-65120000D01*
X135550000Y-64640000D01*
X135880000Y-64880000D01*
G37*
%TO.C,TP6*%
X146650000Y-81600000D02*
G75*
G02*
X144750000Y-81600000I-950000J0D01*
G01*
X144750000Y-81600000D02*
G75*
G02*
X146650000Y-81600000I950000J0D01*
G01*
%TO.C,D2*%
X122050000Y-47650000D02*
X122050000Y-51850000D01*
X122050000Y-51850000D02*
X124050000Y-51850000D01*
X122542000Y-50131000D02*
X123558000Y-50131000D01*
X124050000Y-47650000D02*
X122050000Y-47650000D01*
X124050000Y-51850000D02*
X124050000Y-47650000D01*
D13*
X123050000Y-50131000D02*
X122542000Y-49369000D01*
X123558000Y-49369000D01*
X123050000Y-50131000D01*
G36*
X123050000Y-50131000D02*
G01*
X122542000Y-49369000D01*
X123558000Y-49369000D01*
X123050000Y-50131000D01*
G37*
X122050000Y-50650000D02*
X121750000Y-50650000D01*
X121750000Y-49951500D01*
X122050000Y-49951500D01*
X122050000Y-50650000D01*
G36*
X122050000Y-50650000D02*
G01*
X121750000Y-50650000D01*
X121750000Y-49951500D01*
X122050000Y-49951500D01*
X122050000Y-50650000D01*
G37*
X124350000Y-50650000D02*
X124050000Y-50650000D01*
X124050000Y-49951500D01*
X124350000Y-49951500D01*
X124350000Y-50650000D01*
G36*
X124350000Y-50650000D02*
G01*
X124050000Y-50650000D01*
X124050000Y-49951500D01*
X124350000Y-49951500D01*
X124350000Y-50650000D01*
G37*
D12*
%TO.C,R9*%
X148997500Y-47908500D02*
X148997500Y-51591500D01*
X148997500Y-51591500D02*
X150902500Y-51591500D01*
X150902500Y-47908500D02*
X148997500Y-47908500D01*
X150902500Y-51591500D02*
X150902500Y-47908500D01*
%TO.C,D10*%
X164050000Y-52000000D02*
X163650000Y-52000000D01*
X163650000Y-51000000D01*
X164050000Y-51000000D01*
X164050000Y-52000000D01*
G36*
X164050000Y-52000000D02*
G01*
X163650000Y-52000000D01*
X163650000Y-51000000D01*
X164050000Y-51000000D01*
X164050000Y-52000000D01*
G37*
X163650000Y-52400000D02*
X160650000Y-52400000D01*
X160650000Y-47800000D01*
X163650000Y-47800000D01*
X163650000Y-52400000D01*
X160650000Y-52000000D02*
X160250000Y-52000000D01*
X160250000Y-51000000D01*
X160650000Y-51000000D01*
X160650000Y-52000000D01*
G36*
X160650000Y-52000000D02*
G01*
X160250000Y-52000000D01*
X160250000Y-51000000D01*
X160650000Y-51000000D01*
X160650000Y-52000000D01*
G37*
%TO.C,D4*%
X154562500Y-47678500D02*
X154562500Y-51878500D01*
X154562500Y-51878500D02*
X156562500Y-51878500D01*
X155054500Y-50159500D02*
X156070500Y-50159500D01*
X156562500Y-47678500D02*
X154562500Y-47678500D01*
X156562500Y-51878500D02*
X156562500Y-47678500D01*
D13*
X155562500Y-50159500D02*
X155054500Y-49397500D01*
X156070500Y-49397500D01*
X155562500Y-50159500D01*
G36*
X155562500Y-50159500D02*
G01*
X155054500Y-49397500D01*
X156070500Y-49397500D01*
X155562500Y-50159500D01*
G37*
X154562500Y-50678500D02*
X154262500Y-50678500D01*
X154262500Y-49980000D01*
X154562500Y-49980000D01*
X154562500Y-50678500D01*
G36*
X154562500Y-50678500D02*
G01*
X154262500Y-50678500D01*
X154262500Y-49980000D01*
X154562500Y-49980000D01*
X154562500Y-50678500D01*
G37*
X156862500Y-50678500D02*
X156562500Y-50678500D01*
X156562500Y-49980000D01*
X156862500Y-49980000D01*
X156862500Y-50678500D01*
G36*
X156862500Y-50678500D02*
G01*
X156562500Y-50678500D01*
X156562500Y-49980000D01*
X156862500Y-49980000D01*
X156862500Y-50678500D01*
G37*
D12*
%TO.C,TP1*%
X143750000Y-63000000D02*
G75*
G02*
X141850000Y-63000000I-950000J0D01*
G01*
X141850000Y-63000000D02*
G75*
G02*
X143750000Y-63000000I950000J0D01*
G01*
%TO.C,TP5*%
X146650000Y-78100000D02*
G75*
G02*
X144750000Y-78100000I-950000J0D01*
G01*
X144750000Y-78100000D02*
G75*
G02*
X146650000Y-78100000I950000J0D01*
G01*
%TO.C,R7*%
X124397500Y-47858500D02*
X124397500Y-51541500D01*
X124397500Y-51541500D02*
X126302500Y-51541500D01*
X126302500Y-47858500D02*
X124397500Y-47858500D01*
X126302500Y-51541500D02*
X126302500Y-47858500D01*
%TO.C,TP2*%
X143750000Y-65700000D02*
G75*
G02*
X141850000Y-65700000I-950000J0D01*
G01*
X141850000Y-65700000D02*
G75*
G02*
X143750000Y-65700000I950000J0D01*
G01*
%TO.C,R10*%
X156897500Y-48008500D02*
X156897500Y-51691500D01*
X156897500Y-51691500D02*
X158802500Y-51691500D01*
X158802500Y-48008500D02*
X156897500Y-48008500D01*
X158802500Y-51691500D02*
X158802500Y-48008500D01*
%TO.C,J1*%
X133940000Y-75405000D02*
X134760000Y-75405000D01*
X133940000Y-76975000D02*
X133940000Y-75405000D01*
X141230000Y-80655000D02*
X141230000Y-83395000D01*
X140280000Y-80655000D02*
X140280000Y-78545000D01*
X139400000Y-80655000D02*
X139400000Y-78545000D01*
X137740000Y-80655000D02*
X137740000Y-78545000D01*
X136860000Y-80655000D02*
X136860000Y-78545000D01*
X135200000Y-80655000D02*
X135200000Y-78545000D01*
X134320000Y-80655000D02*
X134320000Y-78545000D01*
X133370000Y-80655000D02*
X141230000Y-80655000D01*
X141230000Y-83395000D02*
X133370000Y-83395000D01*
X140280000Y-83395000D02*
X140280000Y-89395000D01*
X137740000Y-83395000D02*
X137740000Y-89395000D01*
X135200000Y-83395000D02*
X135200000Y-89395000D01*
X133370000Y-83395000D02*
X133370000Y-80655000D01*
X140280000Y-89395000D02*
X139400000Y-89395000D01*
X139400000Y-89395000D02*
X139400000Y-83395000D01*
X137740000Y-89395000D02*
X136860000Y-89395000D01*
X136860000Y-89395000D02*
X136860000Y-83395000D01*
X135200000Y-89395000D02*
X134320000Y-89395000D01*
X134320000Y-89395000D02*
X134320000Y-83395000D01*
%TD*%
D14*
%TO.C,J1*%
X134760000Y-86395000D03*
%TD*%
M02*
