%TF.GenerationSoftware,KiCad,Pcbnew,8.0.6-8.0.6-0~ubuntu24.04.1*%
%TF.CreationDate,2024-11-09T12:08:17+01:00*%
%TF.ProjectId,NIMH-battery-charger,4e494d48-2d62-4617-9474-6572792d6368,rev?*%
%TF.SameCoordinates,Original*%
%TF.FileFunction,Copper,L1,Top*%
%TF.FilePolarity,Positive*%
%FSLAX46Y46*%
G04 Gerber Fmt 4.6, Leading zero omitted, Abs format (unit mm)*
G04 Created by KiCad (PCBNEW 8.0.6-8.0.6-0~ubuntu24.04.1) date 2024-11-09 12:08:17*
%MOMM*%
%LPD*%
G01*
G04 APERTURE LIST*
G04 Aperture macros list*
%AMRoundRect*
0 Rectangle with rounded corners*
0 $1 Rounding radius*
0 $2 $3 $4 $5 $6 $7 $8 $9 X,Y pos of 4 corners*
0 Add a 4 corners polygon primitive as box body*
4,1,4,$2,$3,$4,$5,$6,$7,$8,$9,$2,$3,0*
0 Add four circle primitives for the rounded corners*
1,1,$1+$1,$2,$3*
1,1,$1+$1,$4,$5*
1,1,$1+$1,$6,$7*
1,1,$1+$1,$8,$9*
0 Add four rect primitives between the rounded corners*
20,1,$1+$1,$2,$3,$4,$5,0*
20,1,$1+$1,$4,$5,$6,$7,0*
20,1,$1+$1,$6,$7,$8,$9,0*
20,1,$1+$1,$8,$9,$2,$3,0*%
G04 Aperture macros list end*
%TA.AperFunction,ComponentPad*%
%ADD10C,3.600000*%
%TD*%
%TA.AperFunction,ConnectorPad*%
%ADD11C,5.500000*%
%TD*%
%TA.AperFunction,SMDPad,CuDef*%
%ADD12RoundRect,2.000000X-2.000000X-2.500000X2.000000X-2.500000X2.000000X2.500000X-2.000000X2.500000X0*%
%TD*%
%TA.AperFunction,ComponentPad*%
%ADD13C,3.000000*%
%TD*%
%TA.AperFunction,ComponentPad*%
%ADD14O,1.100000X2.100000*%
%TD*%
%TA.AperFunction,ComponentPad*%
%ADD15O,1.100000X1.700000*%
%TD*%
%TA.AperFunction,ViaPad*%
%ADD16C,0.600000*%
%TD*%
%TA.AperFunction,Conductor*%
%ADD17C,0.508000*%
%TD*%
G04 APERTURE END LIST*
D10*
%TO.P,H4,1*%
%TO.N,N/C*%
X153900000Y-119300000D03*
D11*
X153900000Y-119300000D03*
%TD*%
D10*
%TO.P,H3,1*%
%TO.N,N/C*%
X121200000Y-119200000D03*
D11*
X121200000Y-119200000D03*
%TD*%
D10*
%TO.P,H2,1*%
%TO.N,N/C*%
X166500000Y-48200000D03*
D11*
X166500000Y-48200000D03*
%TD*%
D10*
%TO.P,H1,1*%
%TO.N,N/C*%
X108500000Y-48200000D03*
D11*
X108500000Y-48200000D03*
%TD*%
D12*
%TO.P,BT2,1,+*%
%TO.N,/ADC2*%
X129400000Y-55700000D03*
D13*
X129400000Y-62700000D03*
%TO.P,BT2,2,-*%
%TO.N,GND*%
X129400000Y-111700000D03*
D12*
X129400000Y-118700000D03*
%TD*%
%TO.P,BT4,1,+*%
%TO.N,/ADC4*%
X162000000Y-55695000D03*
D13*
X162000000Y-62695000D03*
%TO.P,BT4,2,-*%
%TO.N,GND*%
X162000000Y-111695000D03*
D12*
X162000000Y-118695000D03*
%TD*%
%TO.P,BT3,1,+*%
%TO.N,/ADC3*%
X145700000Y-55695000D03*
D13*
X145700000Y-62695000D03*
%TO.P,BT3,2,-*%
%TO.N,GND*%
X145700000Y-111695000D03*
D12*
X145700000Y-118695000D03*
%TD*%
%TO.P,BT1,1,+*%
%TO.N,/ADC1*%
X113075000Y-55695000D03*
D13*
X113075000Y-62695000D03*
%TO.P,BT1,2,-*%
%TO.N,GND*%
X113075000Y-111695000D03*
D12*
X113075000Y-118695000D03*
%TD*%
D14*
%TO.P,J7,S1,SHIELD*%
%TO.N,GND*%
X131950000Y-45620000D03*
D15*
X131950000Y-49620000D03*
D14*
X143230000Y-45610000D03*
D15*
X143230000Y-49620000D03*
%TD*%
D16*
%TO.N,GND*%
X140600000Y-60600000D03*
X142400000Y-50700000D03*
X141200000Y-50600000D03*
X132800000Y-50800000D03*
X133800000Y-50600000D03*
%TO.N,VDD*%
X137300000Y-75500000D03*
X140200000Y-65400000D03*
%TO.N,/UART_TX*%
X127000000Y-79000000D03*
X133700000Y-65700000D03*
%TO.N,/UART_RX*%
X127000000Y-75000000D03*
X134100000Y-64600000D03*
%TO.N,/ADC4*%
X134600000Y-67800000D03*
%TO.N,GND*%
X137000000Y-62500000D03*
X136500000Y-59500000D03*
X143500000Y-47500000D03*
X144500000Y-46500000D03*
X144500000Y-45000000D03*
X131500000Y-47500000D03*
X130500000Y-46500000D03*
X130500000Y-45300000D03*
%TO.N,/LED4*%
X141600000Y-51500000D03*
X139000000Y-63000000D03*
%TO.N,/LED2*%
X134200000Y-58300000D03*
X133600000Y-51600000D03*
%TO.N,/LED1*%
X123000000Y-57900000D03*
X119000000Y-57900000D03*
%TO.N,/ADC4*%
X158800000Y-52900000D03*
%TD*%
D17*
%TO.N,/LED4*%
X139000000Y-63000000D02*
X139000000Y-58800000D01*
X139000000Y-58800000D02*
X141000000Y-56800000D01*
X141000000Y-56800000D02*
X141000000Y-52100000D01*
X141000000Y-52100000D02*
X141600000Y-51500000D01*
%TO.N,/LED1*%
X119000000Y-57900000D02*
X123000000Y-57900000D01*
%TO.N,VDD*%
X137300000Y-72500000D02*
X133700000Y-68900000D01*
X137300000Y-75500000D02*
X137300000Y-72500000D01*
X133700000Y-68900000D02*
X133700000Y-67200000D01*
X133700000Y-67200000D02*
X135500000Y-65400000D01*
X135500000Y-65400000D02*
X140200000Y-65400000D01*
%TO.N,/UART_TX*%
X133700000Y-65700000D02*
X132700000Y-66700000D01*
X132700000Y-66700000D02*
X132700000Y-73300000D01*
X132700000Y-73300000D02*
X127000000Y-79000000D01*
%TO.N,/UART_RX*%
X134100000Y-64600000D02*
X133600000Y-64600000D01*
X133600000Y-64600000D02*
X131900000Y-66300000D01*
X131900000Y-66300000D02*
X131900000Y-71900000D01*
X131900000Y-71900000D02*
X128800000Y-75000000D01*
X128800000Y-75000000D02*
X127000000Y-75000000D01*
%TO.N,/ADC4*%
X134600000Y-67800000D02*
X144100000Y-67800000D01*
X144100000Y-67800000D02*
X156205000Y-55695000D01*
X156205000Y-55695000D02*
X162000000Y-55695000D01*
%TO.N,/LED2*%
X134200000Y-52200000D02*
X134200000Y-58300000D01*
X133600000Y-51600000D02*
X134200000Y-52200000D01*
%TD*%
%TA.AperFunction,Conductor*%
%TO.N,GND*%
G36*
X132692501Y-44260277D02*
G01*
X132738276Y-44313064D01*
X132749500Y-44364617D01*
X132749500Y-49720118D01*
X132749500Y-49760000D01*
X132749500Y-49826843D01*
X132750424Y-49830591D01*
X132781493Y-49956645D01*
X132843618Y-50075014D01*
X132843620Y-50075016D01*
X132932265Y-50175076D01*
X132932267Y-50175078D01*
X132932270Y-50175081D01*
X132954675Y-50190546D01*
X133042289Y-50251022D01*
X133042290Y-50251022D01*
X133042291Y-50251023D01*
X133167289Y-50298429D01*
X133300000Y-50314543D01*
X133432711Y-50298429D01*
X133557709Y-50251023D01*
X133667730Y-50175081D01*
X133756380Y-50075016D01*
X133781647Y-50026873D01*
X133830231Y-49976662D01*
X133891443Y-49960500D01*
X141308557Y-49960500D01*
X141375596Y-49980185D01*
X141418352Y-50026873D01*
X141430492Y-50050002D01*
X141443620Y-50075017D01*
X141532265Y-50175076D01*
X141532267Y-50175078D01*
X141532270Y-50175081D01*
X141554675Y-50190546D01*
X141642289Y-50251022D01*
X141642290Y-50251022D01*
X141642291Y-50251023D01*
X141767289Y-50298429D01*
X141900000Y-50314543D01*
X142032711Y-50298429D01*
X142157709Y-50251023D01*
X142267730Y-50175081D01*
X142356380Y-50075016D01*
X142418507Y-49956644D01*
X142450500Y-49826843D01*
X142450500Y-49760000D01*
X142450500Y-49720118D01*
X142450500Y-44364617D01*
X142470185Y-44297579D01*
X142522989Y-44251824D01*
X142574543Y-44240618D01*
X169447476Y-44250480D01*
X169447667Y-44250500D01*
X169460118Y-44250500D01*
X169493910Y-44250500D01*
X169506064Y-44251097D01*
X169643826Y-44264665D01*
X169667652Y-44269404D01*
X169794277Y-44307815D01*
X169816725Y-44317114D01*
X169933406Y-44379482D01*
X169953616Y-44392986D01*
X169987511Y-44420802D01*
X170055891Y-44476920D01*
X170073079Y-44494108D01*
X170157012Y-44596381D01*
X170170517Y-44616593D01*
X170232883Y-44733271D01*
X170242186Y-44755728D01*
X170280593Y-44882338D01*
X170285335Y-44906180D01*
X170298903Y-45043938D01*
X170299500Y-45056092D01*
X170299500Y-45097470D01*
X170299501Y-45097491D01*
X170302392Y-122796800D01*
X170301795Y-122808958D01*
X170288229Y-122946712D01*
X170283487Y-122970554D01*
X170245080Y-123097165D01*
X170235778Y-123119623D01*
X170173413Y-123236301D01*
X170159907Y-123256513D01*
X170075974Y-123358786D01*
X170058786Y-123375974D01*
X169956513Y-123459907D01*
X169936303Y-123473411D01*
X169819623Y-123535778D01*
X169797165Y-123545080D01*
X169670554Y-123583487D01*
X169646712Y-123588229D01*
X169508956Y-123601796D01*
X169496803Y-123602393D01*
X165293781Y-123602393D01*
X165226742Y-123582708D01*
X165180987Y-123529904D01*
X165171043Y-123460746D01*
X165200068Y-123397190D01*
X165230660Y-123371661D01*
X165407988Y-123266788D01*
X165656547Y-123073986D01*
X165840990Y-122889542D01*
X162000000Y-119048553D01*
X158159008Y-122889543D01*
X158343448Y-123073983D01*
X158592011Y-123266788D01*
X158592010Y-123266788D01*
X158769340Y-123371661D01*
X158817024Y-123422730D01*
X158829527Y-123491472D01*
X158802881Y-123556061D01*
X158745546Y-123595991D01*
X158706219Y-123602393D01*
X148993781Y-123602393D01*
X148926742Y-123582708D01*
X148880987Y-123529904D01*
X148871043Y-123460746D01*
X148900068Y-123397190D01*
X148930660Y-123371661D01*
X149107988Y-123266788D01*
X149356547Y-123073986D01*
X149540990Y-122889542D01*
X145700000Y-119048553D01*
X141859008Y-122889543D01*
X142043448Y-123073983D01*
X142292011Y-123266788D01*
X142292010Y-123266788D01*
X142469340Y-123371661D01*
X142517024Y-123422730D01*
X142529527Y-123491472D01*
X142502881Y-123556061D01*
X142445546Y-123595991D01*
X142406219Y-123602393D01*
X132702235Y-123602393D01*
X132635196Y-123582708D01*
X132589441Y-123529904D01*
X132579497Y-123460746D01*
X132608522Y-123397190D01*
X132639114Y-123371661D01*
X132807988Y-123271788D01*
X133056547Y-123078986D01*
X133240990Y-122894542D01*
X129400000Y-119053553D01*
X125559009Y-122894543D01*
X125743448Y-123078983D01*
X125992011Y-123271788D01*
X125992010Y-123271788D01*
X126160886Y-123371661D01*
X126208570Y-123422730D01*
X126221073Y-123491472D01*
X126194427Y-123556061D01*
X126137092Y-123595991D01*
X126097765Y-123602393D01*
X116368781Y-123602393D01*
X116301742Y-123582708D01*
X116255987Y-123529904D01*
X116246043Y-123460746D01*
X116275068Y-123397190D01*
X116305660Y-123371661D01*
X116482988Y-123266788D01*
X116731547Y-123073986D01*
X116915990Y-122889542D01*
X113075000Y-119048553D01*
X109234008Y-122889543D01*
X109418448Y-123073983D01*
X109667011Y-123266788D01*
X109667010Y-123266788D01*
X109844340Y-123371661D01*
X109892024Y-123422730D01*
X109904527Y-123491472D01*
X109877881Y-123556061D01*
X109820546Y-123595991D01*
X109781219Y-123602393D01*
X105503197Y-123602393D01*
X105491044Y-123601796D01*
X105353287Y-123588229D01*
X105329445Y-123583487D01*
X105202834Y-123545080D01*
X105180382Y-123535780D01*
X105063691Y-123473408D01*
X105043486Y-123459907D01*
X104941213Y-123375974D01*
X104924025Y-123358786D01*
X104852628Y-123271788D01*
X104840091Y-123256511D01*
X104826592Y-123236310D01*
X104764216Y-123119612D01*
X104754919Y-123097165D01*
X104716510Y-122970548D01*
X104711771Y-122946719D01*
X104698203Y-122808948D01*
X104697607Y-122796809D01*
X104698470Y-116090179D01*
X108575000Y-116090179D01*
X108575000Y-121299820D01*
X108581173Y-121430733D01*
X108581173Y-121430738D01*
X108630382Y-121741433D01*
X108630384Y-121741441D01*
X108718145Y-122043514D01*
X108843079Y-122332221D01*
X108843081Y-122332225D01*
X108932693Y-122483751D01*
X108932694Y-122483752D01*
X112721447Y-118695000D01*
X112721446Y-118694999D01*
X113428553Y-118694999D01*
X113428553Y-118695000D01*
X117217304Y-122483752D01*
X117306918Y-122332225D01*
X117306920Y-122332221D01*
X117431854Y-122043514D01*
X117519615Y-121741441D01*
X117519617Y-121741433D01*
X117568826Y-121430738D01*
X117568826Y-121430733D01*
X117575000Y-121299820D01*
X117575000Y-119199997D01*
X117944726Y-119199997D01*
X117944726Y-119200002D01*
X117963808Y-119551954D01*
X118020833Y-119899793D01*
X118020834Y-119899796D01*
X118115126Y-120239408D01*
X118115127Y-120239410D01*
X118245588Y-120566844D01*
X118245597Y-120566862D01*
X118410695Y-120878269D01*
X118608498Y-121170006D01*
X118608505Y-121170016D01*
X118836685Y-121438649D01*
X118836686Y-121438650D01*
X119092580Y-121681046D01*
X119373182Y-121894354D01*
X119675202Y-122076074D01*
X119675206Y-122076075D01*
X119675210Y-122076078D01*
X119995088Y-122224070D01*
X119995092Y-122224070D01*
X119995099Y-122224074D01*
X120329122Y-122336619D01*
X120673355Y-122412391D01*
X121023763Y-122450500D01*
X121023769Y-122450500D01*
X121376231Y-122450500D01*
X121376237Y-122450500D01*
X121726645Y-122412391D01*
X122070878Y-122336619D01*
X122404901Y-122224074D01*
X122404908Y-122224070D01*
X122404911Y-122224070D01*
X122724789Y-122076078D01*
X122724798Y-122076074D01*
X123026818Y-121894354D01*
X123307420Y-121681046D01*
X123563314Y-121438650D01*
X123791501Y-121170008D01*
X123989305Y-120878269D01*
X124154407Y-120566854D01*
X124284871Y-120239414D01*
X124379168Y-119899788D01*
X124436191Y-119551957D01*
X124455274Y-119200000D01*
X124436191Y-118848043D01*
X124379168Y-118500212D01*
X124335087Y-118341447D01*
X124284873Y-118160591D01*
X124284872Y-118160589D01*
X124154411Y-117833155D01*
X124154402Y-117833137D01*
X123989305Y-117521731D01*
X123791501Y-117229992D01*
X123791497Y-117229987D01*
X123791494Y-117229983D01*
X123563314Y-116961350D01*
X123307420Y-116718954D01*
X123307413Y-116718948D01*
X123307410Y-116718946D01*
X123026815Y-116505644D01*
X122724802Y-116323928D01*
X122724789Y-116323921D01*
X122404911Y-116175929D01*
X122404906Y-116175928D01*
X122404903Y-116175927D01*
X122404901Y-116175926D01*
X122298432Y-116140052D01*
X122165253Y-116095179D01*
X124900000Y-116095179D01*
X124900000Y-121304820D01*
X124906173Y-121435733D01*
X124906173Y-121435738D01*
X124955382Y-121746433D01*
X124955384Y-121746441D01*
X125043145Y-122048514D01*
X125168079Y-122337221D01*
X125168081Y-122337225D01*
X125257693Y-122488751D01*
X125257694Y-122488752D01*
X129046447Y-118700000D01*
X129046447Y-118699999D01*
X129753553Y-118699999D01*
X129753553Y-118700001D01*
X133542304Y-122488752D01*
X133631918Y-122337225D01*
X133631920Y-122337221D01*
X133756854Y-122048514D01*
X133844615Y-121746441D01*
X133844617Y-121746433D01*
X133893826Y-121435738D01*
X133893826Y-121435733D01*
X133900000Y-121304820D01*
X133900000Y-116095179D01*
X133899764Y-116090179D01*
X141200000Y-116090179D01*
X141200000Y-121299820D01*
X141206173Y-121430733D01*
X141206173Y-121430738D01*
X141255382Y-121741433D01*
X141255384Y-121741441D01*
X141343145Y-122043514D01*
X141468079Y-122332221D01*
X141468081Y-122332225D01*
X141557693Y-122483751D01*
X141557694Y-122483752D01*
X145346447Y-118695000D01*
X145346446Y-118694999D01*
X146053553Y-118694999D01*
X146053553Y-118695001D01*
X149842304Y-122483752D01*
X149931918Y-122332225D01*
X149931920Y-122332221D01*
X150056854Y-122043514D01*
X150144615Y-121741441D01*
X150144617Y-121741433D01*
X150193826Y-121430738D01*
X150193826Y-121430733D01*
X150200000Y-121299820D01*
X150200000Y-119299997D01*
X150644726Y-119299997D01*
X150644726Y-119300002D01*
X150663808Y-119651954D01*
X150720833Y-119999793D01*
X150720834Y-119999796D01*
X150815126Y-120339408D01*
X150815127Y-120339410D01*
X150945588Y-120666844D01*
X150945593Y-120666854D01*
X151110695Y-120978269D01*
X151240697Y-121170008D01*
X151308498Y-121270006D01*
X151308505Y-121270016D01*
X151451744Y-121438649D01*
X151536686Y-121538650D01*
X151792580Y-121781046D01*
X152073182Y-121994354D01*
X152375202Y-122176074D01*
X152375206Y-122176075D01*
X152375210Y-122176078D01*
X152695088Y-122324070D01*
X152695092Y-122324070D01*
X152695099Y-122324074D01*
X153029122Y-122436619D01*
X153373355Y-122512391D01*
X153723763Y-122550500D01*
X153723769Y-122550500D01*
X154076231Y-122550500D01*
X154076237Y-122550500D01*
X154426645Y-122512391D01*
X154770878Y-122436619D01*
X155104901Y-122324074D01*
X155104908Y-122324070D01*
X155104911Y-122324070D01*
X155424789Y-122176078D01*
X155424798Y-122176074D01*
X155726818Y-121994354D01*
X156007420Y-121781046D01*
X156263314Y-121538650D01*
X156491501Y-121270008D01*
X156689305Y-120978269D01*
X156854407Y-120666854D01*
X156984871Y-120339414D01*
X157079168Y-119999788D01*
X157136191Y-119651957D01*
X157155274Y-119300000D01*
X157136191Y-118948043D01*
X157079168Y-118600212D01*
X157007322Y-118341447D01*
X156984873Y-118260591D01*
X156984872Y-118260589D01*
X156854411Y-117933155D01*
X156854402Y-117933137D01*
X156801390Y-117833146D01*
X156689305Y-117621731D01*
X156491501Y-117329992D01*
X156491497Y-117329987D01*
X156491494Y-117329983D01*
X156263314Y-117061350D01*
X156157745Y-116961350D01*
X156007420Y-116818954D01*
X156007413Y-116818948D01*
X156007410Y-116818946D01*
X155726815Y-116605644D01*
X155424802Y-116423928D01*
X155424789Y-116423921D01*
X155104911Y-116275929D01*
X155104906Y-116275928D01*
X155104903Y-116275927D01*
X155104901Y-116275926D01*
X154998432Y-116240052D01*
X154770880Y-116163381D01*
X154438323Y-116090179D01*
X157500000Y-116090179D01*
X157500000Y-121299820D01*
X157506173Y-121430733D01*
X157506173Y-121430738D01*
X157555382Y-121741433D01*
X157555384Y-121741441D01*
X157643145Y-122043514D01*
X157768079Y-122332221D01*
X157768081Y-122332225D01*
X157857693Y-122483751D01*
X157857694Y-122483752D01*
X161646447Y-118695000D01*
X161646447Y-118694999D01*
X162353553Y-118694999D01*
X162353553Y-118695001D01*
X166142304Y-122483752D01*
X166231918Y-122332225D01*
X166231920Y-122332221D01*
X166356854Y-122043514D01*
X166444615Y-121741441D01*
X166444617Y-121741433D01*
X166493826Y-121430738D01*
X166493826Y-121430733D01*
X166500000Y-121299820D01*
X166500000Y-116090179D01*
X166493826Y-115959266D01*
X166493826Y-115959261D01*
X166444617Y-115648566D01*
X166444615Y-115648558D01*
X166356854Y-115346485D01*
X166231920Y-115057778D01*
X166231918Y-115057774D01*
X166142304Y-114906246D01*
X162353553Y-118694999D01*
X161646447Y-118694999D01*
X157857694Y-114906246D01*
X157857693Y-114906247D01*
X157768085Y-115057768D01*
X157768079Y-115057779D01*
X157643145Y-115346485D01*
X157555384Y-115648558D01*
X157555382Y-115648566D01*
X157506173Y-115959261D01*
X157506173Y-115959266D01*
X157500000Y-116090179D01*
X154438323Y-116090179D01*
X154426643Y-116087608D01*
X154076238Y-116049500D01*
X154076237Y-116049500D01*
X153723763Y-116049500D01*
X153723761Y-116049500D01*
X153373356Y-116087608D01*
X153029119Y-116163381D01*
X152695093Y-116275928D01*
X152695088Y-116275929D01*
X152375210Y-116423921D01*
X152375197Y-116423928D01*
X152073184Y-116605644D01*
X151792589Y-116818946D01*
X151792580Y-116818954D01*
X151536685Y-117061350D01*
X151308505Y-117329983D01*
X151308498Y-117329993D01*
X151110695Y-117621730D01*
X150945597Y-117933137D01*
X150945588Y-117933155D01*
X150815127Y-118260589D01*
X150815126Y-118260591D01*
X150720834Y-118600203D01*
X150720833Y-118600206D01*
X150663808Y-118948045D01*
X150644726Y-119299997D01*
X150200000Y-119299997D01*
X150200000Y-116090179D01*
X150193826Y-115959266D01*
X150193826Y-115959261D01*
X150144617Y-115648566D01*
X150144615Y-115648558D01*
X150056854Y-115346485D01*
X149931920Y-115057778D01*
X149931918Y-115057774D01*
X149842304Y-114906246D01*
X146053553Y-118694999D01*
X145346446Y-118694999D01*
X141557694Y-114906247D01*
X141557693Y-114906247D01*
X141468085Y-115057768D01*
X141468079Y-115057779D01*
X141343145Y-115346485D01*
X141255384Y-115648558D01*
X141255382Y-115648566D01*
X141206173Y-115959261D01*
X141206173Y-115959266D01*
X141200000Y-116090179D01*
X133899764Y-116090179D01*
X133893826Y-115964266D01*
X133893826Y-115964261D01*
X133844617Y-115653566D01*
X133844615Y-115653558D01*
X133756854Y-115351485D01*
X133631920Y-115062778D01*
X133631918Y-115062774D01*
X133542304Y-114911246D01*
X129753553Y-118699999D01*
X129046447Y-118699999D01*
X125257694Y-114911246D01*
X125257693Y-114911247D01*
X125168085Y-115062768D01*
X125168079Y-115062779D01*
X125043145Y-115351485D01*
X124955384Y-115653558D01*
X124955382Y-115653566D01*
X124906173Y-115964261D01*
X124906173Y-115964266D01*
X124900000Y-116095179D01*
X122165253Y-116095179D01*
X122070880Y-116063381D01*
X121726643Y-115987608D01*
X121376238Y-115949500D01*
X121376237Y-115949500D01*
X121023763Y-115949500D01*
X121023761Y-115949500D01*
X120673356Y-115987608D01*
X120329119Y-116063381D01*
X119995093Y-116175928D01*
X119995088Y-116175929D01*
X119675210Y-116323921D01*
X119675197Y-116323928D01*
X119373184Y-116505644D01*
X119092589Y-116718946D01*
X119092580Y-116718954D01*
X118836685Y-116961350D01*
X118608505Y-117229983D01*
X118608498Y-117229993D01*
X118410695Y-117521730D01*
X118245597Y-117833137D01*
X118245588Y-117833155D01*
X118115127Y-118160589D01*
X118115126Y-118160591D01*
X118020834Y-118500203D01*
X118020833Y-118500206D01*
X117963808Y-118848045D01*
X117944726Y-119199997D01*
X117575000Y-119199997D01*
X117575000Y-116090179D01*
X117568826Y-115959266D01*
X117568826Y-115959261D01*
X117519617Y-115648566D01*
X117519615Y-115648558D01*
X117431854Y-115346485D01*
X117306920Y-115057778D01*
X117306918Y-115057774D01*
X117217304Y-114906246D01*
X113428553Y-118694999D01*
X112721446Y-118694999D01*
X108932694Y-114906247D01*
X108932693Y-114906247D01*
X108843085Y-115057768D01*
X108843079Y-115057779D01*
X108718145Y-115346485D01*
X108630384Y-115648558D01*
X108630382Y-115648566D01*
X108581173Y-115959261D01*
X108581173Y-115959266D01*
X108575000Y-116090179D01*
X104698470Y-116090179D01*
X104698674Y-114500455D01*
X109234009Y-114500455D01*
X109234009Y-114500456D01*
X113075000Y-118341447D01*
X116910992Y-114505455D01*
X125559009Y-114505455D01*
X125559009Y-114505456D01*
X129399999Y-118346446D01*
X133240990Y-114505456D01*
X133240990Y-114505455D01*
X133235990Y-114500455D01*
X141859009Y-114500455D01*
X141859009Y-114500456D01*
X145700000Y-118341447D01*
X149540990Y-114500457D01*
X149540990Y-114500455D01*
X158159009Y-114500455D01*
X158159009Y-114500456D01*
X162000000Y-118341447D01*
X165840990Y-114500457D01*
X165840990Y-114500455D01*
X165656552Y-114316017D01*
X165407988Y-114123211D01*
X165407989Y-114123211D01*
X165137225Y-113963081D01*
X165137221Y-113963079D01*
X164848514Y-113838145D01*
X164546441Y-113750384D01*
X164546433Y-113750382D01*
X164235735Y-113701173D01*
X164104820Y-113695000D01*
X162996297Y-113695000D01*
X162929258Y-113675315D01*
X162883503Y-113622511D01*
X162873559Y-113553353D01*
X162902584Y-113489797D01*
X162936870Y-113462168D01*
X163084047Y-113381803D01*
X163226561Y-113275116D01*
X163226562Y-113275115D01*
X162129410Y-112177962D01*
X162192993Y-112160925D01*
X162307007Y-112095099D01*
X162400099Y-112002007D01*
X162465925Y-111887993D01*
X162482962Y-111824409D01*
X163580115Y-112921562D01*
X163580116Y-112921561D01*
X163686803Y-112779047D01*
X163823908Y-112527958D01*
X163923890Y-112259895D01*
X163984699Y-111980362D01*
X164005109Y-111695001D01*
X164005109Y-111694998D01*
X163984699Y-111409637D01*
X163923890Y-111130104D01*
X163823908Y-110862041D01*
X163686808Y-110610961D01*
X163686807Y-110610960D01*
X163580115Y-110468436D01*
X162482962Y-111565589D01*
X162465925Y-111502007D01*
X162400099Y-111387993D01*
X162307007Y-111294901D01*
X162192993Y-111229075D01*
X162129409Y-111212037D01*
X163226562Y-110114883D01*
X163226561Y-110114882D01*
X163084046Y-110008196D01*
X163084038Y-110008191D01*
X162832957Y-109871091D01*
X162832958Y-109871091D01*
X162564895Y-109771109D01*
X162285362Y-109710300D01*
X162000001Y-109689891D01*
X161999999Y-109689891D01*
X161714637Y-109710300D01*
X161435104Y-109771109D01*
X161167041Y-109871091D01*
X160915961Y-110008191D01*
X160915953Y-110008196D01*
X160773437Y-110114882D01*
X160773436Y-110114883D01*
X161870591Y-111212037D01*
X161807007Y-111229075D01*
X161692993Y-111294901D01*
X161599901Y-111387993D01*
X161534075Y-111502007D01*
X161517037Y-111565590D01*
X160419883Y-110468436D01*
X160419882Y-110468437D01*
X160313196Y-110610953D01*
X160313191Y-110610961D01*
X160176091Y-110862041D01*
X160076109Y-111130104D01*
X160015300Y-111409637D01*
X159994891Y-111694998D01*
X159994891Y-111695001D01*
X160015300Y-111980362D01*
X160076109Y-112259895D01*
X160176091Y-112527958D01*
X160313191Y-112779038D01*
X160313196Y-112779046D01*
X160419882Y-112921561D01*
X160419883Y-112921562D01*
X161517037Y-111824408D01*
X161534075Y-111887993D01*
X161599901Y-112002007D01*
X161692993Y-112095099D01*
X161807007Y-112160925D01*
X161870590Y-112177962D01*
X160773436Y-113275115D01*
X160915960Y-113381807D01*
X160915961Y-113381808D01*
X161063130Y-113462168D01*
X161112535Y-113511573D01*
X161127387Y-113579846D01*
X161102970Y-113645310D01*
X161047037Y-113687182D01*
X161003703Y-113695000D01*
X159895180Y-113695000D01*
X159764266Y-113701173D01*
X159764261Y-113701173D01*
X159453566Y-113750382D01*
X159453558Y-113750384D01*
X159151485Y-113838145D01*
X158862778Y-113963079D01*
X158862774Y-113963081D01*
X158592011Y-114123211D01*
X158343447Y-114316017D01*
X158159009Y-114500455D01*
X149540990Y-114500455D01*
X149356552Y-114316017D01*
X149107988Y-114123211D01*
X149107989Y-114123211D01*
X148837225Y-113963081D01*
X148837221Y-113963079D01*
X148548514Y-113838145D01*
X148246441Y-113750384D01*
X148246433Y-113750382D01*
X147935735Y-113701173D01*
X147804820Y-113695000D01*
X146696297Y-113695000D01*
X146629258Y-113675315D01*
X146583503Y-113622511D01*
X146573559Y-113553353D01*
X146602584Y-113489797D01*
X146636870Y-113462168D01*
X146784047Y-113381803D01*
X146926561Y-113275116D01*
X146926562Y-113275115D01*
X145829410Y-112177962D01*
X145892993Y-112160925D01*
X146007007Y-112095099D01*
X146100099Y-112002007D01*
X146165925Y-111887993D01*
X146182962Y-111824409D01*
X147280115Y-112921562D01*
X147280116Y-112921561D01*
X147386803Y-112779047D01*
X147523908Y-112527958D01*
X147623890Y-112259895D01*
X147684699Y-111980362D01*
X147705109Y-111695001D01*
X147705109Y-111694998D01*
X147684699Y-111409637D01*
X147623890Y-111130104D01*
X147523908Y-110862041D01*
X147386808Y-110610961D01*
X147386807Y-110610960D01*
X147280115Y-110468436D01*
X146182962Y-111565589D01*
X146165925Y-111502007D01*
X146100099Y-111387993D01*
X146007007Y-111294901D01*
X145892993Y-111229075D01*
X145829409Y-111212037D01*
X146926562Y-110114883D01*
X146926561Y-110114882D01*
X146784046Y-110008196D01*
X146784038Y-110008191D01*
X146532957Y-109871091D01*
X146532958Y-109871091D01*
X146264895Y-109771109D01*
X145985362Y-109710300D01*
X145700001Y-109689891D01*
X145699999Y-109689891D01*
X145414637Y-109710300D01*
X145135104Y-109771109D01*
X144867041Y-109871091D01*
X144615961Y-110008191D01*
X144615953Y-110008196D01*
X144473437Y-110114882D01*
X144473436Y-110114883D01*
X145570591Y-111212037D01*
X145507007Y-111229075D01*
X145392993Y-111294901D01*
X145299901Y-111387993D01*
X145234075Y-111502007D01*
X145217037Y-111565590D01*
X144119883Y-110468436D01*
X144119882Y-110468437D01*
X144013196Y-110610953D01*
X144013191Y-110610961D01*
X143876091Y-110862041D01*
X143776109Y-111130104D01*
X143715300Y-111409637D01*
X143694891Y-111694998D01*
X143694891Y-111695001D01*
X143715300Y-111980362D01*
X143776109Y-112259895D01*
X143876091Y-112527958D01*
X144013191Y-112779038D01*
X144013196Y-112779046D01*
X144119882Y-112921561D01*
X144119883Y-112921562D01*
X145217037Y-111824408D01*
X145234075Y-111887993D01*
X145299901Y-112002007D01*
X145392993Y-112095099D01*
X145507007Y-112160925D01*
X145570590Y-112177962D01*
X144473436Y-113275115D01*
X144615960Y-113381807D01*
X144615961Y-113381808D01*
X144763130Y-113462168D01*
X144812535Y-113511573D01*
X144827387Y-113579846D01*
X144802970Y-113645310D01*
X144747037Y-113687182D01*
X144703703Y-113695000D01*
X143595180Y-113695000D01*
X143464266Y-113701173D01*
X143464261Y-113701173D01*
X143153566Y-113750382D01*
X143153558Y-113750384D01*
X142851485Y-113838145D01*
X142562778Y-113963079D01*
X142562774Y-113963081D01*
X142292011Y-114123211D01*
X142043447Y-114316017D01*
X141859009Y-114500455D01*
X133235990Y-114500455D01*
X133056551Y-114321016D01*
X132807988Y-114128211D01*
X132807989Y-114128211D01*
X132537225Y-113968081D01*
X132537221Y-113968079D01*
X132248514Y-113843145D01*
X131946441Y-113755384D01*
X131946433Y-113755382D01*
X131635735Y-113706173D01*
X131504820Y-113700000D01*
X130396297Y-113700000D01*
X130329258Y-113680315D01*
X130283503Y-113627511D01*
X130273559Y-113558353D01*
X130302584Y-113494797D01*
X130336870Y-113467168D01*
X130484047Y-113386803D01*
X130626561Y-113280116D01*
X130626562Y-113280115D01*
X129529410Y-112182962D01*
X129592993Y-112165925D01*
X129707007Y-112100099D01*
X129800099Y-112007007D01*
X129865925Y-111892993D01*
X129882962Y-111829409D01*
X130980115Y-112926562D01*
X130980116Y-112926561D01*
X131086803Y-112784047D01*
X131223908Y-112532958D01*
X131323890Y-112264895D01*
X131384699Y-111985362D01*
X131405109Y-111700001D01*
X131405109Y-111699998D01*
X131384699Y-111414637D01*
X131323890Y-111135104D01*
X131223908Y-110867041D01*
X131086808Y-110615961D01*
X131086807Y-110615960D01*
X130980115Y-110473436D01*
X129882962Y-111570589D01*
X129865925Y-111507007D01*
X129800099Y-111392993D01*
X129707007Y-111299901D01*
X129592993Y-111234075D01*
X129529409Y-111217037D01*
X130626562Y-110119883D01*
X130626561Y-110119882D01*
X130484046Y-110013196D01*
X130484038Y-110013191D01*
X130232957Y-109876091D01*
X130232958Y-109876091D01*
X129964895Y-109776109D01*
X129685362Y-109715300D01*
X129400001Y-109694891D01*
X129399999Y-109694891D01*
X129114637Y-109715300D01*
X128835104Y-109776109D01*
X128567041Y-109876091D01*
X128315961Y-110013191D01*
X128315953Y-110013196D01*
X128173437Y-110119882D01*
X128173436Y-110119883D01*
X129270591Y-111217037D01*
X129207007Y-111234075D01*
X129092993Y-111299901D01*
X128999901Y-111392993D01*
X128934075Y-111507007D01*
X128917037Y-111570590D01*
X127819883Y-110473436D01*
X127819882Y-110473437D01*
X127713196Y-110615953D01*
X127713191Y-110615961D01*
X127576091Y-110867041D01*
X127476109Y-111135104D01*
X127415300Y-111414637D01*
X127394891Y-111699998D01*
X127394891Y-111700001D01*
X127415300Y-111985362D01*
X127476109Y-112264895D01*
X127576091Y-112532958D01*
X127713191Y-112784038D01*
X127713196Y-112784046D01*
X127819882Y-112926561D01*
X127819883Y-112926562D01*
X128917037Y-111829408D01*
X128934075Y-111892993D01*
X128999901Y-112007007D01*
X129092993Y-112100099D01*
X129207007Y-112165925D01*
X129270590Y-112182962D01*
X128173436Y-113280115D01*
X128315960Y-113386807D01*
X128315961Y-113386808D01*
X128463130Y-113467168D01*
X128512535Y-113516573D01*
X128527387Y-113584846D01*
X128502970Y-113650310D01*
X128447037Y-113692182D01*
X128403703Y-113700000D01*
X127295180Y-113700000D01*
X127164266Y-113706173D01*
X127164261Y-113706173D01*
X126853566Y-113755382D01*
X126853558Y-113755384D01*
X126551485Y-113843145D01*
X126262778Y-113968079D01*
X126262774Y-113968081D01*
X125992011Y-114128211D01*
X125743447Y-114321017D01*
X125559009Y-114505455D01*
X116910992Y-114505455D01*
X116915990Y-114500457D01*
X116915990Y-114500455D01*
X116731552Y-114316017D01*
X116482988Y-114123211D01*
X116482989Y-114123211D01*
X116212225Y-113963081D01*
X116212221Y-113963079D01*
X115923514Y-113838145D01*
X115621441Y-113750384D01*
X115621433Y-113750382D01*
X115310735Y-113701173D01*
X115179820Y-113695000D01*
X114071297Y-113695000D01*
X114004258Y-113675315D01*
X113958503Y-113622511D01*
X113948559Y-113553353D01*
X113977584Y-113489797D01*
X114011870Y-113462168D01*
X114159047Y-113381803D01*
X114301561Y-113275116D01*
X114301562Y-113275115D01*
X113204410Y-112177962D01*
X113267993Y-112160925D01*
X113382007Y-112095099D01*
X113475099Y-112002007D01*
X113540925Y-111887993D01*
X113557962Y-111824409D01*
X114655115Y-112921562D01*
X114655116Y-112921561D01*
X114761803Y-112779047D01*
X114898908Y-112527958D01*
X114998890Y-112259895D01*
X115059699Y-111980362D01*
X115080109Y-111695001D01*
X115080109Y-111694998D01*
X115059699Y-111409637D01*
X114998890Y-111130104D01*
X114898908Y-110862041D01*
X114761808Y-110610961D01*
X114761807Y-110610960D01*
X114655115Y-110468436D01*
X113557962Y-111565589D01*
X113540925Y-111502007D01*
X113475099Y-111387993D01*
X113382007Y-111294901D01*
X113267993Y-111229075D01*
X113204409Y-111212037D01*
X114301562Y-110114883D01*
X114301561Y-110114882D01*
X114159046Y-110008196D01*
X114159038Y-110008191D01*
X113907957Y-109871091D01*
X113907958Y-109871091D01*
X113639895Y-109771109D01*
X113360362Y-109710300D01*
X113075001Y-109689891D01*
X113074999Y-109689891D01*
X112789637Y-109710300D01*
X112510104Y-109771109D01*
X112242041Y-109871091D01*
X111990961Y-110008191D01*
X111990953Y-110008196D01*
X111848437Y-110114882D01*
X111848436Y-110114883D01*
X112945591Y-111212037D01*
X112882007Y-111229075D01*
X112767993Y-111294901D01*
X112674901Y-111387993D01*
X112609075Y-111502007D01*
X112592037Y-111565590D01*
X111494883Y-110468436D01*
X111494882Y-110468437D01*
X111388196Y-110610953D01*
X111388191Y-110610961D01*
X111251091Y-110862041D01*
X111151109Y-111130104D01*
X111090300Y-111409637D01*
X111069891Y-111694998D01*
X111069891Y-111695001D01*
X111090300Y-111980362D01*
X111151109Y-112259895D01*
X111251091Y-112527958D01*
X111388191Y-112779038D01*
X111388196Y-112779046D01*
X111494882Y-112921561D01*
X111494883Y-112921562D01*
X112592037Y-111824408D01*
X112609075Y-111887993D01*
X112674901Y-112002007D01*
X112767993Y-112095099D01*
X112882007Y-112160925D01*
X112945590Y-112177962D01*
X111848436Y-113275115D01*
X111990960Y-113381807D01*
X111990961Y-113381808D01*
X112138130Y-113462168D01*
X112187535Y-113511573D01*
X112202387Y-113579846D01*
X112177970Y-113645310D01*
X112122037Y-113687182D01*
X112078703Y-113695000D01*
X110970180Y-113695000D01*
X110839266Y-113701173D01*
X110839261Y-113701173D01*
X110528566Y-113750382D01*
X110528558Y-113750384D01*
X110226485Y-113838145D01*
X109937778Y-113963079D01*
X109937774Y-113963081D01*
X109667011Y-114123211D01*
X109418447Y-114316017D01*
X109234009Y-114500455D01*
X104698674Y-114500455D01*
X104700017Y-104060602D01*
X111024500Y-104060602D01*
X111024500Y-104329397D01*
X111059582Y-104595880D01*
X111059583Y-104595885D01*
X111059584Y-104595891D01*
X111094368Y-104725708D01*
X111129152Y-104855524D01*
X111232011Y-105103850D01*
X111232019Y-105103866D01*
X111312830Y-105243832D01*
X111366413Y-105336641D01*
X111366415Y-105336644D01*
X111366416Y-105336645D01*
X111530042Y-105549888D01*
X111530048Y-105549895D01*
X111720104Y-105739951D01*
X111720111Y-105739957D01*
X111726626Y-105744956D01*
X111933359Y-105903587D01*
X112082968Y-105989964D01*
X112166133Y-106037980D01*
X112166149Y-106037988D01*
X112321008Y-106102132D01*
X112414474Y-106140847D01*
X112674109Y-106210416D01*
X112862319Y-106235193D01*
X112940602Y-106245500D01*
X112940603Y-106245500D01*
X113209398Y-106245500D01*
X113269905Y-106237534D01*
X113475891Y-106210416D01*
X113735526Y-106140847D01*
X113922457Y-106063417D01*
X113983850Y-106037988D01*
X113983853Y-106037986D01*
X113983859Y-106037984D01*
X114216641Y-105903587D01*
X114429890Y-105739956D01*
X114619956Y-105549890D01*
X114783587Y-105336641D01*
X114917984Y-105103859D01*
X115020847Y-104855526D01*
X115090416Y-104595891D01*
X115125500Y-104329397D01*
X115125500Y-104065602D01*
X127349500Y-104065602D01*
X127349500Y-104334397D01*
X127384582Y-104600880D01*
X127384583Y-104600885D01*
X127384584Y-104600891D01*
X127384585Y-104600893D01*
X127454152Y-104860524D01*
X127557011Y-105108850D01*
X127557019Y-105108866D01*
X127637830Y-105248832D01*
X127691413Y-105341641D01*
X127691415Y-105341644D01*
X127691416Y-105341645D01*
X127855042Y-105554888D01*
X127855048Y-105554895D01*
X128045104Y-105744951D01*
X128045110Y-105744956D01*
X128258359Y-105908587D01*
X128407968Y-105994964D01*
X128491133Y-106042980D01*
X128491149Y-106042988D01*
X128646008Y-106107132D01*
X128739474Y-106145847D01*
X128999109Y-106215416D01*
X129187319Y-106240193D01*
X129265602Y-106250500D01*
X129265603Y-106250500D01*
X129534398Y-106250500D01*
X129594905Y-106242534D01*
X129800891Y-106215416D01*
X130060526Y-106145847D01*
X130247457Y-106068417D01*
X130308850Y-106042988D01*
X130308853Y-106042986D01*
X130308859Y-106042984D01*
X130541641Y-105908587D01*
X130754890Y-105744956D01*
X130944956Y-105554890D01*
X131108587Y-105341641D01*
X131242984Y-105108859D01*
X131345847Y-104860526D01*
X131415416Y-104600891D01*
X131450500Y-104334397D01*
X131450500Y-104065603D01*
X131449842Y-104060602D01*
X143649500Y-104060602D01*
X143649500Y-104329397D01*
X143684582Y-104595880D01*
X143684583Y-104595885D01*
X143684584Y-104595891D01*
X143719368Y-104725708D01*
X143754152Y-104855524D01*
X143857011Y-105103850D01*
X143857019Y-105103866D01*
X143937830Y-105243832D01*
X143991413Y-105336641D01*
X143991415Y-105336644D01*
X143991416Y-105336645D01*
X144155042Y-105549888D01*
X144155048Y-105549895D01*
X144345104Y-105739951D01*
X144345111Y-105739957D01*
X144351626Y-105744956D01*
X144558359Y-105903587D01*
X144707968Y-105989964D01*
X144791133Y-106037980D01*
X144791149Y-106037988D01*
X144946008Y-106102132D01*
X145039474Y-106140847D01*
X145299109Y-106210416D01*
X145487319Y-106235193D01*
X145565602Y-106245500D01*
X145565603Y-106245500D01*
X145834398Y-106245500D01*
X145894905Y-106237534D01*
X146100891Y-106210416D01*
X146360526Y-106140847D01*
X146547457Y-106063417D01*
X146608850Y-106037988D01*
X146608853Y-106037986D01*
X146608859Y-106037984D01*
X146841641Y-105903587D01*
X147054890Y-105739956D01*
X147244956Y-105549890D01*
X147408587Y-105336641D01*
X147542984Y-105103859D01*
X147645847Y-104855526D01*
X147715416Y-104595891D01*
X147750500Y-104329397D01*
X147750500Y-104060603D01*
X147750500Y-104060602D01*
X159949500Y-104060602D01*
X159949500Y-104329397D01*
X159984582Y-104595880D01*
X159984583Y-104595885D01*
X159984584Y-104595891D01*
X160019368Y-104725708D01*
X160054152Y-104855524D01*
X160157011Y-105103850D01*
X160157019Y-105103866D01*
X160237830Y-105243832D01*
X160291413Y-105336641D01*
X160291415Y-105336644D01*
X160291416Y-105336645D01*
X160455042Y-105549888D01*
X160455048Y-105549895D01*
X160645104Y-105739951D01*
X160645111Y-105739957D01*
X160651626Y-105744956D01*
X160858359Y-105903587D01*
X161007968Y-105989964D01*
X161091133Y-106037980D01*
X161091149Y-106037988D01*
X161246008Y-106102132D01*
X161339474Y-106140847D01*
X161599109Y-106210416D01*
X161787319Y-106235193D01*
X161865602Y-106245500D01*
X161865603Y-106245500D01*
X162134398Y-106245500D01*
X162194905Y-106237534D01*
X162400891Y-106210416D01*
X162660526Y-106140847D01*
X162847457Y-106063417D01*
X162908850Y-106037988D01*
X162908853Y-106037986D01*
X162908859Y-106037984D01*
X163141641Y-105903587D01*
X163354890Y-105739956D01*
X163544956Y-105549890D01*
X163708587Y-105336641D01*
X163842984Y-105103859D01*
X163945847Y-104855526D01*
X164015416Y-104595891D01*
X164050500Y-104329397D01*
X164050500Y-104060603D01*
X164015416Y-103794109D01*
X163945847Y-103534474D01*
X163907132Y-103441008D01*
X163842988Y-103286149D01*
X163842980Y-103286133D01*
X163794964Y-103202968D01*
X163708587Y-103053359D01*
X163641084Y-102965387D01*
X163544957Y-102840111D01*
X163544951Y-102840104D01*
X163354895Y-102650048D01*
X163354888Y-102650042D01*
X163141645Y-102486416D01*
X163141644Y-102486415D01*
X163141641Y-102486413D01*
X163048832Y-102432830D01*
X162908866Y-102352019D01*
X162908850Y-102352011D01*
X162660524Y-102249152D01*
X162530708Y-102214368D01*
X162400891Y-102179584D01*
X162400885Y-102179583D01*
X162400880Y-102179582D01*
X162134398Y-102144500D01*
X162134397Y-102144500D01*
X161865603Y-102144500D01*
X161865602Y-102144500D01*
X161599119Y-102179582D01*
X161599112Y-102179583D01*
X161599109Y-102179584D01*
X161544239Y-102194286D01*
X161339475Y-102249152D01*
X161091149Y-102352011D01*
X161091133Y-102352019D01*
X160858354Y-102486416D01*
X160645111Y-102650042D01*
X160645104Y-102650048D01*
X160455048Y-102840104D01*
X160455042Y-102840111D01*
X160291416Y-103053354D01*
X160157019Y-103286133D01*
X160157011Y-103286149D01*
X160054152Y-103534475D01*
X159984585Y-103794106D01*
X159984582Y-103794119D01*
X159949500Y-104060602D01*
X147750500Y-104060602D01*
X147715416Y-103794109D01*
X147645847Y-103534474D01*
X147607132Y-103441008D01*
X147542988Y-103286149D01*
X147542980Y-103286133D01*
X147494964Y-103202968D01*
X147408587Y-103053359D01*
X147341084Y-102965387D01*
X147244957Y-102840111D01*
X147244951Y-102840104D01*
X147054895Y-102650048D01*
X147054888Y-102650042D01*
X146841645Y-102486416D01*
X146841644Y-102486415D01*
X146841641Y-102486413D01*
X146748832Y-102432830D01*
X146608866Y-102352019D01*
X146608850Y-102352011D01*
X146360524Y-102249152D01*
X146230708Y-102214368D01*
X146100891Y-102179584D01*
X146100885Y-102179583D01*
X146100880Y-102179582D01*
X145834398Y-102144500D01*
X145834397Y-102144500D01*
X145565603Y-102144500D01*
X145565602Y-102144500D01*
X145299119Y-102179582D01*
X145299112Y-102179583D01*
X145299109Y-102179584D01*
X145244239Y-102194286D01*
X145039475Y-102249152D01*
X144791149Y-102352011D01*
X144791133Y-102352019D01*
X144558354Y-102486416D01*
X144345111Y-102650042D01*
X144345104Y-102650048D01*
X144155048Y-102840104D01*
X144155042Y-102840111D01*
X143991416Y-103053354D01*
X143857019Y-103286133D01*
X143857011Y-103286149D01*
X143754152Y-103534475D01*
X143684585Y-103794106D01*
X143684582Y-103794119D01*
X143649500Y-104060602D01*
X131449842Y-104060602D01*
X131415416Y-103799109D01*
X131345847Y-103539474D01*
X131307132Y-103446008D01*
X131242988Y-103291149D01*
X131242980Y-103291133D01*
X131194964Y-103207968D01*
X131108587Y-103058359D01*
X130944956Y-102845110D01*
X130944951Y-102845104D01*
X130754895Y-102655048D01*
X130754888Y-102655042D01*
X130541645Y-102491416D01*
X130541644Y-102491415D01*
X130541641Y-102491413D01*
X130448832Y-102437830D01*
X130308866Y-102357019D01*
X130308850Y-102357011D01*
X130060524Y-102254152D01*
X129930708Y-102219368D01*
X129800891Y-102184584D01*
X129800885Y-102184583D01*
X129800880Y-102184582D01*
X129534398Y-102149500D01*
X129534397Y-102149500D01*
X129265603Y-102149500D01*
X129265602Y-102149500D01*
X128999119Y-102184582D01*
X128999112Y-102184583D01*
X128999109Y-102184584D01*
X128944239Y-102199286D01*
X128739475Y-102254152D01*
X128491149Y-102357011D01*
X128491133Y-102357019D01*
X128258354Y-102491416D01*
X128045111Y-102655042D01*
X128045104Y-102655048D01*
X127855048Y-102845104D01*
X127855042Y-102845111D01*
X127691416Y-103058354D01*
X127557019Y-103291133D01*
X127557011Y-103291149D01*
X127454152Y-103539475D01*
X127384585Y-103799106D01*
X127384582Y-103799119D01*
X127349500Y-104065602D01*
X115125500Y-104065602D01*
X115125500Y-104060603D01*
X115090416Y-103794109D01*
X115020847Y-103534474D01*
X114982132Y-103441008D01*
X114917988Y-103286149D01*
X114917980Y-103286133D01*
X114869964Y-103202968D01*
X114783587Y-103053359D01*
X114716084Y-102965387D01*
X114619957Y-102840111D01*
X114619951Y-102840104D01*
X114429895Y-102650048D01*
X114429888Y-102650042D01*
X114216645Y-102486416D01*
X114216644Y-102486415D01*
X114216641Y-102486413D01*
X114123832Y-102432830D01*
X113983866Y-102352019D01*
X113983850Y-102352011D01*
X113735524Y-102249152D01*
X113605708Y-102214368D01*
X113475891Y-102179584D01*
X113475885Y-102179583D01*
X113475880Y-102179582D01*
X113209398Y-102144500D01*
X113209397Y-102144500D01*
X112940603Y-102144500D01*
X112940602Y-102144500D01*
X112674119Y-102179582D01*
X112674112Y-102179583D01*
X112674109Y-102179584D01*
X112619239Y-102194286D01*
X112414475Y-102249152D01*
X112166149Y-102352011D01*
X112166133Y-102352019D01*
X111933354Y-102486416D01*
X111720111Y-102650042D01*
X111720104Y-102650048D01*
X111530048Y-102840104D01*
X111530042Y-102840111D01*
X111366416Y-103053354D01*
X111232019Y-103286133D01*
X111232011Y-103286149D01*
X111129152Y-103534475D01*
X111059585Y-103794106D01*
X111059582Y-103794119D01*
X111024500Y-104060602D01*
X104700017Y-104060602D01*
X104703754Y-74999996D01*
X126194435Y-74999996D01*
X126194435Y-75000003D01*
X126214630Y-75179249D01*
X126214631Y-75179254D01*
X126274211Y-75349523D01*
X126368760Y-75499996D01*
X126370184Y-75502262D01*
X126497738Y-75629816D01*
X126650478Y-75725789D01*
X126752417Y-75761459D01*
X126820745Y-75785368D01*
X126820750Y-75785369D01*
X126999996Y-75805565D01*
X127000000Y-75805565D01*
X127000004Y-75805565D01*
X127179249Y-75785369D01*
X127179251Y-75785368D01*
X127179255Y-75785368D01*
X127179258Y-75785366D01*
X127179262Y-75785366D01*
X127247585Y-75761459D01*
X127288540Y-75754500D01*
X128719554Y-75754500D01*
X128719574Y-75754501D01*
X128879111Y-75754501D01*
X128946150Y-75774186D01*
X128991905Y-75826990D01*
X129001849Y-75896148D01*
X128972824Y-75959704D01*
X128966792Y-75966182D01*
X126681357Y-78251616D01*
X126655869Y-78269705D01*
X126656373Y-78270507D01*
X126497737Y-78370184D01*
X126370184Y-78497737D01*
X126274211Y-78650476D01*
X126214631Y-78820745D01*
X126214630Y-78820750D01*
X126194435Y-78999996D01*
X126194435Y-79000003D01*
X126214630Y-79179249D01*
X126214631Y-79179254D01*
X126274211Y-79349523D01*
X126370184Y-79502262D01*
X126497738Y-79629816D01*
X126650478Y-79725789D01*
X126820745Y-79785368D01*
X126820750Y-79785369D01*
X126999996Y-79805565D01*
X127000000Y-79805565D01*
X127000004Y-79805565D01*
X127179249Y-79785369D01*
X127179252Y-79785368D01*
X127179255Y-79785368D01*
X127349522Y-79725789D01*
X127502262Y-79629816D01*
X127629816Y-79502262D01*
X127725789Y-79349522D01*
X127725789Y-79349520D01*
X127729494Y-79343625D01*
X127730299Y-79344131D01*
X127748382Y-79318641D01*
X133180963Y-73886060D01*
X133180966Y-73886059D01*
X133286059Y-73780966D01*
X133368629Y-73657390D01*
X133425505Y-73520080D01*
X133454500Y-73374312D01*
X133454500Y-70020886D01*
X133474185Y-69953847D01*
X133526989Y-69908092D01*
X133596147Y-69898148D01*
X133659703Y-69927173D01*
X133666181Y-69933205D01*
X136509181Y-72776205D01*
X136542666Y-72837528D01*
X136545500Y-72863886D01*
X136545500Y-75211459D01*
X136538542Y-75252414D01*
X136514631Y-75320745D01*
X136514630Y-75320750D01*
X136494435Y-75499996D01*
X136494435Y-75500003D01*
X136514630Y-75679249D01*
X136514631Y-75679254D01*
X136574211Y-75849523D01*
X136603508Y-75896148D01*
X136670184Y-76002262D01*
X136797738Y-76129816D01*
X136950478Y-76225789D01*
X137120745Y-76285368D01*
X137120750Y-76285369D01*
X137299996Y-76305565D01*
X137300000Y-76305565D01*
X137300004Y-76305565D01*
X137479249Y-76285369D01*
X137479252Y-76285368D01*
X137479255Y-76285368D01*
X137649522Y-76225789D01*
X137802262Y-76129816D01*
X137929816Y-76002262D01*
X138025789Y-75849522D01*
X138085368Y-75679255D01*
X138086565Y-75668630D01*
X138105565Y-75500003D01*
X138105565Y-75499996D01*
X138085369Y-75320750D01*
X138085368Y-75320745D01*
X138061458Y-75252414D01*
X138054500Y-75211459D01*
X138054500Y-72580446D01*
X138054501Y-72580425D01*
X138054501Y-72425685D01*
X138025506Y-72279925D01*
X138025504Y-72279918D01*
X138016173Y-72257393D01*
X138016171Y-72257388D01*
X137969970Y-72145847D01*
X137968630Y-72142611D01*
X137941230Y-72101605D01*
X137886059Y-72019034D01*
X137886057Y-72019032D01*
X137886055Y-72019029D01*
X137776647Y-71909621D01*
X137776624Y-71909600D01*
X134667564Y-68800539D01*
X134634079Y-68739216D01*
X134639063Y-68669524D01*
X134680935Y-68613591D01*
X134741362Y-68589638D01*
X134779249Y-68585369D01*
X134779251Y-68585368D01*
X134779255Y-68585368D01*
X134779258Y-68585366D01*
X134779262Y-68585366D01*
X134847585Y-68561459D01*
X134888540Y-68554500D01*
X144019554Y-68554500D01*
X144019574Y-68554501D01*
X144141290Y-68554501D01*
X144208329Y-68574186D01*
X144254084Y-68626990D01*
X144264028Y-68696148D01*
X144235003Y-68759704D01*
X144228971Y-68766182D01*
X144155048Y-68840104D01*
X144155042Y-68840111D01*
X143991416Y-69053354D01*
X143857019Y-69286133D01*
X143857011Y-69286149D01*
X143754152Y-69534475D01*
X143684585Y-69794106D01*
X143684582Y-69794119D01*
X143649500Y-70060602D01*
X143649500Y-70329397D01*
X143684582Y-70595880D01*
X143684583Y-70595885D01*
X143684584Y-70595891D01*
X143719368Y-70725708D01*
X143754152Y-70855524D01*
X143857011Y-71103850D01*
X143857019Y-71103866D01*
X143937830Y-71243832D01*
X143991413Y-71336641D01*
X143991415Y-71336644D01*
X143991416Y-71336645D01*
X144155042Y-71549888D01*
X144155048Y-71549895D01*
X144345104Y-71739951D01*
X144345111Y-71739957D01*
X144351626Y-71744956D01*
X144558359Y-71903587D01*
X144707968Y-71989964D01*
X144791133Y-72037980D01*
X144791149Y-72037988D01*
X144944736Y-72101605D01*
X145039474Y-72140847D01*
X145299109Y-72210416D01*
X145487319Y-72235193D01*
X145565602Y-72245500D01*
X145565603Y-72245500D01*
X145834398Y-72245500D01*
X145894905Y-72237534D01*
X146100891Y-72210416D01*
X146360526Y-72140847D01*
X146568783Y-72054584D01*
X146608850Y-72037988D01*
X146608853Y-72037986D01*
X146608859Y-72037984D01*
X146841641Y-71903587D01*
X147054890Y-71739956D01*
X147244956Y-71549890D01*
X147408587Y-71336641D01*
X147542984Y-71103859D01*
X147645847Y-70855526D01*
X147715416Y-70595891D01*
X147750500Y-70329397D01*
X147750500Y-70060603D01*
X147750500Y-70060602D01*
X159949500Y-70060602D01*
X159949500Y-70329397D01*
X159984582Y-70595880D01*
X159984583Y-70595885D01*
X159984584Y-70595891D01*
X160019368Y-70725708D01*
X160054152Y-70855524D01*
X160157011Y-71103850D01*
X160157019Y-71103866D01*
X160237830Y-71243832D01*
X160291413Y-71336641D01*
X160291415Y-71336644D01*
X160291416Y-71336645D01*
X160455042Y-71549888D01*
X160455048Y-71549895D01*
X160645104Y-71739951D01*
X160645111Y-71739957D01*
X160651626Y-71744956D01*
X160858359Y-71903587D01*
X161007968Y-71989964D01*
X161091133Y-72037980D01*
X161091149Y-72037988D01*
X161244736Y-72101605D01*
X161339474Y-72140847D01*
X161599109Y-72210416D01*
X161787319Y-72235193D01*
X161865602Y-72245500D01*
X161865603Y-72245500D01*
X162134398Y-72245500D01*
X162194905Y-72237534D01*
X162400891Y-72210416D01*
X162660526Y-72140847D01*
X162868783Y-72054584D01*
X162908850Y-72037988D01*
X162908853Y-72037986D01*
X162908859Y-72037984D01*
X163141641Y-71903587D01*
X163354890Y-71739956D01*
X163544956Y-71549890D01*
X163708587Y-71336641D01*
X163842984Y-71103859D01*
X163945847Y-70855526D01*
X164015416Y-70595891D01*
X164050500Y-70329397D01*
X164050500Y-70060603D01*
X164015416Y-69794109D01*
X163945847Y-69534474D01*
X163907132Y-69441008D01*
X163842988Y-69286149D01*
X163842980Y-69286133D01*
X163794964Y-69202968D01*
X163708587Y-69053359D01*
X163559516Y-68859085D01*
X163544957Y-68840111D01*
X163544951Y-68840104D01*
X163354895Y-68650048D01*
X163354888Y-68650042D01*
X163141645Y-68486416D01*
X163141644Y-68486415D01*
X163141641Y-68486413D01*
X163048832Y-68432830D01*
X162908866Y-68352019D01*
X162908850Y-68352011D01*
X162660524Y-68249152D01*
X162530708Y-68214368D01*
X162400891Y-68179584D01*
X162400885Y-68179583D01*
X162400880Y-68179582D01*
X162134398Y-68144500D01*
X162134397Y-68144500D01*
X161865603Y-68144500D01*
X161865602Y-68144500D01*
X161599119Y-68179582D01*
X161599112Y-68179583D01*
X161599109Y-68179584D01*
X161544239Y-68194286D01*
X161339475Y-68249152D01*
X161091149Y-68352011D01*
X161091133Y-68352019D01*
X160858354Y-68486416D01*
X160645111Y-68650042D01*
X160645104Y-68650048D01*
X160455048Y-68840104D01*
X160455042Y-68840111D01*
X160291416Y-69053354D01*
X160157019Y-69286133D01*
X160157011Y-69286149D01*
X160054152Y-69534475D01*
X159984585Y-69794106D01*
X159984582Y-69794119D01*
X159949500Y-70060602D01*
X147750500Y-70060602D01*
X147715416Y-69794109D01*
X147645847Y-69534474D01*
X147607132Y-69441008D01*
X147542988Y-69286149D01*
X147542980Y-69286133D01*
X147494964Y-69202968D01*
X147408587Y-69053359D01*
X147259516Y-68859085D01*
X147244957Y-68840111D01*
X147244951Y-68840104D01*
X147054895Y-68650048D01*
X147054888Y-68650042D01*
X146841645Y-68486416D01*
X146841644Y-68486415D01*
X146841641Y-68486413D01*
X146748832Y-68432830D01*
X146608866Y-68352019D01*
X146608850Y-68352011D01*
X146360524Y-68249152D01*
X146230708Y-68214368D01*
X146100891Y-68179584D01*
X146100885Y-68179583D01*
X146100880Y-68179582D01*
X145834398Y-68144500D01*
X145834397Y-68144500D01*
X145565603Y-68144500D01*
X145565602Y-68144500D01*
X145299119Y-68179582D01*
X145299112Y-68179583D01*
X145299109Y-68179584D01*
X145280449Y-68184584D01*
X145047163Y-68247092D01*
X144977313Y-68245429D01*
X144919451Y-68206266D01*
X144891947Y-68142038D01*
X144903534Y-68073135D01*
X144927389Y-68039636D01*
X156481205Y-56485819D01*
X156542528Y-56452334D01*
X156568886Y-56449500D01*
X157370500Y-56449500D01*
X157437539Y-56469185D01*
X157483294Y-56521989D01*
X157494500Y-56573500D01*
X157494500Y-60062549D01*
X157494501Y-60062569D01*
X157514994Y-60204962D01*
X157514995Y-60204966D01*
X157534690Y-60272007D01*
X157534692Y-60272012D01*
X157594477Y-60402874D01*
X157594478Y-60402876D01*
X160238170Y-64515286D01*
X160238171Y-64515287D01*
X160238176Y-64515294D01*
X160305978Y-64599412D01*
X160343245Y-64636673D01*
X160427362Y-64704454D01*
X160558239Y-64764225D01*
X160625278Y-64783910D01*
X160625282Y-64783911D01*
X160767698Y-64804387D01*
X160767701Y-64804387D01*
X163134930Y-64804387D01*
X163134932Y-64804387D01*
X163234188Y-64794547D01*
X163281938Y-64784985D01*
X163377341Y-64755842D01*
X163500889Y-64682103D01*
X163555178Y-64638121D01*
X163555486Y-64637789D01*
X163608505Y-64580543D01*
X163652945Y-64532563D01*
X166494013Y-60417912D01*
X166498754Y-60410922D01*
X166501030Y-60407505D01*
X166505567Y-60400572D01*
X166565338Y-60269695D01*
X166585023Y-60202656D01*
X166585024Y-60202652D01*
X166605500Y-60060236D01*
X166605500Y-51569438D01*
X166625185Y-51502399D01*
X166677989Y-51456644D01*
X166716092Y-51446165D01*
X167026645Y-51412391D01*
X167370878Y-51336619D01*
X167704901Y-51224074D01*
X167704908Y-51224070D01*
X167704911Y-51224070D01*
X167991224Y-51091607D01*
X168024798Y-51076074D01*
X168326818Y-50894354D01*
X168607420Y-50681046D01*
X168863314Y-50438650D01*
X169091501Y-50170008D01*
X169289305Y-49878269D01*
X169454407Y-49566854D01*
X169584871Y-49239414D01*
X169589583Y-49222445D01*
X169619136Y-49116004D01*
X169679168Y-48899788D01*
X169736191Y-48551957D01*
X169755274Y-48200000D01*
X169736191Y-47848043D01*
X169679168Y-47500212D01*
X169636704Y-47347271D01*
X169584873Y-47160591D01*
X169584872Y-47160589D01*
X169454411Y-46833155D01*
X169454402Y-46833137D01*
X169289304Y-46521730D01*
X169091501Y-46229992D01*
X169091497Y-46229987D01*
X169091494Y-46229983D01*
X168863314Y-45961350D01*
X168607420Y-45718954D01*
X168607413Y-45718948D01*
X168607410Y-45718946D01*
X168326815Y-45505644D01*
X168024802Y-45323928D01*
X168024789Y-45323921D01*
X167704911Y-45175929D01*
X167704906Y-45175928D01*
X167704903Y-45175927D01*
X167704901Y-45175926D01*
X167492432Y-45104337D01*
X167370880Y-45063381D01*
X167026643Y-44987608D01*
X166676238Y-44949500D01*
X166676237Y-44949500D01*
X166323763Y-44949500D01*
X166323761Y-44949500D01*
X165973356Y-44987608D01*
X165629119Y-45063381D01*
X165295093Y-45175928D01*
X165295088Y-45175929D01*
X164975210Y-45323921D01*
X164975197Y-45323928D01*
X164673184Y-45505644D01*
X164392589Y-45718946D01*
X164392580Y-45718954D01*
X164136685Y-45961350D01*
X163908505Y-46229983D01*
X163908498Y-46229993D01*
X163710695Y-46521730D01*
X163545597Y-46833137D01*
X163545588Y-46833155D01*
X163415127Y-47160589D01*
X163415126Y-47160591D01*
X163320834Y-47500203D01*
X163320833Y-47500206D01*
X163263808Y-47848045D01*
X163244726Y-48199997D01*
X163244726Y-48200002D01*
X163263808Y-48551954D01*
X163320833Y-48899793D01*
X163320835Y-48899801D01*
X163368675Y-49072106D01*
X163367643Y-49141968D01*
X163329004Y-49200181D01*
X163265027Y-49228264D01*
X163196023Y-49217300D01*
X163176310Y-49205597D01*
X163052997Y-49116006D01*
X163052996Y-49116005D01*
X163052994Y-49116004D01*
X162966840Y-49072106D01*
X162891639Y-49033788D01*
X162891636Y-49033787D01*
X162719410Y-48977829D01*
X162540551Y-48949500D01*
X162540546Y-48949500D01*
X161759454Y-48949500D01*
X161759449Y-48949500D01*
X161580589Y-48977829D01*
X161408363Y-49033787D01*
X161408360Y-49033788D01*
X161247002Y-49116006D01*
X161100505Y-49222441D01*
X161100500Y-49222445D01*
X160972445Y-49350500D01*
X160972441Y-49350505D01*
X160866006Y-49497002D01*
X160783788Y-49658360D01*
X160783787Y-49658363D01*
X160727829Y-49830589D01*
X160699500Y-50009448D01*
X160699500Y-50190551D01*
X160727829Y-50369412D01*
X160780354Y-50531070D01*
X160782349Y-50600911D01*
X160746268Y-50660743D01*
X160683567Y-50691571D01*
X160662423Y-50693387D01*
X158124000Y-50693387D01*
X158123991Y-50693387D01*
X158123990Y-50693388D01*
X158016549Y-50704939D01*
X158016537Y-50704941D01*
X157965027Y-50716147D01*
X157862502Y-50750270D01*
X157862496Y-50750273D01*
X157741462Y-50828058D01*
X157741451Y-50828066D01*
X157688659Y-50873810D01*
X157594433Y-50982551D01*
X157594430Y-50982555D01*
X157534664Y-51113421D01*
X157514976Y-51180469D01*
X157494500Y-51322888D01*
X157494500Y-54816500D01*
X157474815Y-54883539D01*
X157422011Y-54929294D01*
X157370500Y-54940500D01*
X156130683Y-54940500D01*
X155984927Y-54969493D01*
X155984919Y-54969495D01*
X155847608Y-55026371D01*
X155724035Y-55108939D01*
X155724034Y-55108940D01*
X155671488Y-55161487D01*
X155618941Y-55214034D01*
X155618939Y-55214036D01*
X150385021Y-60447953D01*
X150323698Y-60481438D01*
X150254006Y-60476454D01*
X150198073Y-60434582D01*
X150173656Y-60369118D01*
X150178364Y-60325333D01*
X150185023Y-60302656D01*
X150185024Y-60302652D01*
X150205500Y-60160236D01*
X150205500Y-51422887D01*
X150193947Y-51315431D01*
X150182741Y-51263920D01*
X150169478Y-51224071D01*
X150148616Y-51161389D01*
X150148613Y-51161383D01*
X150139629Y-51147404D01*
X150070825Y-51040344D01*
X150052209Y-51018860D01*
X150025076Y-50987546D01*
X150025072Y-50987543D01*
X150025070Y-50987540D01*
X149916336Y-50893320D01*
X149916333Y-50893318D01*
X149916331Y-50893317D01*
X149785465Y-50833551D01*
X149785460Y-50833549D01*
X149785459Y-50833549D01*
X149726192Y-50816146D01*
X149718417Y-50813863D01*
X149656347Y-50804939D01*
X149576000Y-50793387D01*
X149575998Y-50793387D01*
X148413893Y-50793387D01*
X148379298Y-50788463D01*
X148365114Y-50784342D01*
X148246547Y-50749894D01*
X148246543Y-50749893D01*
X147935782Y-50700674D01*
X147804844Y-50694500D01*
X147804840Y-50694500D01*
X147187215Y-50694500D01*
X147120176Y-50674815D01*
X147074421Y-50622011D01*
X147064477Y-50552853D01*
X147069284Y-50532182D01*
X147086445Y-50479363D01*
X147122171Y-50369409D01*
X147136765Y-50277259D01*
X147150500Y-50190551D01*
X147150500Y-50009448D01*
X147129503Y-49876884D01*
X147122171Y-49830591D01*
X147066211Y-49658361D01*
X147066211Y-49658360D01*
X147031391Y-49590024D01*
X146983996Y-49497006D01*
X146962197Y-49467002D01*
X146877558Y-49350505D01*
X146877554Y-49350500D01*
X146749499Y-49222445D01*
X146749494Y-49222441D01*
X146602997Y-49116006D01*
X146602996Y-49116005D01*
X146602994Y-49116004D01*
X146516840Y-49072106D01*
X146441639Y-49033788D01*
X146441636Y-49033787D01*
X146269410Y-48977829D01*
X146090551Y-48949500D01*
X146090546Y-48949500D01*
X145309454Y-48949500D01*
X145309449Y-48949500D01*
X145130589Y-48977829D01*
X144958363Y-49033787D01*
X144958360Y-49033788D01*
X144797002Y-49116006D01*
X144650505Y-49222441D01*
X144650500Y-49222445D01*
X144522445Y-49350500D01*
X144522441Y-49350505D01*
X144416006Y-49497002D01*
X144333788Y-49658360D01*
X144333787Y-49658363D01*
X144277829Y-49830589D01*
X144249500Y-50009448D01*
X144249500Y-50190551D01*
X144277829Y-50369410D01*
X144330716Y-50532182D01*
X144332711Y-50602024D01*
X144296630Y-50661856D01*
X144233929Y-50692684D01*
X144212785Y-50694500D01*
X143595156Y-50694500D01*
X143464219Y-50700674D01*
X143464214Y-50700674D01*
X143153456Y-50749893D01*
X143153452Y-50749894D01*
X143032510Y-50785032D01*
X143020701Y-50788463D01*
X142986107Y-50793387D01*
X142984435Y-50793387D01*
X142964074Y-50793906D01*
X142958641Y-50794045D01*
X142946004Y-50794690D01*
X142920344Y-50796658D01*
X142920337Y-50796659D01*
X142780753Y-50831527D01*
X142736845Y-50849452D01*
X142716063Y-50857937D01*
X142716060Y-50857938D01*
X142716059Y-50857939D01*
X142681428Y-50878243D01*
X142663801Y-50882643D01*
X142540635Y-50960033D01*
X142515617Y-50972081D01*
X142479244Y-50984808D01*
X142452189Y-50990985D01*
X142446671Y-50991607D01*
X142446639Y-50991611D01*
X142395796Y-50999983D01*
X142395767Y-50999989D01*
X142371147Y-51005346D01*
X142371124Y-51005351D01*
X142371113Y-51005354D01*
X142371106Y-51005356D01*
X142335345Y-51015069D01*
X142265490Y-51013644D01*
X142215163Y-50983085D01*
X142102262Y-50870184D01*
X141949523Y-50774211D01*
X141779254Y-50714631D01*
X141779249Y-50714630D01*
X141600004Y-50694435D01*
X141599996Y-50694435D01*
X141420750Y-50714630D01*
X141420745Y-50714631D01*
X141250476Y-50774211D01*
X141097737Y-50870184D01*
X140970184Y-50997737D01*
X140870507Y-51156373D01*
X140869705Y-51155869D01*
X140851615Y-51181359D01*
X140413943Y-51619030D01*
X140413942Y-51619031D01*
X140331372Y-51742607D01*
X140331370Y-51742611D01*
X140316192Y-51779255D01*
X140283828Y-51857390D01*
X140283827Y-51857393D01*
X140274495Y-51879918D01*
X140274493Y-51879925D01*
X140245499Y-52025685D01*
X140245499Y-52180425D01*
X140245500Y-52180446D01*
X140245500Y-56436112D01*
X140225815Y-56503151D01*
X140209181Y-56523793D01*
X138413943Y-58319030D01*
X138413942Y-58319031D01*
X138331372Y-58442607D01*
X138331366Y-58442618D01*
X138274496Y-58579916D01*
X138274493Y-58579926D01*
X138245499Y-58725685D01*
X138245499Y-58880425D01*
X138245500Y-58880446D01*
X138245500Y-62711459D01*
X138238542Y-62752414D01*
X138214631Y-62820745D01*
X138214630Y-62820750D01*
X138194435Y-62999996D01*
X138194435Y-63000003D01*
X138214630Y-63179249D01*
X138214631Y-63179254D01*
X138274211Y-63349523D01*
X138370184Y-63502262D01*
X138497738Y-63629816D01*
X138650478Y-63725789D01*
X138820745Y-63785368D01*
X138820750Y-63785369D01*
X138999996Y-63805565D01*
X139000000Y-63805565D01*
X139000004Y-63805565D01*
X139179249Y-63785369D01*
X139179252Y-63785368D01*
X139179255Y-63785368D01*
X139349522Y-63725789D01*
X139502262Y-63629816D01*
X139629816Y-63502262D01*
X139725789Y-63349522D01*
X139785368Y-63179255D01*
X139805565Y-63000000D01*
X139785368Y-62820745D01*
X139761457Y-62752413D01*
X139754500Y-62711459D01*
X139754500Y-59163886D01*
X139774185Y-59096847D01*
X139790819Y-59076205D01*
X140882819Y-57984205D01*
X140944142Y-57950720D01*
X141013834Y-57955704D01*
X141069767Y-57997576D01*
X141094184Y-58063040D01*
X141094500Y-58071886D01*
X141094500Y-60162549D01*
X141094501Y-60162569D01*
X141114994Y-60304962D01*
X141114995Y-60304966D01*
X141134690Y-60372007D01*
X141134692Y-60372012D01*
X141194477Y-60502874D01*
X141194478Y-60502876D01*
X143838170Y-64615286D01*
X143838171Y-64615287D01*
X143838176Y-64615294D01*
X143905978Y-64699412D01*
X143943245Y-64736673D01*
X144027362Y-64804454D01*
X144158239Y-64864225D01*
X144225278Y-64883910D01*
X144225282Y-64883911D01*
X144367698Y-64904387D01*
X145629226Y-64904387D01*
X145696265Y-64924072D01*
X145742020Y-64976876D01*
X145751964Y-65046034D01*
X145722939Y-65109590D01*
X145716907Y-65116068D01*
X143823794Y-67009181D01*
X143762471Y-67042666D01*
X143736113Y-67045500D01*
X135220887Y-67045500D01*
X135153848Y-67025815D01*
X135108093Y-66973011D01*
X135098149Y-66903853D01*
X135127174Y-66840297D01*
X135133206Y-66833819D01*
X135776205Y-66190819D01*
X135837528Y-66157334D01*
X135863886Y-66154500D01*
X139911460Y-66154500D01*
X139952415Y-66161459D01*
X140020737Y-66185366D01*
X140020743Y-66185367D01*
X140020745Y-66185368D01*
X140020746Y-66185368D01*
X140020750Y-66185369D01*
X140199996Y-66205565D01*
X140200000Y-66205565D01*
X140200004Y-66205565D01*
X140379249Y-66185369D01*
X140379252Y-66185368D01*
X140379255Y-66185368D01*
X140549522Y-66125789D01*
X140702262Y-66029816D01*
X140829816Y-65902262D01*
X140925789Y-65749522D01*
X140985368Y-65579255D01*
X141005565Y-65400000D01*
X141004718Y-65392487D01*
X140985369Y-65220750D01*
X140985368Y-65220745D01*
X140925788Y-65050476D01*
X140829815Y-64897737D01*
X140702262Y-64770184D01*
X140549523Y-64674211D01*
X140379254Y-64614631D01*
X140379249Y-64614630D01*
X140200004Y-64594435D01*
X140199996Y-64594435D01*
X140020750Y-64614630D01*
X140020737Y-64614633D01*
X139952415Y-64638541D01*
X139911460Y-64645500D01*
X135425683Y-64645500D01*
X135279927Y-64674493D01*
X135279919Y-64674495D01*
X135142608Y-64731371D01*
X135092263Y-64765010D01*
X135025585Y-64785887D01*
X134958205Y-64767401D01*
X134911516Y-64715422D01*
X134900154Y-64648022D01*
X134901223Y-64638541D01*
X134905565Y-64600000D01*
X134898092Y-64533676D01*
X134885369Y-64420750D01*
X134885368Y-64420745D01*
X134825788Y-64250476D01*
X134729815Y-64097737D01*
X134602262Y-63970184D01*
X134449523Y-63874211D01*
X134279254Y-63814631D01*
X134279249Y-63814630D01*
X134100004Y-63794435D01*
X134099996Y-63794435D01*
X133920750Y-63814630D01*
X133920737Y-63814633D01*
X133852415Y-63838541D01*
X133811460Y-63845500D01*
X133680446Y-63845500D01*
X133680426Y-63845499D01*
X133674312Y-63845499D01*
X133525688Y-63845499D01*
X133525686Y-63845499D01*
X133404105Y-63869684D01*
X133389540Y-63872581D01*
X133379918Y-63874495D01*
X133379917Y-63874495D01*
X133323045Y-63898053D01*
X133242614Y-63931368D01*
X133119031Y-64013942D01*
X131313942Y-65819031D01*
X131231372Y-65942607D01*
X131231366Y-65942618D01*
X131205725Y-66004524D01*
X131205725Y-66004525D01*
X131187087Y-66049521D01*
X131174495Y-66079919D01*
X131174493Y-66079925D01*
X131145499Y-66225685D01*
X131145499Y-66380425D01*
X131145500Y-66380446D01*
X131145500Y-68746291D01*
X131125815Y-68813330D01*
X131073011Y-68859085D01*
X131003853Y-68869029D01*
X130940297Y-68840004D01*
X130933819Y-68833972D01*
X130754895Y-68655048D01*
X130754888Y-68655042D01*
X130541645Y-68491416D01*
X130541644Y-68491415D01*
X130541641Y-68491413D01*
X130448832Y-68437830D01*
X130308866Y-68357019D01*
X130308850Y-68357011D01*
X130060524Y-68254152D01*
X129881809Y-68206266D01*
X129800891Y-68184584D01*
X129800885Y-68184583D01*
X129800880Y-68184582D01*
X129534398Y-68149500D01*
X129534397Y-68149500D01*
X129265603Y-68149500D01*
X129265602Y-68149500D01*
X128999119Y-68184582D01*
X128999112Y-68184583D01*
X128999109Y-68184584D01*
X128944239Y-68199286D01*
X128739475Y-68254152D01*
X128491149Y-68357011D01*
X128491133Y-68357019D01*
X128258354Y-68491416D01*
X128045111Y-68655042D01*
X128045104Y-68655048D01*
X127855048Y-68845104D01*
X127855042Y-68845111D01*
X127691416Y-69058354D01*
X127557019Y-69291133D01*
X127557011Y-69291149D01*
X127454152Y-69539475D01*
X127384585Y-69799106D01*
X127384582Y-69799119D01*
X127349500Y-70065602D01*
X127349500Y-70334397D01*
X127384582Y-70600880D01*
X127384583Y-70600885D01*
X127384584Y-70600891D01*
X127384585Y-70600893D01*
X127454152Y-70860524D01*
X127557011Y-71108850D01*
X127557019Y-71108866D01*
X127637830Y-71248832D01*
X127691413Y-71341641D01*
X127691415Y-71341644D01*
X127691416Y-71341645D01*
X127855042Y-71554888D01*
X127855048Y-71554895D01*
X128045104Y-71744951D01*
X128045110Y-71744956D01*
X128258359Y-71908587D01*
X128405058Y-71993284D01*
X128491133Y-72042980D01*
X128491149Y-72042988D01*
X128632664Y-72101605D01*
X128739474Y-72145847D01*
X128999109Y-72215416D01*
X129187319Y-72240193D01*
X129265602Y-72250500D01*
X129265603Y-72250500D01*
X129534398Y-72250500D01*
X129594905Y-72242534D01*
X129800891Y-72215416D01*
X130060526Y-72145847D01*
X130247457Y-72068417D01*
X130308850Y-72042988D01*
X130308853Y-72042986D01*
X130308859Y-72042984D01*
X130394943Y-71993283D01*
X130462840Y-71976811D01*
X130528867Y-71999663D01*
X130572058Y-72054584D01*
X130578700Y-72124137D01*
X130546685Y-72186240D01*
X130544622Y-72188352D01*
X128523794Y-74209181D01*
X128462471Y-74242666D01*
X128436113Y-74245500D01*
X127288540Y-74245500D01*
X127247585Y-74238541D01*
X127179262Y-74214633D01*
X127179249Y-74214630D01*
X127000004Y-74194435D01*
X126999996Y-74194435D01*
X126820750Y-74214630D01*
X126820745Y-74214631D01*
X126650476Y-74274211D01*
X126497737Y-74370184D01*
X126370184Y-74497737D01*
X126274211Y-74650476D01*
X126214631Y-74820745D01*
X126214630Y-74820750D01*
X126194435Y-74999996D01*
X104703754Y-74999996D01*
X104704389Y-70060602D01*
X111024500Y-70060602D01*
X111024500Y-70329397D01*
X111059582Y-70595880D01*
X111059583Y-70595885D01*
X111059584Y-70595891D01*
X111094368Y-70725708D01*
X111129152Y-70855524D01*
X111232011Y-71103850D01*
X111232019Y-71103866D01*
X111312830Y-71243832D01*
X111366413Y-71336641D01*
X111366415Y-71336644D01*
X111366416Y-71336645D01*
X111530042Y-71549888D01*
X111530048Y-71549895D01*
X111720104Y-71739951D01*
X111720111Y-71739957D01*
X111726626Y-71744956D01*
X111933359Y-71903587D01*
X112082968Y-71989964D01*
X112166133Y-72037980D01*
X112166149Y-72037988D01*
X112319736Y-72101605D01*
X112414474Y-72140847D01*
X112674109Y-72210416D01*
X112862319Y-72235193D01*
X112940602Y-72245500D01*
X112940603Y-72245500D01*
X113209398Y-72245500D01*
X113269905Y-72237534D01*
X113475891Y-72210416D01*
X113735526Y-72140847D01*
X113943783Y-72054584D01*
X113983850Y-72037988D01*
X113983853Y-72037986D01*
X113983859Y-72037984D01*
X114216641Y-71903587D01*
X114429890Y-71739956D01*
X114619956Y-71549890D01*
X114783587Y-71336641D01*
X114917984Y-71103859D01*
X115020847Y-70855526D01*
X115090416Y-70595891D01*
X115125500Y-70329397D01*
X115125500Y-70060603D01*
X115090416Y-69794109D01*
X115020847Y-69534474D01*
X114982132Y-69441008D01*
X114917988Y-69286149D01*
X114917980Y-69286133D01*
X114869964Y-69202968D01*
X114783587Y-69053359D01*
X114634516Y-68859085D01*
X114619957Y-68840111D01*
X114619951Y-68840104D01*
X114429895Y-68650048D01*
X114429888Y-68650042D01*
X114216645Y-68486416D01*
X114216644Y-68486415D01*
X114216641Y-68486413D01*
X114123832Y-68432830D01*
X113983866Y-68352019D01*
X113983850Y-68352011D01*
X113735524Y-68249152D01*
X113605708Y-68214368D01*
X113475891Y-68179584D01*
X113475885Y-68179583D01*
X113475880Y-68179582D01*
X113209398Y-68144500D01*
X113209397Y-68144500D01*
X112940603Y-68144500D01*
X112940602Y-68144500D01*
X112674119Y-68179582D01*
X112674112Y-68179583D01*
X112674109Y-68179584D01*
X112619239Y-68194286D01*
X112414475Y-68249152D01*
X112166149Y-68352011D01*
X112166133Y-68352019D01*
X111933354Y-68486416D01*
X111720111Y-68650042D01*
X111720104Y-68650048D01*
X111530048Y-68840104D01*
X111530042Y-68840111D01*
X111366416Y-69053354D01*
X111232019Y-69286133D01*
X111232011Y-69286149D01*
X111129152Y-69534475D01*
X111059585Y-69794106D01*
X111059582Y-69794119D01*
X111024500Y-70060602D01*
X104704389Y-70060602D01*
X104707201Y-48199997D01*
X105244726Y-48199997D01*
X105244726Y-48200002D01*
X105263808Y-48551954D01*
X105320833Y-48899793D01*
X105320834Y-48899796D01*
X105415126Y-49239408D01*
X105415127Y-49239410D01*
X105545588Y-49566844D01*
X105545597Y-49566862D01*
X105647993Y-49760000D01*
X105710695Y-49878269D01*
X105844093Y-50075017D01*
X105908498Y-50170006D01*
X105908505Y-50170016D01*
X106136681Y-50438644D01*
X106136686Y-50438650D01*
X106392580Y-50681046D01*
X106392587Y-50681051D01*
X106392589Y-50681053D01*
X106424979Y-50705675D01*
X106673182Y-50894354D01*
X106975202Y-51076074D01*
X106975206Y-51076075D01*
X106975210Y-51076078D01*
X107295088Y-51224070D01*
X107295092Y-51224070D01*
X107295099Y-51224074D01*
X107629122Y-51336619D01*
X107973355Y-51412391D01*
X108323763Y-51450500D01*
X108370500Y-51450500D01*
X108437539Y-51470185D01*
X108483294Y-51522989D01*
X108494500Y-51574500D01*
X108494500Y-60063662D01*
X108494501Y-60063682D01*
X108514994Y-60206075D01*
X108514995Y-60206079D01*
X108534690Y-60273120D01*
X108534692Y-60273125D01*
X108594477Y-60403987D01*
X108594478Y-60403989D01*
X111238170Y-64516399D01*
X111238171Y-64516400D01*
X111238176Y-64516407D01*
X111305978Y-64600525D01*
X111343245Y-64637786D01*
X111427362Y-64705567D01*
X111558239Y-64765338D01*
X111625278Y-64785023D01*
X111625282Y-64785024D01*
X111767698Y-64805500D01*
X111767701Y-64805500D01*
X114134930Y-64805500D01*
X114134932Y-64805500D01*
X114234188Y-64795660D01*
X114281938Y-64786098D01*
X114289098Y-64783911D01*
X114304339Y-64779255D01*
X114377341Y-64756955D01*
X114500889Y-64683216D01*
X114555178Y-64639234D01*
X114556215Y-64638115D01*
X114652940Y-64533681D01*
X114652945Y-64533676D01*
X117494013Y-60419025D01*
X117498754Y-60412035D01*
X117501030Y-60408618D01*
X117505567Y-60401685D01*
X117565338Y-60270808D01*
X117585023Y-60203769D01*
X117585024Y-60203765D01*
X117605500Y-60061349D01*
X117605500Y-57899996D01*
X118194435Y-57899996D01*
X118194435Y-57900003D01*
X118214630Y-58079249D01*
X118214631Y-58079254D01*
X118274211Y-58249523D01*
X118317886Y-58319031D01*
X118370184Y-58402262D01*
X118497738Y-58529816D01*
X118650478Y-58625789D01*
X118752417Y-58661459D01*
X118820745Y-58685368D01*
X118820750Y-58685369D01*
X118999996Y-58705565D01*
X119000000Y-58705565D01*
X119000004Y-58705565D01*
X119179249Y-58685369D01*
X119179251Y-58685368D01*
X119179255Y-58685368D01*
X119179258Y-58685366D01*
X119179262Y-58685366D01*
X119247585Y-58661459D01*
X119288540Y-58654500D01*
X122711460Y-58654500D01*
X122752415Y-58661459D01*
X122820737Y-58685366D01*
X122820743Y-58685367D01*
X122820745Y-58685368D01*
X122820746Y-58685368D01*
X122820750Y-58685369D01*
X122999996Y-58705565D01*
X123000000Y-58705565D01*
X123000004Y-58705565D01*
X123179249Y-58685369D01*
X123179252Y-58685368D01*
X123179255Y-58685368D01*
X123349522Y-58625789D01*
X123502262Y-58529816D01*
X123629816Y-58402262D01*
X123725789Y-58249522D01*
X123785368Y-58079255D01*
X123785369Y-58079249D01*
X123805565Y-57900003D01*
X123805565Y-57899996D01*
X123785369Y-57720750D01*
X123785368Y-57720745D01*
X123725788Y-57550476D01*
X123629815Y-57397737D01*
X123502262Y-57270184D01*
X123349523Y-57174211D01*
X123179254Y-57114631D01*
X123179249Y-57114630D01*
X123000004Y-57094435D01*
X122999996Y-57094435D01*
X122820750Y-57114630D01*
X122820737Y-57114633D01*
X122752415Y-57138541D01*
X122711460Y-57145500D01*
X119288540Y-57145500D01*
X119247585Y-57138541D01*
X119179262Y-57114633D01*
X119179249Y-57114630D01*
X119000004Y-57094435D01*
X118999996Y-57094435D01*
X118820750Y-57114630D01*
X118820745Y-57114631D01*
X118650476Y-57174211D01*
X118497737Y-57270184D01*
X118370184Y-57397737D01*
X118274211Y-57550476D01*
X118214631Y-57720745D01*
X118214630Y-57720750D01*
X118194435Y-57899996D01*
X117605500Y-57899996D01*
X117605500Y-51422888D01*
X124792888Y-51422888D01*
X124792888Y-60162549D01*
X124792889Y-60162569D01*
X124813382Y-60304962D01*
X124813383Y-60304966D01*
X124833078Y-60372007D01*
X124833080Y-60372012D01*
X124892865Y-60502874D01*
X124892866Y-60502876D01*
X127536558Y-64615286D01*
X127536559Y-64615287D01*
X127536564Y-64615294D01*
X127604366Y-64699412D01*
X127641633Y-64736673D01*
X127725750Y-64804454D01*
X127856627Y-64864225D01*
X127923666Y-64883910D01*
X127923670Y-64883911D01*
X128066086Y-64904387D01*
X128066089Y-64904387D01*
X130433318Y-64904387D01*
X130433320Y-64904387D01*
X130532576Y-64894547D01*
X130580326Y-64884985D01*
X130675729Y-64855842D01*
X130799277Y-64782103D01*
X130853566Y-64738121D01*
X130854905Y-64736676D01*
X130946189Y-64638117D01*
X130951333Y-64632563D01*
X133792401Y-60517912D01*
X133797142Y-60510922D01*
X133799418Y-60507505D01*
X133803955Y-60500572D01*
X133863726Y-60369695D01*
X133883411Y-60302656D01*
X133883412Y-60302652D01*
X133903888Y-60160236D01*
X133903888Y-59210957D01*
X133923573Y-59143918D01*
X133976377Y-59098163D01*
X134041771Y-59087737D01*
X134090824Y-59093263D01*
X134199997Y-59105565D01*
X134200000Y-59105565D01*
X134200004Y-59105565D01*
X134379249Y-59085369D01*
X134379252Y-59085368D01*
X134379255Y-59085368D01*
X134549522Y-59025789D01*
X134702262Y-58929816D01*
X134829816Y-58802262D01*
X134925789Y-58649522D01*
X134985368Y-58479255D01*
X134989497Y-58442611D01*
X135005565Y-58300003D01*
X135005565Y-58299996D01*
X134985369Y-58120750D01*
X134985368Y-58120745D01*
X134961458Y-58052414D01*
X134954500Y-58011459D01*
X134954500Y-54759448D01*
X135799500Y-54759448D01*
X135799500Y-54940551D01*
X135827829Y-55119410D01*
X135883787Y-55291636D01*
X135883788Y-55291639D01*
X135966006Y-55452997D01*
X136072441Y-55599494D01*
X136072445Y-55599499D01*
X136200500Y-55727554D01*
X136200505Y-55727558D01*
X136328287Y-55820396D01*
X136347006Y-55833996D01*
X136452484Y-55887740D01*
X136508360Y-55916211D01*
X136508363Y-55916212D01*
X136594476Y-55944191D01*
X136680591Y-55972171D01*
X136763429Y-55985291D01*
X136859449Y-56000500D01*
X136859454Y-56000500D01*
X137640551Y-56000500D01*
X137727259Y-55986765D01*
X137819409Y-55972171D01*
X137991639Y-55916211D01*
X138152994Y-55833996D01*
X138299501Y-55727553D01*
X138427553Y-55599501D01*
X138533996Y-55452994D01*
X138616211Y-55291639D01*
X138672171Y-55119409D01*
X138695915Y-54969495D01*
X138700500Y-54940551D01*
X138700500Y-54759448D01*
X138684019Y-54655397D01*
X138672171Y-54580591D01*
X138616211Y-54408361D01*
X138616211Y-54408360D01*
X138587740Y-54352484D01*
X138533996Y-54247006D01*
X138520396Y-54228287D01*
X138427558Y-54100505D01*
X138427554Y-54100500D01*
X138299499Y-53972445D01*
X138299494Y-53972441D01*
X138152997Y-53866006D01*
X138152996Y-53866005D01*
X138152994Y-53866004D01*
X138101300Y-53839664D01*
X137991639Y-53783788D01*
X137991636Y-53783787D01*
X137819410Y-53727829D01*
X137640551Y-53699500D01*
X137640546Y-53699500D01*
X136859454Y-53699500D01*
X136859449Y-53699500D01*
X136680589Y-53727829D01*
X136508363Y-53783787D01*
X136508360Y-53783788D01*
X136347002Y-53866006D01*
X136200505Y-53972441D01*
X136200500Y-53972445D01*
X136072445Y-54100500D01*
X136072441Y-54100505D01*
X135966006Y-54247002D01*
X135883788Y-54408360D01*
X135883787Y-54408363D01*
X135827829Y-54580589D01*
X135799500Y-54759448D01*
X134954500Y-54759448D01*
X134954500Y-52280446D01*
X134954501Y-52280425D01*
X134954501Y-52125685D01*
X134925506Y-51979925D01*
X134925504Y-51979919D01*
X134912924Y-51949547D01*
X134912912Y-51949520D01*
X134868632Y-51842617D01*
X134868631Y-51842616D01*
X134868629Y-51842610D01*
X134826298Y-51779257D01*
X134786060Y-51719035D01*
X134786054Y-51719028D01*
X134676647Y-51609621D01*
X134676624Y-51609600D01*
X134348385Y-51281360D01*
X134330298Y-51255868D01*
X134329494Y-51256374D01*
X134272100Y-51165033D01*
X134229816Y-51097738D01*
X134102262Y-50970184D01*
X134086107Y-50960033D01*
X133949523Y-50874211D01*
X133779254Y-50814631D01*
X133779249Y-50814630D01*
X133600004Y-50794435D01*
X133599996Y-50794435D01*
X133420750Y-50814630D01*
X133420745Y-50814631D01*
X133250476Y-50874211D01*
X133097739Y-50970183D01*
X132980434Y-51087488D01*
X132919111Y-51120972D01*
X132861477Y-51119797D01*
X132759004Y-51093087D01*
X132727163Y-51079830D01*
X132582541Y-50994301D01*
X132561921Y-50978742D01*
X132561805Y-50978873D01*
X132540830Y-50960033D01*
X132520297Y-50941589D01*
X132499655Y-50924956D01*
X132467538Y-50901797D01*
X132455781Y-50893319D01*
X132455779Y-50893318D01*
X132324911Y-50833551D01*
X132324906Y-50833549D01*
X132324905Y-50833549D01*
X132265638Y-50816146D01*
X132257863Y-50813863D01*
X132195793Y-50804939D01*
X132115446Y-50793387D01*
X132115444Y-50793387D01*
X132096683Y-50793387D01*
X132062088Y-50788463D01*
X132049907Y-50784924D01*
X131946547Y-50754894D01*
X131946543Y-50754893D01*
X131635782Y-50705674D01*
X131504844Y-50699500D01*
X131504840Y-50699500D01*
X130935590Y-50699500D01*
X130868551Y-50679815D01*
X130822796Y-50627011D01*
X130812852Y-50557853D01*
X130817659Y-50537182D01*
X130825959Y-50511636D01*
X130872171Y-50369409D01*
X130886765Y-50277259D01*
X130900500Y-50190551D01*
X130900500Y-50009448D01*
X130879503Y-49876884D01*
X130872171Y-49830591D01*
X130816211Y-49658361D01*
X130816211Y-49658360D01*
X130781391Y-49590024D01*
X130733996Y-49497006D01*
X130712197Y-49467002D01*
X130627558Y-49350505D01*
X130627554Y-49350500D01*
X130499499Y-49222445D01*
X130499494Y-49222441D01*
X130352997Y-49116006D01*
X130352996Y-49116005D01*
X130352994Y-49116004D01*
X130266840Y-49072106D01*
X130191639Y-49033788D01*
X130191636Y-49033787D01*
X130019410Y-48977829D01*
X129840551Y-48949500D01*
X129840546Y-48949500D01*
X129059454Y-48949500D01*
X129059449Y-48949500D01*
X128880589Y-48977829D01*
X128708363Y-49033787D01*
X128708360Y-49033788D01*
X128547002Y-49116006D01*
X128400505Y-49222441D01*
X128400500Y-49222445D01*
X128272445Y-49350500D01*
X128272441Y-49350505D01*
X128166006Y-49497002D01*
X128083788Y-49658360D01*
X128083787Y-49658363D01*
X128027829Y-49830589D01*
X127999500Y-50009448D01*
X127999500Y-50190551D01*
X128027829Y-50369410D01*
X128082341Y-50537182D01*
X128084336Y-50607023D01*
X128048255Y-50666856D01*
X127985554Y-50697684D01*
X127964410Y-50699500D01*
X127295156Y-50699500D01*
X127164219Y-50705674D01*
X127164214Y-50705674D01*
X126853456Y-50754893D01*
X126853452Y-50754894D01*
X126748050Y-50785517D01*
X126737911Y-50788463D01*
X126703317Y-50793387D01*
X125422388Y-50793387D01*
X125422379Y-50793387D01*
X125422378Y-50793388D01*
X125314937Y-50804939D01*
X125314925Y-50804941D01*
X125263415Y-50816147D01*
X125160890Y-50850270D01*
X125160884Y-50850273D01*
X125039850Y-50928058D01*
X125039839Y-50928066D01*
X124987047Y-50973810D01*
X124892821Y-51082551D01*
X124892818Y-51082555D01*
X124833052Y-51213421D01*
X124813364Y-51280469D01*
X124807104Y-51324010D01*
X124792890Y-51422877D01*
X124792888Y-51422888D01*
X117605500Y-51422888D01*
X117605500Y-51324000D01*
X117593947Y-51216544D01*
X117582741Y-51165033D01*
X117577897Y-51150478D01*
X117548616Y-51062502D01*
X117548613Y-51062496D01*
X117534373Y-51040338D01*
X117470825Y-50941457D01*
X117456527Y-50924956D01*
X117425076Y-50888659D01*
X117425072Y-50888656D01*
X117425070Y-50888653D01*
X117316336Y-50794433D01*
X117316333Y-50794431D01*
X117316331Y-50794430D01*
X117185465Y-50734664D01*
X117185460Y-50734662D01*
X117185459Y-50734662D01*
X117118420Y-50714977D01*
X117118422Y-50714977D01*
X117118417Y-50714976D01*
X117053718Y-50705674D01*
X116976000Y-50694500D01*
X116975998Y-50694500D01*
X114795389Y-50694500D01*
X114728350Y-50674815D01*
X114682595Y-50622011D01*
X114672651Y-50552853D01*
X114684902Y-50514209D01*
X114686210Y-50511641D01*
X114686212Y-50511636D01*
X114709928Y-50438644D01*
X114742171Y-50339409D01*
X114765748Y-50190551D01*
X114770500Y-50160551D01*
X114770500Y-49979448D01*
X114754019Y-49875397D01*
X114742171Y-49800591D01*
X114695959Y-49658363D01*
X114686212Y-49628363D01*
X114686211Y-49628360D01*
X114651124Y-49559500D01*
X114603996Y-49467006D01*
X114519350Y-49350500D01*
X114497558Y-49320505D01*
X114497554Y-49320500D01*
X114369499Y-49192445D01*
X114369494Y-49192441D01*
X114222997Y-49086006D01*
X114222996Y-49086005D01*
X114222994Y-49086004D01*
X114171300Y-49059664D01*
X114061639Y-49003788D01*
X114061636Y-49003787D01*
X113889410Y-48947829D01*
X113710551Y-48919500D01*
X113710546Y-48919500D01*
X112929454Y-48919500D01*
X112929449Y-48919500D01*
X112750589Y-48947829D01*
X112578363Y-49003787D01*
X112578360Y-49003788D01*
X112417002Y-49086006D01*
X112270505Y-49192441D01*
X112270500Y-49192445D01*
X112142445Y-49320500D01*
X112142441Y-49320505D01*
X112036006Y-49467002D01*
X111953788Y-49628360D01*
X111953787Y-49628363D01*
X111897829Y-49800589D01*
X111869500Y-49979448D01*
X111869500Y-50160551D01*
X111897829Y-50339410D01*
X111953787Y-50511636D01*
X111953789Y-50511641D01*
X111955098Y-50514209D01*
X111955300Y-50515289D01*
X111955654Y-50516142D01*
X111955474Y-50516216D01*
X111967992Y-50582879D01*
X111941713Y-50647618D01*
X111884605Y-50687873D01*
X111844611Y-50694500D01*
X110904432Y-50694500D01*
X110837393Y-50674815D01*
X110791638Y-50622011D01*
X110781694Y-50552853D01*
X110810719Y-50489297D01*
X110819138Y-50480495D01*
X110863314Y-50438650D01*
X111091501Y-50170008D01*
X111289305Y-49878269D01*
X111454407Y-49566854D01*
X111584871Y-49239414D01*
X111589583Y-49222445D01*
X111619136Y-49116004D01*
X111679168Y-48899788D01*
X111736191Y-48551957D01*
X111755274Y-48200000D01*
X111736191Y-47848043D01*
X111679168Y-47500212D01*
X111636704Y-47347271D01*
X111584873Y-47160591D01*
X111584872Y-47160589D01*
X111454411Y-46833155D01*
X111454402Y-46833137D01*
X111289304Y-46521730D01*
X111091501Y-46229992D01*
X111091497Y-46229987D01*
X111091494Y-46229983D01*
X110863314Y-45961350D01*
X110607420Y-45718954D01*
X110607413Y-45718948D01*
X110607410Y-45718946D01*
X110326815Y-45505644D01*
X110024802Y-45323928D01*
X110024789Y-45323921D01*
X109704911Y-45175929D01*
X109704906Y-45175928D01*
X109704903Y-45175927D01*
X109704901Y-45175926D01*
X109492432Y-45104337D01*
X109370880Y-45063381D01*
X109026643Y-44987608D01*
X108676238Y-44949500D01*
X108676237Y-44949500D01*
X108323763Y-44949500D01*
X108323761Y-44949500D01*
X107973356Y-44987608D01*
X107629119Y-45063381D01*
X107295093Y-45175928D01*
X107295088Y-45175929D01*
X106975210Y-45323921D01*
X106975197Y-45323928D01*
X106673184Y-45505644D01*
X106392589Y-45718946D01*
X106392580Y-45718954D01*
X106136685Y-45961350D01*
X105908505Y-46229983D01*
X105908498Y-46229993D01*
X105710695Y-46521730D01*
X105545597Y-46833137D01*
X105545588Y-46833155D01*
X105415127Y-47160589D01*
X105415126Y-47160591D01*
X105320834Y-47500203D01*
X105320833Y-47500206D01*
X105263808Y-47848045D01*
X105244726Y-48199997D01*
X104707201Y-48199997D01*
X104707599Y-45104335D01*
X104707607Y-45104270D01*
X104707607Y-45056092D01*
X104708204Y-45043939D01*
X104713752Y-44987608D01*
X104721772Y-44906174D01*
X104726511Y-44882348D01*
X104764921Y-44755725D01*
X104774219Y-44733280D01*
X104836593Y-44616587D01*
X104850091Y-44596387D01*
X104934031Y-44494106D01*
X104951210Y-44476927D01*
X105053493Y-44392987D01*
X105073697Y-44379487D01*
X105190386Y-44317116D01*
X105212828Y-44307820D01*
X105339451Y-44269410D01*
X105363280Y-44264671D01*
X105487185Y-44252468D01*
X105501116Y-44251097D01*
X105513268Y-44250500D01*
X105560126Y-44250500D01*
X105560308Y-44250480D01*
X132625455Y-44240617D01*
X132692501Y-44260277D01*
G37*
%TD.AperFunction*%
%TD*%
%TA.AperFunction,Conductor*%
%TO.N,/ADC1*%
G36*
X112809662Y-51201526D02*
G01*
X112929454Y-51220500D01*
X112929455Y-51220500D01*
X113710545Y-51220500D01*
X113710546Y-51220500D01*
X113830337Y-51201526D01*
X113849735Y-51200000D01*
X116976000Y-51200000D01*
X117043039Y-51219685D01*
X117088794Y-51272489D01*
X117100000Y-51324000D01*
X117100000Y-60061349D01*
X117080315Y-60128388D01*
X117078039Y-60131805D01*
X114236971Y-64246456D01*
X114182682Y-64290438D01*
X114134932Y-64300000D01*
X111767698Y-64300000D01*
X111700659Y-64280315D01*
X111663392Y-64243054D01*
X109019694Y-60130635D01*
X109000000Y-60063598D01*
X109000000Y-51517929D01*
X109019685Y-51450890D01*
X109072489Y-51405135D01*
X109097336Y-51396830D01*
X109370878Y-51336619D01*
X109704901Y-51224074D01*
X109704908Y-51224070D01*
X109704911Y-51224070D01*
X109732162Y-51211462D01*
X109784230Y-51200000D01*
X112790265Y-51200000D01*
X112809662Y-51201526D01*
G37*
%TD.AperFunction*%
%TD*%
%TA.AperFunction,Conductor*%
%TO.N,/ADC2*%
G36*
X132182485Y-51318572D02*
G01*
X132203127Y-51335205D01*
X132297738Y-51429816D01*
X132450478Y-51525789D01*
X132620745Y-51585368D01*
X132696735Y-51593929D01*
X132761145Y-51620994D01*
X132800701Y-51678588D01*
X132806069Y-51703265D01*
X132814630Y-51779249D01*
X132874210Y-51949521D01*
X132874211Y-51949522D01*
X132970184Y-52102262D01*
X133097738Y-52229816D01*
X133168553Y-52274312D01*
X133256374Y-52329494D01*
X133255868Y-52330298D01*
X133281358Y-52348383D01*
X133362069Y-52429094D01*
X133395554Y-52490416D01*
X133398388Y-52516775D01*
X133398388Y-60160236D01*
X133378703Y-60227275D01*
X133376427Y-60230692D01*
X130535359Y-64345343D01*
X130481070Y-64389325D01*
X130433320Y-64398887D01*
X128066086Y-64398887D01*
X127999047Y-64379202D01*
X127961780Y-64341941D01*
X125318082Y-60229522D01*
X125298388Y-60162485D01*
X125298388Y-51422887D01*
X125318073Y-51355848D01*
X125370877Y-51310093D01*
X125422388Y-51298887D01*
X132115446Y-51298887D01*
X132182485Y-51318572D01*
G37*
%TD.AperFunction*%
%TD*%
%TA.AperFunction,Conductor*%
%TO.N,/ADC3*%
G36*
X149643039Y-51318572D02*
G01*
X149688794Y-51371376D01*
X149700000Y-51422887D01*
X149700000Y-60160236D01*
X149680315Y-60227275D01*
X149678039Y-60230692D01*
X147622659Y-63207447D01*
X147608301Y-63224672D01*
X146470407Y-64362568D01*
X146409084Y-64396053D01*
X146382726Y-64398887D01*
X144367698Y-64398887D01*
X144300659Y-64379202D01*
X144263392Y-64341941D01*
X141619694Y-60229522D01*
X141600000Y-60162485D01*
X141600000Y-57297716D01*
X141619685Y-57230677D01*
X141620898Y-57228825D01*
X141668625Y-57157396D01*
X141668625Y-57157395D01*
X141668629Y-57157390D01*
X141725505Y-57020080D01*
X141730315Y-56995894D01*
X141754501Y-56874312D01*
X141754501Y-56725688D01*
X141754501Y-56720578D01*
X141754500Y-56720552D01*
X141754500Y-52463885D01*
X141774185Y-52396846D01*
X141790810Y-52376213D01*
X141918642Y-52248380D01*
X141944130Y-52230300D01*
X141943624Y-52229495D01*
X141949522Y-52225789D01*
X142102262Y-52129816D01*
X142229816Y-52002262D01*
X142325789Y-51849522D01*
X142385368Y-51679255D01*
X142393929Y-51603263D01*
X142420994Y-51538853D01*
X142478588Y-51499297D01*
X142503254Y-51493930D01*
X142579255Y-51485368D01*
X142749522Y-51425789D01*
X142902262Y-51329816D01*
X142902266Y-51329811D01*
X142907122Y-51325940D01*
X142971809Y-51299532D01*
X142984435Y-51298887D01*
X149576000Y-51298887D01*
X149643039Y-51318572D01*
G37*
%TD.AperFunction*%
%TD*%
%TA.AperFunction,Conductor*%
%TO.N,/ADC4*%
G36*
X161527608Y-51204956D02*
G01*
X161580590Y-51222171D01*
X161759449Y-51250500D01*
X161759454Y-51250500D01*
X162540551Y-51250500D01*
X162719409Y-51222171D01*
X162772392Y-51204956D01*
X162810710Y-51198887D01*
X165213364Y-51198887D01*
X165265430Y-51210348D01*
X165279357Y-51216791D01*
X165295099Y-51224074D01*
X165629122Y-51336619D01*
X165973355Y-51412391D01*
X165989404Y-51414136D01*
X166053921Y-51440950D01*
X166093701Y-51498389D01*
X166100000Y-51537409D01*
X166100000Y-60060236D01*
X166080315Y-60127275D01*
X166078039Y-60130692D01*
X163236971Y-64245343D01*
X163182682Y-64289325D01*
X163134932Y-64298887D01*
X160767698Y-64298887D01*
X160700659Y-64279202D01*
X160663392Y-64241941D01*
X158019694Y-60129522D01*
X158000000Y-60062485D01*
X158000000Y-51322887D01*
X158019685Y-51255848D01*
X158072489Y-51210093D01*
X158124000Y-51198887D01*
X161489290Y-51198887D01*
X161527608Y-51204956D01*
G37*
%TD.AperFunction*%
%TD*%
M02*
