%TF.GenerationSoftware,KiCad,Pcbnew,8.0.6-8.0.6-0~ubuntu24.04.1*%
%TF.CreationDate,2024-11-09T12:08:18+01:00*%
%TF.ProjectId,NIMH-battery-charger,4e494d48-2d62-4617-9474-6572792d6368,rev?*%
%TF.SameCoordinates,Original*%
%TF.FileFunction,Soldermask,Top*%
%TF.FilePolarity,Negative*%
%FSLAX46Y46*%
G04 Gerber Fmt 4.6, Leading zero omitted, Abs format (unit mm)*
G04 Created by KiCad (PCBNEW 8.0.6-8.0.6-0~ubuntu24.04.1) date 2024-11-09 12:08:18*
%MOMM*%
%LPD*%
G01*
G04 APERTURE LIST*
G04 Aperture macros list*
%AMRoundRect*
0 Rectangle with rounded corners*
0 $1 Rounding radius*
0 $2 $3 $4 $5 $6 $7 $8 $9 X,Y pos of 4 corners*
0 Add a 4 corners polygon primitive as box body*
4,1,4,$2,$3,$4,$5,$6,$7,$8,$9,$2,$3,0*
0 Add four circle primitives for the rounded corners*
1,1,$1+$1,$2,$3*
1,1,$1+$1,$4,$5*
1,1,$1+$1,$6,$7*
1,1,$1+$1,$8,$9*
0 Add four rect primitives between the rounded corners*
20,1,$1+$1,$2,$3,$4,$5,0*
20,1,$1+$1,$4,$5,$6,$7,0*
20,1,$1+$1,$6,$7,$8,$9,0*
20,1,$1+$1,$8,$9,$2,$3,0*%
G04 Aperture macros list end*
%ADD10C,3.600000*%
%ADD11C,5.500000*%
%ADD12RoundRect,2.000000X-2.000000X-2.500000X2.000000X-2.500000X2.000000X2.500000X-2.000000X2.500000X0*%
%ADD13C,3.000000*%
%ADD14O,1.100000X2.100000*%
%ADD15O,1.100000X1.700000*%
%ADD16O,2.400000X1.800000*%
G04 APERTURE END LIST*
D10*
%TO.C,H4*%
X153900000Y-119300000D03*
D11*
X153900000Y-119300000D03*
%TD*%
D10*
%TO.C,H3*%
X121200000Y-119200000D03*
D11*
X121200000Y-119200000D03*
%TD*%
D10*
%TO.C,H2*%
X166500000Y-48200000D03*
D11*
X166500000Y-48200000D03*
%TD*%
D10*
%TO.C,H1*%
X108500000Y-48200000D03*
D11*
X108500000Y-48200000D03*
%TD*%
D10*
%TO.C,BT2*%
X129400000Y-70200000D03*
X129400000Y-104200000D03*
D12*
X129400000Y-55700000D03*
D13*
X129400000Y-62700000D03*
X129400000Y-111700000D03*
D12*
X129400000Y-118700000D03*
%TD*%
D10*
%TO.C,BT4*%
X162000000Y-70195000D03*
X162000000Y-104195000D03*
D12*
X162000000Y-55695000D03*
D13*
X162000000Y-62695000D03*
X162000000Y-111695000D03*
D12*
X162000000Y-118695000D03*
%TD*%
D10*
%TO.C,BT3*%
X145700000Y-70195000D03*
X145700000Y-104195000D03*
D12*
X145700000Y-55695000D03*
D13*
X145700000Y-62695000D03*
X145700000Y-111695000D03*
D12*
X145700000Y-118695000D03*
%TD*%
D10*
%TO.C,BT1*%
X113075000Y-70195000D03*
X113075000Y-104195000D03*
D12*
X113075000Y-55695000D03*
D13*
X113075000Y-62695000D03*
X113075000Y-111695000D03*
D12*
X113075000Y-118695000D03*
%TD*%
D14*
%TO.C,J7*%
X131950000Y-45620000D03*
D15*
X131950000Y-49620000D03*
D14*
X143230000Y-45610000D03*
D15*
X143230000Y-49620000D03*
%TD*%
D16*
%TO.C,D7*%
X137250000Y-54850000D03*
%TD*%
%TO.C,D6*%
X129450000Y-50100000D03*
%TD*%
%TO.C,D5*%
X113320000Y-50070000D03*
%TD*%
%TO.C,D8*%
X145700000Y-50100000D03*
%TD*%
%TO.C,D10*%
X162150000Y-50100000D03*
%TD*%
M02*
