%TF.GenerationSoftware,KiCad,Pcbnew,8.0.6-8.0.6-0~ubuntu24.04.1*%
%TF.CreationDate,2024-11-09T12:08:18+01:00*%
%TF.ProjectId,NIMH-battery-charger,4e494d48-2d62-4617-9474-6572792d6368,rev?*%
%TF.SameCoordinates,Original*%
%TF.FileFunction,Soldermask,Bot*%
%TF.FilePolarity,Negative*%
%FSLAX46Y46*%
G04 Gerber Fmt 4.6, Leading zero omitted, Abs format (unit mm)*
G04 Created by KiCad (PCBNEW 8.0.6-8.0.6-0~ubuntu24.04.1) date 2024-11-09 12:08:18*
%MOMM*%
%LPD*%
G01*
G04 APERTURE LIST*
G04 Aperture macros list*
%AMRoundRect*
0 Rectangle with rounded corners*
0 $1 Rounding radius*
0 $2 $3 $4 $5 $6 $7 $8 $9 X,Y pos of 4 corners*
0 Add a 4 corners polygon primitive as box body*
4,1,4,$2,$3,$4,$5,$6,$7,$8,$9,$2,$3,0*
0 Add four circle primitives for the rounded corners*
1,1,$1+$1,$2,$3*
1,1,$1+$1,$4,$5*
1,1,$1+$1,$6,$7*
1,1,$1+$1,$8,$9*
0 Add four rect primitives between the rounded corners*
20,1,$1+$1,$2,$3,$4,$5,0*
20,1,$1+$1,$4,$5,$6,$7,0*
20,1,$1+$1,$6,$7,$8,$9,0*
20,1,$1+$1,$8,$9,$2,$3,0*%
G04 Aperture macros list end*
%ADD10C,3.600000*%
%ADD11C,1.500000*%
%ADD12C,3.000000*%
%ADD13RoundRect,0.250000X-0.450000X0.350000X-0.450000X-0.350000X0.450000X-0.350000X0.450000X0.350000X0*%
%ADD14RoundRect,0.070000X-0.280000X-0.530000X0.280000X-0.530000X0.280000X0.530000X-0.280000X0.530000X0*%
%ADD15RoundRect,0.076000X-0.304000X-0.524000X0.304000X-0.524000X0.304000X0.524000X-0.304000X0.524000X0*%
%ADD16RoundRect,0.080000X-0.320000X-0.520000X0.320000X-0.520000X0.320000X0.520000X-0.320000X0.520000X0*%
%ADD17O,1.100000X2.100000*%
%ADD18O,1.100000X1.700000*%
%ADD19O,2.400000X1.800000*%
%ADD20RoundRect,0.190000X0.685000X-0.285000X0.685000X0.285000X-0.685000X0.285000X-0.685000X-0.285000X0*%
%ADD21RoundRect,0.250000X0.337500X0.475000X-0.337500X0.475000X-0.337500X-0.475000X0.337500X-0.475000X0*%
%ADD22RoundRect,0.250000X0.450000X-0.350000X0.450000X0.350000X-0.450000X0.350000X-0.450000X-0.350000X0*%
%ADD23RoundRect,0.250000X0.250000X-0.250000X0.250000X0.250000X-0.250000X0.250000X-0.250000X-0.250000X0*%
%ADD24O,10.000000X5.000000*%
%ADD25RoundRect,0.250000X-0.475000X0.337500X-0.475000X-0.337500X0.475000X-0.337500X0.475000X0.337500X0*%
%ADD26RoundRect,0.050000X-0.050000X0.375000X-0.050000X-0.375000X0.050000X-0.375000X0.050000X0.375000X0*%
%ADD27RoundRect,0.050000X-0.375000X0.050000X-0.375000X-0.050000X0.375000X-0.050000X0.375000X0.050000X0*%
%ADD28R,1.650000X1.650000*%
%ADD29R,1.000000X2.500000*%
G04 APERTURE END LIST*
D10*
%TO.C,H4*%
X153900000Y-119300000D03*
%TD*%
%TO.C,H3*%
X121200000Y-119200000D03*
%TD*%
%TO.C,H2*%
X166500000Y-48200000D03*
%TD*%
%TO.C,H1*%
X108500000Y-48200000D03*
%TD*%
D11*
%TO.C,TP8*%
X127000000Y-75000000D03*
%TD*%
%TO.C,TP7*%
X127000000Y-79000000D03*
%TD*%
D10*
%TO.C,BT2*%
X129400000Y-70200000D03*
X129400000Y-104200000D03*
D12*
X129400000Y-62700000D03*
X129400000Y-111700000D03*
%TD*%
D10*
%TO.C,BT4*%
X162000000Y-70195000D03*
X162000000Y-104195000D03*
D12*
X162000000Y-62695000D03*
X162000000Y-111695000D03*
%TD*%
D10*
%TO.C,BT3*%
X145700000Y-70195000D03*
X145700000Y-104195000D03*
D12*
X145700000Y-62695000D03*
X145700000Y-111695000D03*
%TD*%
D10*
%TO.C,BT1*%
X113075000Y-70195000D03*
X113075000Y-104195000D03*
D12*
X113075000Y-62695000D03*
X113075000Y-111695000D03*
%TD*%
D13*
%TO.C,R2*%
X123100000Y-52900000D03*
X123100000Y-54900000D03*
%TD*%
%TO.C,R1*%
X119975000Y-52900000D03*
X119975000Y-54900000D03*
%TD*%
D14*
%TO.C,J7*%
X137080000Y-50580000D03*
D15*
X139110000Y-50580000D03*
D16*
X140340000Y-50580000D03*
D14*
X138080000Y-50580000D03*
D15*
X136050000Y-50580000D03*
D16*
X134830000Y-50580000D03*
D17*
X131950000Y-45620000D03*
D18*
X131950000Y-49620000D03*
D17*
X143230000Y-45610000D03*
D18*
X143230000Y-49620000D03*
%TD*%
D19*
%TO.C,D7*%
X137250000Y-54850000D03*
D20*
X137250000Y-56400000D03*
X137250000Y-53300000D03*
%TD*%
D11*
%TO.C,TP3*%
X141000000Y-68200000D03*
%TD*%
D13*
%TO.C,R8*%
X134000000Y-53950000D03*
X134000000Y-55950000D03*
%TD*%
%TO.C,R5*%
X155550000Y-52850000D03*
X155550000Y-54850000D03*
%TD*%
D21*
%TO.C,C1*%
X138537500Y-60800000D03*
X136462500Y-60800000D03*
%TD*%
D22*
%TO.C,R6*%
X117650000Y-50950000D03*
X117650000Y-48950000D03*
%TD*%
D23*
%TO.C,D1*%
X119975000Y-51000000D03*
X119975000Y-48500000D03*
%TD*%
%TO.C,D3*%
X152187500Y-51053500D03*
X152187500Y-48553500D03*
%TD*%
D24*
%TO.C,J3*%
X164500000Y-58000000D03*
%TD*%
D19*
%TO.C,D6*%
X129450000Y-50100000D03*
D20*
X129450000Y-51650000D03*
X129450000Y-48550000D03*
%TD*%
D24*
%TO.C,J5*%
X110500000Y-57800000D03*
%TD*%
D13*
%TO.C,R4*%
X152175000Y-52850000D03*
X152175000Y-54850000D03*
%TD*%
D25*
%TO.C,C2*%
X143550000Y-53900000D03*
X143550000Y-55975000D03*
%TD*%
D24*
%TO.C,J4*%
X164500000Y-116700000D03*
%TD*%
D19*
%TO.C,D5*%
X113320000Y-50070000D03*
D20*
X113320000Y-51620000D03*
X113320000Y-48520000D03*
%TD*%
D23*
%TO.C,D9*%
X140675000Y-56175000D03*
X140675000Y-53675000D03*
%TD*%
D19*
%TO.C,D8*%
X145700000Y-50100000D03*
D20*
X145700000Y-51650000D03*
X145700000Y-48550000D03*
%TD*%
D11*
%TO.C,TP4*%
X145700000Y-74600000D03*
%TD*%
D26*
%TO.C,U1*%
X136690000Y-65040000D03*
X137090000Y-65040000D03*
X137490000Y-65040000D03*
X137890000Y-65040000D03*
X138290000Y-65040000D03*
D27*
X138940000Y-65690000D03*
X138940000Y-66090000D03*
X138940000Y-66490000D03*
X138940000Y-66890000D03*
X138940000Y-67290000D03*
D26*
X138290000Y-67940000D03*
X137890000Y-67940000D03*
X137490000Y-67940000D03*
X137090000Y-67940000D03*
X136690000Y-67940000D03*
D27*
X136040000Y-67290000D03*
X136040000Y-66890000D03*
X136040000Y-66490000D03*
X136040000Y-66090000D03*
X136040000Y-65690000D03*
D28*
X137490000Y-66490000D03*
%TD*%
D11*
%TO.C,TP6*%
X145700000Y-81600000D03*
%TD*%
D23*
%TO.C,D2*%
X123050000Y-51000000D03*
X123050000Y-48500000D03*
%TD*%
D24*
%TO.C,J6*%
X110500000Y-116000000D03*
%TD*%
D22*
%TO.C,R9*%
X149950000Y-50750000D03*
X149950000Y-48750000D03*
%TD*%
D20*
%TO.C,D10*%
X162150000Y-48550000D03*
X162150000Y-51650000D03*
D19*
X162150000Y-50100000D03*
%TD*%
D23*
%TO.C,D4*%
X155562500Y-51028500D03*
X155562500Y-48528500D03*
%TD*%
D11*
%TO.C,TP1*%
X142800000Y-63000000D03*
%TD*%
%TO.C,TP5*%
X145700000Y-78100000D03*
%TD*%
D22*
%TO.C,R7*%
X125350000Y-50700000D03*
X125350000Y-48700000D03*
%TD*%
D11*
%TO.C,TP2*%
X142800000Y-65700000D03*
%TD*%
D22*
%TO.C,R10*%
X157850000Y-50850000D03*
X157850000Y-48850000D03*
%TD*%
D29*
%TO.C,J1*%
X134760000Y-76975000D03*
X137300000Y-76975000D03*
X139840000Y-76975000D03*
%TD*%
M02*
